--------------------- MIDI debug dump ---------------------
MThd  len:6  format:1 ntrks:14  ticks/qtr:96
MTrk  len:246
        0       meta  type:58  len:4  tsig:  4/4 metr:36 32nds:8
        0       meta  type:58  len:4  tsig:  4/4 metr:36 32nds:8
        0       meta  type:51  len:3  tempo:416666 (144bpm)
        0       meta  type:3  len:0  track:""
        0       midi  ch:0  pitchwheel:8192
        0       midi  ch:0  note on  key:45  vel:100
        384     midi  ch:0  pitchwheel:8192
        384     midi  ch:0  pitchwheel:8192
        384     midi  ch:0  pitchwheel:8192
        384     midi  ch:0  pitchwheel:8192
        0       midi  ch:0  pitchwheel:4096
        0       midi  ch:0  note off  key:45  vel:0
        0       midi  ch:0  note on  key:45  vel:100
        768     midi  ch:0  pitchwheel:4096
        0       midi  ch:0  pitchwheel:8192
        384     midi  ch:0  pitchwheel:8192
        384     midi  ch:0  pitchwheel:8192
        0       midi  ch:0  note off  key:45  vel:0
        0       midi  ch:0  note on  key:45  vel:100
        384     midi  ch:0  pitchwheel:8192
        384     midi  ch:0  pitchwheel:8192
        384     midi  ch:0  pitchwheel:8192
        384     midi  ch:0  pitchwheel:8192
        0       midi  ch:0  pitchwheel:4096
        0       midi  ch:0  note off  key:45  vel:0
        0       midi  ch:0  note on  key:45  vel:100
        768     midi  ch:0  pitchwheel:4096
        0       midi  ch:0  pitchwheel:8192
        384     midi  ch:0  pitchwheel:8192
        384     midi  ch:0  pitchwheel:8192
        0       midi  ch:0  note off  key:45  vel:0
        0       midi  ch:0  note on  key:45  vel:100
        384     midi  ch:0  pitchwheel:8192
        384     midi  ch:0  pitchwheel:8192
        384     midi  ch:0  pitchwheel:8192
        384     midi  ch:0  pitchwheel:8192
        0       midi  ch:0  pitchwheel:4096
        0       midi  ch:0  note off  key:45  vel:0
        0       midi  ch:0  note on  key:45  vel:100
        768     midi  ch:0  pitchwheel:4096
        0       midi  ch:0  pitchwheel:8192
        384     midi  ch:0  pitchwheel:8192
        384     midi  ch:0  note off  key:45  vel:0
        0       midi  ch:0  note on  key:45  vel:100
        1536    midi  ch:0  note off  key:45  vel:0
        0       midi  ch:0  note on  key:45  vel:100
        1536    midi  ch:0  note off  key:45  vel:0
        0       midi  ch:0  note on  key:45  vel:100
        1536    midi  ch:0  note off  key:45  vel:0
        0       midi  ch:0  note on  key:45  vel:100
        1536    midi  ch:0  note off  key:45  vel:0
        47635   meta  type:2f  len:0  end
MTrk  len:6173
        0       meta  type:58  len:4  tsig:  4/4 metr:36 32nds:8
        0       meta  type:58  len:4  tsig:  4/4 metr:36 32nds:8
        0       meta  type:3  len:0  track:""
        3072    midi  ch:0  note on  key:69  vel:100
        24      midi  ch:0  note off  key:69  vel:0
        0       midi  ch:0  note on  key:72  vel:100
        24      midi  ch:0  note off  key:72  vel:0
        0       midi  ch:0  note on  key:76  vel:100
        24      midi  ch:0  note off  key:76  vel:0
        0       midi  ch:0  note on  key:81  vel:100
        24      midi  ch:0  note off  key:81  vel:0
        0       midi  ch:0  note on  key:84  vel:100
        24      midi  ch:0  note off  key:84  vel:0
        0       midi  ch:0  note on  key:88  vel:100
        24      midi  ch:0  note off  key:88  vel:0
        0       midi  ch:0  note on  key:93  vel:100
        24      midi  ch:0  note off  key:93  vel:0
        0       midi  ch:0  note on  key:96  vel:100
        24      midi  ch:0  note off  key:96  vel:0
        0       midi  ch:0  note on  key:100  vel:100
        24      midi  ch:0  note on  key:69  vel:100
        0       midi  ch:0  note off  key:100  vel:0
        24      midi  ch:0  note off  key:69  vel:0
        0       midi  ch:0  note on  key:72  vel:100
        24      midi  ch:0  note off  key:72  vel:0
        0       midi  ch:0  note on  key:76  vel:100
        24      midi  ch:0  note off  key:76  vel:0
        0       midi  ch:0  note on  key:81  vel:100
        24      midi  ch:0  note off  key:81  vel:0
        0       midi  ch:0  note on  key:84  vel:100
        24      midi  ch:0  note off  key:84  vel:0
        0       midi  ch:0  note on  key:88  vel:100
        24      midi  ch:0  note off  key:88  vel:0
        0       midi  ch:0  note on  key:93  vel:100
        24      midi  ch:0  note off  key:93  vel:0
        0       midi  ch:0  note on  key:96  vel:100
        24      midi  ch:0  note off  key:96  vel:0
        0       midi  ch:0  note on  key:100  vel:100
        24      midi  ch:0  note on  key:69  vel:100
        0       midi  ch:0  note off  key:100  vel:0
        24      midi  ch:0  note off  key:69  vel:0
        0       midi  ch:0  note on  key:72  vel:100
        24      midi  ch:0  note off  key:72  vel:0
        0       midi  ch:0  note on  key:76  vel:100
        24      midi  ch:0  note off  key:76  vel:0
        0       midi  ch:0  note on  key:81  vel:100
        24      midi  ch:0  note off  key:81  vel:0
        0       midi  ch:0  note on  key:84  vel:100
        24      midi  ch:0  note off  key:84  vel:0
        0       midi  ch:0  note on  key:88  vel:100
        24      midi  ch:0  note off  key:88  vel:0
        0       midi  ch:0  note on  key:93  vel:100
        24      midi  ch:0  note off  key:93  vel:0
        0       midi  ch:0  note on  key:96  vel:100
        24      midi  ch:0  note off  key:96  vel:0
        0       midi  ch:0  note on  key:100  vel:100
        24      midi  ch:0  note on  key:69  vel:100
        0       midi  ch:0  note off  key:100  vel:0
        24      midi  ch:0  note off  key:69  vel:0
        0       midi  ch:0  note on  key:72  vel:100
        24      midi  ch:0  note off  key:72  vel:0
        0       midi  ch:0  note on  key:76  vel:100
        24      midi  ch:0  note off  key:76  vel:0
        0       midi  ch:0  note on  key:81  vel:100
        24      midi  ch:0  note off  key:81  vel:0
        0       midi  ch:0  note on  key:84  vel:100
        24      midi  ch:0  note on  key:69  vel:100
        0       midi  ch:0  note off  key:84  vel:0
        24      midi  ch:0  note off  key:69  vel:0
        0       midi  ch:0  note on  key:71  vel:100
        24      midi  ch:0  note off  key:71  vel:0
        0       midi  ch:0  note on  key:75  vel:100
        24      midi  ch:0  note off  key:75  vel:0
        0       midi  ch:0  note on  key:81  vel:100
        24      midi  ch:0  note off  key:81  vel:0
        0       midi  ch:0  note on  key:83  vel:100
        24      midi  ch:0  note off  key:83  vel:0
        0       midi  ch:0  note on  key:87  vel:100
        24      midi  ch:0  note off  key:87  vel:0
        0       midi  ch:0  note on  key:93  vel:100
        24      midi  ch:0  note off  key:93  vel:0
        0       midi  ch:0  note on  key:95  vel:100
        24      midi  ch:0  note off  key:95  vel:0
        0       midi  ch:0  note on  key:99  vel:100
        24      midi  ch:0  note on  key:69  vel:100
        0       midi  ch:0  note off  key:99  vel:0
        24      midi  ch:0  note off  key:69  vel:0
        0       midi  ch:0  note on  key:71  vel:100
        24      midi  ch:0  note off  key:71  vel:0
        0       midi  ch:0  note on  key:75  vel:100
        24      midi  ch:0  note off  key:75  vel:0
        0       midi  ch:0  note on  key:81  vel:100
        24      midi  ch:0  note off  key:81  vel:0
        0       midi  ch:0  note on  key:83  vel:100
        24      midi  ch:0  note off  key:83  vel:0
        0       midi  ch:0  note on  key:87  vel:100
        24      midi  ch:0  note off  key:87  vel:0
        0       midi  ch:0  note on  key:93  vel:100
        24      midi  ch:0  note off  key:93  vel:0
        0       midi  ch:0  note on  key:95  vel:100
        24      midi  ch:0  note off  key:95  vel:0
        0       midi  ch:0  note on  key:99  vel:100
        24      midi  ch:0  note on  key:69  vel:100
        0       midi  ch:0  note off  key:99  vel:0
        24      midi  ch:0  note off  key:69  vel:0
        0       midi  ch:0  note on  key:71  vel:100
        24      midi  ch:0  note off  key:71  vel:0
        0       midi  ch:0  note on  key:75  vel:100
        24      midi  ch:0  note off  key:75  vel:0
        0       midi  ch:0  note on  key:81  vel:100
        24      midi  ch:0  note off  key:81  vel:0
        0       midi  ch:0  note on  key:83  vel:100
        24      midi  ch:0  note off  key:83  vel:0
        0       midi  ch:0  note on  key:87  vel:100
        24      midi  ch:0  note off  key:87  vel:0
        0       midi  ch:0  note on  key:93  vel:100
        24      midi  ch:0  note off  key:93  vel:0
        0       midi  ch:0  note on  key:95  vel:100
        24      midi  ch:0  note off  key:95  vel:0
        0       midi  ch:0  note on  key:99  vel:100
        24      midi  ch:0  note on  key:69  vel:100
        0       midi  ch:0  note off  key:99  vel:0
        24      midi  ch:0  note off  key:69  vel:0
        0       midi  ch:0  note on  key:71  vel:100
        24      midi  ch:0  note off  key:71  vel:0
        0       midi  ch:0  note on  key:75  vel:100
        24      midi  ch:0  note off  key:75  vel:0
        0       midi  ch:0  note on  key:81  vel:100
        24      midi  ch:0  note off  key:81  vel:0
        0       midi  ch:0  note on  key:83  vel:100
        24      midi  ch:0  note on  key:68  vel:100
        0       midi  ch:0  note off  key:83  vel:0
        24      midi  ch:0  note off  key:68  vel:0
        0       midi  ch:0  note on  key:71  vel:100
        24      midi  ch:0  note off  key:71  vel:0
        0       midi  ch:0  note on  key:74  vel:100
        24      midi  ch:0  note off  key:74  vel:0
        0       midi  ch:0  note on  key:80  vel:100
        24      midi  ch:0  note off  key:80  vel:0
        0       midi  ch:0  note on  key:83  vel:100
        24      midi  ch:0  note off  key:83  vel:0
        0       midi  ch:0  note on  key:86  vel:100
        24      midi  ch:0  note off  key:86  vel:0
        0       midi  ch:0  note on  key:92  vel:100
        24      midi  ch:0  note off  key:92  vel:0
        0       midi  ch:0  note on  key:95  vel:100
        24      midi  ch:0  note off  key:95  vel:0
        0       midi  ch:0  note on  key:98  vel:100
        24      midi  ch:0  note on  key:68  vel:100
        0       midi  ch:0  note off  key:98  vel:0
        24      midi  ch:0  note off  key:68  vel:0
        0       midi  ch:0  note on  key:71  vel:100
        24      midi  ch:0  note off  key:71  vel:0
        0       midi  ch:0  note on  key:74  vel:100
        24      midi  ch:0  note off  key:74  vel:0
        0       midi  ch:0  note on  key:80  vel:100
        24      midi  ch:0  note off  key:80  vel:0
        0       midi  ch:0  note on  key:83  vel:100
        24      midi  ch:0  note off  key:83  vel:0
        0       midi  ch:0  note on  key:86  vel:100
        24      midi  ch:0  note off  key:86  vel:0
        0       midi  ch:0  note on  key:92  vel:100
        24      midi  ch:0  note off  key:92  vel:0
        0       midi  ch:0  note on  key:95  vel:100
        24      midi  ch:0  note off  key:95  vel:0
        0       midi  ch:0  note on  key:98  vel:100
        24      midi  ch:0  note on  key:68  vel:100
        0       midi  ch:0  note off  key:98  vel:0
        24      midi  ch:0  note off  key:68  vel:0
        0       midi  ch:0  note on  key:71  vel:100
        24      midi  ch:0  note off  key:71  vel:0
        0       midi  ch:0  note on  key:74  vel:100
        24      midi  ch:0  note off  key:74  vel:0
        0       midi  ch:0  note on  key:80  vel:100
        24      midi  ch:0  note off  key:80  vel:0
        0       midi  ch:0  note on  key:83  vel:100
        24      midi  ch:0  note off  key:83  vel:0
        0       midi  ch:0  note on  key:86  vel:100
        24      midi  ch:0  note off  key:86  vel:0
        0       midi  ch:0  note on  key:92  vel:100
        24      midi  ch:0  note off  key:92  vel:0
        0       midi  ch:0  note on  key:95  vel:100
        24      midi  ch:0  note off  key:95  vel:0
        0       midi  ch:0  note on  key:98  vel:100
        24      midi  ch:0  note on  key:68  vel:100
        0       midi  ch:0  note off  key:98  vel:0
        24      midi  ch:0  note off  key:68  vel:0
        0       midi  ch:0  note on  key:71  vel:100
        24      midi  ch:0  note off  key:71  vel:0
        0       midi  ch:0  note on  key:74  vel:100
        24      midi  ch:0  note off  key:74  vel:0
        0       midi  ch:0  note on  key:80  vel:100
        24      midi  ch:0  note off  key:80  vel:0
        0       midi  ch:0  note on  key:83  vel:100
        24      midi  ch:0  note on  key:69  vel:100
        0       midi  ch:0  note off  key:83  vel:0
        24      midi  ch:0  note off  key:69  vel:0
        0       midi  ch:0  note on  key:72  vel:100
        24      midi  ch:0  note off  key:72  vel:0
        0       midi  ch:0  note on  key:76  vel:100
        24      midi  ch:0  note off  key:76  vel:0
        0       midi  ch:0  note on  key:81  vel:100
        24      midi  ch:0  note off  key:81  vel:0
        0       midi  ch:0  note on  key:84  vel:100
        24      midi  ch:0  note off  key:84  vel:0
        0       midi  ch:0  note on  key:88  vel:100
        24      midi  ch:0  note off  key:88  vel:0
        0       midi  ch:0  note on  key:93  vel:100
        24      midi  ch:0  note off  key:93  vel:0
        0       midi  ch:0  note on  key:96  vel:100
        24      midi  ch:0  note off  key:96  vel:0
        0       midi  ch:0  note on  key:100  vel:100
        24      midi  ch:0  note on  key:69  vel:100
        0       midi  ch:0  note off  key:100  vel:0
        24      midi  ch:0  note off  key:69  vel:0
        0       midi  ch:0  note on  key:72  vel:100
        24      midi  ch:0  note off  key:72  vel:0
        0       midi  ch:0  note on  key:76  vel:100
        24      midi  ch:0  note off  key:76  vel:0
        0       midi  ch:0  note on  key:81  vel:100
        24      midi  ch:0  note off  key:81  vel:0
        0       midi  ch:0  note on  key:84  vel:100
        24      midi  ch:0  note off  key:84  vel:0
        0       midi  ch:0  note on  key:88  vel:100
        24      midi  ch:0  note off  key:88  vel:0
        0       midi  ch:0  note on  key:93  vel:100
        24      midi  ch:0  note off  key:93  vel:0
        0       midi  ch:0  note on  key:96  vel:100
        24      midi  ch:0  note off  key:96  vel:0
        0       midi  ch:0  note on  key:100  vel:100
        24      midi  ch:0  note on  key:69  vel:100
        0       midi  ch:0  note off  key:100  vel:0
        24      midi  ch:0  note off  key:69  vel:0
        0       midi  ch:0  note on  key:72  vel:100
        24      midi  ch:0  note off  key:72  vel:0
        0       midi  ch:0  note on  key:76  vel:100
        24      midi  ch:0  note off  key:76  vel:0
        0       midi  ch:0  note on  key:81  vel:100
        24      midi  ch:0  note off  key:81  vel:0
        0       midi  ch:0  note on  key:84  vel:100
        24      midi  ch:0  note off  key:84  vel:0
        0       midi  ch:0  note on  key:88  vel:100
        24      midi  ch:0  note off  key:88  vel:0
        0       midi  ch:0  note on  key:93  vel:100
        24      midi  ch:0  note off  key:93  vel:0
        0       midi  ch:0  note on  key:96  vel:100
        24      midi  ch:0  note off  key:96  vel:0
        0       midi  ch:0  note on  key:100  vel:100
        24      midi  ch:0  note on  key:69  vel:100
        0       midi  ch:0  note off  key:100  vel:0
        24      midi  ch:0  note off  key:69  vel:0
        0       midi  ch:0  note on  key:72  vel:100
        24      midi  ch:0  note off  key:72  vel:0
        0       midi  ch:0  note on  key:76  vel:100
        24      midi  ch:0  note off  key:76  vel:0
        0       midi  ch:0  note on  key:81  vel:100
        24      midi  ch:0  note off  key:81  vel:0
        0       midi  ch:0  note on  key:84  vel:100
        24      midi  ch:0  note on  key:69  vel:100
        0       midi  ch:0  note off  key:84  vel:0
        24      midi  ch:0  note off  key:69  vel:0
        0       midi  ch:0  note on  key:72  vel:100
        24      midi  ch:0  note off  key:72  vel:0
        0       midi  ch:0  note on  key:76  vel:100
        24      midi  ch:0  note off  key:76  vel:0
        0       midi  ch:0  note on  key:81  vel:100
        24      midi  ch:0  note off  key:81  vel:0
        0       midi  ch:0  note on  key:84  vel:100
        24      midi  ch:0  note off  key:84  vel:0
        0       midi  ch:0  note on  key:88  vel:100
        24      midi  ch:0  note off  key:88  vel:0
        0       midi  ch:0  note on  key:93  vel:100
        24      midi  ch:0  note off  key:93  vel:0
        0       midi  ch:0  note on  key:96  vel:100
        24      midi  ch:0  note off  key:96  vel:0
        0       midi  ch:0  note on  key:100  vel:100
        24      midi  ch:0  note on  key:69  vel:100
        0       midi  ch:0  note off  key:100  vel:0
        24      midi  ch:0  note off  key:69  vel:0
        0       midi  ch:0  note on  key:72  vel:100
        24      midi  ch:0  note off  key:72  vel:0
        0       midi  ch:0  note on  key:76  vel:100
        24      midi  ch:0  note off  key:76  vel:0
        0       midi  ch:0  note on  key:81  vel:100
        24      midi  ch:0  note off  key:81  vel:0
        0       midi  ch:0  note on  key:84  vel:100
        24      midi  ch:0  note off  key:84  vel:0
        0       midi  ch:0  note on  key:88  vel:100
        24      midi  ch:0  note off  key:88  vel:0
        0       midi  ch:0  note on  key:93  vel:100
        24      midi  ch:0  note off  key:93  vel:0
        0       midi  ch:0  note on  key:96  vel:100
        24      midi  ch:0  note off  key:96  vel:0
        0       midi  ch:0  note on  key:100  vel:100
        24      midi  ch:0  note on  key:69  vel:100
        0       midi  ch:0  note off  key:100  vel:0
        24      midi  ch:0  note off  key:69  vel:0
        0       midi  ch:0  note on  key:72  vel:100
        24      midi  ch:0  note off  key:72  vel:0
        0       midi  ch:0  note on  key:76  vel:100
        24      midi  ch:0  note off  key:76  vel:0
        0       midi  ch:0  note on  key:81  vel:100
        24      midi  ch:0  note off  key:81  vel:0
        0       midi  ch:0  note on  key:84  vel:100
        24      midi  ch:0  note off  key:84  vel:0
        0       midi  ch:0  note on  key:88  vel:100
        24      midi  ch:0  note off  key:88  vel:0
        0       midi  ch:0  note on  key:93  vel:100
        24      midi  ch:0  note off  key:93  vel:0
        0       midi  ch:0  note on  key:96  vel:100
        24      midi  ch:0  note off  key:96  vel:0
        0       midi  ch:0  note on  key:100  vel:100
        24      midi  ch:0  note on  key:69  vel:100
        0       midi  ch:0  note off  key:100  vel:0
        24      midi  ch:0  note off  key:69  vel:0
        0       midi  ch:0  note on  key:72  vel:100
        24      midi  ch:0  note off  key:72  vel:0
        0       midi  ch:0  note on  key:76  vel:100
        24      midi  ch:0  note off  key:76  vel:0
        0       midi  ch:0  note on  key:81  vel:100
        24      midi  ch:0  note off  key:81  vel:0
        0       midi  ch:0  note on  key:84  vel:100
        24      midi  ch:0  note on  key:69  vel:100
        0       midi  ch:0  note off  key:84  vel:0
        24      midi  ch:0  note off  key:69  vel:0
        0       midi  ch:0  note on  key:71  vel:100
        24      midi  ch:0  note off  key:71  vel:0
        0       midi  ch:0  note on  key:75  vel:100
        24      midi  ch:0  note off  key:75  vel:0
        0       midi  ch:0  note on  key:81  vel:100
        24      midi  ch:0  note off  key:81  vel:0
        0       midi  ch:0  note on  key:83  vel:100
        24      midi  ch:0  note off  key:83  vel:0
        0       midi  ch:0  note on  key:87  vel:100
        24      midi  ch:0  note off  key:87  vel:0
        0       midi  ch:0  note on  key:93  vel:100
        24      midi  ch:0  note off  key:93  vel:0
        0       midi  ch:0  note on  key:95  vel:100
        24      midi  ch:0  note off  key:95  vel:0
        0       midi  ch:0  note on  key:99  vel:100
        24      midi  ch:0  note on  key:69  vel:100
        0       midi  ch:0  note off  key:99  vel:0
        24      midi  ch:0  note off  key:69  vel:0
        0       midi  ch:0  note on  key:71  vel:100
        24      midi  ch:0  note off  key:71  vel:0
        0       midi  ch:0  note on  key:75  vel:100
        24      midi  ch:0  note off  key:75  vel:0
        0       midi  ch:0  note on  key:81  vel:100
        24      midi  ch:0  note off  key:81  vel:0
        0       midi  ch:0  note on  key:83  vel:100
        24      midi  ch:0  note off  key:83  vel:0
        0       midi  ch:0  note on  key:87  vel:100
        24      midi  ch:0  note off  key:87  vel:0
        0       midi  ch:0  note on  key:93  vel:100
        24      midi  ch:0  note off  key:93  vel:0
        0       midi  ch:0  note on  key:95  vel:100
        24      midi  ch:0  note off  key:95  vel:0
        0       midi  ch:0  note on  key:99  vel:100
        24      midi  ch:0  note on  key:69  vel:100
        0       midi  ch:0  note off  key:99  vel:0
        24      midi  ch:0  note off  key:69  vel:0
        0       midi  ch:0  note on  key:71  vel:100
        24      midi  ch:0  note off  key:71  vel:0
        0       midi  ch:0  note on  key:75  vel:100
        24      midi  ch:0  note off  key:75  vel:0
        0       midi  ch:0  note on  key:81  vel:100
        24      midi  ch:0  note off  key:81  vel:0
        0       midi  ch:0  note on  key:83  vel:100
        24      midi  ch:0  note off  key:83  vel:0
        0       midi  ch:0  note on  key:87  vel:100
        24      midi  ch:0  note off  key:87  vel:0
        0       midi  ch:0  note on  key:93  vel:100
        24      midi  ch:0  note off  key:93  vel:0
        0       midi  ch:0  note on  key:95  vel:100
        24      midi  ch:0  note off  key:95  vel:0
        0       midi  ch:0  note on  key:99  vel:100
        24      midi  ch:0  note on  key:69  vel:100
        0       midi  ch:0  note off  key:99  vel:0
        24      midi  ch:0  note off  key:69  vel:0
        0       midi  ch:0  note on  key:71  vel:100
        24      midi  ch:0  note off  key:71  vel:0
        0       midi  ch:0  note on  key:75  vel:100
        24      midi  ch:0  note off  key:75  vel:0
        0       midi  ch:0  note on  key:81  vel:100
        24      midi  ch:0  note off  key:81  vel:0
        0       midi  ch:0  note on  key:83  vel:100
        24      midi  ch:0  note on  key:68  vel:100
        0       midi  ch:0  note off  key:83  vel:0
        24      midi  ch:0  note off  key:68  vel:0
        0       midi  ch:0  note on  key:71  vel:100
        24      midi  ch:0  note off  key:71  vel:0
        0       midi  ch:0  note on  key:74  vel:100
        24      midi  ch:0  note off  key:74  vel:0
        0       midi  ch:0  note on  key:80  vel:100
        24      midi  ch:0  note off  key:80  vel:0
        0       midi  ch:0  note on  key:83  vel:100
        24      midi  ch:0  note off  key:83  vel:0
        0       midi  ch:0  note on  key:86  vel:100
        24      midi  ch:0  note off  key:86  vel:0
        0       midi  ch:0  note on  key:92  vel:100
        24      midi  ch:0  note off  key:92  vel:0
        0       midi  ch:0  note on  key:95  vel:100
        24      midi  ch:0  note off  key:95  vel:0
        0       midi  ch:0  note on  key:98  vel:100
        24      midi  ch:0  note on  key:68  vel:100
        0       midi  ch:0  note off  key:98  vel:0
        24      midi  ch:0  note off  key:68  vel:0
        0       midi  ch:0  note on  key:71  vel:100
        24      midi  ch:0  note off  key:71  vel:0
        0       midi  ch:0  note on  key:74  vel:100
        24      midi  ch:0  note off  key:74  vel:0
        0       midi  ch:0  note on  key:80  vel:100
        24      midi  ch:0  note off  key:80  vel:0
        0       midi  ch:0  note on  key:83  vel:100
        24      midi  ch:0  note off  key:83  vel:0
        0       midi  ch:0  note on  key:86  vel:100
        24      midi  ch:0  note off  key:86  vel:0
        0       midi  ch:0  note on  key:92  vel:100
        24      midi  ch:0  note off  key:92  vel:0
        0       midi  ch:0  note on  key:95  vel:100
        24      midi  ch:0  note off  key:95  vel:0
        0       midi  ch:0  note on  key:98  vel:100
        24      midi  ch:0  note on  key:68  vel:100
        0       midi  ch:0  note off  key:98  vel:0
        24      midi  ch:0  note off  key:68  vel:0
        0       midi  ch:0  note on  key:71  vel:100
        24      midi  ch:0  note off  key:71  vel:0
        0       midi  ch:0  note on  key:74  vel:100
        24      midi  ch:0  note off  key:74  vel:0
        0       midi  ch:0  note on  key:80  vel:100
        24      midi  ch:0  note off  key:80  vel:0
        0       midi  ch:0  note on  key:83  vel:100
        24      midi  ch:0  note off  key:83  vel:0
        0       midi  ch:0  note on  key:86  vel:100
        24      midi  ch:0  note off  key:86  vel:0
        0       midi  ch:0  note on  key:92  vel:100
        24      midi  ch:0  note off  key:92  vel:0
        0       midi  ch:0  note on  key:95  vel:100
        24      midi  ch:0  note off  key:95  vel:0
        0       midi  ch:0  note on  key:98  vel:100
        24      midi  ch:0  note on  key:68  vel:100
        0       midi  ch:0  note off  key:98  vel:0
        24      midi  ch:0  note off  key:68  vel:0
        0       midi  ch:0  note on  key:71  vel:100
        24      midi  ch:0  note off  key:71  vel:0
        0       midi  ch:0  note on  key:74  vel:100
        24      midi  ch:0  note off  key:74  vel:0
        0       midi  ch:0  note on  key:80  vel:100
        24      midi  ch:0  note off  key:80  vel:0
        0       midi  ch:0  note on  key:83  vel:100
        24      midi  ch:0  note on  key:69  vel:100
        0       midi  ch:0  note off  key:83  vel:0
        24      midi  ch:0  note off  key:69  vel:0
        0       midi  ch:0  note on  key:72  vel:100
        24      midi  ch:0  note off  key:72  vel:0
        0       midi  ch:0  note on  key:76  vel:100
        24      midi  ch:0  note off  key:76  vel:0
        0       midi  ch:0  note on  key:81  vel:100
        24      midi  ch:0  note off  key:81  vel:0
        0       midi  ch:0  note on  key:84  vel:100
        24      midi  ch:0  note off  key:84  vel:0
        0       midi  ch:0  note on  key:88  vel:100
        24      midi  ch:0  note off  key:88  vel:0
        0       midi  ch:0  note on  key:93  vel:100
        24      midi  ch:0  note off  key:93  vel:0
        0       midi  ch:0  note on  key:96  vel:100
        24      midi  ch:0  note off  key:96  vel:0
        0       midi  ch:0  note on  key:100  vel:100
        24      midi  ch:0  note on  key:69  vel:100
        0       midi  ch:0  note off  key:100  vel:0
        24      midi  ch:0  note off  key:69  vel:0
        0       midi  ch:0  note on  key:72  vel:100
        24      midi  ch:0  note off  key:72  vel:0
        0       midi  ch:0  note on  key:76  vel:100
        24      midi  ch:0  note off  key:76  vel:0
        0       midi  ch:0  note on  key:81  vel:100
        24      midi  ch:0  note off  key:81  vel:0
        0       midi  ch:0  note on  key:84  vel:100
        24      midi  ch:0  note off  key:84  vel:0
        0       midi  ch:0  note on  key:88  vel:100
        24      midi  ch:0  note off  key:88  vel:0
        0       midi  ch:0  note on  key:93  vel:100
        24      midi  ch:0  note off  key:93  vel:0
        0       midi  ch:0  note on  key:96  vel:100
        24      midi  ch:0  note off  key:96  vel:0
        0       midi  ch:0  note on  key:100  vel:100
        24      midi  ch:0  note on  key:69  vel:100
        0       midi  ch:0  note off  key:100  vel:0
        24      midi  ch:0  note off  key:69  vel:0
        0       midi  ch:0  note on  key:72  vel:100
        24      midi  ch:0  note off  key:72  vel:0
        0       midi  ch:0  note on  key:76  vel:100
        24      midi  ch:0  note off  key:76  vel:0
        0       midi  ch:0  note on  key:81  vel:100
        24      midi  ch:0  note off  key:81  vel:0
        0       midi  ch:0  note on  key:84  vel:100
        24      midi  ch:0  note off  key:84  vel:0
        0       midi  ch:0  note on  key:88  vel:100
        24      midi  ch:0  note off  key:88  vel:0
        0       midi  ch:0  note on  key:93  vel:100
        24      midi  ch:0  note off  key:93  vel:0
        0       midi  ch:0  note on  key:96  vel:100
        24      midi  ch:0  note off  key:96  vel:0
        0       midi  ch:0  note on  key:100  vel:100
        24      midi  ch:0  note on  key:69  vel:100
        0       midi  ch:0  note off  key:100  vel:0
        24      midi  ch:0  note off  key:69  vel:0
        0       midi  ch:0  note on  key:72  vel:100
        24      midi  ch:0  note off  key:72  vel:0
        0       midi  ch:0  note on  key:76  vel:100
        24      midi  ch:0  note off  key:76  vel:0
        0       midi  ch:0  note on  key:81  vel:100
        24      midi  ch:0  note off  key:81  vel:0
        0       midi  ch:0  note on  key:84  vel:100
        24      midi  ch:0  note off  key:84  vel:0
        3072    midi  ch:0  note on  key:69  vel:100
        24      midi  ch:0  note off  key:69  vel:0
        0       midi  ch:0  note on  key:72  vel:100
        24      midi  ch:0  note off  key:72  vel:0
        0       midi  ch:0  note on  key:76  vel:100
        24      midi  ch:0  note off  key:76  vel:0
        0       midi  ch:0  note on  key:81  vel:100
        24      midi  ch:0  note off  key:81  vel:0
        0       midi  ch:0  note on  key:84  vel:100
        24      midi  ch:0  note off  key:84  vel:0
        0       midi  ch:0  note on  key:88  vel:100
        24      midi  ch:0  note off  key:88  vel:0
        0       midi  ch:0  note on  key:93  vel:100
        24      midi  ch:0  note off  key:93  vel:0
        0       midi  ch:0  note on  key:96  vel:100
        24      midi  ch:0  note off  key:96  vel:0
        0       midi  ch:0  note on  key:100  vel:100
        24      midi  ch:0  note on  key:69  vel:100
        0       midi  ch:0  note off  key:100  vel:0
        24      midi  ch:0  note off  key:69  vel:0
        0       midi  ch:0  note on  key:72  vel:100
        24      midi  ch:0  note off  key:72  vel:0
        0       midi  ch:0  note on  key:76  vel:100
        24      midi  ch:0  note off  key:76  vel:0
        0       midi  ch:0  note on  key:81  vel:100
        24      midi  ch:0  note off  key:81  vel:0
        0       midi  ch:0  note on  key:84  vel:100
        24      midi  ch:0  note off  key:84  vel:0
        0       midi  ch:0  note on  key:88  vel:100
        24      midi  ch:0  note off  key:88  vel:0
        0       midi  ch:0  note on  key:93  vel:100
        24      midi  ch:0  note on  key:69  vel:100
        0       midi  ch:0  note off  key:93  vel:0
        24      midi  ch:0  note off  key:69  vel:0
        0       midi  ch:0  note on  key:71  vel:100
        24      midi  ch:0  note off  key:71  vel:0
        0       midi  ch:0  note on  key:75  vel:100
        24      midi  ch:0  note off  key:75  vel:0
        0       midi  ch:0  note on  key:81  vel:100
        24      midi  ch:0  note off  key:81  vel:0
        0       midi  ch:0  note on  key:83  vel:100
        24      midi  ch:0  note off  key:83  vel:0
        0       midi  ch:0  note on  key:87  vel:100
        24      midi  ch:0  note off  key:87  vel:0
        0       midi  ch:0  note on  key:93  vel:100
        24      midi  ch:0  note off  key:93  vel:0
        0       midi  ch:0  note on  key:95  vel:100
        24      midi  ch:0  note off  key:95  vel:0
        0       midi  ch:0  note on  key:99  vel:100
        24      midi  ch:0  note on  key:69  vel:100
        0       midi  ch:0  note off  key:99  vel:0
        24      midi  ch:0  note off  key:69  vel:0
        0       midi  ch:0  note on  key:71  vel:100
        24      midi  ch:0  note off  key:71  vel:0
        0       midi  ch:0  note on  key:75  vel:100
        24      midi  ch:0  note off  key:75  vel:0
        0       midi  ch:0  note on  key:81  vel:100
        24      midi  ch:0  note off  key:81  vel:0
        0       midi  ch:0  note on  key:83  vel:100
        24      midi  ch:0  note off  key:83  vel:0
        0       midi  ch:0  note on  key:87  vel:100
        24      midi  ch:0  note off  key:87  vel:0
        0       midi  ch:0  note on  key:93  vel:100
        24      midi  ch:0  note on  key:71  vel:100
        0       midi  ch:0  note off  key:93  vel:0
        24      midi  ch:0  note off  key:71  vel:0
        0       midi  ch:0  note on  key:74  vel:100
        24      midi  ch:0  note off  key:74  vel:0
        0       midi  ch:0  note on  key:77  vel:100
        24      midi  ch:0  note off  key:77  vel:0
        0       midi  ch:0  note on  key:83  vel:100
        24      midi  ch:0  note off  key:83  vel:0
        0       midi  ch:0  note on  key:86  vel:100
        24      midi  ch:0  note off  key:86  vel:0
        0       midi  ch:0  note on  key:89  vel:100
        24      midi  ch:0  note off  key:89  vel:0
        0       midi  ch:0  note on  key:95  vel:100
        24      midi  ch:0  note off  key:95  vel:0
        0       midi  ch:0  note on  key:98  vel:100
        24      midi  ch:0  note off  key:98  vel:0
        0       midi  ch:0  note on  key:101  vel:100
        24      midi  ch:0  note on  key:71  vel:100
        0       midi  ch:0  note off  key:101  vel:0
        24      midi  ch:0  note off  key:71  vel:0
        0       midi  ch:0  note on  key:74  vel:100
        24      midi  ch:0  note off  key:74  vel:0
        0       midi  ch:0  note on  key:77  vel:100
        24      midi  ch:0  note off  key:77  vel:0
        0       midi  ch:0  note on  key:83  vel:100
        24      midi  ch:0  note off  key:83  vel:0
        0       midi  ch:0  note on  key:86  vel:100
        24      midi  ch:0  note off  key:86  vel:0
        0       midi  ch:0  note on  key:89  vel:100
        24      midi  ch:0  note off  key:89  vel:0
        0       midi  ch:0  note on  key:95  vel:100
        24      midi  ch:0  note on  key:69  vel:100
        0       midi  ch:0  note off  key:95  vel:0
        24      midi  ch:0  note off  key:69  vel:0
        0       midi  ch:0  note on  key:72  vel:100
        24      midi  ch:0  note off  key:72  vel:0
        0       midi  ch:0  note on  key:76  vel:100
        24      midi  ch:0  note off  key:76  vel:0
        0       midi  ch:0  note on  key:81  vel:100
        24      midi  ch:0  note off  key:81  vel:0
        0       midi  ch:0  note on  key:84  vel:100
        24      midi  ch:0  note off  key:84  vel:0
        0       midi  ch:0  note on  key:88  vel:100
        24      midi  ch:0  note off  key:88  vel:0
        0       midi  ch:0  note on  key:93  vel:100
        24      midi  ch:0  note off  key:93  vel:0
        0       midi  ch:0  note on  key:96  vel:100
        24      midi  ch:0  note off  key:96  vel:0
        0       midi  ch:0  note on  key:100  vel:100
        24      midi  ch:0  note on  key:69  vel:100
        0       midi  ch:0  note off  key:100  vel:0
        24      midi  ch:0  note off  key:69  vel:0
        0       midi  ch:0  note on  key:72  vel:100
        24      midi  ch:0  note off  key:72  vel:0
        0       midi  ch:0  note on  key:76  vel:100
        24      midi  ch:0  note off  key:76  vel:0
        0       midi  ch:0  note on  key:81  vel:100
        24      midi  ch:0  note off  key:81  vel:0
        0       midi  ch:0  note on  key:84  vel:100
        24      midi  ch:0  note off  key:84  vel:0
        0       midi  ch:0  note on  key:88  vel:100
        24      midi  ch:0  note off  key:88  vel:0
        0       midi  ch:0  note on  key:93  vel:100
        24      midi  ch:0  note on  key:69  vel:100
        0       midi  ch:0  note off  key:93  vel:0
        24      midi  ch:0  note off  key:69  vel:0
        0       midi  ch:0  note on  key:72  vel:100
        24      midi  ch:0  note off  key:72  vel:0
        0       midi  ch:0  note on  key:76  vel:100
        24      midi  ch:0  note off  key:76  vel:0
        0       midi  ch:0  note on  key:81  vel:100
        24      midi  ch:0  note off  key:81  vel:0
        0       midi  ch:0  note on  key:84  vel:100
        24      midi  ch:0  note off  key:84  vel:0
        0       midi  ch:0  note on  key:88  vel:100
        24      midi  ch:0  note off  key:88  vel:0
        0       midi  ch:0  note on  key:93  vel:100
        24      midi  ch:0  note off  key:93  vel:0
        0       midi  ch:0  note on  key:96  vel:100
        24      midi  ch:0  note off  key:96  vel:0
        0       midi  ch:0  note on  key:100  vel:100
        24      midi  ch:0  note on  key:69  vel:100
        0       midi  ch:0  note off  key:100  vel:0
        24      midi  ch:0  note off  key:69  vel:0
        0       midi  ch:0  note on  key:72  vel:100
        24      midi  ch:0  note off  key:72  vel:0
        0       midi  ch:0  note on  key:76  vel:100
        24      midi  ch:0  note off  key:76  vel:0
        0       midi  ch:0  note on  key:81  vel:100
        24      midi  ch:0  note off  key:81  vel:0
        0       midi  ch:0  note on  key:84  vel:100
        24      midi  ch:0  note off  key:84  vel:0
        0       midi  ch:0  note on  key:88  vel:100
        24      midi  ch:0  note off  key:88  vel:0
        0       midi  ch:0  note on  key:93  vel:100
        24      midi  ch:0  note on  key:69  vel:100
        0       midi  ch:0  note off  key:93  vel:0
        24      midi  ch:0  note off  key:69  vel:0
        0       midi  ch:0  note on  key:71  vel:100
        24      midi  ch:0  note off  key:71  vel:0
        0       midi  ch:0  note on  key:75  vel:100
        24      midi  ch:0  note off  key:75  vel:0
        0       midi  ch:0  note on  key:81  vel:100
        24      midi  ch:0  note off  key:81  vel:0
        0       midi  ch:0  note on  key:83  vel:100
        24      midi  ch:0  note off  key:83  vel:0
        0       midi  ch:0  note on  key:87  vel:100
        24      midi  ch:0  note off  key:87  vel:0
        0       midi  ch:0  note on  key:93  vel:100
        24      midi  ch:0  note off  key:93  vel:0
        0       midi  ch:0  note on  key:95  vel:100
        24      midi  ch:0  note off  key:95  vel:0
        0       midi  ch:0  note on  key:99  vel:100
        24      midi  ch:0  note on  key:69  vel:100
        0       midi  ch:0  note off  key:99  vel:0
        24      midi  ch:0  note off  key:69  vel:0
        0       midi  ch:0  note on  key:71  vel:100
        24      midi  ch:0  note off  key:71  vel:0
        0       midi  ch:0  note on  key:75  vel:100
        24      midi  ch:0  note off  key:75  vel:0
        0       midi  ch:0  note on  key:81  vel:100
        24      midi  ch:0  note off  key:81  vel:0
        0       midi  ch:0  note on  key:83  vel:100
        24      midi  ch:0  note off  key:83  vel:0
        0       midi  ch:0  note on  key:87  vel:100
        24      midi  ch:0  note off  key:87  vel:0
        0       midi  ch:0  note on  key:93  vel:100
        24      midi  ch:0  note on  key:71  vel:100
        0       midi  ch:0  note off  key:93  vel:0
        24      midi  ch:0  note off  key:71  vel:0
        0       midi  ch:0  note on  key:74  vel:100
        24      midi  ch:0  note off  key:74  vel:0
        0       midi  ch:0  note on  key:77  vel:100
        24      midi  ch:0  note off  key:77  vel:0
        0       midi  ch:0  note on  key:83  vel:100
        24      midi  ch:0  note off  key:83  vel:0
        0       midi  ch:0  note on  key:86  vel:100
        24      midi  ch:0  note off  key:86  vel:0
        0       midi  ch:0  note on  key:89  vel:100
        24      midi  ch:0  note off  key:89  vel:0
        0       midi  ch:0  note on  key:95  vel:100
        24      midi  ch:0  note off  key:95  vel:0
        0       midi  ch:0  note on  key:98  vel:100
        24      midi  ch:0  note off  key:98  vel:0
        0       midi  ch:0  note on  key:101  vel:100
        24      midi  ch:0  note on  key:71  vel:100
        0       midi  ch:0  note off  key:101  vel:0
        24      midi  ch:0  note off  key:71  vel:0
        0       midi  ch:0  note on  key:74  vel:100
        24      midi  ch:0  note off  key:74  vel:0
        0       midi  ch:0  note on  key:77  vel:100
        24      midi  ch:0  note off  key:77  vel:0
        0       midi  ch:0  note on  key:83  vel:100
        24      midi  ch:0  note off  key:83  vel:0
        0       midi  ch:0  note on  key:86  vel:100
        24      midi  ch:0  note off  key:86  vel:0
        0       midi  ch:0  note on  key:89  vel:100
        24      midi  ch:0  note off  key:89  vel:0
        0       midi  ch:0  note on  key:95  vel:100
        24      midi  ch:0  note on  key:72  vel:100
        0       midi  ch:0  note off  key:95  vel:0
        24      midi  ch:0  note off  key:72  vel:0
        0       midi  ch:0  note on  key:76  vel:100
        24      midi  ch:0  note off  key:76  vel:0
        0       midi  ch:0  note on  key:81  vel:100
        24      midi  ch:0  note off  key:81  vel:0
        0       midi  ch:0  note on  key:84  vel:100
        24      midi  ch:0  note off  key:84  vel:0
        0       midi  ch:0  note on  key:88  vel:100
        24      midi  ch:0  note off  key:88  vel:0
        0       midi  ch:0  note on  key:93  vel:100
        24      midi  ch:0  note off  key:93  vel:0
        0       midi  ch:0  note on  key:96  vel:100
        24      midi  ch:0  note off  key:96  vel:0
        0       midi  ch:0  note on  key:100  vel:100
        24      midi  ch:0  note off  key:100  vel:0
        0       midi  ch:0  note on  key:105  vel:100
        24      midi  ch:0  note on  key:72  vel:100
        0       midi  ch:0  note off  key:105  vel:0
        24      midi  ch:0  note off  key:72  vel:0
        0       midi  ch:0  note on  key:76  vel:100
        24      midi  ch:0  note off  key:76  vel:0
        0       midi  ch:0  note on  key:81  vel:100
        24      midi  ch:0  note off  key:81  vel:0
        0       midi  ch:0  note on  key:84  vel:100
        24      midi  ch:0  note off  key:84  vel:0
        0       midi  ch:0  note on  key:88  vel:100
        24      midi  ch:0  note off  key:88  vel:0
        0       midi  ch:0  note on  key:93  vel:100
        24      midi  ch:0  note off  key:93  vel:0
        0       midi  ch:0  note on  key:96  vel:100
        24      midi  ch:0  note on  key:60  vel:100
        0       midi  ch:0  note off  key:96  vel:0
        24      midi  ch:0  note off  key:60  vel:0
        0       midi  ch:0  note on  key:65  vel:100
        24      midi  ch:0  note off  key:65  vel:0
        0       midi  ch:0  note on  key:69  vel:100
        24      midi  ch:0  note off  key:69  vel:0
        0       midi  ch:0  note on  key:72  vel:100
        24      midi  ch:0  note off  key:72  vel:0
        0       midi  ch:0  note on  key:77  vel:100
        24      midi  ch:0  note off  key:77  vel:0
        0       midi  ch:0  note on  key:81  vel:100
        24      midi  ch:0  note on  key:62  vel:100
        0       midi  ch:0  note off  key:81  vel:0
        24      midi  ch:0  note off  key:62  vel:0
        0       midi  ch:0  note on  key:67  vel:100
        24      midi  ch:0  note off  key:67  vel:0
        0       midi  ch:0  note on  key:71  vel:100
        24      midi  ch:0  note off  key:71  vel:0
        0       midi  ch:0  note on  key:74  vel:100
        24      midi  ch:0  note off  key:74  vel:0
        0       midi  ch:0  note on  key:79  vel:100
        24      midi  ch:0  note off  key:79  vel:0
        0       midi  ch:0  note on  key:83  vel:100
        24      midi  ch:0  note off  key:83  vel:0
        0       midi  ch:0  note on  key:86  vel:100
        24      midi  ch:0  note off  key:86  vel:0
        0       midi  ch:0  note on  key:91  vel:100
        24      midi  ch:0  note on  key:64  vel:100
        0       midi  ch:0  note off  key:91  vel:0
        24      midi  ch:0  note off  key:64  vel:0
        0       midi  ch:0  note on  key:69  vel:100
        24      midi  ch:0  note off  key:69  vel:0
        0       midi  ch:0  note on  key:72  vel:100
        24      midi  ch:0  note off  key:72  vel:0
        0       midi  ch:0  note on  key:76  vel:100
        24      midi  ch:0  note off  key:76  vel:0
        0       midi  ch:0  note on  key:81  vel:100
        24      midi  ch:0  note off  key:81  vel:0
        0       midi  ch:0  note on  key:84  vel:100
        24      midi  ch:0  note off  key:84  vel:0
        0       midi  ch:0  note on  key:88  vel:100
        24      midi  ch:0  note off  key:88  vel:0
        0       midi  ch:0  note on  key:93  vel:100
        24      midi  ch:0  note off  key:93  vel:0
        0       midi  ch:0  note on  key:96  vel:100
        24      midi  ch:0  note on  key:64  vel:100
        0       midi  ch:0  note off  key:96  vel:0
        24      midi  ch:0  note off  key:64  vel:0
        0       midi  ch:0  note on  key:64  vel:100
        24      midi  ch:0  note off  key:64  vel:0
        0       midi  ch:0  note on  key:69  vel:100
        24      midi  ch:0  note off  key:69  vel:0
        0       midi  ch:0  note on  key:72  vel:100
        24      midi  ch:0  note off  key:72  vel:0
        0       midi  ch:0  note on  key:76  vel:100
        24      midi  ch:0  note on  key:62  vel:100
        0       midi  ch:0  note off  key:76  vel:0
        24      midi  ch:0  note off  key:62  vel:0
        0       midi  ch:0  note on  key:67  vel:100
        24      midi  ch:0  note off  key:67  vel:0
        0       midi  ch:0  note on  key:71  vel:100
        24      midi  ch:0  note off  key:71  vel:0
        0       midi  ch:0  note on  key:74  vel:100
        24      midi  ch:0  note on  key:60  vel:100
        0       midi  ch:0  note off  key:74  vel:0
        24      midi  ch:0  note off  key:60  vel:0
        0       midi  ch:0  note on  key:65  vel:100
        24      midi  ch:0  note off  key:65  vel:0
        0       midi  ch:0  note on  key:69  vel:100
        24      midi  ch:0  note off  key:69  vel:0
        0       midi  ch:0  note on  key:72  vel:100
        24      midi  ch:0  note off  key:72  vel:0
        0       midi  ch:0  note on  key:77  vel:100
        24      midi  ch:0  note off  key:77  vel:0
        0       midi  ch:0  note on  key:81  vel:100
        24      midi  ch:0  note on  key:62  vel:100
        0       midi  ch:0  note off  key:81  vel:0
        24      midi  ch:0  note off  key:62  vel:0
        0       midi  ch:0  note on  key:67  vel:100
        24      midi  ch:0  note off  key:67  vel:0
        0       midi  ch:0  note on  key:71  vel:100
        24      midi  ch:0  note off  key:71  vel:0
        0       midi  ch:0  note on  key:74  vel:100
        24      midi  ch:0  note off  key:74  vel:0
        0       midi  ch:0  note on  key:79  vel:100
        24      midi  ch:0  note off  key:79  vel:0
        0       midi  ch:0  note on  key:83  vel:100
        24      midi  ch:0  note off  key:83  vel:0
        0       midi  ch:0  note on  key:86  vel:100
        24      midi  ch:0  note off  key:86  vel:0
        0       midi  ch:0  note on  key:91  vel:100
        24      midi  ch:0  note on  key:59  vel:100
        0       midi  ch:0  note off  key:91  vel:0
        24      midi  ch:0  note off  key:59  vel:0
        0       midi  ch:0  note on  key:64  vel:100
        24      midi  ch:0  note off  key:64  vel:0
        0       midi  ch:0  note on  key:67  vel:100
        24      midi  ch:0  note off  key:67  vel:0
        0       midi  ch:0  note on  key:71  vel:100
        24      midi  ch:0  note off  key:71  vel:0
        0       midi  ch:0  note on  key:76  vel:100
        24      midi  ch:0  note off  key:76  vel:0
        0       midi  ch:0  note on  key:79  vel:100
        24      midi  ch:0  note off  key:79  vel:0
        0       midi  ch:0  note on  key:83  vel:100
        24      midi  ch:0  note off  key:83  vel:0
        0       midi  ch:0  note on  key:88  vel:100
        24      midi  ch:0  note on  key:60  vel:100
        0       midi  ch:0  note off  key:88  vel:0
        24      midi  ch:0  note off  key:60  vel:0
        0       midi  ch:0  note on  key:65  vel:100
        24      midi  ch:0  note off  key:65  vel:0
        0       midi  ch:0  note on  key:69  vel:100
        24      midi  ch:0  note off  key:69  vel:0
        0       midi  ch:0  note on  key:72  vel:100
        24      midi  ch:0  note off  key:72  vel:0
        0       midi  ch:0  note on  key:77  vel:100
        24      midi  ch:0  note off  key:77  vel:0
        0       midi  ch:0  note on  key:81  vel:100
        24      midi  ch:0  note off  key:81  vel:0
        0       midi  ch:0  note on  key:84  vel:100
        24      midi  ch:0  note off  key:84  vel:0
        0       midi  ch:0  note on  key:89  vel:100
        24      midi  ch:0  note off  key:89  vel:0
        0       midi  ch:0  note on  key:93  vel:100
        24      midi  ch:0  note on  key:60  vel:100
        0       midi  ch:0  note off  key:93  vel:0
        24      midi  ch:0  note off  key:60  vel:0
        0       midi  ch:0  note on  key:60  vel:100
        24      midi  ch:0  note off  key:60  vel:0
        0       midi  ch:0  note on  key:65  vel:100
        24      midi  ch:0  note off  key:65  vel:0
        0       midi  ch:0  note on  key:69  vel:100
        24      midi  ch:0  note off  key:69  vel:0
        0       midi  ch:0  note on  key:72  vel:100
        24      midi  ch:0  note off  key:72  vel:0
        0       midi  ch:0  note on  key:77  vel:100
        24      midi  ch:0  note off  key:77  vel:0
        0       midi  ch:0  note on  key:81  vel:100
        24      midi  ch:0  note on  key:62  vel:100
        0       midi  ch:0  note off  key:81  vel:0
        24      midi  ch:0  note off  key:62  vel:0
        0       midi  ch:0  note on  key:67  vel:100
        24      midi  ch:0  note off  key:67  vel:0
        0       midi  ch:0  note on  key:71  vel:100
        24      midi  ch:0  note off  key:71  vel:0
        0       midi  ch:0  note on  key:74  vel:100
        24      midi  ch:0  note off  key:74  vel:0
        0       midi  ch:0  note on  key:79  vel:100
        24      midi  ch:0  note off  key:79  vel:0
        0       midi  ch:0  note on  key:83  vel:100
        24      midi  ch:0  note off  key:83  vel:0
        0       midi  ch:0  note on  key:86  vel:100
        24      midi  ch:0  note off  key:86  vel:0
        0       midi  ch:0  note on  key:91  vel:100
        24      midi  ch:0  note on  key:64  vel:100
        0       midi  ch:0  note off  key:91  vel:0
        24      midi  ch:0  note off  key:64  vel:0
        0       midi  ch:0  note on  key:69  vel:100
        24      midi  ch:0  note off  key:69  vel:0
        0       midi  ch:0  note on  key:72  vel:100
        24      midi  ch:0  note off  key:72  vel:0
        0       midi  ch:0  note on  key:76  vel:100
        24      midi  ch:0  note off  key:76  vel:0
        0       midi  ch:0  note on  key:81  vel:100
        24      midi  ch:0  note off  key:81  vel:0
        0       midi  ch:0  note on  key:84  vel:100
        24      midi  ch:0  note off  key:84  vel:0
        0       midi  ch:0  note on  key:88  vel:100
        24      midi  ch:0  note off  key:88  vel:0
        0       midi  ch:0  note on  key:93  vel:100
        24      midi  ch:0  note off  key:93  vel:0
        0       midi  ch:0  note on  key:96  vel:100
        24      midi  ch:0  note on  key:64  vel:100
        0       midi  ch:0  note off  key:96  vel:0
        24      midi  ch:0  note off  key:64  vel:0
        0       midi  ch:0  note on  key:64  vel:100
        24      midi  ch:0  note off  key:64  vel:0
        0       midi  ch:0  note on  key:69  vel:100
        24      midi  ch:0  note off  key:69  vel:0
        0       midi  ch:0  note on  key:72  vel:100
        24      midi  ch:0  note off  key:72  vel:0
        0       midi  ch:0  note on  key:76  vel:100
        24      midi  ch:0  note on  key:62  vel:100
        0       midi  ch:0  note off  key:76  vel:0
        24      midi  ch:0  note off  key:62  vel:0
        0       midi  ch:0  note on  key:67  vel:100
        24      midi  ch:0  note off  key:67  vel:0
        0       midi  ch:0  note on  key:71  vel:100
        24      midi  ch:0  note off  key:71  vel:0
        0       midi  ch:0  note on  key:74  vel:100
        24      midi  ch:0  note on  key:60  vel:100
        0       midi  ch:0  note off  key:74  vel:0
        24      midi  ch:0  note off  key:60  vel:0
        0       midi  ch:0  note on  key:65  vel:100
        24      midi  ch:0  note off  key:65  vel:0
        0       midi  ch:0  note on  key:69  vel:100
        24      midi  ch:0  note off  key:69  vel:0
        0       midi  ch:0  note on  key:72  vel:100
        24      midi  ch:0  note off  key:72  vel:0
        0       midi  ch:0  note on  key:77  vel:100
        24      midi  ch:0  note off  key:77  vel:0
        0       midi  ch:0  note on  key:81  vel:100
        24      midi  ch:0  note on  key:62  vel:100
        0       midi  ch:0  note off  key:81  vel:0
        24      midi  ch:0  note off  key:62  vel:0
        0       midi  ch:0  note on  key:67  vel:100
        24      midi  ch:0  note off  key:67  vel:0
        0       midi  ch:0  note on  key:71  vel:100
        24      midi  ch:0  note off  key:71  vel:0
        0       midi  ch:0  note on  key:74  vel:100
        24      midi  ch:0  note off  key:74  vel:0
        0       midi  ch:0  note on  key:79  vel:100
        24      midi  ch:0  note off  key:79  vel:0
        0       midi  ch:0  note on  key:83  vel:100
        24      midi  ch:0  note off  key:83  vel:0
        0       midi  ch:0  note on  key:86  vel:100
        24      midi  ch:0  note off  key:86  vel:0
        0       midi  ch:0  note on  key:91  vel:100
        24      midi  ch:0  note on  key:64  vel:100
        0       midi  ch:0  note off  key:91  vel:0
        24      midi  ch:0  note off  key:64  vel:0
        0       midi  ch:0  note on  key:69  vel:100
        24      midi  ch:0  note off  key:69  vel:0
        0       midi  ch:0  note on  key:72  vel:100
        24      midi  ch:0  note off  key:72  vel:0
        0       midi  ch:0  note on  key:76  vel:100
        24      midi  ch:0  note off  key:76  vel:0
        0       midi  ch:0  note on  key:81  vel:100
        24      midi  ch:0  note off  key:81  vel:0
        0       midi  ch:0  note on  key:84  vel:100
        24      midi  ch:0  note off  key:84  vel:0
        0       midi  ch:0  note on  key:88  vel:100
        24      midi  ch:0  note off  key:88  vel:0
        0       midi  ch:0  note on  key:93  vel:100
        24      midi  ch:0  note off  key:93  vel:0
        0       midi  ch:0  note on  key:96  vel:100
        24      midi  ch:0  note on  key:64  vel:100
        0       midi  ch:0  note off  key:96  vel:0
        24      midi  ch:0  note off  key:64  vel:0
        0       midi  ch:0  note on  key:69  vel:100
        24      midi  ch:0  note off  key:69  vel:0
        0       midi  ch:0  note on  key:72  vel:100
        24      midi  ch:0  note off  key:72  vel:0
        0       midi  ch:0  note on  key:76  vel:100
        24      midi  ch:0  note off  key:76  vel:0
        0       midi  ch:0  note on  key:81  vel:100
        24      midi  ch:0  note off  key:81  vel:0
        0       midi  ch:0  note on  key:84  vel:100
        24      midi  ch:0  note off  key:84  vel:0
        0       midi  ch:0  note on  key:88  vel:100
        24      midi  ch:0  note off  key:88  vel:0
        0       midi  ch:0  note on  key:93  vel:100
        24      midi  ch:0  note off  key:93  vel:0
        0       midi  ch:0  note on  key:96  vel:100
        24      midi  ch:0  note on  key:60  vel:100
        0       midi  ch:0  note off  key:96  vel:0
        24      midi  ch:0  note off  key:60  vel:0
        0       midi  ch:0  note on  key:65  vel:100
        24      midi  ch:0  note off  key:65  vel:0
        0       midi  ch:0  note on  key:69  vel:100
        24      midi  ch:0  note off  key:69  vel:0
        0       midi  ch:0  note on  key:72  vel:100
        24      midi  ch:0  note off  key:72  vel:0
        0       midi  ch:0  note on  key:77  vel:100
        24      midi  ch:0  note off  key:77  vel:0
        0       midi  ch:0  note on  key:81  vel:100
        24      midi  ch:0  note on  key:62  vel:100
        0       midi  ch:0  note off  key:81  vel:0
        24      midi  ch:0  note off  key:62  vel:0
        0       midi  ch:0  note on  key:67  vel:100
        24      midi  ch:0  note off  key:67  vel:0
        0       midi  ch:0  note on  key:71  vel:100
        24      midi  ch:0  note off  key:71  vel:0
        0       midi  ch:0  note on  key:74  vel:100
        24      midi  ch:0  note off  key:74  vel:0
        0       midi  ch:0  note on  key:79  vel:100
        24      midi  ch:0  note off  key:79  vel:0
        0       midi  ch:0  note on  key:83  vel:100
        24      midi  ch:0  note off  key:83  vel:0
        0       midi  ch:0  note on  key:86  vel:100
        24      midi  ch:0  note off  key:86  vel:0
        0       midi  ch:0  note on  key:91  vel:100
        24      midi  ch:0  note on  key:64  vel:100
        0       midi  ch:0  note off  key:91  vel:0
        24      midi  ch:0  note off  key:64  vel:0
        0       midi  ch:0  note on  key:69  vel:100
        24      midi  ch:0  note off  key:69  vel:0
        0       midi  ch:0  note on  key:72  vel:100
        24      midi  ch:0  note off  key:72  vel:0
        0       midi  ch:0  note on  key:76  vel:100
        24      midi  ch:0  note off  key:76  vel:0
        0       midi  ch:0  note on  key:81  vel:100
        24      midi  ch:0  note off  key:81  vel:0
        0       midi  ch:0  note on  key:84  vel:100
        24      midi  ch:0  note off  key:84  vel:0
        0       midi  ch:0  note on  key:88  vel:100
        24      midi  ch:0  note off  key:88  vel:0
        0       midi  ch:0  note on  key:93  vel:100
        24      midi  ch:0  note off  key:93  vel:0
        0       midi  ch:0  note on  key:96  vel:100
        24      midi  ch:0  note on  key:64  vel:100
        0       midi  ch:0  note off  key:96  vel:0
        24      midi  ch:0  note off  key:64  vel:0
        0       midi  ch:0  note on  key:64  vel:100
        24      midi  ch:0  note off  key:64  vel:0
        0       midi  ch:0  note on  key:69  vel:100
        24      midi  ch:0  note off  key:69  vel:0
        0       midi  ch:0  note on  key:72  vel:100
        24      midi  ch:0  note off  key:72  vel:0
        0       midi  ch:0  note on  key:76  vel:100
        24      midi  ch:0  note on  key:62  vel:100
        0       midi  ch:0  note off  key:76  vel:0
        24      midi  ch:0  note off  key:62  vel:0
        0       midi  ch:0  note on  key:67  vel:100
        24      midi  ch:0  note off  key:67  vel:0
        0       midi  ch:0  note on  key:71  vel:100
        24      midi  ch:0  note off  key:71  vel:0
        0       midi  ch:0  note on  key:74  vel:100
        24      midi  ch:0  note on  key:60  vel:100
        0       midi  ch:0  note off  key:74  vel:0
        24      midi  ch:0  note off  key:60  vel:0
        0       midi  ch:0  note on  key:65  vel:100
        24      midi  ch:0  note off  key:65  vel:0
        0       midi  ch:0  note on  key:69  vel:100
        24      midi  ch:0  note off  key:69  vel:0
        0       midi  ch:0  note on  key:72  vel:100
        24      midi  ch:0  note off  key:72  vel:0
        0       midi  ch:0  note on  key:77  vel:100
        24      midi  ch:0  note off  key:77  vel:0
        0       midi  ch:0  note on  key:81  vel:100
        24      midi  ch:0  note on  key:62  vel:100
        0       midi  ch:0  note off  key:81  vel:0
        24      midi  ch:0  note off  key:62  vel:0
        0       midi  ch:0  note on  key:67  vel:100
        24      midi  ch:0  note off  key:67  vel:0
        0       midi  ch:0  note on  key:71  vel:100
        24      midi  ch:0  note off  key:71  vel:0
        0       midi  ch:0  note on  key:74  vel:100
        24      midi  ch:0  note off  key:74  vel:0
        0       midi  ch:0  note on  key:79  vel:100
        24      midi  ch:0  note off  key:79  vel:0
        0       midi  ch:0  note on  key:83  vel:100
        24      midi  ch:0  note off  key:83  vel:0
        0       midi  ch:0  note on  key:86  vel:100
        24      midi  ch:0  note off  key:86  vel:0
        0       midi  ch:0  note on  key:91  vel:100
        24      midi  ch:0  note on  key:59  vel:100
        0       midi  ch:0  note off  key:91  vel:0
        24      midi  ch:0  note off  key:59  vel:0
        0       midi  ch:0  note on  key:64  vel:100
        24      midi  ch:0  note off  key:64  vel:0
        0       midi  ch:0  note on  key:67  vel:100
        24      midi  ch:0  note off  key:67  vel:0
        0       midi  ch:0  note on  key:71  vel:100
        24      midi  ch:0  note off  key:71  vel:0
        0       midi  ch:0  note on  key:76  vel:100
        24      midi  ch:0  note off  key:76  vel:0
        0       midi  ch:0  note on  key:79  vel:100
        24      midi  ch:0  note off  key:79  vel:0
        0       midi  ch:0  note on  key:83  vel:100
        24      midi  ch:0  note off  key:83  vel:0
        0       midi  ch:0  note on  key:88  vel:100
        24      midi  ch:0  note on  key:60  vel:100
        0       midi  ch:0  note off  key:88  vel:0
        24      midi  ch:0  note off  key:60  vel:0
        0       midi  ch:0  note on  key:65  vel:100
        24      midi  ch:0  note off  key:65  vel:0
        0       midi  ch:0  note on  key:69  vel:100
        24      midi  ch:0  note off  key:69  vel:0
        0       midi  ch:0  note on  key:72  vel:100
        24      midi  ch:0  note off  key:72  vel:0
        0       midi  ch:0  note on  key:77  vel:100
        24      midi  ch:0  note off  key:77  vel:0
        0       midi  ch:0  note on  key:81  vel:100
        24      midi  ch:0  note off  key:81  vel:0
        0       midi  ch:0  note on  key:84  vel:100
        24      midi  ch:0  note off  key:84  vel:0
        0       midi  ch:0  note on  key:89  vel:100
        24      midi  ch:0  note off  key:89  vel:0
        0       midi  ch:0  note on  key:93  vel:100
        24      midi  ch:0  note on  key:60  vel:100
        0       midi  ch:0  note off  key:93  vel:0
        24      midi  ch:0  note off  key:60  vel:0
        0       midi  ch:0  note on  key:60  vel:100
        24      midi  ch:0  note off  key:60  vel:0
        0       midi  ch:0  note on  key:65  vel:100
        24      midi  ch:0  note off  key:65  vel:0
        0       midi  ch:0  note on  key:69  vel:100
        24      midi  ch:0  note off  key:69  vel:0
        0       midi  ch:0  note on  key:72  vel:100
        24      midi  ch:0  note off  key:72  vel:0
        0       midi  ch:0  note on  key:77  vel:100
        24      midi  ch:0  note off  key:77  vel:0
        0       midi  ch:0  note on  key:81  vel:100
        24      midi  ch:0  note on  key:62  vel:100
        0       midi  ch:0  note off  key:81  vel:0
        24      midi  ch:0  note off  key:62  vel:0
        0       midi  ch:0  note on  key:67  vel:100
        24      midi  ch:0  note off  key:67  vel:0
        0       midi  ch:0  note on  key:71  vel:100
        24      midi  ch:0  note off  key:71  vel:0
        0       midi  ch:0  note on  key:74  vel:100
        24      midi  ch:0  note off  key:74  vel:0
        0       midi  ch:0  note on  key:79  vel:100
        24      midi  ch:0  note off  key:79  vel:0
        0       midi  ch:0  note on  key:83  vel:100
        24      midi  ch:0  note off  key:83  vel:0
        0       midi  ch:0  note on  key:86  vel:100
        24      midi  ch:0  note off  key:86  vel:0
        0       midi  ch:0  note on  key:91  vel:100
        24      midi  ch:0  note on  key:64  vel:100
        0       midi  ch:0  note off  key:91  vel:0
        24      midi  ch:0  note off  key:64  vel:0
        0       midi  ch:0  note on  key:69  vel:100
        24      midi  ch:0  note off  key:69  vel:0
        0       midi  ch:0  note on  key:72  vel:100
        24      midi  ch:0  note off  key:72  vel:0
        0       midi  ch:0  note on  key:76  vel:100
        24      midi  ch:0  note off  key:76  vel:0
        0       midi  ch:0  note on  key:81  vel:100
        24      midi  ch:0  note off  key:81  vel:0
        0       midi  ch:0  note on  key:84  vel:100
        24      midi  ch:0  note off  key:84  vel:0
        0       midi  ch:0  note on  key:88  vel:100
        24      midi  ch:0  note off  key:88  vel:0
        0       midi  ch:0  note on  key:93  vel:100
        24      midi  ch:0  note off  key:93  vel:0
        0       midi  ch:0  note on  key:96  vel:100
        24      midi  ch:0  note on  key:64  vel:100
        0       midi  ch:0  note off  key:96  vel:0
        24      midi  ch:0  note off  key:64  vel:0
        0       midi  ch:0  note on  key:64  vel:100
        24      midi  ch:0  note off  key:64  vel:0
        0       midi  ch:0  note on  key:69  vel:100
        24      midi  ch:0  note off  key:69  vel:0
        0       midi  ch:0  note on  key:72  vel:100
        24      midi  ch:0  note off  key:72  vel:0
        0       midi  ch:0  note on  key:76  vel:100
        24      midi  ch:0  note on  key:62  vel:100
        0       midi  ch:0  note off  key:76  vel:0
        24      midi  ch:0  note off  key:62  vel:0
        0       midi  ch:0  note on  key:67  vel:100
        24      midi  ch:0  note off  key:67  vel:0
        0       midi  ch:0  note on  key:71  vel:100
        24      midi  ch:0  note off  key:71  vel:0
        0       midi  ch:0  note on  key:74  vel:100
        24      midi  ch:0  note on  key:60  vel:100
        0       midi  ch:0  note off  key:74  vel:0
        24      midi  ch:0  note off  key:60  vel:0
        0       midi  ch:0  note on  key:65  vel:100
        24      midi  ch:0  note off  key:65  vel:0
        0       midi  ch:0  note on  key:69  vel:100
        24      midi  ch:0  note off  key:69  vel:0
        0       midi  ch:0  note on  key:72  vel:100
        24      midi  ch:0  note off  key:72  vel:0
        0       midi  ch:0  note on  key:77  vel:100
        24      midi  ch:0  note off  key:77  vel:0
        0       midi  ch:0  note on  key:81  vel:100
        24      midi  ch:0  note on  key:62  vel:100
        0       midi  ch:0  note off  key:81  vel:0
        24      midi  ch:0  note off  key:62  vel:0
        0       midi  ch:0  note on  key:67  vel:100
        24      midi  ch:0  note off  key:67  vel:0
        0       midi  ch:0  note on  key:71  vel:100
        24      midi  ch:0  note off  key:71  vel:0
        0       midi  ch:0  note on  key:74  vel:100
        24      midi  ch:0  note off  key:74  vel:0
        0       midi  ch:0  note on  key:79  vel:100
        24      midi  ch:0  note off  key:79  vel:0
        0       midi  ch:0  note on  key:83  vel:100
        24      midi  ch:0  note off  key:83  vel:0
        0       midi  ch:0  note on  key:86  vel:100
        24      midi  ch:0  note off  key:86  vel:0
        0       midi  ch:0  note on  key:91  vel:100
        24      midi  ch:0  note on  key:64  vel:100
        0       midi  ch:0  note off  key:91  vel:0
        24      midi  ch:0  note off  key:64  vel:0
        0       midi  ch:0  note on  key:69  vel:100
        24      midi  ch:0  note off  key:69  vel:0
        0       midi  ch:0  note on  key:72  vel:100
        24      midi  ch:0  note off  key:72  vel:0
        0       midi  ch:0  note on  key:76  vel:100
        24      midi  ch:0  note off  key:76  vel:0
        0       midi  ch:0  note on  key:81  vel:100
        24      midi  ch:0  note off  key:81  vel:0
        0       midi  ch:0  note on  key:84  vel:100
        24      midi  ch:0  note off  key:84  vel:0
        0       midi  ch:0  note on  key:88  vel:100
        24      midi  ch:0  note off  key:88  vel:0
        0       midi  ch:0  note on  key:93  vel:100
        24      midi  ch:0  note off  key:93  vel:0
        0       midi  ch:0  note on  key:96  vel:100
        24      midi  ch:0  note on  key:64  vel:100
        0       midi  ch:0  note off  key:96  vel:0
        24      midi  ch:0  note off  key:64  vel:0
        0       midi  ch:0  note on  key:69  vel:100
        24      midi  ch:0  note off  key:69  vel:0
        0       midi  ch:0  note on  key:72  vel:100
        24      midi  ch:0  note off  key:72  vel:0
        0       midi  ch:0  note on  key:76  vel:100
        24      midi  ch:0  note off  key:76  vel:0
        0       midi  ch:0  note on  key:81  vel:100
        24      midi  ch:0  note off  key:81  vel:0
        0       midi  ch:0  note on  key:84  vel:100
        24      midi  ch:0  note off  key:84  vel:0
        0       midi  ch:0  note on  key:88  vel:100
        24      midi  ch:0  note off  key:88  vel:0
        0       midi  ch:0  note on  key:93  vel:100
        24      midi  ch:0  note off  key:93  vel:0
        0       midi  ch:0  note on  key:96  vel:100
        24      midi  ch:0  note off  key:96  vel:0
        24576   midi  ch:0  note on  key:60  vel:100
        24      midi  ch:0  note off  key:60  vel:0
        0       midi  ch:0  note on  key:65  vel:100
        24      midi  ch:0  note off  key:65  vel:0
        0       midi  ch:0  note on  key:69  vel:100
        24      midi  ch:0  note off  key:69  vel:0
        0       midi  ch:0  note on  key:72  vel:100
        24      midi  ch:0  note off  key:72  vel:0
        0       midi  ch:0  note on  key:77  vel:100
        24      midi  ch:0  note off  key:77  vel:0
        0       midi  ch:0  note on  key:81  vel:100
        24      midi  ch:0  note on  key:62  vel:100
        0       midi  ch:0  note off  key:81  vel:0
        24      midi  ch:0  note off  key:62  vel:0
        0       midi  ch:0  note on  key:67  vel:100
        24      midi  ch:0  note off  key:67  vel:0
        0       midi  ch:0  note on  key:71  vel:100
        24      midi  ch:0  note off  key:71  vel:0
        0       midi  ch:0  note on  key:74  vel:100
        24      midi  ch:0  note off  key:74  vel:0
        0       midi  ch:0  note on  key:79  vel:100
        24      midi  ch:0  note off  key:79  vel:0
        0       midi  ch:0  note on  key:83  vel:100
        24      midi  ch:0  note off  key:83  vel:0
        0       midi  ch:0  note on  key:86  vel:100
        24      midi  ch:0  note off  key:86  vel:0
        0       midi  ch:0  note on  key:91  vel:100
        24      midi  ch:0  note on  key:64  vel:100
        0       midi  ch:0  note off  key:91  vel:0
        24      midi  ch:0  note off  key:64  vel:0
        0       midi  ch:0  note on  key:69  vel:100
        24      midi  ch:0  note off  key:69  vel:0
        0       midi  ch:0  note on  key:72  vel:100
        24      midi  ch:0  note off  key:72  vel:0
        0       midi  ch:0  note on  key:76  vel:100
        24      midi  ch:0  note off  key:76  vel:0
        0       midi  ch:0  note on  key:81  vel:100
        24      midi  ch:0  note off  key:81  vel:0
        0       midi  ch:0  note on  key:84  vel:100
        24      midi  ch:0  note off  key:84  vel:0
        0       midi  ch:0  note on  key:88  vel:100
        24      midi  ch:0  note off  key:88  vel:0
        0       midi  ch:0  note on  key:93  vel:100
        24      midi  ch:0  note off  key:93  vel:0
        0       midi  ch:0  note on  key:96  vel:100
        24      midi  ch:0  note on  key:64  vel:100
        0       midi  ch:0  note off  key:96  vel:0
        24      midi  ch:0  note off  key:64  vel:0
        0       midi  ch:0  note on  key:64  vel:100
        24      midi  ch:0  note off  key:64  vel:0
        0       midi  ch:0  note on  key:69  vel:100
        24      midi  ch:0  note off  key:69  vel:0
        0       midi  ch:0  note on  key:72  vel:100
        24      midi  ch:0  note off  key:72  vel:0
        0       midi  ch:0  note on  key:76  vel:100
        24      midi  ch:0  note on  key:62  vel:100
        0       midi  ch:0  note off  key:76  vel:0
        24      midi  ch:0  note off  key:62  vel:0
        0       midi  ch:0  note on  key:67  vel:100
        24      midi  ch:0  note off  key:67  vel:0
        0       midi  ch:0  note on  key:71  vel:100
        24      midi  ch:0  note off  key:71  vel:0
        0       midi  ch:0  note on  key:74  vel:100
        24      midi  ch:0  note on  key:60  vel:100
        0       midi  ch:0  note off  key:74  vel:0
        24      midi  ch:0  note off  key:60  vel:0
        0       midi  ch:0  note on  key:65  vel:100
        24      midi  ch:0  note off  key:65  vel:0
        0       midi  ch:0  note on  key:69  vel:100
        24      midi  ch:0  note off  key:69  vel:0
        0       midi  ch:0  note on  key:72  vel:100
        24      midi  ch:0  note off  key:72  vel:0
        0       midi  ch:0  note on  key:77  vel:100
        24      midi  ch:0  note off  key:77  vel:0
        0       midi  ch:0  note on  key:81  vel:100
        24      midi  ch:0  note on  key:62  vel:100
        0       midi  ch:0  note off  key:81  vel:0
        24      midi  ch:0  note off  key:62  vel:0
        0       midi  ch:0  note on  key:67  vel:100
        24      midi  ch:0  note off  key:67  vel:0
        0       midi  ch:0  note on  key:71  vel:100
        24      midi  ch:0  note off  key:71  vel:0
        0       midi  ch:0  note on  key:74  vel:100
        24      midi  ch:0  note off  key:74  vel:0
        0       midi  ch:0  note on  key:79  vel:100
        24      midi  ch:0  note off  key:79  vel:0
        0       midi  ch:0  note on  key:83  vel:100
        24      midi  ch:0  note off  key:83  vel:0
        0       midi  ch:0  note on  key:86  vel:100
        24      midi  ch:0  note off  key:86  vel:0
        0       midi  ch:0  note on  key:91  vel:100
        24      midi  ch:0  note on  key:59  vel:100
        0       midi  ch:0  note off  key:91  vel:0
        24      midi  ch:0  note off  key:59  vel:0
        0       midi  ch:0  note on  key:64  vel:100
        24      midi  ch:0  note off  key:64  vel:0
        0       midi  ch:0  note on  key:67  vel:100
        24      midi  ch:0  note off  key:67  vel:0
        0       midi  ch:0  note on  key:71  vel:100
        24      midi  ch:0  note off  key:71  vel:0
        0       midi  ch:0  note on  key:76  vel:100
        24      midi  ch:0  note off  key:76  vel:0
        0       midi  ch:0  note on  key:79  vel:100
        24      midi  ch:0  note off  key:79  vel:0
        0       midi  ch:0  note on  key:83  vel:100
        24      midi  ch:0  note off  key:83  vel:0
        0       midi  ch:0  note on  key:88  vel:100
        24      midi  ch:0  note on  key:60  vel:100
        0       midi  ch:0  note off  key:88  vel:0
        24      midi  ch:0  note off  key:60  vel:0
        0       midi  ch:0  note on  key:65  vel:100
        24      midi  ch:0  note off  key:65  vel:0
        0       midi  ch:0  note on  key:69  vel:100
        24      midi  ch:0  note off  key:69  vel:0
        0       midi  ch:0  note on  key:72  vel:100
        24      midi  ch:0  note off  key:72  vel:0
        0       midi  ch:0  note on  key:77  vel:100
        24      midi  ch:0  note off  key:77  vel:0
        0       midi  ch:0  note on  key:81  vel:100
        24      midi  ch:0  note off  key:81  vel:0
        0       midi  ch:0  note on  key:84  vel:100
        24      midi  ch:0  note off  key:84  vel:0
        0       midi  ch:0  note on  key:89  vel:100
        24      midi  ch:0  note off  key:89  vel:0
        0       midi  ch:0  note on  key:93  vel:100
        24      midi  ch:0  note on  key:60  vel:100
        0       midi  ch:0  note off  key:93  vel:0
        24      midi  ch:0  note off  key:60  vel:0
        0       midi  ch:0  note on  key:60  vel:100
        24      midi  ch:0  note off  key:60  vel:0
        0       midi  ch:0  note on  key:65  vel:100
        24      midi  ch:0  note off  key:65  vel:0
        0       midi  ch:0  note on  key:69  vel:100
        24      midi  ch:0  note off  key:69  vel:0
        0       midi  ch:0  note on  key:72  vel:100
        24      midi  ch:0  note off  key:72  vel:0
        0       midi  ch:0  note on  key:77  vel:100
        24      midi  ch:0  note off  key:77  vel:0
        0       midi  ch:0  note on  key:81  vel:100
        24      midi  ch:0  note on  key:62  vel:100
        0       midi  ch:0  note off  key:81  vel:0
        24      midi  ch:0  note off  key:62  vel:0
        0       midi  ch:0  note on  key:67  vel:100
        24      midi  ch:0  note off  key:67  vel:0
        0       midi  ch:0  note on  key:71  vel:100
        24      midi  ch:0  note off  key:71  vel:0
        0       midi  ch:0  note on  key:74  vel:100
        24      midi  ch:0  note off  key:74  vel:0
        0       midi  ch:0  note on  key:79  vel:100
        24      midi  ch:0  note off  key:79  vel:0
        0       midi  ch:0  note on  key:83  vel:100
        24      midi  ch:0  note off  key:83  vel:0
        0       midi  ch:0  note on  key:86  vel:100
        24      midi  ch:0  note off  key:86  vel:0
        0       midi  ch:0  note on  key:91  vel:100
        24      midi  ch:0  note on  key:64  vel:100
        0       midi  ch:0  note off  key:91  vel:0
        24      midi  ch:0  note off  key:64  vel:0
        0       midi  ch:0  note on  key:69  vel:100
        24      midi  ch:0  note off  key:69  vel:0
        0       midi  ch:0  note on  key:72  vel:100
        24      midi  ch:0  note off  key:72  vel:0
        0       midi  ch:0  note on  key:76  vel:100
        24      midi  ch:0  note off  key:76  vel:0
        0       midi  ch:0  note on  key:81  vel:100
        24      midi  ch:0  note off  key:81  vel:0
        0       midi  ch:0  note on  key:84  vel:100
        24      midi  ch:0  note off  key:84  vel:0
        0       midi  ch:0  note on  key:88  vel:100
        24      midi  ch:0  note off  key:88  vel:0
        0       midi  ch:0  note on  key:93  vel:100
        24      midi  ch:0  note off  key:93  vel:0
        0       midi  ch:0  note on  key:96  vel:100
        24      midi  ch:0  note on  key:64  vel:100
        0       midi  ch:0  note off  key:96  vel:0
        24      midi  ch:0  note off  key:64  vel:0
        0       midi  ch:0  note on  key:64  vel:100
        24      midi  ch:0  note off  key:64  vel:0
        0       midi  ch:0  note on  key:69  vel:100
        24      midi  ch:0  note off  key:69  vel:0
        0       midi  ch:0  note on  key:72  vel:100
        24      midi  ch:0  note off  key:72  vel:0
        0       midi  ch:0  note on  key:76  vel:100
        24      midi  ch:0  note on  key:62  vel:100
        0       midi  ch:0  note off  key:76  vel:0
        24      midi  ch:0  note off  key:62  vel:0
        0       midi  ch:0  note on  key:67  vel:100
        24      midi  ch:0  note off  key:67  vel:0
        0       midi  ch:0  note on  key:71  vel:100
        24      midi  ch:0  note off  key:71  vel:0
        0       midi  ch:0  note on  key:74  vel:100
        24      midi  ch:0  note on  key:60  vel:100
        0       midi  ch:0  note off  key:74  vel:0
        24      midi  ch:0  note off  key:60  vel:0
        0       midi  ch:0  note on  key:65  vel:100
        24      midi  ch:0  note off  key:65  vel:0
        0       midi  ch:0  note on  key:69  vel:100
        24      midi  ch:0  note off  key:69  vel:0
        0       midi  ch:0  note on  key:72  vel:100
        24      midi  ch:0  note off  key:72  vel:0
        0       midi  ch:0  note on  key:77  vel:100
        24      midi  ch:0  note off  key:77  vel:0
        0       midi  ch:0  note on  key:81  vel:100
        24      midi  ch:0  note on  key:62  vel:100
        0       midi  ch:0  note off  key:81  vel:0
        24      midi  ch:0  note off  key:62  vel:0
        0       midi  ch:0  note on  key:67  vel:100
        24      midi  ch:0  note off  key:67  vel:0
        0       midi  ch:0  note on  key:71  vel:100
        24      midi  ch:0  note off  key:71  vel:0
        0       midi  ch:0  note on  key:74  vel:100
        24      midi  ch:0  note off  key:74  vel:0
        0       midi  ch:0  note on  key:79  vel:100
        24      midi  ch:0  note off  key:79  vel:0
        0       midi  ch:0  note on  key:83  vel:100
        24      midi  ch:0  note off  key:83  vel:0
        0       midi  ch:0  note on  key:86  vel:100
        24      midi  ch:0  note off  key:86  vel:0
        0       midi  ch:0  note on  key:91  vel:100
        24      midi  ch:0  note on  key:64  vel:100
        0       midi  ch:0  note off  key:91  vel:0
        24      midi  ch:0  note off  key:64  vel:0
        0       midi  ch:0  note on  key:69  vel:100
        24      midi  ch:0  note off  key:69  vel:0
        0       midi  ch:0  note on  key:72  vel:100
        24      midi  ch:0  note off  key:72  vel:0
        0       midi  ch:0  note on  key:76  vel:100
        24      midi  ch:0  note off  key:76  vel:0
        0       midi  ch:0  note on  key:81  vel:100
        24      midi  ch:0  note off  key:81  vel:0
        0       midi  ch:0  note on  key:84  vel:100
        24      midi  ch:0  note off  key:84  vel:0
        0       midi  ch:0  note on  key:88  vel:100
        24      midi  ch:0  note off  key:88  vel:0
        0       midi  ch:0  note on  key:93  vel:100
        24      midi  ch:0  note off  key:93  vel:0
        0       midi  ch:0  note on  key:96  vel:100
        24      midi  ch:0  note on  key:64  vel:100
        0       midi  ch:0  note off  key:96  vel:0
        24      midi  ch:0  note off  key:64  vel:0
        0       midi  ch:0  note on  key:69  vel:100
        24      midi  ch:0  note off  key:69  vel:0
        0       midi  ch:0  note on  key:72  vel:100
        24      midi  ch:0  note off  key:72  vel:0
        0       midi  ch:0  note on  key:76  vel:100
        24      midi  ch:0  note off  key:76  vel:0
        0       midi  ch:0  note on  key:81  vel:100
        24      midi  ch:0  note off  key:81  vel:0
        0       midi  ch:0  note on  key:84  vel:100
        24      midi  ch:0  note off  key:84  vel:0
        0       midi  ch:0  note on  key:88  vel:100
        24      midi  ch:0  note off  key:88  vel:0
        0       midi  ch:0  note on  key:93  vel:100
        24      midi  ch:0  note off  key:93  vel:0
        0       midi  ch:0  note on  key:96  vel:100
        24      midi  ch:0  note off  key:96  vel:0
        13843   meta  type:2f  len:0  end
MTrk  len:326
        0       meta  type:58  len:4  tsig:  4/4 metr:36 32nds:8
        0       meta  type:58  len:4  tsig:  4/4 metr:36 32nds:8
        0       meta  type:3  len:0  track:""
        0       midi  ch:0  note on  key:69  vel:100
        0       midi  ch:0  note on  key:72  vel:100
        0       midi  ch:0  note on  key:76  vel:100
        768     midi  ch:0  note off  key:69  vel:0
        0       midi  ch:0  note on  key:69  vel:100
        0       midi  ch:0  note on  key:71  vel:100
        0       midi  ch:0  note off  key:72  vel:0
        0       midi  ch:0  note on  key:75  vel:100
        0       midi  ch:0  note off  key:76  vel:0
        768     midi  ch:0  note on  key:68  vel:100
        0       midi  ch:0  note off  key:69  vel:0
        0       midi  ch:0  note off  key:71  vel:0
        0       midi  ch:0  note on  key:71  vel:100
        0       midi  ch:0  note on  key:74  vel:100
        0       midi  ch:0  note off  key:75  vel:0
        768     midi  ch:0  note off  key:68  vel:0
        0       midi  ch:0  note on  key:69  vel:100
        0       midi  ch:0  note off  key:71  vel:0
        0       midi  ch:0  note on  key:72  vel:100
        0       midi  ch:0  note off  key:74  vel:0
        0       midi  ch:0  note on  key:76  vel:100
        768     midi  ch:0  note off  key:69  vel:0
        0       midi  ch:0  note on  key:69  vel:100
        0       midi  ch:0  note off  key:72  vel:0
        0       midi  ch:0  note on  key:72  vel:100
        0       midi  ch:0  note off  key:76  vel:0
        0       midi  ch:0  note on  key:76  vel:100
        768     midi  ch:0  note off  key:69  vel:0
        0       midi  ch:0  note on  key:69  vel:100
        0       midi  ch:0  note on  key:71  vel:100
        0       midi  ch:0  note off  key:72  vel:0
        0       midi  ch:0  note on  key:75  vel:100
        0       midi  ch:0  note off  key:76  vel:0
        768     midi  ch:0  note on  key:68  vel:100
        0       midi  ch:0  note off  key:69  vel:0
        0       midi  ch:0  note off  key:71  vel:0
        0       midi  ch:0  note on  key:71  vel:100
        0       midi  ch:0  note on  key:74  vel:100
        0       midi  ch:0  note off  key:75  vel:0
        768     midi  ch:0  note off  key:68  vel:0
        0       midi  ch:0  note on  key:69  vel:100
        0       midi  ch:0  note off  key:71  vel:0
        0       midi  ch:0  note on  key:72  vel:100
        0       midi  ch:0  note off  key:74  vel:0
        0       midi  ch:0  note on  key:76  vel:100
        768     midi  ch:0  note off  key:69  vel:0
        0       midi  ch:0  note on  key:69  vel:100
        0       midi  ch:0  note off  key:72  vel:0
        0       midi  ch:0  note on  key:72  vel:100
        0       midi  ch:0  note off  key:76  vel:0
        0       midi  ch:0  note on  key:76  vel:100
        768     midi  ch:0  note off  key:69  vel:0
        0       midi  ch:0  note on  key:69  vel:100
        0       midi  ch:0  note on  key:71  vel:100
        0       midi  ch:0  note off  key:72  vel:0
        0       midi  ch:0  note on  key:75  vel:100
        0       midi  ch:0  note off  key:76  vel:0
        768     midi  ch:0  note on  key:68  vel:100
        0       midi  ch:0  note off  key:69  vel:0
        0       midi  ch:0  note off  key:71  vel:0
        0       midi  ch:0  note on  key:71  vel:100
        0       midi  ch:0  note on  key:74  vel:100
        0       midi  ch:0  note off  key:75  vel:0
        768     midi  ch:0  note off  key:68  vel:0
        0       midi  ch:0  note on  key:69  vel:100
        0       midi  ch:0  note off  key:71  vel:0
        0       midi  ch:0  note on  key:72  vel:100
        0       midi  ch:0  note off  key:74  vel:0
        0       midi  ch:0  note on  key:76  vel:100
        768     midi  ch:0  note off  key:69  vel:0
        0       midi  ch:0  note off  key:72  vel:0
        0       midi  ch:0  note off  key:76  vel:0
        53779   meta  type:2f  len:0  end
MTrk  len:8220
        0       meta  type:58  len:4  tsig:  4/4 metr:36 32nds:8
        0       meta  type:58  len:4  tsig:  4/4 metr:36 32nds:8
        0       meta  type:3  len:0  track:""
        6144    midi  ch:0  note on  key:33  vel:100
        48      midi  ch:0  note off  key:33  vel:0
        0       midi  ch:0  note on  key:33  vel:100
        48      midi  ch:0  note off  key:33  vel:0
        0       midi  ch:0  note on  key:33  vel:100
        48      midi  ch:0  note off  key:33  vel:0
        0       midi  ch:0  note on  key:33  vel:100
        48      midi  ch:0  note off  key:33  vel:0
        0       midi  ch:0  note on  key:33  vel:100
        48      midi  ch:0  note off  key:33  vel:0
        0       midi  ch:0  note on  key:33  vel:100
        48      midi  ch:0  note off  key:33  vel:0
        0       midi  ch:0  note on  key:33  vel:100
        48      midi  ch:0  note off  key:33  vel:0
        0       midi  ch:0  note on  key:33  vel:100
        48      midi  ch:0  note off  key:33  vel:0
        0       midi  ch:0  note on  key:33  vel:100
        48      midi  ch:0  note off  key:33  vel:0
        0       midi  ch:0  note on  key:33  vel:100
        48      midi  ch:0  note off  key:33  vel:0
        0       midi  ch:0  note on  key:33  vel:100
        48      midi  ch:0  note on  key:31  vel:100
        0       midi  ch:0  note off  key:33  vel:0
        48      midi  ch:0  note off  key:31  vel:0
        0       midi  ch:0  note on  key:33  vel:100
        48      midi  ch:0  note on  key:29  vel:100
        0       midi  ch:0  note off  key:33  vel:0
        48      midi  ch:0  note on  key:28  vel:100
        0       midi  ch:0  note off  key:29  vel:0
        48      midi  ch:0  note off  key:28  vel:0
        0       midi  ch:0  note on  key:28  vel:100
        48      midi  ch:0  note off  key:28  vel:0
        0       midi  ch:0  note on  key:33  vel:100
        48      midi  ch:0  note off  key:33  vel:0
        0       midi  ch:0  note on  key:33  vel:100
        48      midi  ch:0  note off  key:33  vel:0
        0       midi  ch:0  note on  key:33  vel:100
        48      midi  ch:0  note off  key:33  vel:0
        0       midi  ch:0  note on  key:33  vel:100
        48      midi  ch:0  note off  key:33  vel:0
        0       midi  ch:0  note on  key:33  vel:100
        48      midi  ch:0  note off  key:33  vel:0
        0       midi  ch:0  note on  key:33  vel:100
        48      midi  ch:0  note off  key:33  vel:0
        0       midi  ch:0  note on  key:33  vel:100
        48      midi  ch:0  note off  key:33  vel:0
        0       midi  ch:0  note on  key:33  vel:100
        48      midi  ch:0  note off  key:33  vel:0
        0       midi  ch:0  note on  key:33  vel:100
        48      midi  ch:0  note off  key:33  vel:0
        0       midi  ch:0  note on  key:33  vel:100
        48      midi  ch:0  note off  key:33  vel:0
        0       midi  ch:0  note on  key:33  vel:100
        48      midi  ch:0  note on  key:31  vel:100
        0       midi  ch:0  note off  key:33  vel:0
        48      midi  ch:0  note off  key:31  vel:0
        0       midi  ch:0  note on  key:33  vel:100
        48      midi  ch:0  note on  key:29  vel:100
        0       midi  ch:0  note off  key:33  vel:0
        48      midi  ch:0  note on  key:28  vel:100
        0       midi  ch:0  note off  key:29  vel:0
        48      midi  ch:0  note off  key:28  vel:0
        0       midi  ch:0  note on  key:28  vel:100
        48      midi  ch:0  note off  key:28  vel:0
        0       midi  ch:0  note on  key:32  vel:100
        48      midi  ch:0  note off  key:32  vel:0
        0       midi  ch:0  note on  key:32  vel:100
        48      midi  ch:0  note off  key:32  vel:0
        0       midi  ch:0  note on  key:32  vel:100
        48      midi  ch:0  note off  key:32  vel:0
        0       midi  ch:0  note on  key:32  vel:100
        48      midi  ch:0  note off  key:32  vel:0
        0       midi  ch:0  note on  key:32  vel:100
        48      midi  ch:0  note off  key:32  vel:0
        0       midi  ch:0  note on  key:32  vel:100
        48      midi  ch:0  note off  key:32  vel:0
        0       midi  ch:0  note on  key:32  vel:100
        48      midi  ch:0  note off  key:32  vel:0
        0       midi  ch:0  note on  key:32  vel:100
        48      midi  ch:0  note off  key:32  vel:0
        0       midi  ch:0  note on  key:32  vel:100
        48      midi  ch:0  note off  key:32  vel:0
        0       midi  ch:0  note on  key:32  vel:100
        48      midi  ch:0  note off  key:32  vel:0
        0       midi  ch:0  note on  key:32  vel:100
        48      midi  ch:0  note on  key:29  vel:100
        0       midi  ch:0  note off  key:32  vel:0
        48      midi  ch:0  note off  key:29  vel:0
        0       midi  ch:0  note on  key:32  vel:100
        48      midi  ch:0  note on  key:29  vel:100
        0       midi  ch:0  note off  key:32  vel:0
        48      midi  ch:0  note on  key:28  vel:100
        0       midi  ch:0  note off  key:29  vel:0
        48      midi  ch:0  note off  key:28  vel:0
        0       midi  ch:0  note on  key:28  vel:100
        48      midi  ch:0  note off  key:28  vel:0
        0       midi  ch:0  note on  key:33  vel:100
        48      midi  ch:0  note off  key:33  vel:0
        0       midi  ch:0  note on  key:33  vel:100
        48      midi  ch:0  note off  key:33  vel:0
        0       midi  ch:0  note on  key:33  vel:100
        48      midi  ch:0  note off  key:33  vel:0
        0       midi  ch:0  note on  key:33  vel:100
        48      midi  ch:0  note off  key:33  vel:0
        0       midi  ch:0  note on  key:33  vel:100
        48      midi  ch:0  note off  key:33  vel:0
        0       midi  ch:0  note on  key:33  vel:100
        48      midi  ch:0  note off  key:33  vel:0
        0       midi  ch:0  note on  key:33  vel:100
        48      midi  ch:0  note off  key:33  vel:0
        0       midi  ch:0  note on  key:33  vel:100
        48      midi  ch:0  note off  key:33  vel:0
        0       midi  ch:0  note on  key:33  vel:100
        48      midi  ch:0  note off  key:33  vel:0
        0       midi  ch:0  note on  key:33  vel:100
        48      midi  ch:0  note off  key:33  vel:0
        0       midi  ch:0  note on  key:33  vel:100
        48      midi  ch:0  note on  key:31  vel:100
        0       midi  ch:0  note off  key:33  vel:0
        48      midi  ch:0  note off  key:31  vel:0
        0       midi  ch:0  note on  key:33  vel:100
        48      midi  ch:0  note on  key:29  vel:100
        0       midi  ch:0  note off  key:33  vel:0
        48      midi  ch:0  note on  key:28  vel:100
        0       midi  ch:0  note off  key:29  vel:0
        48      midi  ch:0  note off  key:28  vel:0
        0       midi  ch:0  note on  key:28  vel:100
        48      midi  ch:0  note off  key:28  vel:0
        0       midi  ch:0  note on  key:33  vel:100
        48      midi  ch:0  note off  key:33  vel:0
        0       midi  ch:0  note on  key:33  vel:100
        48      midi  ch:0  note off  key:33  vel:0
        0       midi  ch:0  note on  key:33  vel:100
        48      midi  ch:0  note off  key:33  vel:0
        0       midi  ch:0  note on  key:33  vel:100
        48      midi  ch:0  note off  key:33  vel:0
        0       midi  ch:0  note on  key:33  vel:100
        48      midi  ch:0  note off  key:33  vel:0
        0       midi  ch:0  note on  key:33  vel:100
        48      midi  ch:0  note off  key:33  vel:0
        0       midi  ch:0  note on  key:33  vel:100
        48      midi  ch:0  note off  key:33  vel:0
        0       midi  ch:0  note on  key:33  vel:100
        48      midi  ch:0  note off  key:33  vel:0
        0       midi  ch:0  note on  key:33  vel:100
        48      midi  ch:0  note off  key:33  vel:0
        0       midi  ch:0  note on  key:33  vel:100
        48      midi  ch:0  note off  key:33  vel:0
        0       midi  ch:0  note on  key:33  vel:100
        48      midi  ch:0  note off  key:33  vel:0
        0       midi  ch:0  note on  key:33  vel:100
        48      midi  ch:0  note off  key:33  vel:0
        0       midi  ch:0  note on  key:33  vel:100
        48      midi  ch:0  note off  key:33  vel:0
        0       midi  ch:0  note on  key:33  vel:100
        48      midi  ch:0  note off  key:33  vel:0
        0       midi  ch:0  note on  key:33  vel:100
        48      midi  ch:0  note off  key:33  vel:0
        0       midi  ch:0  note on  key:33  vel:100
        48      midi  ch:0  note off  key:33  vel:0
        0       midi  ch:0  note on  key:35  vel:100
        48      midi  ch:0  note off  key:35  vel:0
        0       midi  ch:0  note on  key:35  vel:100
        48      midi  ch:0  note off  key:35  vel:0
        0       midi  ch:0  note on  key:35  vel:100
        48      midi  ch:0  note off  key:35  vel:0
        0       midi  ch:0  note on  key:35  vel:100
        48      midi  ch:0  note off  key:35  vel:0
        0       midi  ch:0  note on  key:35  vel:100
        48      midi  ch:0  note off  key:35  vel:0
        0       midi  ch:0  note on  key:35  vel:100
        48      midi  ch:0  note off  key:35  vel:0
        0       midi  ch:0  note on  key:35  vel:100
        48      midi  ch:0  note off  key:35  vel:0
        0       midi  ch:0  note on  key:35  vel:100
        48      midi  ch:0  note on  key:33  vel:100
        0       midi  ch:0  note off  key:35  vel:0
        48      midi  ch:0  note off  key:33  vel:0
        0       midi  ch:0  note on  key:33  vel:100
        48      midi  ch:0  note off  key:33  vel:0
        0       midi  ch:0  note on  key:33  vel:100
        48      midi  ch:0  note off  key:33  vel:0
        0       midi  ch:0  note on  key:33  vel:100
        48      midi  ch:0  note off  key:33  vel:0
        0       midi  ch:0  note on  key:33  vel:100
        48      midi  ch:0  note off  key:33  vel:0
        0       midi  ch:0  note on  key:33  vel:100
        48      midi  ch:0  note off  key:33  vel:0
        0       midi  ch:0  note on  key:33  vel:100
        48      midi  ch:0  note off  key:33  vel:0
        0       midi  ch:0  note on  key:33  vel:100
        48      midi  ch:0  note off  key:33  vel:0
        0       midi  ch:0  note on  key:33  vel:100
        48      midi  ch:0  note off  key:33  vel:0
        0       midi  ch:0  note on  key:33  vel:100
        48      midi  ch:0  note off  key:33  vel:0
        0       midi  ch:0  note on  key:33  vel:100
        48      midi  ch:0  note off  key:33  vel:0
        0       midi  ch:0  note on  key:33  vel:100
        48      midi  ch:0  note off  key:33  vel:0
        0       midi  ch:0  note on  key:33  vel:100
        48      midi  ch:0  note off  key:33  vel:0
        0       midi  ch:0  note on  key:33  vel:100
        48      midi  ch:0  note off  key:33  vel:0
        0       midi  ch:0  note on  key:33  vel:100
        48      midi  ch:0  note off  key:33  vel:0
        0       midi  ch:0  note on  key:33  vel:100
        48      midi  ch:0  note off  key:33  vel:0
        0       midi  ch:0  note on  key:33  vel:100
        48      midi  ch:0  note off  key:33  vel:0
        0       midi  ch:0  note on  key:33  vel:100
        48      midi  ch:0  note off  key:33  vel:0
        0       midi  ch:0  note on  key:33  vel:100
        48      midi  ch:0  note off  key:33  vel:0
        0       midi  ch:0  note on  key:33  vel:100
        48      midi  ch:0  note off  key:33  vel:0
        0       midi  ch:0  note on  key:33  vel:100
        48      midi  ch:0  note off  key:33  vel:0
        0       midi  ch:0  note on  key:33  vel:100
        48      midi  ch:0  note off  key:33  vel:0
        0       midi  ch:0  note on  key:33  vel:100
        48      midi  ch:0  note off  key:33  vel:0
        0       midi  ch:0  note on  key:33  vel:100
        48      midi  ch:0  note off  key:33  vel:0
        0       midi  ch:0  note on  key:35  vel:100
        48      midi  ch:0  note off  key:35  vel:0
        0       midi  ch:0  note on  key:35  vel:100
        48      midi  ch:0  note off  key:35  vel:0
        0       midi  ch:0  note on  key:35  vel:100
        48      midi  ch:0  note off  key:35  vel:0
        0       midi  ch:0  note on  key:35  vel:100
        48      midi  ch:0  note off  key:35  vel:0
        0       midi  ch:0  note on  key:35  vel:100
        48      midi  ch:0  note off  key:35  vel:0
        0       midi  ch:0  note on  key:35  vel:100
        48      midi  ch:0  note off  key:35  vel:0
        0       midi  ch:0  note on  key:35  vel:100
        48      midi  ch:0  note off  key:35  vel:0
        0       midi  ch:0  note on  key:35  vel:100
        48      midi  ch:0  note on  key:33  vel:100
        0       midi  ch:0  note off  key:35  vel:0
        48      midi  ch:0  note off  key:33  vel:0
        0       midi  ch:0  note on  key:33  vel:100
        48      midi  ch:0  note off  key:33  vel:0
        0       midi  ch:0  note on  key:33  vel:100
        48      midi  ch:0  note off  key:33  vel:0
        0       midi  ch:0  note on  key:33  vel:100
        48      midi  ch:0  note off  key:33  vel:0
        0       midi  ch:0  note on  key:33  vel:100
        48      midi  ch:0  note off  key:33  vel:0
        0       midi  ch:0  note on  key:33  vel:100
        48      midi  ch:0  note off  key:33  vel:0
        0       midi  ch:0  note on  key:33  vel:100
        48      midi  ch:0  note off  key:33  vel:0
        0       midi  ch:0  note on  key:33  vel:100
        48      midi  ch:0  note off  key:33  vel:0
        0       midi  ch:0  note on  key:33  vel:100
        48      midi  ch:0  note off  key:33  vel:0
        0       midi  ch:0  note on  key:33  vel:100
        48      midi  ch:0  note off  key:33  vel:0
        0       midi  ch:0  note on  key:33  vel:100
        48      midi  ch:0  note off  key:33  vel:0
        0       midi  ch:0  note on  key:33  vel:100
        48      midi  ch:0  note off  key:33  vel:0
        0       midi  ch:0  note on  key:33  vel:100
        48      midi  ch:0  note off  key:33  vel:0
        0       midi  ch:0  note on  key:33  vel:100
        48      midi  ch:0  note off  key:33  vel:0
        0       midi  ch:0  note on  key:33  vel:100
        48      midi  ch:0  note off  key:33  vel:0
        0       midi  ch:0  note on  key:33  vel:100
        48      midi  ch:0  note off  key:33  vel:0
        0       midi  ch:0  note on  key:33  vel:100
        48      midi  ch:0  note off  key:33  vel:0
        0       midi  ch:0  note on  key:33  vel:100
        48      midi  ch:0  note off  key:33  vel:0
        0       midi  ch:0  note on  key:33  vel:100
        48      midi  ch:0  note off  key:33  vel:0
        0       midi  ch:0  note on  key:33  vel:100
        48      midi  ch:0  note off  key:33  vel:0
        0       midi  ch:0  note on  key:33  vel:100
        48      midi  ch:0  note off  key:33  vel:0
        0       midi  ch:0  note on  key:33  vel:100
        48      midi  ch:0  note off  key:33  vel:0
        0       midi  ch:0  note on  key:33  vel:100
        48      midi  ch:0  note off  key:33  vel:0
        0       midi  ch:0  note on  key:33  vel:100
        48      midi  ch:0  note off  key:33  vel:0
        0       midi  ch:0  note on  key:35  vel:100
        48      midi  ch:0  note off  key:35  vel:0
        0       midi  ch:0  note on  key:35  vel:100
        48      midi  ch:0  note off  key:35  vel:0
        0       midi  ch:0  note on  key:35  vel:100
        48      midi  ch:0  note off  key:35  vel:0
        0       midi  ch:0  note on  key:35  vel:100
        48      midi  ch:0  note off  key:35  vel:0
        0       midi  ch:0  note on  key:35  vel:100
        48      midi  ch:0  note off  key:35  vel:0
        0       midi  ch:0  note on  key:35  vel:100
        48      midi  ch:0  note off  key:35  vel:0
        0       midi  ch:0  note on  key:35  vel:100
        48      midi  ch:0  note off  key:35  vel:0
        0       midi  ch:0  note on  key:35  vel:100
        48      midi  ch:0  note on  key:33  vel:100
        0       midi  ch:0  note off  key:35  vel:0
        48      midi  ch:0  note off  key:33  vel:0
        0       midi  ch:0  note on  key:33  vel:100
        48      midi  ch:0  note off  key:33  vel:0
        0       midi  ch:0  note on  key:33  vel:100
        48      midi  ch:0  note off  key:33  vel:0
        0       midi  ch:0  note on  key:33  vel:100
        48      midi  ch:0  note off  key:33  vel:0
        0       midi  ch:0  note on  key:33  vel:100
        48      midi  ch:0  note off  key:33  vel:0
        0       midi  ch:0  note on  key:33  vel:100
        48      midi  ch:0  note off  key:33  vel:0
        0       midi  ch:0  note on  key:33  vel:100
        48      midi  ch:0  note off  key:33  vel:0
        0       midi  ch:0  note on  key:33  vel:100
        48      midi  ch:0  note off  key:33  vel:0
        0       midi  ch:0  note on  key:33  vel:100
        48      midi  ch:0  note off  key:33  vel:0
        0       midi  ch:0  note on  key:33  vel:100
        48      midi  ch:0  note off  key:33  vel:0
        0       midi  ch:0  note on  key:33  vel:100
        48      midi  ch:0  note off  key:33  vel:0
        0       midi  ch:0  note on  key:33  vel:100
        48      midi  ch:0  note off  key:33  vel:0
        0       midi  ch:0  note on  key:33  vel:100
        48      midi  ch:0  note off  key:33  vel:0
        0       midi  ch:0  note on  key:33  vel:100
        48      midi  ch:0  note off  key:33  vel:0
        0       midi  ch:0  note on  key:33  vel:100
        48      midi  ch:0  note off  key:33  vel:0
        0       midi  ch:0  note on  key:33  vel:100
        48      midi  ch:0  note off  key:33  vel:0
        0       midi  ch:0  note on  key:33  vel:100
        48      midi  ch:0  note off  key:33  vel:0
        0       midi  ch:0  note on  key:33  vel:100
        48      midi  ch:0  note off  key:33  vel:0
        0       midi  ch:0  note on  key:33  vel:100
        48      midi  ch:0  note off  key:33  vel:0
        0       midi  ch:0  note on  key:33  vel:100
        48      midi  ch:0  note off  key:33  vel:0
        0       midi  ch:0  note on  key:33  vel:100
        48      midi  ch:0  note off  key:33  vel:0
        0       midi  ch:0  note on  key:33  vel:100
        48      midi  ch:0  note off  key:33  vel:0
        0       midi  ch:0  note on  key:33  vel:100
        48      midi  ch:0  note off  key:33  vel:0
        0       midi  ch:0  note on  key:33  vel:100
        48      midi  ch:0  note off  key:33  vel:0
        0       midi  ch:0  note on  key:35  vel:100
        48      midi  ch:0  note off  key:35  vel:0
        0       midi  ch:0  note on  key:35  vel:100
        48      midi  ch:0  note off  key:35  vel:0
        0       midi  ch:0  note on  key:35  vel:100
        48      midi  ch:0  note off  key:35  vel:0
        0       midi  ch:0  note on  key:35  vel:100
        48      midi  ch:0  note off  key:35  vel:0
        0       midi  ch:0  note on  key:35  vel:100
        48      midi  ch:0  note off  key:35  vel:0
        0       midi  ch:0  note on  key:35  vel:100
        48      midi  ch:0  note off  key:35  vel:0
        0       midi  ch:0  note on  key:35  vel:100
        48      midi  ch:0  note off  key:35  vel:0
        0       midi  ch:0  note on  key:35  vel:100
        48      midi  ch:0  note on  key:33  vel:100
        0       midi  ch:0  note off  key:35  vel:0
        48      midi  ch:0  note off  key:33  vel:0
        0       midi  ch:0  note on  key:33  vel:100
        48      midi  ch:0  note off  key:33  vel:0
        0       midi  ch:0  note on  key:33  vel:100
        48      midi  ch:0  note off  key:33  vel:0
        0       midi  ch:0  note on  key:33  vel:100
        48      midi  ch:0  note off  key:33  vel:0
        0       midi  ch:0  note on  key:33  vel:100
        48      midi  ch:0  note off  key:33  vel:0
        0       midi  ch:0  note on  key:33  vel:100
        48      midi  ch:0  note off  key:33  vel:0
        0       midi  ch:0  note on  key:33  vel:100
        48      midi  ch:0  note off  key:33  vel:0
        0       midi  ch:0  note on  key:33  vel:100
        48      midi  ch:0  note on  key:29  vel:100
        0       midi  ch:0  note off  key:33  vel:0
        48      midi  ch:0  note off  key:29  vel:0
        0       midi  ch:0  note on  key:29  vel:100
        48      midi  ch:0  note off  key:29  vel:0
        0       midi  ch:0  note on  key:29  vel:100
        48      midi  ch:0  note off  key:29  vel:0
        0       midi  ch:0  note on  key:31  vel:100
        48      midi  ch:0  note off  key:31  vel:0
        0       midi  ch:0  note on  key:31  vel:100
        48      midi  ch:0  note off  key:31  vel:0
        0       midi  ch:0  note on  key:31  vel:100
        48      midi  ch:0  note off  key:31  vel:0
        0       midi  ch:0  note on  key:31  vel:100
        48      midi  ch:0  note off  key:31  vel:0
        0       midi  ch:0  note on  key:33  vel:100
        48      midi  ch:0  note off  key:33  vel:0
        0       midi  ch:0  note on  key:33  vel:100
        48      midi  ch:0  note off  key:33  vel:0
        0       midi  ch:0  note on  key:33  vel:100
        48      midi  ch:0  note off  key:33  vel:0
        0       midi  ch:0  note on  key:33  vel:100
        48      midi  ch:0  note off  key:33  vel:0
        0       midi  ch:0  note on  key:33  vel:100
        48      midi  ch:0  note off  key:33  vel:0
        0       midi  ch:0  note on  key:33  vel:100
        48      midi  ch:0  note off  key:33  vel:0
        0       midi  ch:0  note on  key:33  vel:100
        48      midi  ch:0  note on  key:31  vel:100
        0       midi  ch:0  note off  key:33  vel:0
        48      midi  ch:0  note off  key:31  vel:0
        0       midi  ch:0  note on  key:31  vel:100
        48      midi  ch:0  note on  key:29  vel:100
        0       midi  ch:0  note off  key:31  vel:0
        48      midi  ch:0  note off  key:29  vel:0
        0       midi  ch:0  note on  key:29  vel:100
        48      midi  ch:0  note off  key:29  vel:0
        0       midi  ch:0  note on  key:29  vel:100
        48      midi  ch:0  note off  key:29  vel:0
        0       midi  ch:0  note on  key:31  vel:100
        48      midi  ch:0  note off  key:31  vel:0
        0       midi  ch:0  note on  key:31  vel:100
        48      midi  ch:0  note off  key:31  vel:0
        0       midi  ch:0  note on  key:31  vel:100
        48      midi  ch:0  note off  key:31  vel:0
        0       midi  ch:0  note on  key:31  vel:100
        48      midi  ch:0  note on  key:28  vel:100
        0       midi  ch:0  note off  key:31  vel:0
        48      midi  ch:0  note off  key:28  vel:0
        0       midi  ch:0  note on  key:28  vel:100
        48      midi  ch:0  note off  key:28  vel:0
        0       midi  ch:0  note on  key:28  vel:100
        48      midi  ch:0  note off  key:28  vel:0
        0       midi  ch:0  note on  key:28  vel:100
        48      midi  ch:0  note off  key:28  vel:0
        0       midi  ch:0  note on  key:33  vel:100
        48      midi  ch:0  note off  key:33  vel:0
        0       midi  ch:0  note on  key:33  vel:100
        48      midi  ch:0  note off  key:33  vel:0
        0       midi  ch:0  note on  key:33  vel:100
        48      midi  ch:0  note off  key:33  vel:0
        0       midi  ch:0  note on  key:33  vel:100
        48      midi  ch:0  note off  key:33  vel:0
        0       midi  ch:0  note on  key:33  vel:100
        48      midi  ch:0  note on  key:29  vel:100
        0       midi  ch:0  note off  key:33  vel:0
        48      midi  ch:0  note off  key:29  vel:0
        0       midi  ch:0  note on  key:29  vel:100
        48      midi  ch:0  note off  key:29  vel:0
        0       midi  ch:0  note on  key:29  vel:100
        48      midi  ch:0  note off  key:29  vel:0
        0       midi  ch:0  note on  key:31  vel:100
        48      midi  ch:0  note off  key:31  vel:0
        0       midi  ch:0  note on  key:31  vel:100
        48      midi  ch:0  note off  key:31  vel:0
        0       midi  ch:0  note on  key:31  vel:100
        48      midi  ch:0  note off  key:31  vel:0
        0       midi  ch:0  note on  key:31  vel:100
        48      midi  ch:0  note off  key:31  vel:0
        0       midi  ch:0  note on  key:33  vel:100
        48      midi  ch:0  note off  key:33  vel:0
        0       midi  ch:0  note on  key:33  vel:100
        48      midi  ch:0  note off  key:33  vel:0
        0       midi  ch:0  note on  key:33  vel:100
        48      midi  ch:0  note off  key:33  vel:0
        0       midi  ch:0  note on  key:33  vel:100
        48      midi  ch:0  note off  key:33  vel:0
        0       midi  ch:0  note on  key:33  vel:100
        48      midi  ch:0  note off  key:33  vel:0
        0       midi  ch:0  note on  key:33  vel:100
        48      midi  ch:0  note off  key:33  vel:0
        0       midi  ch:0  note on  key:33  vel:100
        48      midi  ch:0  note on  key:31  vel:100
        0       midi  ch:0  note off  key:33  vel:0
        48      midi  ch:0  note off  key:31  vel:0
        0       midi  ch:0  note on  key:31  vel:100
        48      midi  ch:0  note on  key:29  vel:100
        0       midi  ch:0  note off  key:31  vel:0
        48      midi  ch:0  note off  key:29  vel:0
        0       midi  ch:0  note on  key:29  vel:100
        48      midi  ch:0  note off  key:29  vel:0
        0       midi  ch:0  note on  key:29  vel:100
        48      midi  ch:0  note off  key:29  vel:0
        0       midi  ch:0  note on  key:31  vel:100
        48      midi  ch:0  note off  key:31  vel:0
        0       midi  ch:0  note on  key:31  vel:100
        48      midi  ch:0  note off  key:31  vel:0
        0       midi  ch:0  note on  key:31  vel:100
        48      midi  ch:0  note off  key:31  vel:0
        0       midi  ch:0  note on  key:31  vel:100
        48      midi  ch:0  note off  key:31  vel:0
        0       midi  ch:0  note on  key:33  vel:100
        48      midi  ch:0  note off  key:33  vel:0
        0       midi  ch:0  note on  key:33  vel:100
        48      midi  ch:0  note off  key:33  vel:0
        0       midi  ch:0  note on  key:33  vel:100
        48      midi  ch:0  note off  key:33  vel:0
        0       midi  ch:0  note on  key:33  vel:100
        48      midi  ch:0  note off  key:33  vel:0
        0       midi  ch:0  note on  key:33  vel:100
        48      midi  ch:0  note off  key:33  vel:0
        0       midi  ch:0  note on  key:33  vel:100
        48      midi  ch:0  note off  key:33  vel:0
        0       midi  ch:0  note on  key:33  vel:100
        48      midi  ch:0  note off  key:33  vel:0
        0       midi  ch:0  note on  key:33  vel:100
        48      midi  ch:0  note off  key:33  vel:0
        0       midi  ch:0  note on  key:33  vel:100
        48      midi  ch:0  note on  key:29  vel:100
        0       midi  ch:0  note off  key:33  vel:0
        48      midi  ch:0  note off  key:29  vel:0
        0       midi  ch:0  note on  key:29  vel:100
        48      midi  ch:0  note off  key:29  vel:0
        0       midi  ch:0  note on  key:29  vel:100
        48      midi  ch:0  note off  key:29  vel:0
        0       midi  ch:0  note on  key:31  vel:100
        48      midi  ch:0  note off  key:31  vel:0
        0       midi  ch:0  note on  key:31  vel:100
        48      midi  ch:0  note off  key:31  vel:0
        0       midi  ch:0  note on  key:31  vel:100
        48      midi  ch:0  note off  key:31  vel:0
        0       midi  ch:0  note on  key:31  vel:100
        48      midi  ch:0  note off  key:31  vel:0
        0       midi  ch:0  note on  key:33  vel:100
        48      midi  ch:0  note off  key:33  vel:0
        0       midi  ch:0  note on  key:33  vel:100
        48      midi  ch:0  note off  key:33  vel:0
        0       midi  ch:0  note on  key:33  vel:100
        48      midi  ch:0  note off  key:33  vel:0
        0       midi  ch:0  note on  key:33  vel:100
        48      midi  ch:0  note off  key:33  vel:0
        0       midi  ch:0  note on  key:33  vel:100
        48      midi  ch:0  note off  key:33  vel:0
        0       midi  ch:0  note on  key:33  vel:100
        48      midi  ch:0  note off  key:33  vel:0
        0       midi  ch:0  note on  key:33  vel:100
        48      midi  ch:0  note on  key:31  vel:100
        0       midi  ch:0  note off  key:33  vel:0
        48      midi  ch:0  note off  key:31  vel:0
        0       midi  ch:0  note on  key:31  vel:100
        48      midi  ch:0  note on  key:29  vel:100
        0       midi  ch:0  note off  key:31  vel:0
        48      midi  ch:0  note off  key:29  vel:0
        0       midi  ch:0  note on  key:29  vel:100
        48      midi  ch:0  note off  key:29  vel:0
        0       midi  ch:0  note on  key:29  vel:100
        48      midi  ch:0  note off  key:29  vel:0
        0       midi  ch:0  note on  key:31  vel:100
        48      midi  ch:0  note off  key:31  vel:0
        0       midi  ch:0  note on  key:31  vel:100
        48      midi  ch:0  note off  key:31  vel:0
        0       midi  ch:0  note on  key:31  vel:100
        48      midi  ch:0  note off  key:31  vel:0
        0       midi  ch:0  note on  key:31  vel:100
        48      midi  ch:0  note on  key:28  vel:100
        0       midi  ch:0  note off  key:31  vel:0
        48      midi  ch:0  note off  key:28  vel:0
        0       midi  ch:0  note on  key:28  vel:100
        48      midi  ch:0  note off  key:28  vel:0
        0       midi  ch:0  note on  key:28  vel:100
        48      midi  ch:0  note off  key:28  vel:0
        0       midi  ch:0  note on  key:28  vel:100
        48      midi  ch:0  note off  key:28  vel:0
        0       midi  ch:0  note on  key:33  vel:100
        48      midi  ch:0  note off  key:33  vel:0
        0       midi  ch:0  note on  key:33  vel:100
        48      midi  ch:0  note off  key:33  vel:0
        0       midi  ch:0  note on  key:33  vel:100
        48      midi  ch:0  note off  key:33  vel:0
        0       midi  ch:0  note on  key:33  vel:100
        48      midi  ch:0  note off  key:33  vel:0
        0       midi  ch:0  note on  key:33  vel:100
        48      midi  ch:0  note on  key:29  vel:100
        0       midi  ch:0  note off  key:33  vel:0
        48      midi  ch:0  note off  key:29  vel:0
        0       midi  ch:0  note on  key:29  vel:100
        48      midi  ch:0  note off  key:29  vel:0
        0       midi  ch:0  note on  key:29  vel:100
        48      midi  ch:0  note off  key:29  vel:0
        0       midi  ch:0  note on  key:31  vel:100
        48      midi  ch:0  note off  key:31  vel:0
        0       midi  ch:0  note on  key:31  vel:100
        48      midi  ch:0  note off  key:31  vel:0
        0       midi  ch:0  note on  key:31  vel:100
        48      midi  ch:0  note off  key:31  vel:0
        0       midi  ch:0  note on  key:31  vel:100
        48      midi  ch:0  note off  key:31  vel:0
        0       midi  ch:0  note on  key:33  vel:100
        48      midi  ch:0  note off  key:33  vel:0
        0       midi  ch:0  note on  key:33  vel:100
        48      midi  ch:0  note off  key:33  vel:0
        0       midi  ch:0  note on  key:33  vel:100
        48      midi  ch:0  note off  key:33  vel:0
        0       midi  ch:0  note on  key:33  vel:100
        48      midi  ch:0  note off  key:33  vel:0
        0       midi  ch:0  note on  key:33  vel:100
        48      midi  ch:0  note off  key:33  vel:0
        0       midi  ch:0  note on  key:33  vel:100
        48      midi  ch:0  note off  key:33  vel:0
        0       midi  ch:0  note on  key:33  vel:100
        48      midi  ch:0  note on  key:31  vel:100
        0       midi  ch:0  note off  key:33  vel:0
        48      midi  ch:0  note off  key:31  vel:0
        0       midi  ch:0  note on  key:31  vel:100
        48      midi  ch:0  note on  key:29  vel:100
        0       midi  ch:0  note off  key:31  vel:0
        48      midi  ch:0  note off  key:29  vel:0
        0       midi  ch:0  note on  key:29  vel:100
        48      midi  ch:0  note off  key:29  vel:0
        0       midi  ch:0  note on  key:29  vel:100
        48      midi  ch:0  note off  key:29  vel:0
        0       midi  ch:0  note on  key:31  vel:100
        48      midi  ch:0  note off  key:31  vel:0
        0       midi  ch:0  note on  key:31  vel:100
        48      midi  ch:0  note off  key:31  vel:0
        0       midi  ch:0  note on  key:31  vel:100
        48      midi  ch:0  note off  key:31  vel:0
        0       midi  ch:0  note on  key:31  vel:100
        48      midi  ch:0  note off  key:31  vel:0
        0       midi  ch:0  note on  key:33  vel:100
        48      midi  ch:0  note off  key:33  vel:0
        0       midi  ch:0  note on  key:33  vel:100
        48      midi  ch:0  note off  key:33  vel:0
        0       midi  ch:0  note on  key:33  vel:100
        48      midi  ch:0  note off  key:33  vel:0
        0       midi  ch:0  note on  key:33  vel:100
        48      midi  ch:0  note off  key:33  vel:0
        0       midi  ch:0  note on  key:33  vel:100
        48      midi  ch:0  note off  key:33  vel:0
        0       midi  ch:0  note on  key:33  vel:100
        48      midi  ch:0  note off  key:33  vel:0
        0       midi  ch:0  note on  key:33  vel:100
        48      midi  ch:0  note off  key:33  vel:0
        0       midi  ch:0  note on  key:33  vel:100
        48      midi  ch:0  note off  key:33  vel:0
        0       midi  ch:0  note on  key:33  vel:100
        48      midi  ch:0  note off  key:33  vel:0
        3072    midi  ch:0  note on  key:29  vel:100
        48      midi  ch:0  note off  key:29  vel:0
        0       midi  ch:0  note on  key:29  vel:100
        48      midi  ch:0  note off  key:29  vel:0
        0       midi  ch:0  note on  key:29  vel:100
        48      midi  ch:0  note off  key:29  vel:0
        0       midi  ch:0  note on  key:31  vel:100
        48      midi  ch:0  note off  key:31  vel:0
        0       midi  ch:0  note on  key:31  vel:100
        48      midi  ch:0  note off  key:31  vel:0
        0       midi  ch:0  note on  key:31  vel:100
        48      midi  ch:0  note off  key:31  vel:0
        0       midi  ch:0  note on  key:31  vel:100
        48      midi  ch:0  note off  key:31  vel:0
        0       midi  ch:0  note on  key:33  vel:100
        48      midi  ch:0  note off  key:33  vel:0
        0       midi  ch:0  note on  key:33  vel:100
        48      midi  ch:0  note off  key:33  vel:0
        0       midi  ch:0  note on  key:33  vel:100
        48      midi  ch:0  note off  key:33  vel:0
        0       midi  ch:0  note on  key:33  vel:100
        48      midi  ch:0  note off  key:33  vel:0
        0       midi  ch:0  note on  key:33  vel:100
        48      midi  ch:0  note off  key:33  vel:0
        0       midi  ch:0  note on  key:33  vel:100
        48      midi  ch:0  note off  key:33  vel:0
        0       midi  ch:0  note on  key:33  vel:100
        48      midi  ch:0  note on  key:31  vel:100
        0       midi  ch:0  note off  key:33  vel:0
        48      midi  ch:0  note off  key:31  vel:0
        0       midi  ch:0  note on  key:31  vel:100
        48      midi  ch:0  note on  key:29  vel:100
        0       midi  ch:0  note off  key:31  vel:0
        48      midi  ch:0  note off  key:29  vel:0
        0       midi  ch:0  note on  key:29  vel:100
        48      midi  ch:0  note off  key:29  vel:0
        0       midi  ch:0  note on  key:29  vel:100
        48      midi  ch:0  note off  key:29  vel:0
        0       midi  ch:0  note on  key:31  vel:100
        48      midi  ch:0  note off  key:31  vel:0
        0       midi  ch:0  note on  key:31  vel:100
        48      midi  ch:0  note off  key:31  vel:0
        0       midi  ch:0  note on  key:31  vel:100
        48      midi  ch:0  note off  key:31  vel:0
        0       midi  ch:0  note on  key:31  vel:100
        48      midi  ch:0  note on  key:28  vel:100
        0       midi  ch:0  note off  key:31  vel:0
        48      midi  ch:0  note off  key:28  vel:0
        0       midi  ch:0  note on  key:28  vel:100
        48      midi  ch:0  note off  key:28  vel:0
        0       midi  ch:0  note on  key:28  vel:100
        48      midi  ch:0  note off  key:28  vel:0
        0       midi  ch:0  note on  key:28  vel:100
        48      midi  ch:0  note off  key:28  vel:0
        0       midi  ch:0  note on  key:33  vel:100
        48      midi  ch:0  note off  key:33  vel:0
        0       midi  ch:0  note on  key:33  vel:100
        48      midi  ch:0  note off  key:33  vel:0
        0       midi  ch:0  note on  key:33  vel:100
        48      midi  ch:0  note off  key:33  vel:0
        0       midi  ch:0  note on  key:33  vel:100
        48      midi  ch:0  note off  key:33  vel:0
        0       midi  ch:0  note on  key:33  vel:100
        48      midi  ch:0  note on  key:29  vel:100
        0       midi  ch:0  note off  key:33  vel:0
        48      midi  ch:0  note off  key:29  vel:0
        0       midi  ch:0  note on  key:29  vel:100
        48      midi  ch:0  note off  key:29  vel:0
        0       midi  ch:0  note on  key:29  vel:100
        48      midi  ch:0  note off  key:29  vel:0
        0       midi  ch:0  note on  key:31  vel:100
        48      midi  ch:0  note off  key:31  vel:0
        0       midi  ch:0  note on  key:31  vel:100
        48      midi  ch:0  note off  key:31  vel:0
        0       midi  ch:0  note on  key:31  vel:100
        48      midi  ch:0  note off  key:31  vel:0
        0       midi  ch:0  note on  key:31  vel:100
        48      midi  ch:0  note off  key:31  vel:0
        0       midi  ch:0  note on  key:33  vel:100
        48      midi  ch:0  note off  key:33  vel:0
        0       midi  ch:0  note on  key:33  vel:100
        48      midi  ch:0  note off  key:33  vel:0
        0       midi  ch:0  note on  key:33  vel:100
        48      midi  ch:0  note off  key:33  vel:0
        0       midi  ch:0  note on  key:33  vel:100
        48      midi  ch:0  note off  key:33  vel:0
        0       midi  ch:0  note on  key:33  vel:100
        48      midi  ch:0  note off  key:33  vel:0
        0       midi  ch:0  note on  key:33  vel:100
        48      midi  ch:0  note off  key:33  vel:0
        0       midi  ch:0  note on  key:33  vel:100
        48      midi  ch:0  note on  key:31  vel:100
        0       midi  ch:0  note off  key:33  vel:0
        48      midi  ch:0  note off  key:31  vel:0
        0       midi  ch:0  note on  key:31  vel:100
        48      midi  ch:0  note on  key:29  vel:100
        0       midi  ch:0  note off  key:31  vel:0
        48      midi  ch:0  note off  key:29  vel:0
        0       midi  ch:0  note on  key:29  vel:100
        48      midi  ch:0  note off  key:29  vel:0
        0       midi  ch:0  note on  key:29  vel:100
        48      midi  ch:0  note off  key:29  vel:0
        0       midi  ch:0  note on  key:31  vel:100
        48      midi  ch:0  note off  key:31  vel:0
        0       midi  ch:0  note on  key:31  vel:100
        48      midi  ch:0  note off  key:31  vel:0
        0       midi  ch:0  note on  key:31  vel:100
        48      midi  ch:0  note off  key:31  vel:0
        0       midi  ch:0  note on  key:31  vel:100
        48      midi  ch:0  note off  key:31  vel:0
        0       midi  ch:0  note on  key:33  vel:100
        48      midi  ch:0  note off  key:33  vel:0
        0       midi  ch:0  note on  key:33  vel:100
        48      midi  ch:0  note off  key:33  vel:0
        0       midi  ch:0  note on  key:33  vel:100
        48      midi  ch:0  note off  key:33  vel:0
        0       midi  ch:0  note on  key:33  vel:100
        48      midi  ch:0  note off  key:33  vel:0
        0       midi  ch:0  note on  key:33  vel:100
        48      midi  ch:0  note off  key:33  vel:0
        0       midi  ch:0  note on  key:33  vel:100
        48      midi  ch:0  note off  key:33  vel:0
        0       midi  ch:0  note on  key:33  vel:100
        48      midi  ch:0  note off  key:33  vel:0
        0       midi  ch:0  note on  key:33  vel:100
        48      midi  ch:0  note off  key:33  vel:0
        0       midi  ch:0  note on  key:33  vel:100
        48      midi  ch:0  note on  key:29  vel:100
        0       midi  ch:0  note off  key:33  vel:0
        48      midi  ch:0  note off  key:29  vel:0
        0       midi  ch:0  note on  key:29  vel:100
        48      midi  ch:0  note off  key:29  vel:0
        0       midi  ch:0  note on  key:29  vel:100
        48      midi  ch:0  note off  key:29  vel:0
        0       midi  ch:0  note on  key:31  vel:100
        48      midi  ch:0  note off  key:31  vel:0
        0       midi  ch:0  note on  key:31  vel:100
        48      midi  ch:0  note off  key:31  vel:0
        0       midi  ch:0  note on  key:31  vel:100
        48      midi  ch:0  note off  key:31  vel:0
        0       midi  ch:0  note on  key:31  vel:100
        48      midi  ch:0  note off  key:31  vel:0
        0       midi  ch:0  note on  key:33  vel:100
        48      midi  ch:0  note off  key:33  vel:0
        0       midi  ch:0  note on  key:33  vel:100
        48      midi  ch:0  note off  key:33  vel:0
        0       midi  ch:0  note on  key:33  vel:100
        48      midi  ch:0  note off  key:33  vel:0
        0       midi  ch:0  note on  key:33  vel:100
        48      midi  ch:0  note off  key:33  vel:0
        0       midi  ch:0  note on  key:33  vel:100
        48      midi  ch:0  note off  key:33  vel:0
        0       midi  ch:0  note on  key:33  vel:100
        48      midi  ch:0  note off  key:33  vel:0
        0       midi  ch:0  note on  key:33  vel:100
        48      midi  ch:0  note on  key:31  vel:100
        0       midi  ch:0  note off  key:33  vel:0
        48      midi  ch:0  note off  key:31  vel:0
        0       midi  ch:0  note on  key:31  vel:100
        48      midi  ch:0  note on  key:29  vel:100
        0       midi  ch:0  note off  key:31  vel:0
        48      midi  ch:0  note off  key:29  vel:0
        0       midi  ch:0  note on  key:29  vel:100
        48      midi  ch:0  note off  key:29  vel:0
        0       midi  ch:0  note on  key:29  vel:100
        48      midi  ch:0  note off  key:29  vel:0
        0       midi  ch:0  note on  key:31  vel:100
        48      midi  ch:0  note off  key:31  vel:0
        0       midi  ch:0  note on  key:31  vel:100
        48      midi  ch:0  note off  key:31  vel:0
        0       midi  ch:0  note on  key:31  vel:100
        48      midi  ch:0  note off  key:31  vel:0
        0       midi  ch:0  note on  key:31  vel:100
        48      midi  ch:0  note on  key:28  vel:100
        0       midi  ch:0  note off  key:31  vel:0
        48      midi  ch:0  note off  key:28  vel:0
        0       midi  ch:0  note on  key:28  vel:100
        48      midi  ch:0  note off  key:28  vel:0
        0       midi  ch:0  note on  key:28  vel:100
        48      midi  ch:0  note off  key:28  vel:0
        0       midi  ch:0  note on  key:28  vel:100
        48      midi  ch:0  note off  key:28  vel:0
        0       midi  ch:0  note on  key:33  vel:100
        48      midi  ch:0  note off  key:33  vel:0
        0       midi  ch:0  note on  key:33  vel:100
        48      midi  ch:0  note off  key:33  vel:0
        0       midi  ch:0  note on  key:33  vel:100
        48      midi  ch:0  note off  key:33  vel:0
        0       midi  ch:0  note on  key:33  vel:100
        48      midi  ch:0  note off  key:33  vel:0
        0       midi  ch:0  note on  key:33  vel:100
        48      midi  ch:0  note on  key:29  vel:100
        0       midi  ch:0  note off  key:33  vel:0
        48      midi  ch:0  note off  key:29  vel:0
        0       midi  ch:0  note on  key:29  vel:100
        48      midi  ch:0  note off  key:29  vel:0
        0       midi  ch:0  note on  key:29  vel:100
        48      midi  ch:0  note off  key:29  vel:0
        0       midi  ch:0  note on  key:31  vel:100
        48      midi  ch:0  note off  key:31  vel:0
        0       midi  ch:0  note on  key:31  vel:100
        48      midi  ch:0  note off  key:31  vel:0
        0       midi  ch:0  note on  key:31  vel:100
        48      midi  ch:0  note off  key:31  vel:0
        0       midi  ch:0  note on  key:31  vel:100
        48      midi  ch:0  note off  key:31  vel:0
        0       midi  ch:0  note on  key:33  vel:100
        48      midi  ch:0  note off  key:33  vel:0
        0       midi  ch:0  note on  key:33  vel:100
        48      midi  ch:0  note off  key:33  vel:0
        0       midi  ch:0  note on  key:33  vel:100
        48      midi  ch:0  note off  key:33  vel:0
        0       midi  ch:0  note on  key:33  vel:100
        48      midi  ch:0  note off  key:33  vel:0
        0       midi  ch:0  note on  key:33  vel:100
        48      midi  ch:0  note off  key:33  vel:0
        0       midi  ch:0  note on  key:33  vel:100
        48      midi  ch:0  note off  key:33  vel:0
        0       midi  ch:0  note on  key:33  vel:100
        48      midi  ch:0  note on  key:31  vel:100
        0       midi  ch:0  note off  key:33  vel:0
        48      midi  ch:0  note off  key:31  vel:0
        0       midi  ch:0  note on  key:31  vel:100
        48      midi  ch:0  note on  key:29  vel:100
        0       midi  ch:0  note off  key:31  vel:0
        48      midi  ch:0  note off  key:29  vel:0
        0       midi  ch:0  note on  key:29  vel:100
        48      midi  ch:0  note off  key:29  vel:0
        0       midi  ch:0  note on  key:29  vel:100
        48      midi  ch:0  note off  key:29  vel:0
        0       midi  ch:0  note on  key:31  vel:100
        48      midi  ch:0  note off  key:31  vel:0
        0       midi  ch:0  note on  key:31  vel:100
        48      midi  ch:0  note off  key:31  vel:0
        0       midi  ch:0  note on  key:31  vel:100
        48      midi  ch:0  note off  key:31  vel:0
        0       midi  ch:0  note on  key:31  vel:100
        48      midi  ch:0  note off  key:31  vel:0
        0       midi  ch:0  note on  key:33  vel:100
        48      midi  ch:0  note off  key:33  vel:0
        0       midi  ch:0  note on  key:33  vel:100
        48      midi  ch:0  note off  key:33  vel:0
        0       midi  ch:0  note on  key:33  vel:100
        48      midi  ch:0  note off  key:33  vel:0
        0       midi  ch:0  note on  key:33  vel:100
        48      midi  ch:0  note off  key:33  vel:0
        0       midi  ch:0  note on  key:33  vel:100
        48      midi  ch:0  note off  key:33  vel:0
        0       midi  ch:0  note on  key:33  vel:100
        48      midi  ch:0  note off  key:33  vel:0
        0       midi  ch:0  note on  key:33  vel:100
        48      midi  ch:0  note off  key:33  vel:0
        0       midi  ch:0  note on  key:33  vel:100
        48      midi  ch:0  note off  key:33  vel:0
        0       midi  ch:0  note on  key:33  vel:100
        48      midi  ch:0  note off  key:33  vel:0
        0       midi  ch:0  note on  key:33  vel:100
        48      midi  ch:0  note off  key:33  vel:0
        0       midi  ch:0  note on  key:33  vel:100
        48      midi  ch:0  note off  key:33  vel:0
        0       midi  ch:0  note on  key:33  vel:100
        48      midi  ch:0  note off  key:33  vel:0
        0       midi  ch:0  note on  key:33  vel:100
        48      midi  ch:0  note off  key:33  vel:0
        0       midi  ch:0  note on  key:33  vel:100
        48      midi  ch:0  note off  key:33  vel:0
        0       midi  ch:0  note on  key:33  vel:100
        48      midi  ch:0  note off  key:33  vel:0
        0       midi  ch:0  note on  key:33  vel:100
        48      midi  ch:0  note off  key:33  vel:0
        0       midi  ch:0  note on  key:33  vel:100
        48      midi  ch:0  note off  key:33  vel:0
        0       midi  ch:0  note on  key:33  vel:100
        48      midi  ch:0  note off  key:33  vel:0
        0       midi  ch:0  note on  key:33  vel:100
        48      midi  ch:0  note off  key:33  vel:0
        0       midi  ch:0  note on  key:33  vel:100
        48      midi  ch:0  note on  key:31  vel:100
        0       midi  ch:0  note off  key:33  vel:0
        48      midi  ch:0  note off  key:31  vel:0
        0       midi  ch:0  note on  key:33  vel:100
        48      midi  ch:0  note on  key:29  vel:100
        0       midi  ch:0  note off  key:33  vel:0
        48      midi  ch:0  note on  key:28  vel:100
        0       midi  ch:0  note off  key:29  vel:0
        48      midi  ch:0  note off  key:28  vel:0
        0       midi  ch:0  note on  key:28  vel:100
        48      midi  ch:0  note off  key:28  vel:0
        0       midi  ch:0  note on  key:33  vel:100
        48      midi  ch:0  note off  key:33  vel:0
        0       midi  ch:0  note on  key:33  vel:100
        48      midi  ch:0  note off  key:33  vel:0
        0       midi  ch:0  note on  key:33  vel:100
        48      midi  ch:0  note off  key:33  vel:0
        0       midi  ch:0  note on  key:33  vel:100
        48      midi  ch:0  note off  key:33  vel:0
        0       midi  ch:0  note on  key:33  vel:100
        48      midi  ch:0  note off  key:33  vel:0
        0       midi  ch:0  note on  key:33  vel:100
        48      midi  ch:0  note off  key:33  vel:0
        0       midi  ch:0  note on  key:33  vel:100
        48      midi  ch:0  note off  key:33  vel:0
        0       midi  ch:0  note on  key:33  vel:100
        48      midi  ch:0  note off  key:33  vel:0
        0       midi  ch:0  note on  key:33  vel:100
        48      midi  ch:0  note off  key:33  vel:0
        0       midi  ch:0  note on  key:33  vel:100
        48      midi  ch:0  note off  key:33  vel:0
        0       midi  ch:0  note on  key:33  vel:100
        48      midi  ch:0  note on  key:31  vel:100
        0       midi  ch:0  note off  key:33  vel:0
        48      midi  ch:0  note off  key:31  vel:0
        0       midi  ch:0  note on  key:33  vel:100
        48      midi  ch:0  note on  key:29  vel:100
        0       midi  ch:0  note off  key:33  vel:0
        48      midi  ch:0  note on  key:28  vel:100
        0       midi  ch:0  note off  key:29  vel:0
        48      midi  ch:0  note off  key:28  vel:0
        0       midi  ch:0  note on  key:28  vel:100
        48      midi  ch:0  note off  key:28  vel:0
        0       midi  ch:0  note on  key:32  vel:100
        48      midi  ch:0  note off  key:32  vel:0
        0       midi  ch:0  note on  key:32  vel:100
        48      midi  ch:0  note off  key:32  vel:0
        0       midi  ch:0  note on  key:32  vel:100
        48      midi  ch:0  note off  key:32  vel:0
        0       midi  ch:0  note on  key:32  vel:100
        48      midi  ch:0  note off  key:32  vel:0
        0       midi  ch:0  note on  key:32  vel:100
        48      midi  ch:0  note off  key:32  vel:0
        0       midi  ch:0  note on  key:32  vel:100
        48      midi  ch:0  note off  key:32  vel:0
        0       midi  ch:0  note on  key:32  vel:100
        48      midi  ch:0  note off  key:32  vel:0
        0       midi  ch:0  note on  key:32  vel:100
        48      midi  ch:0  note off  key:32  vel:0
        0       midi  ch:0  note on  key:32  vel:100
        48      midi  ch:0  note off  key:32  vel:0
        0       midi  ch:0  note on  key:32  vel:100
        48      midi  ch:0  note off  key:32  vel:0
        0       midi  ch:0  note on  key:32  vel:100
        48      midi  ch:0  note on  key:29  vel:100
        0       midi  ch:0  note off  key:32  vel:0
        48      midi  ch:0  note off  key:29  vel:0
        0       midi  ch:0  note on  key:32  vel:100
        48      midi  ch:0  note on  key:29  vel:100
        0       midi  ch:0  note off  key:32  vel:0
        48      midi  ch:0  note on  key:28  vel:100
        0       midi  ch:0  note off  key:29  vel:0
        48      midi  ch:0  note off  key:28  vel:0
        0       midi  ch:0  note on  key:28  vel:100
        48      midi  ch:0  note off  key:28  vel:0
        0       midi  ch:0  note on  key:33  vel:100
        48      midi  ch:0  note off  key:33  vel:0
        0       midi  ch:0  note on  key:33  vel:100
        48      midi  ch:0  note off  key:33  vel:0
        0       midi  ch:0  note on  key:33  vel:100
        48      midi  ch:0  note off  key:33  vel:0
        0       midi  ch:0  note on  key:33  vel:100
        48      midi  ch:0  note off  key:33  vel:0
        0       midi  ch:0  note on  key:33  vel:100
        48      midi  ch:0  note off  key:33  vel:0
        0       midi  ch:0  note on  key:33  vel:100
        48      midi  ch:0  note off  key:33  vel:0
        0       midi  ch:0  note on  key:33  vel:100
        48      midi  ch:0  note off  key:33  vel:0
        0       midi  ch:0  note on  key:33  vel:100
        48      midi  ch:0  note off  key:33  vel:0
        0       midi  ch:0  note on  key:33  vel:100
        48      midi  ch:0  note off  key:33  vel:0
        0       midi  ch:0  note on  key:33  vel:100
        48      midi  ch:0  note off  key:33  vel:0
        0       midi  ch:0  note on  key:33  vel:100
        48      midi  ch:0  note on  key:31  vel:100
        0       midi  ch:0  note off  key:33  vel:0
        48      midi  ch:0  note off  key:31  vel:0
        0       midi  ch:0  note on  key:33  vel:100
        48      midi  ch:0  note on  key:29  vel:100
        0       midi  ch:0  note off  key:33  vel:0
        48      midi  ch:0  note on  key:28  vel:100
        0       midi  ch:0  note off  key:29  vel:0
        48      midi  ch:0  note off  key:28  vel:0
        0       midi  ch:0  note on  key:28  vel:100
        48      midi  ch:0  note off  key:28  vel:0
        0       midi  ch:0  note on  key:33  vel:100
        48      midi  ch:0  note off  key:33  vel:0
        0       midi  ch:0  note on  key:33  vel:100
        48      midi  ch:0  note off  key:33  vel:0
        0       midi  ch:0  note on  key:33  vel:100
        48      midi  ch:0  note off  key:33  vel:0
        0       midi  ch:0  note on  key:33  vel:100
        48      midi  ch:0  note off  key:33  vel:0
        0       midi  ch:0  note on  key:33  vel:100
        48      midi  ch:0  note off  key:33  vel:0
        0       midi  ch:0  note on  key:33  vel:100
        48      midi  ch:0  note off  key:33  vel:0
        0       midi  ch:0  note on  key:33  vel:100
        48      midi  ch:0  note off  key:33  vel:0
        0       midi  ch:0  note on  key:33  vel:100
        48      midi  ch:0  note off  key:33  vel:0
        0       midi  ch:0  note on  key:33  vel:100
        48      midi  ch:0  note off  key:33  vel:0
        0       midi  ch:0  note on  key:33  vel:100
        48      midi  ch:0  note off  key:33  vel:0
        0       midi  ch:0  note on  key:33  vel:100
        48      midi  ch:0  note on  key:31  vel:100
        0       midi  ch:0  note off  key:33  vel:0
        48      midi  ch:0  note off  key:31  vel:0
        0       midi  ch:0  note on  key:33  vel:100
        48      midi  ch:0  note on  key:29  vel:100
        0       midi  ch:0  note off  key:33  vel:0
        48      midi  ch:0  note on  key:28  vel:100
        0       midi  ch:0  note off  key:29  vel:0
        48      midi  ch:0  note off  key:28  vel:0
        0       midi  ch:0  note on  key:28  vel:100
        48      midi  ch:0  note off  key:28  vel:0
        0       midi  ch:0  note on  key:33  vel:100
        48      midi  ch:0  note off  key:33  vel:0
        0       midi  ch:0  note on  key:33  vel:100
        48      midi  ch:0  note off  key:33  vel:0
        0       midi  ch:0  note on  key:33  vel:100
        48      midi  ch:0  note off  key:33  vel:0
        0       midi  ch:0  note on  key:33  vel:100
        48      midi  ch:0  note off  key:33  vel:0
        0       midi  ch:0  note on  key:33  vel:100
        48      midi  ch:0  note off  key:33  vel:0
        0       midi  ch:0  note on  key:33  vel:100
        48      midi  ch:0  note off  key:33  vel:0
        0       midi  ch:0  note on  key:33  vel:100
        48      midi  ch:0  note off  key:33  vel:0
        0       midi  ch:0  note on  key:33  vel:100
        48      midi  ch:0  note off  key:33  vel:0
        0       midi  ch:0  note on  key:33  vel:100
        48      midi  ch:0  note off  key:33  vel:0
        0       midi  ch:0  note on  key:33  vel:100
        48      midi  ch:0  note off  key:33  vel:0
        0       midi  ch:0  note on  key:33  vel:100
        48      midi  ch:0  note on  key:31  vel:100
        0       midi  ch:0  note off  key:33  vel:0
        48      midi  ch:0  note off  key:31  vel:0
        0       midi  ch:0  note on  key:33  vel:100
        48      midi  ch:0  note on  key:29  vel:100
        0       midi  ch:0  note off  key:33  vel:0
        48      midi  ch:0  note on  key:28  vel:100
        0       midi  ch:0  note off  key:29  vel:0
        48      midi  ch:0  note off  key:28  vel:0
        0       midi  ch:0  note on  key:28  vel:100
        48      midi  ch:0  note off  key:28  vel:0
        0       midi  ch:0  note on  key:33  vel:100
        48      midi  ch:0  note off  key:33  vel:0
        0       midi  ch:0  note on  key:33  vel:100
        48      midi  ch:0  note off  key:33  vel:0
        0       midi  ch:0  note on  key:33  vel:100
        48      midi  ch:0  note off  key:33  vel:0
        0       midi  ch:0  note on  key:33  vel:100
        48      midi  ch:0  note off  key:33  vel:0
        0       midi  ch:0  note on  key:33  vel:100
        48      midi  ch:0  note off  key:33  vel:0
        0       midi  ch:0  note on  key:33  vel:100
        48      midi  ch:0  note off  key:33  vel:0
        0       midi  ch:0  note on  key:33  vel:100
        48      midi  ch:0  note off  key:33  vel:0
        0       midi  ch:0  note on  key:33  vel:100
        48      midi  ch:0  note off  key:33  vel:0
        0       midi  ch:0  note on  key:33  vel:100
        48      midi  ch:0  note off  key:33  vel:0
        0       midi  ch:0  note on  key:33  vel:100
        48      midi  ch:0  note off  key:33  vel:0
        0       midi  ch:0  note on  key:33  vel:100
        48      midi  ch:0  note on  key:29  vel:100
        0       midi  ch:0  note off  key:33  vel:0
        48      midi  ch:0  note off  key:29  vel:0
        0       midi  ch:0  note on  key:33  vel:100
        48      midi  ch:0  note on  key:29  vel:100
        0       midi  ch:0  note off  key:33  vel:0
        48      midi  ch:0  note on  key:28  vel:100
        0       midi  ch:0  note off  key:29  vel:0
        48      midi  ch:0  note off  key:28  vel:0
        0       midi  ch:0  note on  key:28  vel:100
        48      midi  ch:0  note off  key:28  vel:0
        0       midi  ch:0  note on  key:33  vel:100
        48      midi  ch:0  note off  key:33  vel:0
        0       midi  ch:0  note on  key:33  vel:100
        48      midi  ch:0  note off  key:33  vel:0
        0       midi  ch:0  note on  key:33  vel:100
        48      midi  ch:0  note off  key:33  vel:0
        0       midi  ch:0  note on  key:33  vel:100
        48      midi  ch:0  note off  key:33  vel:0
        0       midi  ch:0  note on  key:33  vel:100
        48      midi  ch:0  note off  key:33  vel:0
        0       midi  ch:0  note on  key:33  vel:100
        48      midi  ch:0  note off  key:33  vel:0
        0       midi  ch:0  note on  key:33  vel:100
        48      midi  ch:0  note off  key:33  vel:0
        0       midi  ch:0  note on  key:33  vel:100
        48      midi  ch:0  note off  key:33  vel:0
        0       midi  ch:0  note on  key:33  vel:100
        48      midi  ch:0  note off  key:33  vel:0
        0       midi  ch:0  note on  key:33  vel:100
        48      midi  ch:0  note off  key:33  vel:0
        0       midi  ch:0  note on  key:33  vel:100
        48      midi  ch:0  note on  key:31  vel:100
        0       midi  ch:0  note off  key:33  vel:0
        48      midi  ch:0  note off  key:31  vel:0
        0       midi  ch:0  note on  key:33  vel:100
        48      midi  ch:0  note on  key:29  vel:100
        0       midi  ch:0  note off  key:33  vel:0
        48      midi  ch:0  note on  key:28  vel:100
        0       midi  ch:0  note off  key:29  vel:0
        48      midi  ch:0  note off  key:28  vel:0
        0       midi  ch:0  note on  key:28  vel:100
        48      midi  ch:0  note off  key:28  vel:0
        0       midi  ch:0  note on  key:33  vel:100
        48      midi  ch:0  note off  key:33  vel:0
        0       midi  ch:0  note on  key:33  vel:100
        48      midi  ch:0  note off  key:33  vel:0
        0       midi  ch:0  note on  key:33  vel:100
        48      midi  ch:0  note off  key:33  vel:0
        0       midi  ch:0  note on  key:33  vel:100
        48      midi  ch:0  note off  key:33  vel:0
        0       midi  ch:0  note on  key:33  vel:100
        48      midi  ch:0  note off  key:33  vel:0
        0       midi  ch:0  note on  key:33  vel:100
        48      midi  ch:0  note off  key:33  vel:0
        0       midi  ch:0  note on  key:33  vel:100
        48      midi  ch:0  note off  key:33  vel:0
        0       midi  ch:0  note on  key:33  vel:100
        48      midi  ch:0  note off  key:33  vel:0
        0       midi  ch:0  note on  key:33  vel:100
        48      midi  ch:0  note off  key:33  vel:0
        0       midi  ch:0  note on  key:33  vel:100
        48      midi  ch:0  note off  key:33  vel:0
        0       midi  ch:0  note on  key:33  vel:100
        48      midi  ch:0  note off  key:33  vel:0
        0       midi  ch:0  note on  key:33  vel:100
        48      midi  ch:0  note off  key:33  vel:0
        0       midi  ch:0  note on  key:33  vel:100
        48      midi  ch:0  note off  key:33  vel:0
        0       midi  ch:0  note on  key:33  vel:100
        48      midi  ch:0  note off  key:33  vel:0
        0       midi  ch:0  note on  key:33  vel:100
        48      midi  ch:0  note off  key:33  vel:0
        0       midi  ch:0  note on  key:33  vel:100
        48      midi  ch:0  note off  key:33  vel:0
        0       midi  ch:0  note on  key:35  vel:100
        48      midi  ch:0  note off  key:35  vel:0
        0       midi  ch:0  note on  key:35  vel:100
        48      midi  ch:0  note off  key:35  vel:0
        0       midi  ch:0  note on  key:35  vel:100
        48      midi  ch:0  note off  key:35  vel:0
        0       midi  ch:0  note on  key:35  vel:100
        48      midi  ch:0  note off  key:35  vel:0
        0       midi  ch:0  note on  key:35  vel:100
        48      midi  ch:0  note off  key:35  vel:0
        0       midi  ch:0  note on  key:35  vel:100
        48      midi  ch:0  note off  key:35  vel:0
        0       midi  ch:0  note on  key:35  vel:100
        48      midi  ch:0  note off  key:35  vel:0
        0       midi  ch:0  note on  key:35  vel:100
        48      midi  ch:0  note on  key:33  vel:100
        0       midi  ch:0  note off  key:35  vel:0
        48      midi  ch:0  note off  key:33  vel:0
        0       midi  ch:0  note on  key:33  vel:100
        48      midi  ch:0  note off  key:33  vel:0
        0       midi  ch:0  note on  key:33  vel:100
        48      midi  ch:0  note on  key:31  vel:100
        0       midi  ch:0  note off  key:33  vel:0
        48      midi  ch:0  note off  key:31  vel:0
        0       midi  ch:0  note on  key:33  vel:100
        48      midi  ch:0  note on  key:29  vel:100
        0       midi  ch:0  note off  key:33  vel:0
        48      midi  ch:0  note on  key:28  vel:100
        0       midi  ch:0  note off  key:29  vel:0
        48      midi  ch:0  note off  key:28  vel:0
        0       midi  ch:0  note on  key:28  vel:100
        48      midi  ch:0  note off  key:28  vel:0
        0       midi  ch:0  note on  key:33  vel:100
        48      midi  ch:0  note off  key:33  vel:0
        0       midi  ch:0  note on  key:33  vel:100
        48      midi  ch:0  note off  key:33  vel:0
        0       midi  ch:0  note on  key:33  vel:100
        48      midi  ch:0  note off  key:33  vel:0
        0       midi  ch:0  note on  key:33  vel:100
        48      midi  ch:0  note off  key:33  vel:0
        0       midi  ch:0  note on  key:33  vel:100
        48      midi  ch:0  note off  key:33  vel:0
        0       midi  ch:0  note on  key:33  vel:100
        48      midi  ch:0  note off  key:33  vel:0
        0       midi  ch:0  note on  key:33  vel:100
        48      midi  ch:0  note off  key:33  vel:0
        0       midi  ch:0  note on  key:33  vel:100
        48      midi  ch:0  note off  key:33  vel:0
        0       midi  ch:0  note on  key:33  vel:100
        48      midi  ch:0  note off  key:33  vel:0
        0       midi  ch:0  note on  key:33  vel:100
        48      midi  ch:0  note off  key:33  vel:0
        0       midi  ch:0  note on  key:33  vel:100
        48      midi  ch:0  note off  key:33  vel:0
        0       midi  ch:0  note on  key:33  vel:100
        48      midi  ch:0  note off  key:33  vel:0
        0       midi  ch:0  note on  key:33  vel:100
        48      midi  ch:0  note off  key:33  vel:0
        0       midi  ch:0  note on  key:33  vel:100
        48      midi  ch:0  note off  key:33  vel:0
        0       midi  ch:0  note on  key:33  vel:100
        48      midi  ch:0  note off  key:33  vel:0
        0       midi  ch:0  note on  key:33  vel:100
        48      midi  ch:0  note off  key:33  vel:0
        0       midi  ch:0  note on  key:35  vel:100
        48      midi  ch:0  note off  key:35  vel:0
        0       midi  ch:0  note on  key:35  vel:100
        48      midi  ch:0  note off  key:35  vel:0
        0       midi  ch:0  note on  key:35  vel:100
        48      midi  ch:0  note off  key:35  vel:0
        0       midi  ch:0  note on  key:35  vel:100
        48      midi  ch:0  note off  key:35  vel:0
        0       midi  ch:0  note on  key:35  vel:100
        48      midi  ch:0  note off  key:35  vel:0
        0       midi  ch:0  note on  key:35  vel:100
        48      midi  ch:0  note off  key:35  vel:0
        0       midi  ch:0  note on  key:35  vel:100
        48      midi  ch:0  note off  key:35  vel:0
        0       midi  ch:0  note on  key:35  vel:100
        48      midi  ch:0  note on  key:33  vel:100
        0       midi  ch:0  note off  key:35  vel:0
        48      midi  ch:0  note off  key:33  vel:0
        0       midi  ch:0  note on  key:33  vel:100
        48      midi  ch:0  note off  key:33  vel:0
        0       midi  ch:0  note on  key:33  vel:100
        48      midi  ch:0  note on  key:31  vel:100
        0       midi  ch:0  note off  key:33  vel:0
        48      midi  ch:0  note off  key:31  vel:0
        0       midi  ch:0  note on  key:33  vel:100
        48      midi  ch:0  note on  key:29  vel:100
        0       midi  ch:0  note off  key:33  vel:0
        48      midi  ch:0  note on  key:28  vel:100
        0       midi  ch:0  note off  key:29  vel:0
        48      midi  ch:0  note off  key:28  vel:0
        0       midi  ch:0  note on  key:28  vel:100
        48      midi  ch:0  note off  key:28  vel:0
        0       midi  ch:0  note on  key:33  vel:100
        48      midi  ch:0  note off  key:33  vel:0
        0       midi  ch:0  note on  key:33  vel:100
        48      midi  ch:0  note off  key:33  vel:0
        0       midi  ch:0  note on  key:33  vel:100
        48      midi  ch:0  note off  key:33  vel:0
        0       midi  ch:0  note on  key:33  vel:100
        48      midi  ch:0  note off  key:33  vel:0
        0       midi  ch:0  note on  key:33  vel:100
        48      midi  ch:0  note off  key:33  vel:0
        0       midi  ch:0  note on  key:33  vel:100
        48      midi  ch:0  note off  key:33  vel:0
        0       midi  ch:0  note on  key:33  vel:100
        48      midi  ch:0  note off  key:33  vel:0
        0       midi  ch:0  note on  key:33  vel:100
        48      midi  ch:0  note off  key:33  vel:0
        0       midi  ch:0  note on  key:33  vel:100
        48      midi  ch:0  note off  key:33  vel:0
        0       midi  ch:0  note on  key:33  vel:100
        48      midi  ch:0  note off  key:33  vel:0
        0       midi  ch:0  note on  key:33  vel:100
        48      midi  ch:0  note off  key:33  vel:0
        0       midi  ch:0  note on  key:33  vel:100
        48      midi  ch:0  note off  key:33  vel:0
        0       midi  ch:0  note on  key:33  vel:100
        48      midi  ch:0  note off  key:33  vel:0
        0       midi  ch:0  note on  key:33  vel:100
        48      midi  ch:0  note off  key:33  vel:0
        0       midi  ch:0  note on  key:33  vel:100
        48      midi  ch:0  note off  key:33  vel:0
        0       midi  ch:0  note on  key:33  vel:100
        48      midi  ch:0  note off  key:33  vel:0
        0       midi  ch:0  note on  key:35  vel:100
        48      midi  ch:0  note off  key:35  vel:0
        0       midi  ch:0  note on  key:35  vel:100
        48      midi  ch:0  note off  key:35  vel:0
        0       midi  ch:0  note on  key:35  vel:100
        48      midi  ch:0  note off  key:35  vel:0
        0       midi  ch:0  note on  key:35  vel:100
        48      midi  ch:0  note off  key:35  vel:0
        0       midi  ch:0  note on  key:35  vel:100
        48      midi  ch:0  note off  key:35  vel:0
        0       midi  ch:0  note on  key:35  vel:100
        48      midi  ch:0  note off  key:35  vel:0
        0       midi  ch:0  note on  key:35  vel:100
        48      midi  ch:0  note off  key:35  vel:0
        0       midi  ch:0  note on  key:35  vel:100
        48      midi  ch:0  note on  key:33  vel:100
        0       midi  ch:0  note off  key:35  vel:0
        48      midi  ch:0  note off  key:33  vel:0
        0       midi  ch:0  note on  key:33  vel:100
        48      midi  ch:0  note off  key:33  vel:0
        0       midi  ch:0  note on  key:33  vel:100
        48      midi  ch:0  note on  key:31  vel:100
        0       midi  ch:0  note off  key:33  vel:0
        48      midi  ch:0  note off  key:31  vel:0
        0       midi  ch:0  note on  key:33  vel:100
        48      midi  ch:0  note on  key:29  vel:100
        0       midi  ch:0  note off  key:33  vel:0
        48      midi  ch:0  note on  key:28  vel:100
        0       midi  ch:0  note off  key:29  vel:0
        48      midi  ch:0  note off  key:28  vel:0
        0       midi  ch:0  note on  key:28  vel:100
        48      midi  ch:0  note off  key:28  vel:0
        0       midi  ch:0  note on  key:33  vel:100
        48      midi  ch:0  note off  key:33  vel:0
        0       midi  ch:0  note on  key:33  vel:100
        48      midi  ch:0  note off  key:33  vel:0
        0       midi  ch:0  note on  key:33  vel:100
        48      midi  ch:0  note off  key:33  vel:0
        0       midi  ch:0  note on  key:33  vel:100
        48      midi  ch:0  note off  key:33  vel:0
        0       midi  ch:0  note on  key:33  vel:100
        48      midi  ch:0  note off  key:33  vel:0
        0       midi  ch:0  note on  key:33  vel:100
        48      midi  ch:0  note off  key:33  vel:0
        0       midi  ch:0  note on  key:33  vel:100
        48      midi  ch:0  note off  key:33  vel:0
        0       midi  ch:0  note on  key:33  vel:100
        48      midi  ch:0  note off  key:33  vel:0
        0       midi  ch:0  note on  key:33  vel:100
        48      midi  ch:0  note off  key:33  vel:0
        0       midi  ch:0  note on  key:33  vel:100
        48      midi  ch:0  note off  key:33  vel:0
        0       midi  ch:0  note on  key:33  vel:100
        48      midi  ch:0  note off  key:33  vel:0
        0       midi  ch:0  note on  key:33  vel:100
        48      midi  ch:0  note off  key:33  vel:0
        0       midi  ch:0  note on  key:33  vel:100
        48      midi  ch:0  note off  key:33  vel:0
        0       midi  ch:0  note on  key:33  vel:100
        48      midi  ch:0  note off  key:33  vel:0
        0       midi  ch:0  note on  key:33  vel:100
        48      midi  ch:0  note off  key:33  vel:0
        0       midi  ch:0  note on  key:33  vel:100
        48      midi  ch:0  note off  key:33  vel:0
        0       midi  ch:0  note on  key:35  vel:100
        48      midi  ch:0  note off  key:35  vel:0
        0       midi  ch:0  note on  key:35  vel:100
        48      midi  ch:0  note off  key:35  vel:0
        0       midi  ch:0  note on  key:35  vel:100
        48      midi  ch:0  note off  key:35  vel:0
        0       midi  ch:0  note on  key:35  vel:100
        48      midi  ch:0  note off  key:35  vel:0
        0       midi  ch:0  note on  key:35  vel:100
        48      midi  ch:0  note off  key:35  vel:0
        0       midi  ch:0  note on  key:35  vel:100
        48      midi  ch:0  note off  key:35  vel:0
        0       midi  ch:0  note on  key:35  vel:100
        48      midi  ch:0  note off  key:35  vel:0
        0       midi  ch:0  note on  key:35  vel:100
        48      midi  ch:0  note on  key:33  vel:100
        0       midi  ch:0  note off  key:35  vel:0
        48      midi  ch:0  note off  key:33  vel:0
        0       midi  ch:0  note on  key:33  vel:100
        48      midi  ch:0  note off  key:33  vel:0
        0       midi  ch:0  note on  key:33  vel:100
        48      midi  ch:0  note on  key:31  vel:100
        0       midi  ch:0  note off  key:33  vel:0
        48      midi  ch:0  note off  key:31  vel:0
        0       midi  ch:0  note on  key:33  vel:100
        48      midi  ch:0  note on  key:29  vel:100
        0       midi  ch:0  note off  key:33  vel:0
        48      midi  ch:0  note on  key:28  vel:100
        0       midi  ch:0  note off  key:29  vel:0
        48      midi  ch:0  note off  key:28  vel:0
        0       midi  ch:0  note on  key:28  vel:100
        48      midi  ch:0  note off  key:28  vel:0
        0       midi  ch:0  note on  key:29  vel:100
        48      midi  ch:0  note off  key:29  vel:0
        0       midi  ch:0  note on  key:29  vel:100
        48      midi  ch:0  note off  key:29  vel:0
        0       midi  ch:0  note on  key:29  vel:100
        48      midi  ch:0  note off  key:29  vel:0
        0       midi  ch:0  note on  key:29  vel:100
        48      midi  ch:0  note off  key:29  vel:0
        0       midi  ch:0  note on  key:29  vel:100
        48      midi  ch:0  note off  key:29  vel:0
        0       midi  ch:0  note on  key:31  vel:100
        48      midi  ch:0  note off  key:31  vel:0
        0       midi  ch:0  note on  key:31  vel:100
        48      midi  ch:0  note off  key:31  vel:0
        0       midi  ch:0  note on  key:33  vel:100
        48      midi  ch:0  note off  key:33  vel:0
        0       midi  ch:0  note on  key:33  vel:100
        48      midi  ch:0  note off  key:33  vel:0
        0       midi  ch:0  note on  key:33  vel:100
        48      midi  ch:0  note off  key:33  vel:0
        0       midi  ch:0  note on  key:33  vel:100
        48      midi  ch:0  note off  key:33  vel:0
        0       midi  ch:0  note on  key:33  vel:100
        48      midi  ch:0  note off  key:33  vel:0
        0       midi  ch:0  note on  key:33  vel:100
        48      midi  ch:0  note off  key:33  vel:0
        0       midi  ch:0  note on  key:33  vel:100
        48      midi  ch:0  note on  key:31  vel:100
        0       midi  ch:0  note off  key:33  vel:0
        48      midi  ch:0  note off  key:31  vel:0
        0       midi  ch:0  note on  key:31  vel:100
        48      midi  ch:0  note on  key:29  vel:100
        0       midi  ch:0  note off  key:31  vel:0
        48      midi  ch:0  note off  key:29  vel:0
        0       midi  ch:0  note on  key:29  vel:100
        48      midi  ch:0  note off  key:29  vel:0
        0       midi  ch:0  note on  key:29  vel:100
        48      midi  ch:0  note off  key:29  vel:0
        0       midi  ch:0  note on  key:29  vel:100
        48      midi  ch:0  note off  key:29  vel:0
        0       midi  ch:0  note on  key:29  vel:100
        48      midi  ch:0  note off  key:29  vel:0
        0       midi  ch:0  note on  key:31  vel:100
        48      midi  ch:0  note off  key:31  vel:0
        0       midi  ch:0  note on  key:31  vel:100
        48      midi  ch:0  note off  key:31  vel:0
        0       midi  ch:0  note on  key:33  vel:100
        48      midi  ch:0  note off  key:33  vel:0
        0       midi  ch:0  note on  key:33  vel:100
        48      midi  ch:0  note off  key:33  vel:0
        0       midi  ch:0  note on  key:33  vel:100
        48      midi  ch:0  note off  key:33  vel:0
        0       midi  ch:0  note on  key:33  vel:100
        48      midi  ch:0  note off  key:33  vel:0
        0       midi  ch:0  note on  key:33  vel:100
        48      midi  ch:0  note off  key:33  vel:0
        0       midi  ch:0  note on  key:33  vel:100
        48      midi  ch:0  note off  key:33  vel:0
        0       midi  ch:0  note on  key:33  vel:100
        48      midi  ch:0  note off  key:33  vel:0
        0       midi  ch:0  note on  key:33  vel:100
        48      midi  ch:0  note off  key:33  vel:0
        0       midi  ch:0  note on  key:33  vel:100
        48      midi  ch:0  note on  key:29  vel:100
        0       midi  ch:0  note off  key:33  vel:0
        48      midi  ch:0  note off  key:29  vel:0
        0       midi  ch:0  note on  key:29  vel:100
        48      midi  ch:0  note off  key:29  vel:0
        0       midi  ch:0  note on  key:29  vel:100
        48      midi  ch:0  note off  key:29  vel:0
        0       midi  ch:0  note on  key:29  vel:100
        48      midi  ch:0  note off  key:29  vel:0
        0       midi  ch:0  note on  key:29  vel:100
        48      midi  ch:0  note off  key:29  vel:0
        0       midi  ch:0  note on  key:31  vel:100
        48      midi  ch:0  note off  key:31  vel:0
        0       midi  ch:0  note on  key:31  vel:100
        48      midi  ch:0  note off  key:31  vel:0
        0       midi  ch:0  note on  key:33  vel:100
        48      midi  ch:0  note off  key:33  vel:0
        0       midi  ch:0  note on  key:33  vel:100
        48      midi  ch:0  note off  key:33  vel:0
        0       midi  ch:0  note on  key:33  vel:100
        48      midi  ch:0  note off  key:33  vel:0
        0       midi  ch:0  note on  key:33  vel:100
        48      midi  ch:0  note off  key:33  vel:0
        0       midi  ch:0  note on  key:33  vel:100
        48      midi  ch:0  note off  key:33  vel:0
        0       midi  ch:0  note on  key:33  vel:100
        48      midi  ch:0  note off  key:33  vel:0
        0       midi  ch:0  note on  key:33  vel:100
        48      midi  ch:0  note on  key:31  vel:100
        0       midi  ch:0  note off  key:33  vel:0
        48      midi  ch:0  note off  key:31  vel:0
        0       midi  ch:0  note on  key:31  vel:100
        48      midi  ch:0  note on  key:29  vel:100
        0       midi  ch:0  note off  key:31  vel:0
        48      midi  ch:0  note off  key:29  vel:0
        0       midi  ch:0  note on  key:29  vel:100
        48      midi  ch:0  note off  key:29  vel:0
        0       midi  ch:0  note on  key:29  vel:100
        48      midi  ch:0  note off  key:29  vel:0
        0       midi  ch:0  note on  key:29  vel:100
        48      midi  ch:0  note off  key:29  vel:0
        0       midi  ch:0  note on  key:29  vel:100
        48      midi  ch:0  note off  key:29  vel:0
        0       midi  ch:0  note on  key:31  vel:100
        48      midi  ch:0  note off  key:31  vel:0
        0       midi  ch:0  note on  key:31  vel:100
        48      midi  ch:0  note off  key:31  vel:0
        0       midi  ch:0  note on  key:33  vel:100
        48      midi  ch:0  note off  key:33  vel:0
        0       midi  ch:0  note on  key:33  vel:100
        48      midi  ch:0  note off  key:33  vel:0
        0       midi  ch:0  note on  key:33  vel:100
        48      midi  ch:0  note off  key:33  vel:0
        0       midi  ch:0  note on  key:33  vel:100
        48      midi  ch:0  note off  key:33  vel:0
        0       midi  ch:0  note on  key:33  vel:100
        48      midi  ch:0  note off  key:33  vel:0
        0       midi  ch:0  note on  key:33  vel:100
        48      midi  ch:0  note off  key:33  vel:0
        0       midi  ch:0  note on  key:33  vel:100
        48      midi  ch:0  note off  key:33  vel:0
        0       midi  ch:0  note on  key:33  vel:100
        48      midi  ch:0  note off  key:33  vel:0
        0       midi  ch:0  note on  key:33  vel:100
        48      midi  ch:0  note on  key:29  vel:100
        0       midi  ch:0  note off  key:33  vel:0
        48      midi  ch:0  note off  key:29  vel:0
        0       midi  ch:0  note on  key:29  vel:100
        48      midi  ch:0  note off  key:29  vel:0
        0       midi  ch:0  note on  key:29  vel:100
        48      midi  ch:0  note off  key:29  vel:0
        0       midi  ch:0  note on  key:31  vel:100
        48      midi  ch:0  note off  key:31  vel:0
        0       midi  ch:0  note on  key:31  vel:100
        48      midi  ch:0  note off  key:31  vel:0
        0       midi  ch:0  note on  key:31  vel:100
        48      midi  ch:0  note off  key:31  vel:0
        0       midi  ch:0  note on  key:31  vel:100
        48      midi  ch:0  note off  key:31  vel:0
        0       midi  ch:0  note on  key:33  vel:100
        48      midi  ch:0  note off  key:33  vel:0
        0       midi  ch:0  note on  key:33  vel:100
        48      midi  ch:0  note off  key:33  vel:0
        0       midi  ch:0  note on  key:33  vel:100
        48      midi  ch:0  note off  key:33  vel:0
        0       midi  ch:0  note on  key:33  vel:100
        48      midi  ch:0  note off  key:33  vel:0
        0       midi  ch:0  note on  key:33  vel:100
        48      midi  ch:0  note off  key:33  vel:0
        0       midi  ch:0  note on  key:33  vel:100
        48      midi  ch:0  note off  key:33  vel:0
        0       midi  ch:0  note on  key:33  vel:100
        48      midi  ch:0  note on  key:31  vel:100
        0       midi  ch:0  note off  key:33  vel:0
        48      midi  ch:0  note off  key:31  vel:0
        0       midi  ch:0  note on  key:31  vel:100
        48      midi  ch:0  note on  key:29  vel:100
        0       midi  ch:0  note off  key:31  vel:0
        48      midi  ch:0  note off  key:29  vel:0
        0       midi  ch:0  note on  key:29  vel:100
        48      midi  ch:0  note off  key:29  vel:0
        0       midi  ch:0  note on  key:29  vel:100
        48      midi  ch:0  note off  key:29  vel:0
        0       midi  ch:0  note on  key:31  vel:100
        48      midi  ch:0  note off  key:31  vel:0
        0       midi  ch:0  note on  key:31  vel:100
        48      midi  ch:0  note off  key:31  vel:0
        0       midi  ch:0  note on  key:31  vel:100
        48      midi  ch:0  note off  key:31  vel:0
        0       midi  ch:0  note on  key:31  vel:100
        48      midi  ch:0  note on  key:28  vel:100
        0       midi  ch:0  note off  key:31  vel:0
        48      midi  ch:0  note off  key:28  vel:0
        0       midi  ch:0  note on  key:28  vel:100
        48      midi  ch:0  note off  key:28  vel:0
        0       midi  ch:0  note on  key:28  vel:100
        48      midi  ch:0  note off  key:28  vel:0
        0       midi  ch:0  note on  key:28  vel:100
        48      midi  ch:0  note off  key:28  vel:0
        0       midi  ch:0  note on  key:33  vel:100
        48      midi  ch:0  note off  key:33  vel:0
        0       midi  ch:0  note on  key:33  vel:100
        48      midi  ch:0  note off  key:33  vel:0
        0       midi  ch:0  note on  key:33  vel:100
        48      midi  ch:0  note off  key:33  vel:0
        0       midi  ch:0  note on  key:33  vel:100
        48      midi  ch:0  note off  key:33  vel:0
        0       midi  ch:0  note on  key:33  vel:100
        48      midi  ch:0  note on  key:29  vel:100
        0       midi  ch:0  note off  key:33  vel:0
        48      midi  ch:0  note off  key:29  vel:0
        0       midi  ch:0  note on  key:29  vel:100
        48      midi  ch:0  note off  key:29  vel:0
        0       midi  ch:0  note on  key:29  vel:100
        48      midi  ch:0  note off  key:29  vel:0
        0       midi  ch:0  note on  key:31  vel:100
        48      midi  ch:0  note off  key:31  vel:0
        0       midi  ch:0  note on  key:31  vel:100
        48      midi  ch:0  note off  key:31  vel:0
        0       midi  ch:0  note on  key:31  vel:100
        48      midi  ch:0  note off  key:31  vel:0
        0       midi  ch:0  note on  key:31  vel:100
        48      midi  ch:0  note off  key:31  vel:0
        0       midi  ch:0  note on  key:33  vel:100
        48      midi  ch:0  note off  key:33  vel:0
        0       midi  ch:0  note on  key:33  vel:100
        48      midi  ch:0  note off  key:33  vel:0
        0       midi  ch:0  note on  key:33  vel:100
        48      midi  ch:0  note off  key:33  vel:0
        0       midi  ch:0  note on  key:33  vel:100
        48      midi  ch:0  note off  key:33  vel:0
        0       midi  ch:0  note on  key:33  vel:100
        48      midi  ch:0  note off  key:33  vel:0
        0       midi  ch:0  note on  key:33  vel:100
        48      midi  ch:0  note off  key:33  vel:0
        0       midi  ch:0  note on  key:33  vel:100
        48      midi  ch:0  note on  key:31  vel:100
        0       midi  ch:0  note off  key:33  vel:0
        48      midi  ch:0  note off  key:31  vel:0
        0       midi  ch:0  note on  key:31  vel:100
        48      midi  ch:0  note on  key:29  vel:100
        0       midi  ch:0  note off  key:31  vel:0
        48      midi  ch:0  note off  key:29  vel:0
        0       midi  ch:0  note on  key:29  vel:100
        48      midi  ch:0  note off  key:29  vel:0
        0       midi  ch:0  note on  key:29  vel:100
        48      midi  ch:0  note off  key:29  vel:0
        0       midi  ch:0  note on  key:31  vel:100
        48      midi  ch:0  note off  key:31  vel:0
        0       midi  ch:0  note on  key:31  vel:100
        48      midi  ch:0  note off  key:31  vel:0
        0       midi  ch:0  note on  key:31  vel:100
        48      midi  ch:0  note off  key:31  vel:0
        0       midi  ch:0  note on  key:31  vel:100
        48      midi  ch:0  note off  key:31  vel:0
        0       midi  ch:0  note on  key:33  vel:100
        48      midi  ch:0  note off  key:33  vel:0
        0       midi  ch:0  note on  key:33  vel:100
        48      midi  ch:0  note off  key:33  vel:0
        0       midi  ch:0  note on  key:33  vel:100
        48      midi  ch:0  note off  key:33  vel:0
        0       midi  ch:0  note on  key:33  vel:100
        48      midi  ch:0  note off  key:33  vel:0
        0       midi  ch:0  note on  key:33  vel:100
        48      midi  ch:0  note off  key:33  vel:0
        0       midi  ch:0  note on  key:33  vel:100
        48      midi  ch:0  note off  key:33  vel:0
        0       midi  ch:0  note on  key:33  vel:100
        48      midi  ch:0  note off  key:33  vel:0
        0       midi  ch:0  note on  key:33  vel:100
        48      midi  ch:0  note off  key:33  vel:0
        0       midi  ch:0  note on  key:33  vel:100
        48      midi  ch:0  note off  key:33  vel:0
        1536    midi  ch:0  note on  key:29  vel:100
        48      midi  ch:0  note off  key:29  vel:0
        0       midi  ch:0  note on  key:29  vel:100
        48      midi  ch:0  note off  key:29  vel:0
        0       midi  ch:0  note on  key:29  vel:100
        48      midi  ch:0  note off  key:29  vel:0
        0       midi  ch:0  note on  key:31  vel:100
        48      midi  ch:0  note off  key:31  vel:0
        0       midi  ch:0  note on  key:31  vel:100
        48      midi  ch:0  note off  key:31  vel:0
        0       midi  ch:0  note on  key:31  vel:100
        48      midi  ch:0  note off  key:31  vel:0
        0       midi  ch:0  note on  key:31  vel:100
        48      midi  ch:0  note off  key:31  vel:0
        0       midi  ch:0  note on  key:33  vel:100
        48      midi  ch:0  note off  key:33  vel:0
        0       midi  ch:0  note on  key:33  vel:100
        48      midi  ch:0  note off  key:33  vel:0
        0       midi  ch:0  note on  key:33  vel:100
        48      midi  ch:0  note off  key:33  vel:0
        0       midi  ch:0  note on  key:33  vel:100
        48      midi  ch:0  note off  key:33  vel:0
        0       midi  ch:0  note on  key:33  vel:100
        48      midi  ch:0  note off  key:33  vel:0
        0       midi  ch:0  note on  key:33  vel:100
        48      midi  ch:0  note off  key:33  vel:0
        0       midi  ch:0  note on  key:33  vel:100
        48      midi  ch:0  note on  key:31  vel:100
        0       midi  ch:0  note off  key:33  vel:0
        48      midi  ch:0  note off  key:31  vel:0
        0       midi  ch:0  note on  key:31  vel:100
        48      midi  ch:0  note on  key:29  vel:100
        0       midi  ch:0  note off  key:31  vel:0
        48      midi  ch:0  note off  key:29  vel:0
        0       midi  ch:0  note on  key:29  vel:100
        48      midi  ch:0  note off  key:29  vel:0
        0       midi  ch:0  note on  key:29  vel:100
        48      midi  ch:0  note off  key:29  vel:0
        0       midi  ch:0  note on  key:31  vel:100
        48      midi  ch:0  note off  key:31  vel:0
        0       midi  ch:0  note on  key:31  vel:100
        48      midi  ch:0  note off  key:31  vel:0
        0       midi  ch:0  note on  key:31  vel:100
        48      midi  ch:0  note off  key:31  vel:0
        0       midi  ch:0  note on  key:31  vel:100
        48      midi  ch:0  note on  key:28  vel:100
        0       midi  ch:0  note off  key:31  vel:0
        48      midi  ch:0  note off  key:28  vel:0
        0       midi  ch:0  note on  key:28  vel:100
        48      midi  ch:0  note off  key:28  vel:0
        0       midi  ch:0  note on  key:28  vel:100
        48      midi  ch:0  note off  key:28  vel:0
        0       midi  ch:0  note on  key:28  vel:100
        48      midi  ch:0  note off  key:28  vel:0
        0       midi  ch:0  note on  key:33  vel:100
        48      midi  ch:0  note off  key:33  vel:0
        0       midi  ch:0  note on  key:33  vel:100
        48      midi  ch:0  note off  key:33  vel:0
        0       midi  ch:0  note on  key:33  vel:100
        48      midi  ch:0  note off  key:33  vel:0
        0       midi  ch:0  note on  key:33  vel:100
        48      midi  ch:0  note off  key:33  vel:0
        0       midi  ch:0  note on  key:33  vel:100
        48      midi  ch:0  note on  key:29  vel:100
        0       midi  ch:0  note off  key:33  vel:0
        48      midi  ch:0  note off  key:29  vel:0
        0       midi  ch:0  note on  key:29  vel:100
        48      midi  ch:0  note off  key:29  vel:0
        0       midi  ch:0  note on  key:29  vel:100
        48      midi  ch:0  note off  key:29  vel:0
        0       midi  ch:0  note on  key:31  vel:100
        48      midi  ch:0  note off  key:31  vel:0
        0       midi  ch:0  note on  key:31  vel:100
        48      midi  ch:0  note off  key:31  vel:0
        0       midi  ch:0  note on  key:31  vel:100
        48      midi  ch:0  note off  key:31  vel:0
        0       midi  ch:0  note on  key:31  vel:100
        48      midi  ch:0  note off  key:31  vel:0
        0       midi  ch:0  note on  key:33  vel:100
        48      midi  ch:0  note off  key:33  vel:0
        0       midi  ch:0  note on  key:33  vel:100
        48      midi  ch:0  note off  key:33  vel:0
        0       midi  ch:0  note on  key:33  vel:100
        48      midi  ch:0  note off  key:33  vel:0
        0       midi  ch:0  note on  key:33  vel:100
        48      midi  ch:0  note off  key:33  vel:0
        0       midi  ch:0  note on  key:33  vel:100
        48      midi  ch:0  note off  key:33  vel:0
        0       midi  ch:0  note on  key:33  vel:100
        48      midi  ch:0  note off  key:33  vel:0
        0       midi  ch:0  note on  key:33  vel:100
        48      midi  ch:0  note on  key:31  vel:100
        0       midi  ch:0  note off  key:33  vel:0
        48      midi  ch:0  note off  key:31  vel:0
        0       midi  ch:0  note on  key:31  vel:100
        48      midi  ch:0  note on  key:29  vel:100
        0       midi  ch:0  note off  key:31  vel:0
        48      midi  ch:0  note off  key:29  vel:0
        0       midi  ch:0  note on  key:29  vel:100
        48      midi  ch:0  note off  key:29  vel:0
        0       midi  ch:0  note on  key:29  vel:100
        48      midi  ch:0  note off  key:29  vel:0
        0       midi  ch:0  note on  key:31  vel:100
        48      midi  ch:0  note off  key:31  vel:0
        0       midi  ch:0  note on  key:31  vel:100
        48      midi  ch:0  note off  key:31  vel:0
        0       midi  ch:0  note on  key:31  vel:100
        48      midi  ch:0  note off  key:31  vel:0
        0       midi  ch:0  note on  key:31  vel:100
        48      midi  ch:0  note off  key:31  vel:0
        0       midi  ch:0  note on  key:33  vel:100
        48      midi  ch:0  note off  key:33  vel:0
        0       midi  ch:0  note on  key:33  vel:100
        48      midi  ch:0  note off  key:33  vel:0
        0       midi  ch:0  note on  key:33  vel:100
        48      midi  ch:0  note off  key:33  vel:0
        0       midi  ch:0  note on  key:33  vel:100
        48      midi  ch:0  note off  key:33  vel:0
        0       midi  ch:0  note on  key:33  vel:100
        48      midi  ch:0  note off  key:33  vel:0
        0       midi  ch:0  note on  key:33  vel:100
        48      midi  ch:0  note off  key:33  vel:0
        0       midi  ch:0  note on  key:33  vel:100
        48      midi  ch:0  note off  key:33  vel:0
        0       midi  ch:0  note on  key:33  vel:100
        48      midi  ch:0  note off  key:33  vel:0
        0       midi  ch:0  note on  key:33  vel:100
        48      midi  ch:0  note on  key:29  vel:100
        0       midi  ch:0  note off  key:33  vel:0
        48      midi  ch:0  note off  key:29  vel:0
        0       midi  ch:0  note on  key:29  vel:100
        48      midi  ch:0  note off  key:29  vel:0
        0       midi  ch:0  note on  key:29  vel:100
        48      midi  ch:0  note off  key:29  vel:0
        0       midi  ch:0  note on  key:31  vel:100
        48      midi  ch:0  note off  key:31  vel:0
        0       midi  ch:0  note on  key:31  vel:100
        48      midi  ch:0  note off  key:31  vel:0
        0       midi  ch:0  note on  key:31  vel:100
        48      midi  ch:0  note off  key:31  vel:0
        0       midi  ch:0  note on  key:31  vel:100
        48      midi  ch:0  note off  key:31  vel:0
        0       midi  ch:0  note on  key:33  vel:100
        48      midi  ch:0  note off  key:33  vel:0
        0       midi  ch:0  note on  key:33  vel:100
        48      midi  ch:0  note off  key:33  vel:0
        0       midi  ch:0  note on  key:33  vel:100
        48      midi  ch:0  note off  key:33  vel:0
        0       midi  ch:0  note on  key:33  vel:100
        48      midi  ch:0  note off  key:33  vel:0
        0       midi  ch:0  note on  key:33  vel:100
        48      midi  ch:0  note off  key:33  vel:0
        0       midi  ch:0  note on  key:33  vel:100
        48      midi  ch:0  note off  key:33  vel:0
        0       midi  ch:0  note on  key:33  vel:100
        48      midi  ch:0  note on  key:31  vel:100
        0       midi  ch:0  note off  key:33  vel:0
        48      midi  ch:0  note off  key:31  vel:0
        0       midi  ch:0  note on  key:31  vel:100
        48      midi  ch:0  note on  key:29  vel:100
        0       midi  ch:0  note off  key:31  vel:0
        48      midi  ch:0  note off  key:29  vel:0
        0       midi  ch:0  note on  key:29  vel:100
        48      midi  ch:0  note off  key:29  vel:0
        0       midi  ch:0  note on  key:29  vel:100
        48      midi  ch:0  note off  key:29  vel:0
        0       midi  ch:0  note on  key:31  vel:100
        48      midi  ch:0  note off  key:31  vel:0
        0       midi  ch:0  note on  key:31  vel:100
        48      midi  ch:0  note off  key:31  vel:0
        0       midi  ch:0  note on  key:31  vel:100
        48      midi  ch:0  note off  key:31  vel:0
        0       midi  ch:0  note on  key:31  vel:100
        48      midi  ch:0  note on  key:28  vel:100
        0       midi  ch:0  note off  key:31  vel:0
        48      midi  ch:0  note off  key:28  vel:0
        0       midi  ch:0  note on  key:28  vel:100
        48      midi  ch:0  note off  key:28  vel:0
        0       midi  ch:0  note on  key:28  vel:100
        48      midi  ch:0  note off  key:28  vel:0
        0       midi  ch:0  note on  key:28  vel:100
        48      midi  ch:0  note off  key:28  vel:0
        0       midi  ch:0  note on  key:33  vel:100
        48      midi  ch:0  note off  key:33  vel:0
        0       midi  ch:0  note on  key:33  vel:100
        48      midi  ch:0  note off  key:33  vel:0
        0       midi  ch:0  note on  key:33  vel:100
        48      midi  ch:0  note off  key:33  vel:0
        0       midi  ch:0  note on  key:33  vel:100
        48      midi  ch:0  note off  key:33  vel:0
        0       midi  ch:0  note on  key:33  vel:100
        48      midi  ch:0  note on  key:29  vel:100
        0       midi  ch:0  note off  key:33  vel:0
        48      midi  ch:0  note off  key:29  vel:0
        0       midi  ch:0  note on  key:29  vel:100
        48      midi  ch:0  note off  key:29  vel:0
        0       midi  ch:0  note on  key:29  vel:100
        48      midi  ch:0  note off  key:29  vel:0
        0       midi  ch:0  note on  key:31  vel:100
        48      midi  ch:0  note off  key:31  vel:0
        0       midi  ch:0  note on  key:31  vel:100
        48      midi  ch:0  note off  key:31  vel:0
        0       midi  ch:0  note on  key:31  vel:100
        48      midi  ch:0  note off  key:31  vel:0
        0       midi  ch:0  note on  key:31  vel:100
        48      midi  ch:0  note off  key:31  vel:0
        0       midi  ch:0  note on  key:33  vel:100
        48      midi  ch:0  note off  key:33  vel:0
        0       midi  ch:0  note on  key:33  vel:100
        48      midi  ch:0  note off  key:33  vel:0
        0       midi  ch:0  note on  key:33  vel:100
        48      midi  ch:0  note off  key:33  vel:0
        0       midi  ch:0  note on  key:33  vel:100
        48      midi  ch:0  note off  key:33  vel:0
        0       midi  ch:0  note on  key:33  vel:100
        48      midi  ch:0  note off  key:33  vel:0
        0       midi  ch:0  note on  key:33  vel:100
        48      midi  ch:0  note off  key:33  vel:0
        0       midi  ch:0  note on  key:33  vel:100
        48      midi  ch:0  note on  key:31  vel:100
        0       midi  ch:0  note off  key:33  vel:0
        48      midi  ch:0  note off  key:31  vel:0
        0       midi  ch:0  note on  key:31  vel:100
        48      midi  ch:0  note on  key:29  vel:100
        0       midi  ch:0  note off  key:31  vel:0
        48      midi  ch:0  note off  key:29  vel:0
        0       midi  ch:0  note on  key:29  vel:100
        48      midi  ch:0  note off  key:29  vel:0
        0       midi  ch:0  note on  key:29  vel:100
        48      midi  ch:0  note off  key:29  vel:0
        0       midi  ch:0  note on  key:31  vel:100
        48      midi  ch:0  note off  key:31  vel:0
        0       midi  ch:0  note on  key:31  vel:100
        48      midi  ch:0  note off  key:31  vel:0
        0       midi  ch:0  note on  key:31  vel:100
        48      midi  ch:0  note off  key:31  vel:0
        0       midi  ch:0  note on  key:31  vel:100
        48      midi  ch:0  note off  key:31  vel:0
        0       midi  ch:0  note on  key:33  vel:100
        48      midi  ch:0  note off  key:33  vel:0
        0       midi  ch:0  note on  key:33  vel:100
        48      midi  ch:0  note off  key:33  vel:0
        0       midi  ch:0  note on  key:33  vel:100
        48      midi  ch:0  note off  key:33  vel:0
        0       midi  ch:0  note on  key:33  vel:100
        48      midi  ch:0  note off  key:33  vel:0
        0       midi  ch:0  note on  key:33  vel:100
        48      midi  ch:0  note off  key:33  vel:0
        0       midi  ch:0  note on  key:33  vel:100
        48      midi  ch:0  note off  key:33  vel:0
        0       midi  ch:0  note on  key:33  vel:100
        48      midi  ch:0  note off  key:33  vel:0
        0       midi  ch:0  note on  key:33  vel:100
        48      midi  ch:0  note off  key:33  vel:0
        0       midi  ch:0  note on  key:33  vel:100
        48      midi  ch:0  note on  key:29  vel:100
        0       midi  ch:0  note off  key:33  vel:0
        48      midi  ch:0  note off  key:29  vel:0
        0       midi  ch:0  note on  key:29  vel:100
        48      midi  ch:0  note off  key:29  vel:0
        0       midi  ch:0  note on  key:29  vel:100
        48      midi  ch:0  note off  key:29  vel:0
        0       midi  ch:0  note on  key:31  vel:100
        48      midi  ch:0  note off  key:31  vel:0
        0       midi  ch:0  note on  key:31  vel:100
        48      midi  ch:0  note off  key:31  vel:0
        0       midi  ch:0  note on  key:31  vel:100
        48      midi  ch:0  note off  key:31  vel:0
        0       midi  ch:0  note on  key:31  vel:100
        48      midi  ch:0  note off  key:31  vel:0
        0       midi  ch:0  note on  key:33  vel:100
        48      midi  ch:0  note off  key:33  vel:0
        0       midi  ch:0  note on  key:33  vel:100
        48      midi  ch:0  note off  key:33  vel:0
        0       midi  ch:0  note on  key:33  vel:100
        48      midi  ch:0  note off  key:33  vel:0
        0       midi  ch:0  note on  key:33  vel:100
        48      midi  ch:0  note off  key:33  vel:0
        0       midi  ch:0  note on  key:33  vel:100
        48      midi  ch:0  note off  key:33  vel:0
        0       midi  ch:0  note on  key:33  vel:100
        48      midi  ch:0  note off  key:33  vel:0
        0       midi  ch:0  note on  key:33  vel:100
        48      midi  ch:0  note on  key:31  vel:100
        0       midi  ch:0  note off  key:33  vel:0
        48      midi  ch:0  note off  key:31  vel:0
        0       midi  ch:0  note on  key:31  vel:100
        48      midi  ch:0  note on  key:29  vel:100
        0       midi  ch:0  note off  key:31  vel:0
        48      midi  ch:0  note off  key:29  vel:0
        0       midi  ch:0  note on  key:29  vel:100
        48      midi  ch:0  note off  key:29  vel:0
        0       midi  ch:0  note on  key:29  vel:100
        48      midi  ch:0  note off  key:29  vel:0
        0       midi  ch:0  note on  key:31  vel:100
        48      midi  ch:0  note off  key:31  vel:0
        0       midi  ch:0  note on  key:31  vel:100
        48      midi  ch:0  note off  key:31  vel:0
        0       midi  ch:0  note on  key:31  vel:100
        48      midi  ch:0  note off  key:31  vel:0
        0       midi  ch:0  note on  key:31  vel:100
        48      midi  ch:0  note on  key:28  vel:100
        0       midi  ch:0  note off  key:31  vel:0
        48      midi  ch:0  note off  key:28  vel:0
        0       midi  ch:0  note on  key:28  vel:100
        48      midi  ch:0  note off  key:28  vel:0
        0       midi  ch:0  note on  key:28  vel:100
        48      midi  ch:0  note off  key:28  vel:0
        0       midi  ch:0  note on  key:28  vel:100
        48      midi  ch:0  note off  key:28  vel:0
        0       midi  ch:0  note on  key:33  vel:100
        48      midi  ch:0  note off  key:33  vel:0
        0       midi  ch:0  note on  key:33  vel:100
        48      midi  ch:0  note off  key:33  vel:0
        0       midi  ch:0  note on  key:33  vel:100
        48      midi  ch:0  note off  key:33  vel:0
        0       midi  ch:0  note on  key:33  vel:100
        48      midi  ch:0  note off  key:33  vel:0
        0       midi  ch:0  note on  key:33  vel:100
        48      midi  ch:0  note on  key:29  vel:100
        0       midi  ch:0  note off  key:33  vel:0
        48      midi  ch:0  note off  key:29  vel:0
        0       midi  ch:0  note on  key:29  vel:100
        48      midi  ch:0  note off  key:29  vel:0
        0       midi  ch:0  note on  key:29  vel:100
        48      midi  ch:0  note off  key:29  vel:0
        0       midi  ch:0  note on  key:31  vel:100
        48      midi  ch:0  note off  key:31  vel:0
        0       midi  ch:0  note on  key:31  vel:100
        48      midi  ch:0  note off  key:31  vel:0
        0       midi  ch:0  note on  key:31  vel:100
        48      midi  ch:0  note off  key:31  vel:0
        0       midi  ch:0  note on  key:31  vel:100
        48      midi  ch:0  note off  key:31  vel:0
        0       midi  ch:0  note on  key:33  vel:100
        48      midi  ch:0  note off  key:33  vel:0
        0       midi  ch:0  note on  key:33  vel:100
        48      midi  ch:0  note off  key:33  vel:0
        0       midi  ch:0  note on  key:33  vel:100
        48      midi  ch:0  note off  key:33  vel:0
        0       midi  ch:0  note on  key:33  vel:100
        48      midi  ch:0  note off  key:33  vel:0
        0       midi  ch:0  note on  key:33  vel:100
        48      midi  ch:0  note off  key:33  vel:0
        0       midi  ch:0  note on  key:33  vel:100
        48      midi  ch:0  note off  key:33  vel:0
        0       midi  ch:0  note on  key:33  vel:100
        48      midi  ch:0  note on  key:31  vel:100
        0       midi  ch:0  note off  key:33  vel:0
        48      midi  ch:0  note off  key:31  vel:0
        0       midi  ch:0  note on  key:31  vel:100
        48      midi  ch:0  note on  key:29  vel:100
        0       midi  ch:0  note off  key:31  vel:0
        48      midi  ch:0  note off  key:29  vel:0
        0       midi  ch:0  note on  key:29  vel:100
        48      midi  ch:0  note off  key:29  vel:0
        0       midi  ch:0  note on  key:29  vel:100
        48      midi  ch:0  note off  key:29  vel:0
        0       midi  ch:0  note on  key:31  vel:100
        48      midi  ch:0  note off  key:31  vel:0
        0       midi  ch:0  note on  key:31  vel:100
        48      midi  ch:0  note off  key:31  vel:0
        0       midi  ch:0  note on  key:31  vel:100
        48      midi  ch:0  note off  key:31  vel:0
        0       midi  ch:0  note on  key:31  vel:100
        48      midi  ch:0  note off  key:31  vel:0
        0       midi  ch:0  note on  key:33  vel:100
        48      midi  ch:0  note off  key:33  vel:0
        0       midi  ch:0  note on  key:33  vel:100
        48      midi  ch:0  note off  key:33  vel:0
        0       midi  ch:0  note on  key:33  vel:100
        48      midi  ch:0  note off  key:33  vel:0
        0       midi  ch:0  note on  key:33  vel:100
        48      midi  ch:0  note off  key:33  vel:0
        0       midi  ch:0  note on  key:33  vel:100
        48      midi  ch:0  note off  key:33  vel:0
        0       midi  ch:0  note on  key:33  vel:100
        48      midi  ch:0  note off  key:33  vel:0
        0       midi  ch:0  note on  key:33  vel:100
        48      midi  ch:0  note off  key:33  vel:0
        0       midi  ch:0  note on  key:33  vel:100
        48      midi  ch:0  note off  key:33  vel:0
        0       midi  ch:0  note on  key:33  vel:100
        48      midi  ch:0  note off  key:33  vel:0
        3091    meta  type:2f  len:0  end
MTrk  len:2333
        0       meta  type:58  len:4  tsig:  4/4 metr:36 32nds:8
        0       meta  type:58  len:4  tsig:  4/4 metr:36 32nds:8
        0       meta  type:3  len:0  track:""
        23040   midi  ch:0  note on  key:41  vel:100
        48      midi  ch:0  note off  key:41  vel:0
        0       midi  ch:0  note on  key:41  vel:100
        48      midi  ch:0  note off  key:41  vel:0
        0       midi  ch:0  note on  key:41  vel:100
        48      midi  ch:0  note off  key:41  vel:0
        0       midi  ch:0  note on  key:43  vel:100
        48      midi  ch:0  note off  key:43  vel:0
        0       midi  ch:0  note on  key:43  vel:100
        48      midi  ch:0  note off  key:43  vel:0
        0       midi  ch:0  note on  key:43  vel:100
        48      midi  ch:0  note off  key:43  vel:0
        0       midi  ch:0  note on  key:43  vel:100
        48      midi  ch:0  note off  key:43  vel:0
        0       midi  ch:0  note on  key:45  vel:100
        48      midi  ch:0  note off  key:45  vel:0
        0       midi  ch:0  note on  key:45  vel:100
        48      midi  ch:0  note off  key:45  vel:0
        0       midi  ch:0  note on  key:45  vel:100
        48      midi  ch:0  note off  key:45  vel:0
        0       midi  ch:0  note on  key:45  vel:100
        48      midi  ch:0  note off  key:45  vel:0
        0       midi  ch:0  note on  key:45  vel:100
        48      midi  ch:0  note off  key:45  vel:0
        0       midi  ch:0  note on  key:45  vel:100
        48      midi  ch:0  note off  key:45  vel:0
        0       midi  ch:0  note on  key:45  vel:100
        48      midi  ch:0  note on  key:43  vel:100
        0       midi  ch:0  note off  key:45  vel:0
        48      midi  ch:0  note off  key:43  vel:0
        0       midi  ch:0  note on  key:43  vel:100
        48      midi  ch:0  note on  key:41  vel:100
        0       midi  ch:0  note off  key:43  vel:0
        48      midi  ch:0  note off  key:41  vel:0
        0       midi  ch:0  note on  key:41  vel:100
        48      midi  ch:0  note off  key:41  vel:0
        0       midi  ch:0  note on  key:41  vel:100
        48      midi  ch:0  note off  key:41  vel:0
        0       midi  ch:0  note on  key:43  vel:100
        48      midi  ch:0  note off  key:43  vel:0
        0       midi  ch:0  note on  key:43  vel:100
        48      midi  ch:0  note off  key:43  vel:0
        0       midi  ch:0  note on  key:43  vel:100
        48      midi  ch:0  note off  key:43  vel:0
        0       midi  ch:0  note on  key:43  vel:100
        48      midi  ch:0  note off  key:43  vel:0
        0       midi  ch:0  note on  key:45  vel:100
        48      midi  ch:0  note off  key:45  vel:0
        0       midi  ch:0  note on  key:45  vel:100
        48      midi  ch:0  note off  key:45  vel:0
        0       midi  ch:0  note on  key:45  vel:100
        48      midi  ch:0  note off  key:45  vel:0
        0       midi  ch:0  note on  key:45  vel:100
        48      midi  ch:0  note off  key:45  vel:0
        0       midi  ch:0  note on  key:45  vel:100
        48      midi  ch:0  note off  key:45  vel:0
        0       midi  ch:0  note on  key:45  vel:100
        48      midi  ch:0  note off  key:45  vel:0
        0       midi  ch:0  note on  key:45  vel:100
        48      midi  ch:0  note off  key:45  vel:0
        0       midi  ch:0  note on  key:45  vel:100
        48      midi  ch:0  note off  key:45  vel:0
        0       midi  ch:0  note on  key:45  vel:100
        48      midi  ch:0  note on  key:41  vel:100
        0       midi  ch:0  note off  key:45  vel:0
        48      midi  ch:0  note off  key:41  vel:0
        0       midi  ch:0  note on  key:41  vel:100
        48      midi  ch:0  note off  key:41  vel:0
        0       midi  ch:0  note on  key:41  vel:100
        48      midi  ch:0  note off  key:41  vel:0
        0       midi  ch:0  note on  key:43  vel:100
        48      midi  ch:0  note off  key:43  vel:0
        0       midi  ch:0  note on  key:43  vel:100
        48      midi  ch:0  note off  key:43  vel:0
        0       midi  ch:0  note on  key:43  vel:100
        48      midi  ch:0  note off  key:43  vel:0
        0       midi  ch:0  note on  key:43  vel:100
        48      midi  ch:0  note off  key:43  vel:0
        0       midi  ch:0  note on  key:45  vel:100
        48      midi  ch:0  note off  key:45  vel:0
        0       midi  ch:0  note on  key:45  vel:100
        48      midi  ch:0  note off  key:45  vel:0
        0       midi  ch:0  note on  key:45  vel:100
        48      midi  ch:0  note off  key:45  vel:0
        0       midi  ch:0  note on  key:45  vel:100
        48      midi  ch:0  note off  key:45  vel:0
        0       midi  ch:0  note on  key:45  vel:100
        48      midi  ch:0  note off  key:45  vel:0
        0       midi  ch:0  note on  key:45  vel:100
        48      midi  ch:0  note off  key:45  vel:0
        0       midi  ch:0  note on  key:45  vel:100
        48      midi  ch:0  note on  key:43  vel:100
        0       midi  ch:0  note off  key:45  vel:0
        48      midi  ch:0  note off  key:43  vel:0
        0       midi  ch:0  note on  key:43  vel:100
        48      midi  ch:0  note on  key:41  vel:100
        0       midi  ch:0  note off  key:43  vel:0
        48      midi  ch:0  note off  key:41  vel:0
        0       midi  ch:0  note on  key:41  vel:100
        48      midi  ch:0  note off  key:41  vel:0
        0       midi  ch:0  note on  key:41  vel:100
        48      midi  ch:0  note off  key:41  vel:0
        0       midi  ch:0  note on  key:43  vel:100
        48      midi  ch:0  note off  key:43  vel:0
        0       midi  ch:0  note on  key:43  vel:100
        48      midi  ch:0  note off  key:43  vel:0
        0       midi  ch:0  note on  key:43  vel:100
        48      midi  ch:0  note off  key:43  vel:0
        0       midi  ch:0  note on  key:43  vel:100
        48      midi  ch:0  note on  key:40  vel:100
        0       midi  ch:0  note off  key:43  vel:0
        48      midi  ch:0  note off  key:40  vel:0
        0       midi  ch:0  note on  key:40  vel:100
        48      midi  ch:0  note off  key:40  vel:0
        0       midi  ch:0  note on  key:40  vel:100
        48      midi  ch:0  note off  key:40  vel:0
        0       midi  ch:0  note on  key:40  vel:100
        48      midi  ch:0  note off  key:40  vel:0
        0       midi  ch:0  note on  key:45  vel:100
        48      midi  ch:0  note off  key:45  vel:0
        0       midi  ch:0  note on  key:45  vel:100
        48      midi  ch:0  note off  key:45  vel:0
        0       midi  ch:0  note on  key:45  vel:100
        48      midi  ch:0  note off  key:45  vel:0
        0       midi  ch:0  note on  key:45  vel:100
        48      midi  ch:0  note off  key:45  vel:0
        0       midi  ch:0  note on  key:45  vel:100
        48      midi  ch:0  note on  key:41  vel:100
        0       midi  ch:0  note off  key:45  vel:0
        48      midi  ch:0  note off  key:41  vel:0
        0       midi  ch:0  note on  key:41  vel:100
        48      midi  ch:0  note off  key:41  vel:0
        0       midi  ch:0  note on  key:41  vel:100
        48      midi  ch:0  note off  key:41  vel:0
        0       midi  ch:0  note on  key:43  vel:100
        48      midi  ch:0  note off  key:43  vel:0
        0       midi  ch:0  note on  key:43  vel:100
        48      midi  ch:0  note off  key:43  vel:0
        0       midi  ch:0  note on  key:43  vel:100
        48      midi  ch:0  note off  key:43  vel:0
        0       midi  ch:0  note on  key:43  vel:100
        48      midi  ch:0  note off  key:43  vel:0
        0       midi  ch:0  note on  key:45  vel:100
        48      midi  ch:0  note off  key:45  vel:0
        0       midi  ch:0  note on  key:45  vel:100
        48      midi  ch:0  note off  key:45  vel:0
        0       midi  ch:0  note on  key:45  vel:100
        48      midi  ch:0  note off  key:45  vel:0
        0       midi  ch:0  note on  key:45  vel:100
        48      midi  ch:0  note off  key:45  vel:0
        0       midi  ch:0  note on  key:45  vel:100
        48      midi  ch:0  note off  key:45  vel:0
        0       midi  ch:0  note on  key:45  vel:100
        48      midi  ch:0  note off  key:45  vel:0
        0       midi  ch:0  note on  key:45  vel:100
        48      midi  ch:0  note on  key:43  vel:100
        0       midi  ch:0  note off  key:45  vel:0
        48      midi  ch:0  note off  key:43  vel:0
        0       midi  ch:0  note on  key:43  vel:100
        48      midi  ch:0  note on  key:41  vel:100
        0       midi  ch:0  note off  key:43  vel:0
        48      midi  ch:0  note off  key:41  vel:0
        0       midi  ch:0  note on  key:41  vel:100
        48      midi  ch:0  note off  key:41  vel:0
        0       midi  ch:0  note on  key:41  vel:100
        48      midi  ch:0  note off  key:41  vel:0
        0       midi  ch:0  note on  key:43  vel:100
        48      midi  ch:0  note off  key:43  vel:0
        0       midi  ch:0  note on  key:43  vel:100
        48      midi  ch:0  note off  key:43  vel:0
        0       midi  ch:0  note on  key:43  vel:100
        48      midi  ch:0  note off  key:43  vel:0
        0       midi  ch:0  note on  key:43  vel:100
        48      midi  ch:0  note off  key:43  vel:0
        0       midi  ch:0  note on  key:45  vel:100
        48      midi  ch:0  note off  key:45  vel:0
        0       midi  ch:0  note on  key:45  vel:100
        48      midi  ch:0  note off  key:45  vel:0
        0       midi  ch:0  note on  key:45  vel:100
        48      midi  ch:0  note off  key:45  vel:0
        0       midi  ch:0  note on  key:45  vel:100
        48      midi  ch:0  note off  key:45  vel:0
        0       midi  ch:0  note on  key:45  vel:100
        48      midi  ch:0  note off  key:45  vel:0
        0       midi  ch:0  note on  key:45  vel:100
        48      midi  ch:0  note off  key:45  vel:0
        0       midi  ch:0  note on  key:45  vel:100
        48      midi  ch:0  note off  key:45  vel:0
        0       midi  ch:0  note on  key:45  vel:100
        48      midi  ch:0  note off  key:45  vel:0
        0       midi  ch:0  note on  key:45  vel:100
        48      midi  ch:0  note on  key:41  vel:100
        0       midi  ch:0  note off  key:45  vel:0
        48      midi  ch:0  note off  key:41  vel:0
        0       midi  ch:0  note on  key:41  vel:100
        48      midi  ch:0  note off  key:41  vel:0
        0       midi  ch:0  note on  key:41  vel:100
        48      midi  ch:0  note off  key:41  vel:0
        0       midi  ch:0  note on  key:43  vel:100
        48      midi  ch:0  note off  key:43  vel:0
        0       midi  ch:0  note on  key:43  vel:100
        48      midi  ch:0  note off  key:43  vel:0
        0       midi  ch:0  note on  key:43  vel:100
        48      midi  ch:0  note off  key:43  vel:0
        0       midi  ch:0  note on  key:43  vel:100
        48      midi  ch:0  note off  key:43  vel:0
        0       midi  ch:0  note on  key:45  vel:100
        48      midi  ch:0  note off  key:45  vel:0
        0       midi  ch:0  note on  key:45  vel:100
        48      midi  ch:0  note off  key:45  vel:0
        0       midi  ch:0  note on  key:45  vel:100
        48      midi  ch:0  note off  key:45  vel:0
        0       midi  ch:0  note on  key:45  vel:100
        48      midi  ch:0  note off  key:45  vel:0
        0       midi  ch:0  note on  key:45  vel:100
        48      midi  ch:0  note off  key:45  vel:0
        0       midi  ch:0  note on  key:45  vel:100
        48      midi  ch:0  note off  key:45  vel:0
        0       midi  ch:0  note on  key:45  vel:100
        48      midi  ch:0  note on  key:43  vel:100
        0       midi  ch:0  note off  key:45  vel:0
        48      midi  ch:0  note off  key:43  vel:0
        0       midi  ch:0  note on  key:43  vel:100
        48      midi  ch:0  note on  key:41  vel:100
        0       midi  ch:0  note off  key:43  vel:0
        48      midi  ch:0  note off  key:41  vel:0
        0       midi  ch:0  note on  key:41  vel:100
        48      midi  ch:0  note off  key:41  vel:0
        0       midi  ch:0  note on  key:41  vel:100
        48      midi  ch:0  note off  key:41  vel:0
        0       midi  ch:0  note on  key:43  vel:100
        48      midi  ch:0  note off  key:43  vel:0
        0       midi  ch:0  note on  key:43  vel:100
        48      midi  ch:0  note off  key:43  vel:0
        0       midi  ch:0  note on  key:43  vel:100
        48      midi  ch:0  note off  key:43  vel:0
        0       midi  ch:0  note on  key:43  vel:100
        48      midi  ch:0  note on  key:40  vel:100
        0       midi  ch:0  note off  key:43  vel:0
        48      midi  ch:0  note off  key:40  vel:0
        0       midi  ch:0  note on  key:40  vel:100
        48      midi  ch:0  note off  key:40  vel:0
        0       midi  ch:0  note on  key:40  vel:100
        48      midi  ch:0  note off  key:40  vel:0
        0       midi  ch:0  note on  key:40  vel:100
        48      midi  ch:0  note off  key:40  vel:0
        0       midi  ch:0  note on  key:45  vel:100
        48      midi  ch:0  note off  key:45  vel:0
        0       midi  ch:0  note on  key:45  vel:100
        48      midi  ch:0  note off  key:45  vel:0
        0       midi  ch:0  note on  key:45  vel:100
        48      midi  ch:0  note off  key:45  vel:0
        0       midi  ch:0  note on  key:45  vel:100
        48      midi  ch:0  note off  key:45  vel:0
        0       midi  ch:0  note on  key:45  vel:100
        48      midi  ch:0  note on  key:41  vel:100
        0       midi  ch:0  note off  key:45  vel:0
        48      midi  ch:0  note off  key:41  vel:0
        0       midi  ch:0  note on  key:41  vel:100
        48      midi  ch:0  note off  key:41  vel:0
        0       midi  ch:0  note on  key:41  vel:100
        48      midi  ch:0  note off  key:41  vel:0
        0       midi  ch:0  note on  key:43  vel:100
        48      midi  ch:0  note off  key:43  vel:0
        0       midi  ch:0  note on  key:43  vel:100
        48      midi  ch:0  note off  key:43  vel:0
        0       midi  ch:0  note on  key:43  vel:100
        48      midi  ch:0  note off  key:43  vel:0
        0       midi  ch:0  note on  key:43  vel:100
        48      midi  ch:0  note off  key:43  vel:0
        0       midi  ch:0  note on  key:45  vel:100
        48      midi  ch:0  note off  key:45  vel:0
        0       midi  ch:0  note on  key:45  vel:100
        48      midi  ch:0  note off  key:45  vel:0
        0       midi  ch:0  note on  key:45  vel:100
        48      midi  ch:0  note off  key:45  vel:0
        0       midi  ch:0  note on  key:45  vel:100
        48      midi  ch:0  note off  key:45  vel:0
        0       midi  ch:0  note on  key:45  vel:100
        48      midi  ch:0  note off  key:45  vel:0
        0       midi  ch:0  note on  key:45  vel:100
        48      midi  ch:0  note off  key:45  vel:0
        0       midi  ch:0  note on  key:45  vel:100
        48      midi  ch:0  note on  key:43  vel:100
        0       midi  ch:0  note off  key:45  vel:0
        48      midi  ch:0  note off  key:43  vel:0
        0       midi  ch:0  note on  key:43  vel:100
        48      midi  ch:0  note on  key:41  vel:100
        0       midi  ch:0  note off  key:43  vel:0
        48      midi  ch:0  note off  key:41  vel:0
        0       midi  ch:0  note on  key:41  vel:100
        48      midi  ch:0  note off  key:41  vel:0
        0       midi  ch:0  note on  key:41  vel:100
        48      midi  ch:0  note off  key:41  vel:0
        0       midi  ch:0  note on  key:43  vel:100
        48      midi  ch:0  note off  key:43  vel:0
        0       midi  ch:0  note on  key:43  vel:100
        48      midi  ch:0  note off  key:43  vel:0
        0       midi  ch:0  note on  key:43  vel:100
        48      midi  ch:0  note off  key:43  vel:0
        0       midi  ch:0  note on  key:43  vel:100
        48      midi  ch:0  note off  key:43  vel:0
        0       midi  ch:0  note on  key:45  vel:100
        48      midi  ch:0  note off  key:45  vel:0
        0       midi  ch:0  note on  key:45  vel:100
        48      midi  ch:0  note off  key:45  vel:0
        0       midi  ch:0  note on  key:45  vel:100
        48      midi  ch:0  note off  key:45  vel:0
        0       midi  ch:0  note on  key:45  vel:100
        48      midi  ch:0  note off  key:45  vel:0
        0       midi  ch:0  note on  key:45  vel:100
        48      midi  ch:0  note off  key:45  vel:0
        0       midi  ch:0  note on  key:45  vel:100
        48      midi  ch:0  note off  key:45  vel:0
        0       midi  ch:0  note on  key:45  vel:100
        48      midi  ch:0  note off  key:45  vel:0
        0       midi  ch:0  note on  key:45  vel:100
        48      midi  ch:0  note off  key:45  vel:0
        0       midi  ch:0  note on  key:45  vel:100
        48      midi  ch:0  note off  key:45  vel:0
        19968   midi  ch:0  note on  key:41  vel:100
        48      midi  ch:0  note off  key:41  vel:0
        0       midi  ch:0  note on  key:41  vel:100
        48      midi  ch:0  note off  key:41  vel:0
        0       midi  ch:0  note on  key:41  vel:100
        48      midi  ch:0  note off  key:41  vel:0
        0       midi  ch:0  note on  key:43  vel:100
        48      midi  ch:0  note off  key:43  vel:0
        0       midi  ch:0  note on  key:43  vel:100
        48      midi  ch:0  note off  key:43  vel:0
        0       midi  ch:0  note on  key:43  vel:100
        48      midi  ch:0  note off  key:43  vel:0
        0       midi  ch:0  note on  key:43  vel:100
        48      midi  ch:0  note off  key:43  vel:0
        0       midi  ch:0  note on  key:45  vel:100
        48      midi  ch:0  note off  key:45  vel:0
        0       midi  ch:0  note on  key:45  vel:100
        48      midi  ch:0  note off  key:45  vel:0
        0       midi  ch:0  note on  key:45  vel:100
        48      midi  ch:0  note off  key:45  vel:0
        0       midi  ch:0  note on  key:45  vel:100
        48      midi  ch:0  note off  key:45  vel:0
        0       midi  ch:0  note on  key:45  vel:100
        48      midi  ch:0  note off  key:45  vel:0
        0       midi  ch:0  note on  key:45  vel:100
        48      midi  ch:0  note off  key:45  vel:0
        0       midi  ch:0  note on  key:45  vel:100
        48      midi  ch:0  note on  key:43  vel:100
        0       midi  ch:0  note off  key:45  vel:0
        48      midi  ch:0  note off  key:43  vel:0
        0       midi  ch:0  note on  key:43  vel:100
        48      midi  ch:0  note on  key:41  vel:100
        0       midi  ch:0  note off  key:43  vel:0
        48      midi  ch:0  note off  key:41  vel:0
        0       midi  ch:0  note on  key:41  vel:100
        48      midi  ch:0  note off  key:41  vel:0
        0       midi  ch:0  note on  key:41  vel:100
        48      midi  ch:0  note off  key:41  vel:0
        0       midi  ch:0  note on  key:43  vel:100
        48      midi  ch:0  note off  key:43  vel:0
        0       midi  ch:0  note on  key:43  vel:100
        48      midi  ch:0  note off  key:43  vel:0
        0       midi  ch:0  note on  key:43  vel:100
        48      midi  ch:0  note off  key:43  vel:0
        0       midi  ch:0  note on  key:43  vel:100
        48      midi  ch:0  note on  key:40  vel:100
        0       midi  ch:0  note off  key:43  vel:0
        48      midi  ch:0  note off  key:40  vel:0
        0       midi  ch:0  note on  key:40  vel:100
        48      midi  ch:0  note off  key:40  vel:0
        0       midi  ch:0  note on  key:40  vel:100
        48      midi  ch:0  note off  key:40  vel:0
        0       midi  ch:0  note on  key:40  vel:100
        48      midi  ch:0  note off  key:40  vel:0
        0       midi  ch:0  note on  key:45  vel:100
        48      midi  ch:0  note off  key:45  vel:0
        0       midi  ch:0  note on  key:45  vel:100
        48      midi  ch:0  note off  key:45  vel:0
        0       midi  ch:0  note on  key:45  vel:100
        48      midi  ch:0  note off  key:45  vel:0
        0       midi  ch:0  note on  key:45  vel:100
        48      midi  ch:0  note off  key:45  vel:0
        0       midi  ch:0  note on  key:45  vel:100
        48      midi  ch:0  note on  key:41  vel:100
        0       midi  ch:0  note off  key:45  vel:0
        48      midi  ch:0  note off  key:41  vel:0
        0       midi  ch:0  note on  key:41  vel:100
        48      midi  ch:0  note off  key:41  vel:0
        0       midi  ch:0  note on  key:41  vel:100
        48      midi  ch:0  note off  key:41  vel:0
        0       midi  ch:0  note on  key:43  vel:100
        48      midi  ch:0  note off  key:43  vel:0
        0       midi  ch:0  note on  key:43  vel:100
        48      midi  ch:0  note off  key:43  vel:0
        0       midi  ch:0  note on  key:43  vel:100
        48      midi  ch:0  note off  key:43  vel:0
        0       midi  ch:0  note on  key:43  vel:100
        48      midi  ch:0  note off  key:43  vel:0
        0       midi  ch:0  note on  key:45  vel:100
        48      midi  ch:0  note off  key:45  vel:0
        0       midi  ch:0  note on  key:45  vel:100
        48      midi  ch:0  note off  key:45  vel:0
        0       midi  ch:0  note on  key:45  vel:100
        48      midi  ch:0  note off  key:45  vel:0
        0       midi  ch:0  note on  key:45  vel:100
        48      midi  ch:0  note off  key:45  vel:0
        0       midi  ch:0  note on  key:45  vel:100
        48      midi  ch:0  note off  key:45  vel:0
        0       midi  ch:0  note on  key:45  vel:100
        48      midi  ch:0  note off  key:45  vel:0
        0       midi  ch:0  note on  key:45  vel:100
        48      midi  ch:0  note on  key:43  vel:100
        0       midi  ch:0  note off  key:45  vel:0
        48      midi  ch:0  note off  key:43  vel:0
        0       midi  ch:0  note on  key:43  vel:100
        48      midi  ch:0  note on  key:41  vel:100
        0       midi  ch:0  note off  key:43  vel:0
        48      midi  ch:0  note off  key:41  vel:0
        0       midi  ch:0  note on  key:41  vel:100
        48      midi  ch:0  note off  key:41  vel:0
        0       midi  ch:0  note on  key:41  vel:100
        48      midi  ch:0  note off  key:41  vel:0
        0       midi  ch:0  note on  key:43  vel:100
        48      midi  ch:0  note off  key:43  vel:0
        0       midi  ch:0  note on  key:43  vel:100
        48      midi  ch:0  note off  key:43  vel:0
        0       midi  ch:0  note on  key:43  vel:100
        48      midi  ch:0  note off  key:43  vel:0
        0       midi  ch:0  note on  key:43  vel:100
        48      midi  ch:0  note off  key:43  vel:0
        0       midi  ch:0  note on  key:45  vel:100
        48      midi  ch:0  note off  key:45  vel:0
        0       midi  ch:0  note on  key:45  vel:100
        48      midi  ch:0  note off  key:45  vel:0
        0       midi  ch:0  note on  key:45  vel:100
        48      midi  ch:0  note off  key:45  vel:0
        0       midi  ch:0  note on  key:45  vel:100
        48      midi  ch:0  note off  key:45  vel:0
        0       midi  ch:0  note on  key:45  vel:100
        48      midi  ch:0  note off  key:45  vel:0
        0       midi  ch:0  note on  key:45  vel:100
        48      midi  ch:0  note off  key:45  vel:0
        0       midi  ch:0  note on  key:45  vel:100
        48      midi  ch:0  note off  key:45  vel:0
        0       midi  ch:0  note on  key:45  vel:100
        48      midi  ch:0  note off  key:45  vel:0
        0       midi  ch:0  note on  key:45  vel:100
        48      midi  ch:0  note on  key:41  vel:100
        0       midi  ch:0  note off  key:45  vel:0
        48      midi  ch:0  note off  key:41  vel:0
        0       midi  ch:0  note on  key:41  vel:100
        48      midi  ch:0  note off  key:41  vel:0
        0       midi  ch:0  note on  key:41  vel:100
        48      midi  ch:0  note off  key:41  vel:0
        0       midi  ch:0  note on  key:43  vel:100
        48      midi  ch:0  note off  key:43  vel:0
        0       midi  ch:0  note on  key:43  vel:100
        48      midi  ch:0  note off  key:43  vel:0
        0       midi  ch:0  note on  key:43  vel:100
        48      midi  ch:0  note off  key:43  vel:0
        0       midi  ch:0  note on  key:43  vel:100
        48      midi  ch:0  note off  key:43  vel:0
        0       midi  ch:0  note on  key:45  vel:100
        48      midi  ch:0  note off  key:45  vel:0
        0       midi  ch:0  note on  key:45  vel:100
        48      midi  ch:0  note off  key:45  vel:0
        0       midi  ch:0  note on  key:45  vel:100
        48      midi  ch:0  note off  key:45  vel:0
        0       midi  ch:0  note on  key:45  vel:100
        48      midi  ch:0  note off  key:45  vel:0
        0       midi  ch:0  note on  key:45  vel:100
        48      midi  ch:0  note off  key:45  vel:0
        0       midi  ch:0  note on  key:45  vel:100
        48      midi  ch:0  note off  key:45  vel:0
        0       midi  ch:0  note on  key:45  vel:100
        48      midi  ch:0  note on  key:43  vel:100
        0       midi  ch:0  note off  key:45  vel:0
        48      midi  ch:0  note off  key:43  vel:0
        0       midi  ch:0  note on  key:43  vel:100
        48      midi  ch:0  note on  key:41  vel:100
        0       midi  ch:0  note off  key:43  vel:0
        48      midi  ch:0  note off  key:41  vel:0
        0       midi  ch:0  note on  key:41  vel:100
        48      midi  ch:0  note off  key:41  vel:0
        0       midi  ch:0  note on  key:41  vel:100
        48      midi  ch:0  note off  key:41  vel:0
        0       midi  ch:0  note on  key:43  vel:100
        48      midi  ch:0  note off  key:43  vel:0
        0       midi  ch:0  note on  key:43  vel:100
        48      midi  ch:0  note off  key:43  vel:0
        0       midi  ch:0  note on  key:43  vel:100
        48      midi  ch:0  note off  key:43  vel:0
        0       midi  ch:0  note on  key:43  vel:100
        48      midi  ch:0  note on  key:40  vel:100
        0       midi  ch:0  note off  key:43  vel:0
        48      midi  ch:0  note off  key:40  vel:0
        0       midi  ch:0  note on  key:40  vel:100
        48      midi  ch:0  note off  key:40  vel:0
        0       midi  ch:0  note on  key:40  vel:100
        48      midi  ch:0  note off  key:40  vel:0
        0       midi  ch:0  note on  key:40  vel:100
        48      midi  ch:0  note off  key:40  vel:0
        0       midi  ch:0  note on  key:45  vel:100
        48      midi  ch:0  note off  key:45  vel:0
        0       midi  ch:0  note on  key:45  vel:100
        48      midi  ch:0  note off  key:45  vel:0
        0       midi  ch:0  note on  key:45  vel:100
        48      midi  ch:0  note off  key:45  vel:0
        0       midi  ch:0  note on  key:45  vel:100
        48      midi  ch:0  note off  key:45  vel:0
        0       midi  ch:0  note on  key:45  vel:100
        48      midi  ch:0  note on  key:41  vel:100
        0       midi  ch:0  note off  key:45  vel:0
        48      midi  ch:0  note off  key:41  vel:0
        0       midi  ch:0  note on  key:41  vel:100
        48      midi  ch:0  note off  key:41  vel:0
        0       midi  ch:0  note on  key:41  vel:100
        48      midi  ch:0  note off  key:41  vel:0
        0       midi  ch:0  note on  key:43  vel:100
        48      midi  ch:0  note off  key:43  vel:0
        0       midi  ch:0  note on  key:43  vel:100
        48      midi  ch:0  note off  key:43  vel:0
        0       midi  ch:0  note on  key:43  vel:100
        48      midi  ch:0  note off  key:43  vel:0
        0       midi  ch:0  note on  key:43  vel:100
        48      midi  ch:0  note off  key:43  vel:0
        0       midi  ch:0  note on  key:45  vel:100
        48      midi  ch:0  note off  key:45  vel:0
        0       midi  ch:0  note on  key:45  vel:100
        48      midi  ch:0  note off  key:45  vel:0
        0       midi  ch:0  note on  key:45  vel:100
        48      midi  ch:0  note off  key:45  vel:0
        0       midi  ch:0  note on  key:45  vel:100
        48      midi  ch:0  note off  key:45  vel:0
        0       midi  ch:0  note on  key:45  vel:100
        48      midi  ch:0  note off  key:45  vel:0
        0       midi  ch:0  note on  key:45  vel:100
        48      midi  ch:0  note off  key:45  vel:0
        0       midi  ch:0  note on  key:45  vel:100
        48      midi  ch:0  note on  key:43  vel:100
        0       midi  ch:0  note off  key:45  vel:0
        48      midi  ch:0  note off  key:43  vel:0
        0       midi  ch:0  note on  key:43  vel:100
        48      midi  ch:0  note on  key:41  vel:100
        0       midi  ch:0  note off  key:43  vel:0
        48      midi  ch:0  note off  key:41  vel:0
        0       midi  ch:0  note on  key:41  vel:100
        48      midi  ch:0  note off  key:41  vel:0
        0       midi  ch:0  note on  key:41  vel:100
        48      midi  ch:0  note off  key:41  vel:0
        0       midi  ch:0  note on  key:43  vel:100
        48      midi  ch:0  note off  key:43  vel:0
        0       midi  ch:0  note on  key:43  vel:100
        48      midi  ch:0  note off  key:43  vel:0
        0       midi  ch:0  note on  key:43  vel:100
        48      midi  ch:0  note off  key:43  vel:0
        0       midi  ch:0  note on  key:43  vel:100
        48      midi  ch:0  note off  key:43  vel:0
        0       midi  ch:0  note on  key:45  vel:100
        48      midi  ch:0  note off  key:45  vel:0
        0       midi  ch:0  note on  key:45  vel:100
        48      midi  ch:0  note off  key:45  vel:0
        0       midi  ch:0  note on  key:45  vel:100
        48      midi  ch:0  note off  key:45  vel:0
        0       midi  ch:0  note on  key:45  vel:100
        48      midi  ch:0  note off  key:45  vel:0
        0       midi  ch:0  note on  key:45  vel:100
        48      midi  ch:0  note off  key:45  vel:0
        0       midi  ch:0  note on  key:45  vel:100
        48      midi  ch:0  note off  key:45  vel:0
        0       midi  ch:0  note on  key:45  vel:100
        48      midi  ch:0  note off  key:45  vel:0
        0       midi  ch:0  note on  key:45  vel:100
        48      midi  ch:0  note off  key:45  vel:0
        0       midi  ch:0  note on  key:45  vel:100
        48      midi  ch:0  note off  key:45  vel:0
        6163    meta  type:2f  len:0  end
MTrk  len:3101
        0       meta  type:58  len:4  tsig:  4/4 metr:36 32nds:8
        0       meta  type:58  len:4  tsig:  4/4 metr:36 32nds:8
        0       meta  type:3  len:0  track:""
        21504   midi  ch:0  note on  key:41  vel:100
        48      midi  ch:0  note off  key:41  vel:0
        0       midi  ch:0  note on  key:41  vel:100
        48      midi  ch:0  note off  key:41  vel:0
        0       midi  ch:0  note on  key:41  vel:100
        48      midi  ch:0  note off  key:41  vel:0
        0       midi  ch:0  note on  key:43  vel:100
        48      midi  ch:0  note off  key:43  vel:0
        0       midi  ch:0  note on  key:43  vel:100
        48      midi  ch:0  note off  key:43  vel:0
        0       midi  ch:0  note on  key:43  vel:100
        48      midi  ch:0  note off  key:43  vel:0
        0       midi  ch:0  note on  key:43  vel:100
        48      midi  ch:0  note off  key:43  vel:0
        0       midi  ch:0  note on  key:45  vel:100
        48      midi  ch:0  note off  key:45  vel:0
        0       midi  ch:0  note on  key:45  vel:100
        48      midi  ch:0  note off  key:45  vel:0
        0       midi  ch:0  note on  key:45  vel:100
        48      midi  ch:0  note off  key:45  vel:0
        0       midi  ch:0  note on  key:45  vel:100
        48      midi  ch:0  note off  key:45  vel:0
        0       midi  ch:0  note on  key:45  vel:100
        48      midi  ch:0  note off  key:45  vel:0
        0       midi  ch:0  note on  key:45  vel:100
        48      midi  ch:0  note off  key:45  vel:0
        0       midi  ch:0  note on  key:45  vel:100
        48      midi  ch:0  note on  key:43  vel:100
        0       midi  ch:0  note off  key:45  vel:0
        48      midi  ch:0  note off  key:43  vel:0
        0       midi  ch:0  note on  key:43  vel:100
        48      midi  ch:0  note on  key:41  vel:100
        0       midi  ch:0  note off  key:43  vel:0
        48      midi  ch:0  note off  key:41  vel:0
        0       midi  ch:0  note on  key:41  vel:100
        48      midi  ch:0  note off  key:41  vel:0
        0       midi  ch:0  note on  key:41  vel:100
        48      midi  ch:0  note off  key:41  vel:0
        0       midi  ch:0  note on  key:43  vel:100
        48      midi  ch:0  note off  key:43  vel:0
        0       midi  ch:0  note on  key:43  vel:100
        48      midi  ch:0  note off  key:43  vel:0
        0       midi  ch:0  note on  key:43  vel:100
        48      midi  ch:0  note off  key:43  vel:0
        0       midi  ch:0  note on  key:43  vel:100
        48      midi  ch:0  note on  key:40  vel:100
        0       midi  ch:0  note off  key:43  vel:0
        48      midi  ch:0  note off  key:40  vel:0
        0       midi  ch:0  note on  key:40  vel:100
        48      midi  ch:0  note off  key:40  vel:0
        0       midi  ch:0  note on  key:40  vel:100
        48      midi  ch:0  note off  key:40  vel:0
        0       midi  ch:0  note on  key:40  vel:100
        48      midi  ch:0  note off  key:40  vel:0
        0       midi  ch:0  note on  key:45  vel:100
        48      midi  ch:0  note off  key:45  vel:0
        0       midi  ch:0  note on  key:45  vel:100
        48      midi  ch:0  note off  key:45  vel:0
        0       midi  ch:0  note on  key:45  vel:100
        48      midi  ch:0  note off  key:45  vel:0
        0       midi  ch:0  note on  key:45  vel:100
        48      midi  ch:0  note off  key:45  vel:0
        0       midi  ch:0  note on  key:45  vel:100
        48      midi  ch:0  note on  key:41  vel:100
        0       midi  ch:0  note off  key:45  vel:0
        48      midi  ch:0  note off  key:41  vel:0
        0       midi  ch:0  note on  key:41  vel:100
        48      midi  ch:0  note off  key:41  vel:0
        0       midi  ch:0  note on  key:41  vel:100
        48      midi  ch:0  note off  key:41  vel:0
        0       midi  ch:0  note on  key:43  vel:100
        48      midi  ch:0  note off  key:43  vel:0
        0       midi  ch:0  note on  key:43  vel:100
        48      midi  ch:0  note off  key:43  vel:0
        0       midi  ch:0  note on  key:43  vel:100
        48      midi  ch:0  note off  key:43  vel:0
        0       midi  ch:0  note on  key:43  vel:100
        48      midi  ch:0  note off  key:43  vel:0
        0       midi  ch:0  note on  key:45  vel:100
        48      midi  ch:0  note off  key:45  vel:0
        0       midi  ch:0  note on  key:45  vel:100
        48      midi  ch:0  note off  key:45  vel:0
        0       midi  ch:0  note on  key:45  vel:100
        48      midi  ch:0  note off  key:45  vel:0
        0       midi  ch:0  note on  key:45  vel:100
        48      midi  ch:0  note off  key:45  vel:0
        0       midi  ch:0  note on  key:45  vel:100
        48      midi  ch:0  note off  key:45  vel:0
        0       midi  ch:0  note on  key:45  vel:100
        48      midi  ch:0  note off  key:45  vel:0
        0       midi  ch:0  note on  key:45  vel:100
        48      midi  ch:0  note on  key:43  vel:100
        0       midi  ch:0  note off  key:45  vel:0
        48      midi  ch:0  note off  key:43  vel:0
        0       midi  ch:0  note on  key:43  vel:100
        48      midi  ch:0  note on  key:41  vel:100
        0       midi  ch:0  note off  key:43  vel:0
        48      midi  ch:0  note off  key:41  vel:0
        0       midi  ch:0  note on  key:41  vel:100
        48      midi  ch:0  note off  key:41  vel:0
        0       midi  ch:0  note on  key:41  vel:100
        48      midi  ch:0  note off  key:41  vel:0
        0       midi  ch:0  note on  key:43  vel:100
        48      midi  ch:0  note off  key:43  vel:0
        0       midi  ch:0  note on  key:43  vel:100
        48      midi  ch:0  note off  key:43  vel:0
        0       midi  ch:0  note on  key:43  vel:100
        48      midi  ch:0  note off  key:43  vel:0
        0       midi  ch:0  note on  key:43  vel:100
        48      midi  ch:0  note off  key:43  vel:0
        0       midi  ch:0  note on  key:45  vel:100
        48      midi  ch:0  note off  key:45  vel:0
        0       midi  ch:0  note on  key:45  vel:100
        48      midi  ch:0  note off  key:45  vel:0
        0       midi  ch:0  note on  key:45  vel:100
        48      midi  ch:0  note off  key:45  vel:0
        0       midi  ch:0  note on  key:45  vel:100
        48      midi  ch:0  note off  key:45  vel:0
        0       midi  ch:0  note on  key:45  vel:100
        48      midi  ch:0  note off  key:45  vel:0
        0       midi  ch:0  note on  key:45  vel:100
        48      midi  ch:0  note off  key:45  vel:0
        0       midi  ch:0  note on  key:45  vel:100
        48      midi  ch:0  note off  key:45  vel:0
        0       midi  ch:0  note on  key:45  vel:100
        48      midi  ch:0  note off  key:45  vel:0
        0       midi  ch:0  note on  key:45  vel:100
        48      midi  ch:0  note off  key:45  vel:0
        3072    midi  ch:0  note on  key:41  vel:100
        48      midi  ch:0  note off  key:41  vel:0
        0       midi  ch:0  note on  key:41  vel:100
        48      midi  ch:0  note off  key:41  vel:0
        0       midi  ch:0  note on  key:41  vel:100
        48      midi  ch:0  note off  key:41  vel:0
        0       midi  ch:0  note on  key:43  vel:100
        48      midi  ch:0  note off  key:43  vel:0
        0       midi  ch:0  note on  key:43  vel:100
        48      midi  ch:0  note off  key:43  vel:0
        0       midi  ch:0  note on  key:43  vel:100
        48      midi  ch:0  note off  key:43  vel:0
        0       midi  ch:0  note on  key:43  vel:100
        48      midi  ch:0  note off  key:43  vel:0
        0       midi  ch:0  note on  key:45  vel:100
        48      midi  ch:0  note off  key:45  vel:0
        0       midi  ch:0  note on  key:45  vel:100
        48      midi  ch:0  note off  key:45  vel:0
        0       midi  ch:0  note on  key:45  vel:100
        48      midi  ch:0  note off  key:45  vel:0
        0       midi  ch:0  note on  key:45  vel:100
        48      midi  ch:0  note off  key:45  vel:0
        0       midi  ch:0  note on  key:45  vel:100
        48      midi  ch:0  note off  key:45  vel:0
        0       midi  ch:0  note on  key:45  vel:100
        48      midi  ch:0  note off  key:45  vel:0
        0       midi  ch:0  note on  key:45  vel:100
        48      midi  ch:0  note on  key:43  vel:100
        0       midi  ch:0  note off  key:45  vel:0
        48      midi  ch:0  note off  key:43  vel:0
        0       midi  ch:0  note on  key:43  vel:100
        48      midi  ch:0  note on  key:41  vel:100
        0       midi  ch:0  note off  key:43  vel:0
        48      midi  ch:0  note off  key:41  vel:0
        0       midi  ch:0  note on  key:41  vel:100
        48      midi  ch:0  note off  key:41  vel:0
        0       midi  ch:0  note on  key:41  vel:100
        48      midi  ch:0  note off  key:41  vel:0
        0       midi  ch:0  note on  key:43  vel:100
        48      midi  ch:0  note off  key:43  vel:0
        0       midi  ch:0  note on  key:43  vel:100
        48      midi  ch:0  note off  key:43  vel:0
        0       midi  ch:0  note on  key:43  vel:100
        48      midi  ch:0  note off  key:43  vel:0
        0       midi  ch:0  note on  key:43  vel:100
        48      midi  ch:0  note on  key:40  vel:100
        0       midi  ch:0  note off  key:43  vel:0
        48      midi  ch:0  note off  key:40  vel:0
        0       midi  ch:0  note on  key:40  vel:100
        48      midi  ch:0  note off  key:40  vel:0
        0       midi  ch:0  note on  key:40  vel:100
        48      midi  ch:0  note off  key:40  vel:0
        0       midi  ch:0  note on  key:40  vel:100
        48      midi  ch:0  note off  key:40  vel:0
        0       midi  ch:0  note on  key:45  vel:100
        48      midi  ch:0  note off  key:45  vel:0
        0       midi  ch:0  note on  key:45  vel:100
        48      midi  ch:0  note off  key:45  vel:0
        0       midi  ch:0  note on  key:45  vel:100
        48      midi  ch:0  note off  key:45  vel:0
        0       midi  ch:0  note on  key:45  vel:100
        48      midi  ch:0  note off  key:45  vel:0
        0       midi  ch:0  note on  key:45  vel:100
        48      midi  ch:0  note on  key:41  vel:100
        0       midi  ch:0  note off  key:45  vel:0
        48      midi  ch:0  note off  key:41  vel:0
        0       midi  ch:0  note on  key:41  vel:100
        48      midi  ch:0  note off  key:41  vel:0
        0       midi  ch:0  note on  key:41  vel:100
        48      midi  ch:0  note off  key:41  vel:0
        0       midi  ch:0  note on  key:43  vel:100
        48      midi  ch:0  note off  key:43  vel:0
        0       midi  ch:0  note on  key:43  vel:100
        48      midi  ch:0  note off  key:43  vel:0
        0       midi  ch:0  note on  key:43  vel:100
        48      midi  ch:0  note off  key:43  vel:0
        0       midi  ch:0  note on  key:43  vel:100
        48      midi  ch:0  note off  key:43  vel:0
        0       midi  ch:0  note on  key:45  vel:100
        48      midi  ch:0  note off  key:45  vel:0
        0       midi  ch:0  note on  key:45  vel:100
        48      midi  ch:0  note off  key:45  vel:0
        0       midi  ch:0  note on  key:45  vel:100
        48      midi  ch:0  note off  key:45  vel:0
        0       midi  ch:0  note on  key:45  vel:100
        48      midi  ch:0  note off  key:45  vel:0
        0       midi  ch:0  note on  key:45  vel:100
        48      midi  ch:0  note off  key:45  vel:0
        0       midi  ch:0  note on  key:45  vel:100
        48      midi  ch:0  note off  key:45  vel:0
        0       midi  ch:0  note on  key:45  vel:100
        48      midi  ch:0  note on  key:43  vel:100
        0       midi  ch:0  note off  key:45  vel:0
        48      midi  ch:0  note off  key:43  vel:0
        0       midi  ch:0  note on  key:43  vel:100
        48      midi  ch:0  note on  key:41  vel:100
        0       midi  ch:0  note off  key:43  vel:0
        48      midi  ch:0  note off  key:41  vel:0
        0       midi  ch:0  note on  key:41  vel:100
        48      midi  ch:0  note off  key:41  vel:0
        0       midi  ch:0  note on  key:41  vel:100
        48      midi  ch:0  note off  key:41  vel:0
        0       midi  ch:0  note on  key:43  vel:100
        48      midi  ch:0  note off  key:43  vel:0
        0       midi  ch:0  note on  key:43  vel:100
        48      midi  ch:0  note off  key:43  vel:0
        0       midi  ch:0  note on  key:43  vel:100
        48      midi  ch:0  note off  key:43  vel:0
        0       midi  ch:0  note on  key:43  vel:100
        48      midi  ch:0  note off  key:43  vel:0
        0       midi  ch:0  note on  key:45  vel:100
        48      midi  ch:0  note off  key:45  vel:0
        0       midi  ch:0  note on  key:45  vel:100
        48      midi  ch:0  note off  key:45  vel:0
        0       midi  ch:0  note on  key:45  vel:100
        48      midi  ch:0  note off  key:45  vel:0
        0       midi  ch:0  note on  key:45  vel:100
        48      midi  ch:0  note off  key:45  vel:0
        0       midi  ch:0  note on  key:45  vel:100
        48      midi  ch:0  note off  key:45  vel:0
        0       midi  ch:0  note on  key:45  vel:100
        48      midi  ch:0  note off  key:45  vel:0
        0       midi  ch:0  note on  key:45  vel:100
        48      midi  ch:0  note off  key:45  vel:0
        0       midi  ch:0  note on  key:45  vel:100
        48      midi  ch:0  note off  key:45  vel:0
        0       midi  ch:0  note on  key:45  vel:100
        48      midi  ch:0  note off  key:45  vel:0
        0       midi  ch:0  note on  key:45  vel:100
        48      midi  ch:0  note off  key:45  vel:0
        0       midi  ch:0  note on  key:45  vel:100
        48      midi  ch:0  note off  key:45  vel:0
        0       midi  ch:0  note on  key:45  vel:100
        48      midi  ch:0  note off  key:45  vel:0
        0       midi  ch:0  note on  key:45  vel:100
        48      midi  ch:0  note off  key:45  vel:0
        0       midi  ch:0  note on  key:45  vel:100
        48      midi  ch:0  note off  key:45  vel:0
        0       midi  ch:0  note on  key:45  vel:100
        48      midi  ch:0  note off  key:45  vel:0
        0       midi  ch:0  note on  key:45  vel:100
        48      midi  ch:0  note off  key:45  vel:0
        0       midi  ch:0  note on  key:45  vel:100
        48      midi  ch:0  note off  key:45  vel:0
        0       midi  ch:0  note on  key:45  vel:100
        48      midi  ch:0  note off  key:45  vel:0
        0       midi  ch:0  note on  key:45  vel:100
        48      midi  ch:0  note off  key:45  vel:0
        0       midi  ch:0  note on  key:45  vel:100
        48      midi  ch:0  note off  key:45  vel:0
        0       midi  ch:0  note on  key:45  vel:100
        48      midi  ch:0  note off  key:45  vel:0
        0       midi  ch:0  note on  key:45  vel:100
        48      midi  ch:0  note off  key:45  vel:0
        0       midi  ch:0  note on  key:45  vel:100
        48      midi  ch:0  note off  key:45  vel:0
        0       midi  ch:0  note on  key:45  vel:100
        48      midi  ch:0  note off  key:45  vel:0
        0       midi  ch:0  note on  key:45  vel:100
        48      midi  ch:0  note off  key:45  vel:0
        0       midi  ch:0  note on  key:45  vel:100
        48      midi  ch:0  note off  key:45  vel:0
        0       midi  ch:0  note on  key:45  vel:100
        48      midi  ch:0  note off  key:45  vel:0
        0       midi  ch:0  note on  key:45  vel:100
        48      midi  ch:0  note off  key:45  vel:0
        0       midi  ch:0  note on  key:45  vel:100
        48      midi  ch:0  note off  key:45  vel:0
        0       midi  ch:0  note on  key:45  vel:100
        48      midi  ch:0  note off  key:45  vel:0
        0       midi  ch:0  note on  key:45  vel:100
        48      midi  ch:0  note off  key:45  vel:0
        0       midi  ch:0  note on  key:45  vel:100
        48      midi  ch:0  note off  key:45  vel:0
        0       midi  ch:0  note on  key:45  vel:100
        48      midi  ch:0  note off  key:45  vel:0
        0       midi  ch:0  note on  key:45  vel:100
        48      midi  ch:0  note off  key:45  vel:0
        0       midi  ch:0  note on  key:45  vel:100
        48      midi  ch:0  note off  key:45  vel:0
        0       midi  ch:0  note on  key:45  vel:100
        48      midi  ch:0  note off  key:45  vel:0
        0       midi  ch:0  note on  key:45  vel:100
        48      midi  ch:0  note off  key:45  vel:0
        0       midi  ch:0  note on  key:45  vel:100
        48      midi  ch:0  note off  key:45  vel:0
        0       midi  ch:0  note on  key:45  vel:100
        48      midi  ch:0  note off  key:45  vel:0
        0       midi  ch:0  note on  key:45  vel:100
        48      midi  ch:0  note off  key:45  vel:0
        0       midi  ch:0  note on  key:45  vel:100
        48      midi  ch:0  note on  key:44  vel:100
        0       midi  ch:0  note off  key:45  vel:0
        48      midi  ch:0  note off  key:44  vel:0
        0       midi  ch:0  note on  key:44  vel:100
        48      midi  ch:0  note off  key:44  vel:0
        0       midi  ch:0  note on  key:44  vel:100
        48      midi  ch:0  note off  key:44  vel:0
        0       midi  ch:0  note on  key:44  vel:100
        48      midi  ch:0  note off  key:44  vel:0
        0       midi  ch:0  note on  key:44  vel:100
        48      midi  ch:0  note off  key:44  vel:0
        0       midi  ch:0  note on  key:44  vel:100
        48      midi  ch:0  note off  key:44  vel:0
        0       midi  ch:0  note on  key:44  vel:100
        48      midi  ch:0  note off  key:44  vel:0
        0       midi  ch:0  note on  key:44  vel:100
        48      midi  ch:0  note off  key:44  vel:0
        0       midi  ch:0  note on  key:44  vel:100
        48      midi  ch:0  note off  key:44  vel:0
        0       midi  ch:0  note on  key:44  vel:100
        48      midi  ch:0  note off  key:44  vel:0
        0       midi  ch:0  note on  key:44  vel:100
        48      midi  ch:0  note off  key:44  vel:0
        0       midi  ch:0  note on  key:44  vel:100
        48      midi  ch:0  note off  key:44  vel:0
        0       midi  ch:0  note on  key:44  vel:100
        48      midi  ch:0  note off  key:44  vel:0
        0       midi  ch:0  note on  key:44  vel:100
        48      midi  ch:0  note off  key:44  vel:0
        0       midi  ch:0  note on  key:44  vel:100
        48      midi  ch:0  note off  key:44  vel:0
        0       midi  ch:0  note on  key:44  vel:100
        48      midi  ch:0  note off  key:44  vel:0
        0       midi  ch:0  note on  key:45  vel:100
        48      midi  ch:0  note off  key:45  vel:0
        0       midi  ch:0  note on  key:45  vel:100
        48      midi  ch:0  note off  key:45  vel:0
        0       midi  ch:0  note on  key:45  vel:100
        48      midi  ch:0  note off  key:45  vel:0
        0       midi  ch:0  note on  key:45  vel:100
        48      midi  ch:0  note off  key:45  vel:0
        0       midi  ch:0  note on  key:45  vel:100
        48      midi  ch:0  note off  key:45  vel:0
        0       midi  ch:0  note on  key:45  vel:100
        48      midi  ch:0  note off  key:45  vel:0
        0       midi  ch:0  note on  key:45  vel:100
        48      midi  ch:0  note off  key:45  vel:0
        0       midi  ch:0  note on  key:45  vel:100
        48      midi  ch:0  note off  key:45  vel:0
        0       midi  ch:0  note on  key:45  vel:100
        48      midi  ch:0  note off  key:45  vel:0
        0       midi  ch:0  note on  key:45  vel:100
        48      midi  ch:0  note off  key:45  vel:0
        0       midi  ch:0  note on  key:45  vel:100
        48      midi  ch:0  note off  key:45  vel:0
        0       midi  ch:0  note on  key:45  vel:100
        48      midi  ch:0  note off  key:45  vel:0
        0       midi  ch:0  note on  key:45  vel:100
        48      midi  ch:0  note off  key:45  vel:0
        0       midi  ch:0  note on  key:45  vel:100
        48      midi  ch:0  note off  key:45  vel:0
        0       midi  ch:0  note on  key:45  vel:100
        48      midi  ch:0  note off  key:45  vel:0
        0       midi  ch:0  note on  key:45  vel:100
        48      midi  ch:0  note off  key:45  vel:0
        0       midi  ch:0  note on  key:45  vel:100
        48      midi  ch:0  note off  key:45  vel:0
        0       midi  ch:0  note on  key:45  vel:100
        48      midi  ch:0  note off  key:45  vel:0
        0       midi  ch:0  note on  key:45  vel:100
        48      midi  ch:0  note off  key:45  vel:0
        0       midi  ch:0  note on  key:45  vel:100
        48      midi  ch:0  note off  key:45  vel:0
        0       midi  ch:0  note on  key:45  vel:100
        48      midi  ch:0  note off  key:45  vel:0
        0       midi  ch:0  note on  key:45  vel:100
        48      midi  ch:0  note off  key:45  vel:0
        0       midi  ch:0  note on  key:45  vel:100
        48      midi  ch:0  note off  key:45  vel:0
        0       midi  ch:0  note on  key:45  vel:100
        48      midi  ch:0  note off  key:45  vel:0
        0       midi  ch:0  note on  key:45  vel:100
        48      midi  ch:0  note off  key:45  vel:0
        0       midi  ch:0  note on  key:45  vel:100
        48      midi  ch:0  note off  key:45  vel:0
        0       midi  ch:0  note on  key:45  vel:100
        48      midi  ch:0  note off  key:45  vel:0
        0       midi  ch:0  note on  key:45  vel:100
        48      midi  ch:0  note off  key:45  vel:0
        0       midi  ch:0  note on  key:45  vel:100
        48      midi  ch:0  note off  key:45  vel:0
        0       midi  ch:0  note on  key:45  vel:100
        48      midi  ch:0  note off  key:45  vel:0
        0       midi  ch:0  note on  key:45  vel:100
        48      midi  ch:0  note off  key:45  vel:0
        0       midi  ch:0  note on  key:45  vel:100
        48      midi  ch:0  note off  key:45  vel:0
        0       midi  ch:0  note on  key:45  vel:100
        48      midi  ch:0  note off  key:45  vel:0
        0       midi  ch:0  note on  key:45  vel:100
        48      midi  ch:0  note off  key:45  vel:0
        0       midi  ch:0  note on  key:45  vel:100
        48      midi  ch:0  note off  key:45  vel:0
        0       midi  ch:0  note on  key:45  vel:100
        48      midi  ch:0  note off  key:45  vel:0
        0       midi  ch:0  note on  key:45  vel:100
        48      midi  ch:0  note off  key:45  vel:0
        0       midi  ch:0  note on  key:45  vel:100
        48      midi  ch:0  note off  key:45  vel:0
        0       midi  ch:0  note on  key:45  vel:100
        48      midi  ch:0  note off  key:45  vel:0
        0       midi  ch:0  note on  key:45  vel:100
        48      midi  ch:0  note off  key:45  vel:0
        0       midi  ch:0  note on  key:45  vel:100
        48      midi  ch:0  note off  key:45  vel:0
        0       midi  ch:0  note on  key:45  vel:100
        48      midi  ch:0  note off  key:45  vel:0
        0       midi  ch:0  note on  key:45  vel:100
        48      midi  ch:0  note off  key:45  vel:0
        0       midi  ch:0  note on  key:45  vel:100
        48      midi  ch:0  note off  key:45  vel:0
        0       midi  ch:0  note on  key:45  vel:100
        48      midi  ch:0  note off  key:45  vel:0
        0       midi  ch:0  note on  key:45  vel:100
        48      midi  ch:0  note off  key:45  vel:0
        0       midi  ch:0  note on  key:45  vel:100
        48      midi  ch:0  note off  key:45  vel:0
        0       midi  ch:0  note on  key:45  vel:100
        48      midi  ch:0  note off  key:45  vel:0
        0       midi  ch:0  note on  key:45  vel:100
        48      midi  ch:0  note off  key:45  vel:0
        0       midi  ch:0  note on  key:45  vel:100
        48      midi  ch:0  note off  key:45  vel:0
        0       midi  ch:0  note on  key:45  vel:100
        48      midi  ch:0  note off  key:45  vel:0
        0       midi  ch:0  note on  key:45  vel:100
        48      midi  ch:0  note off  key:45  vel:0
        0       midi  ch:0  note on  key:45  vel:100
        48      midi  ch:0  note off  key:45  vel:0
        0       midi  ch:0  note on  key:45  vel:100
        48      midi  ch:0  note off  key:45  vel:0
        0       midi  ch:0  note on  key:45  vel:100
        48      midi  ch:0  note off  key:45  vel:0
        0       midi  ch:0  note on  key:45  vel:100
        48      midi  ch:0  note off  key:45  vel:0
        0       midi  ch:0  note on  key:45  vel:100
        48      midi  ch:0  note off  key:45  vel:0
        0       midi  ch:0  note on  key:45  vel:100
        48      midi  ch:0  note off  key:45  vel:0
        0       midi  ch:0  note on  key:45  vel:100
        48      midi  ch:0  note off  key:45  vel:0
        0       midi  ch:0  note on  key:45  vel:100
        48      midi  ch:0  note off  key:45  vel:0
        0       midi  ch:0  note on  key:45  vel:100
        48      midi  ch:0  note off  key:45  vel:0
        0       midi  ch:0  note on  key:45  vel:100
        48      midi  ch:0  note off  key:45  vel:0
        0       midi  ch:0  note on  key:45  vel:100
        48      midi  ch:0  note off  key:45  vel:0
        0       midi  ch:0  note on  key:45  vel:100
        48      midi  ch:0  note off  key:45  vel:0
        0       midi  ch:0  note on  key:45  vel:100
        48      midi  ch:0  note off  key:45  vel:0
        0       midi  ch:0  note on  key:45  vel:100
        48      midi  ch:0  note off  key:45  vel:0
        0       midi  ch:0  note on  key:45  vel:100
        48      midi  ch:0  note off  key:45  vel:0
        0       midi  ch:0  note on  key:45  vel:100
        48      midi  ch:0  note off  key:45  vel:0
        0       midi  ch:0  note on  key:45  vel:100
        48      midi  ch:0  note off  key:45  vel:0
        0       midi  ch:0  note on  key:45  vel:100
        48      midi  ch:0  note off  key:45  vel:0
        0       midi  ch:0  note on  key:45  vel:100
        48      midi  ch:0  note off  key:45  vel:0
        0       midi  ch:0  note on  key:45  vel:100
        48      midi  ch:0  note off  key:45  vel:0
        0       midi  ch:0  note on  key:45  vel:100
        48      midi  ch:0  note off  key:45  vel:0
        0       midi  ch:0  note on  key:45  vel:100
        48      midi  ch:0  note off  key:45  vel:0
        0       midi  ch:0  note on  key:45  vel:100
        48      midi  ch:0  note off  key:45  vel:0
        0       midi  ch:0  note on  key:45  vel:100
        48      midi  ch:0  note off  key:45  vel:0
        0       midi  ch:0  note on  key:45  vel:100
        48      midi  ch:0  note off  key:45  vel:0
        0       midi  ch:0  note on  key:45  vel:100
        48      midi  ch:0  note off  key:45  vel:0
        0       midi  ch:0  note on  key:45  vel:100
        48      midi  ch:0  note off  key:45  vel:0
        0       midi  ch:0  note on  key:45  vel:100
        48      midi  ch:0  note off  key:45  vel:0
        0       midi  ch:0  note on  key:45  vel:100
        48      midi  ch:0  note off  key:45  vel:0
        0       midi  ch:0  note on  key:45  vel:100
        48      midi  ch:0  note off  key:45  vel:0
        0       midi  ch:0  note on  key:45  vel:100
        48      midi  ch:0  note off  key:45  vel:0
        0       midi  ch:0  note on  key:45  vel:100
        48      midi  ch:0  note off  key:45  vel:0
        0       midi  ch:0  note on  key:45  vel:100
        48      midi  ch:0  note off  key:45  vel:0
        0       midi  ch:0  note on  key:45  vel:100
        48      midi  ch:0  note off  key:45  vel:0
        0       midi  ch:0  note on  key:45  vel:100
        48      midi  ch:0  note off  key:45  vel:0
        0       midi  ch:0  note on  key:45  vel:100
        48      midi  ch:0  note off  key:45  vel:0
        0       midi  ch:0  note on  key:45  vel:100
        48      midi  ch:0  note off  key:45  vel:0
        0       midi  ch:0  note on  key:45  vel:100
        48      midi  ch:0  note off  key:45  vel:0
        0       midi  ch:0  note on  key:45  vel:100
        48      midi  ch:0  note off  key:45  vel:0
        0       midi  ch:0  note on  key:45  vel:100
        48      midi  ch:0  note off  key:45  vel:0
        0       midi  ch:0  note on  key:45  vel:100
        48      midi  ch:0  note off  key:45  vel:0
        0       midi  ch:0  note on  key:45  vel:100
        48      midi  ch:0  note off  key:45  vel:0
        0       midi  ch:0  note on  key:45  vel:100
        48      midi  ch:0  note off  key:45  vel:0
        0       midi  ch:0  note on  key:45  vel:100
        48      midi  ch:0  note off  key:45  vel:0
        0       midi  ch:0  note on  key:45  vel:100
        48      midi  ch:0  note off  key:45  vel:0
        0       midi  ch:0  note on  key:45  vel:100
        48      midi  ch:0  note off  key:45  vel:0
        0       midi  ch:0  note on  key:45  vel:100
        48      midi  ch:0  note off  key:45  vel:0
        0       midi  ch:0  note on  key:45  vel:100
        48      midi  ch:0  note off  key:45  vel:0
        0       midi  ch:0  note on  key:45  vel:100
        48      midi  ch:0  note off  key:45  vel:0
        0       midi  ch:0  note on  key:45  vel:100
        48      midi  ch:0  note off  key:45  vel:0
        0       midi  ch:0  note on  key:45  vel:100
        48      midi  ch:0  note off  key:45  vel:0
        0       midi  ch:0  note on  key:45  vel:100
        48      midi  ch:0  note off  key:45  vel:0
        0       midi  ch:0  note on  key:45  vel:100
        48      midi  ch:0  note off  key:45  vel:0
        0       midi  ch:0  note on  key:45  vel:100
        48      midi  ch:0  note off  key:45  vel:0
        0       midi  ch:0  note on  key:45  vel:100
        48      midi  ch:0  note off  key:45  vel:0
        0       midi  ch:0  note on  key:45  vel:100
        48      midi  ch:0  note off  key:45  vel:0
        0       midi  ch:0  note on  key:45  vel:100
        48      midi  ch:0  note off  key:45  vel:0
        0       midi  ch:0  note on  key:45  vel:100
        48      midi  ch:0  note off  key:45  vel:0
        0       midi  ch:0  note on  key:45  vel:100
        48      midi  ch:0  note off  key:45  vel:0
        0       midi  ch:0  note on  key:45  vel:100
        48      midi  ch:0  note off  key:45  vel:0
        0       midi  ch:0  note on  key:45  vel:100
        48      midi  ch:0  note off  key:45  vel:0
        0       midi  ch:0  note on  key:45  vel:100
        48      midi  ch:0  note off  key:45  vel:0
        0       midi  ch:0  note on  key:45  vel:100
        48      midi  ch:0  note off  key:45  vel:0
        0       midi  ch:0  note on  key:45  vel:100
        48      midi  ch:0  note off  key:45  vel:0
        0       midi  ch:0  note on  key:45  vel:100
        48      midi  ch:0  note off  key:45  vel:0
        0       midi  ch:0  note on  key:45  vel:100
        48      midi  ch:0  note off  key:45  vel:0
        0       midi  ch:0  note on  key:45  vel:100
        48      midi  ch:0  note off  key:45  vel:0
        0       midi  ch:0  note on  key:45  vel:100
        48      midi  ch:0  note off  key:45  vel:0
        0       midi  ch:0  note on  key:45  vel:100
        48      midi  ch:0  note off  key:45  vel:0
        0       midi  ch:0  note on  key:45  vel:100
        48      midi  ch:0  note off  key:45  vel:0
        0       midi  ch:0  note on  key:45  vel:100
        48      midi  ch:0  note off  key:45  vel:0
        0       midi  ch:0  note on  key:45  vel:100
        48      midi  ch:0  note off  key:45  vel:0
        0       midi  ch:0  note on  key:45  vel:100
        48      midi  ch:0  note off  key:45  vel:0
        0       midi  ch:0  note on  key:45  vel:100
        48      midi  ch:0  note off  key:45  vel:0
        0       midi  ch:0  note on  key:45  vel:100
        48      midi  ch:0  note off  key:45  vel:0
        0       midi  ch:0  note on  key:45  vel:100
        48      midi  ch:0  note off  key:45  vel:0
        0       midi  ch:0  note on  key:45  vel:100
        48      midi  ch:0  note off  key:45  vel:0
        0       midi  ch:0  note on  key:45  vel:100
        48      midi  ch:0  note off  key:45  vel:0
        0       midi  ch:0  note on  key:45  vel:100
        48      midi  ch:0  note off  key:45  vel:0
        0       midi  ch:0  note on  key:45  vel:100
        48      midi  ch:0  note off  key:45  vel:0
        0       midi  ch:0  note on  key:45  vel:100
        48      midi  ch:0  note off  key:45  vel:0
        0       midi  ch:0  note on  key:45  vel:100
        48      midi  ch:0  note off  key:45  vel:0
        0       midi  ch:0  note on  key:45  vel:100
        48      midi  ch:0  note off  key:45  vel:0
        0       midi  ch:0  note on  key:45  vel:100
        48      midi  ch:0  note off  key:45  vel:0
        0       midi  ch:0  note on  key:45  vel:100
        48      midi  ch:0  note off  key:45  vel:0
        0       midi  ch:0  note on  key:45  vel:100
        48      midi  ch:0  note off  key:45  vel:0
        0       midi  ch:0  note on  key:45  vel:100
        48      midi  ch:0  note off  key:45  vel:0
        0       midi  ch:0  note on  key:45  vel:100
        48      midi  ch:0  note off  key:45  vel:0
        0       midi  ch:0  note on  key:45  vel:100
        48      midi  ch:0  note off  key:45  vel:0
        0       midi  ch:0  note on  key:45  vel:100
        48      midi  ch:0  note off  key:45  vel:0
        0       midi  ch:0  note on  key:45  vel:100
        48      midi  ch:0  note off  key:45  vel:0
        0       midi  ch:0  note on  key:45  vel:100
        48      midi  ch:0  note off  key:45  vel:0
        13824   midi  ch:0  note on  key:41  vel:100
        48      midi  ch:0  note off  key:41  vel:0
        0       midi  ch:0  note on  key:41  vel:100
        48      midi  ch:0  note off  key:41  vel:0
        0       midi  ch:0  note on  key:41  vel:100
        48      midi  ch:0  note off  key:41  vel:0
        0       midi  ch:0  note on  key:43  vel:100
        48      midi  ch:0  note off  key:43  vel:0
        0       midi  ch:0  note on  key:43  vel:100
        48      midi  ch:0  note off  key:43  vel:0
        0       midi  ch:0  note on  key:43  vel:100
        48      midi  ch:0  note off  key:43  vel:0
        0       midi  ch:0  note on  key:43  vel:100
        48      midi  ch:0  note off  key:43  vel:0
        0       midi  ch:0  note on  key:45  vel:100
        48      midi  ch:0  note off  key:45  vel:0
        0       midi  ch:0  note on  key:45  vel:100
        48      midi  ch:0  note off  key:45  vel:0
        0       midi  ch:0  note on  key:45  vel:100
        48      midi  ch:0  note off  key:45  vel:0
        0       midi  ch:0  note on  key:45  vel:100
        48      midi  ch:0  note off  key:45  vel:0
        0       midi  ch:0  note on  key:45  vel:100
        48      midi  ch:0  note off  key:45  vel:0
        0       midi  ch:0  note on  key:45  vel:100
        48      midi  ch:0  note off  key:45  vel:0
        0       midi  ch:0  note on  key:45  vel:100
        48      midi  ch:0  note on  key:43  vel:100
        0       midi  ch:0  note off  key:45  vel:0
        48      midi  ch:0  note off  key:43  vel:0
        0       midi  ch:0  note on  key:43  vel:100
        48      midi  ch:0  note on  key:41  vel:100
        0       midi  ch:0  note off  key:43  vel:0
        48      midi  ch:0  note off  key:41  vel:0
        0       midi  ch:0  note on  key:41  vel:100
        48      midi  ch:0  note off  key:41  vel:0
        0       midi  ch:0  note on  key:41  vel:100
        48      midi  ch:0  note off  key:41  vel:0
        0       midi  ch:0  note on  key:43  vel:100
        48      midi  ch:0  note off  key:43  vel:0
        0       midi  ch:0  note on  key:43  vel:100
        48      midi  ch:0  note off  key:43  vel:0
        0       midi  ch:0  note on  key:43  vel:100
        48      midi  ch:0  note off  key:43  vel:0
        0       midi  ch:0  note on  key:43  vel:100
        48      midi  ch:0  note on  key:40  vel:100
        0       midi  ch:0  note off  key:43  vel:0
        48      midi  ch:0  note off  key:40  vel:0
        0       midi  ch:0  note on  key:40  vel:100
        48      midi  ch:0  note off  key:40  vel:0
        0       midi  ch:0  note on  key:40  vel:100
        48      midi  ch:0  note off  key:40  vel:0
        0       midi  ch:0  note on  key:40  vel:100
        48      midi  ch:0  note off  key:40  vel:0
        0       midi  ch:0  note on  key:45  vel:100
        48      midi  ch:0  note off  key:45  vel:0
        0       midi  ch:0  note on  key:45  vel:100
        48      midi  ch:0  note off  key:45  vel:0
        0       midi  ch:0  note on  key:45  vel:100
        48      midi  ch:0  note off  key:45  vel:0
        0       midi  ch:0  note on  key:45  vel:100
        48      midi  ch:0  note off  key:45  vel:0
        0       midi  ch:0  note on  key:45  vel:100
        48      midi  ch:0  note on  key:41  vel:100
        0       midi  ch:0  note off  key:45  vel:0
        48      midi  ch:0  note off  key:41  vel:0
        0       midi  ch:0  note on  key:41  vel:100
        48      midi  ch:0  note off  key:41  vel:0
        0       midi  ch:0  note on  key:41  vel:100
        48      midi  ch:0  note off  key:41  vel:0
        0       midi  ch:0  note on  key:43  vel:100
        48      midi  ch:0  note off  key:43  vel:0
        0       midi  ch:0  note on  key:43  vel:100
        48      midi  ch:0  note off  key:43  vel:0
        0       midi  ch:0  note on  key:43  vel:100
        48      midi  ch:0  note off  key:43  vel:0
        0       midi  ch:0  note on  key:43  vel:100
        48      midi  ch:0  note off  key:43  vel:0
        0       midi  ch:0  note on  key:45  vel:100
        48      midi  ch:0  note off  key:45  vel:0
        0       midi  ch:0  note on  key:45  vel:100
        48      midi  ch:0  note off  key:45  vel:0
        0       midi  ch:0  note on  key:45  vel:100
        48      midi  ch:0  note off  key:45  vel:0
        0       midi  ch:0  note on  key:45  vel:100
        48      midi  ch:0  note off  key:45  vel:0
        0       midi  ch:0  note on  key:45  vel:100
        48      midi  ch:0  note off  key:45  vel:0
        0       midi  ch:0  note on  key:45  vel:100
        48      midi  ch:0  note off  key:45  vel:0
        0       midi  ch:0  note on  key:45  vel:100
        48      midi  ch:0  note on  key:43  vel:100
        0       midi  ch:0  note off  key:45  vel:0
        48      midi  ch:0  note off  key:43  vel:0
        0       midi  ch:0  note on  key:43  vel:100
        48      midi  ch:0  note on  key:41  vel:100
        0       midi  ch:0  note off  key:43  vel:0
        48      midi  ch:0  note off  key:41  vel:0
        0       midi  ch:0  note on  key:41  vel:100
        48      midi  ch:0  note off  key:41  vel:0
        0       midi  ch:0  note on  key:41  vel:100
        48      midi  ch:0  note off  key:41  vel:0
        0       midi  ch:0  note on  key:43  vel:100
        48      midi  ch:0  note off  key:43  vel:0
        0       midi  ch:0  note on  key:43  vel:100
        48      midi  ch:0  note off  key:43  vel:0
        0       midi  ch:0  note on  key:43  vel:100
        48      midi  ch:0  note off  key:43  vel:0
        0       midi  ch:0  note on  key:43  vel:100
        48      midi  ch:0  note off  key:43  vel:0
        0       midi  ch:0  note on  key:45  vel:100
        48      midi  ch:0  note off  key:45  vel:0
        0       midi  ch:0  note on  key:45  vel:100
        48      midi  ch:0  note off  key:45  vel:0
        0       midi  ch:0  note on  key:45  vel:100
        48      midi  ch:0  note off  key:45  vel:0
        0       midi  ch:0  note on  key:45  vel:100
        48      midi  ch:0  note off  key:45  vel:0
        0       midi  ch:0  note on  key:45  vel:100
        48      midi  ch:0  note off  key:45  vel:0
        0       midi  ch:0  note on  key:45  vel:100
        48      midi  ch:0  note off  key:45  vel:0
        0       midi  ch:0  note on  key:45  vel:100
        48      midi  ch:0  note off  key:45  vel:0
        0       midi  ch:0  note on  key:45  vel:100
        48      midi  ch:0  note off  key:45  vel:0
        0       midi  ch:0  note on  key:45  vel:100
        48      midi  ch:0  note off  key:45  vel:0
        6163    meta  type:2f  len:0  end
MTrk  len:8291
        0       meta  type:58  len:4  tsig:  4/4 metr:36 32nds:8
        0       meta  type:58  len:4  tsig:  4/4 metr:36 32nds:8
        0       meta  type:3  len:0  track:""
        9216    midi  ch:0  note on  key:64  vel:100
        0       midi  ch:0  note on  key:69  vel:100
        0       midi  ch:0  note on  key:72  vel:100
        24      midi  ch:0  note off  key:64  vel:0
        0       midi  ch:0  note off  key:69  vel:0
        0       midi  ch:0  note off  key:72  vel:0
        72      midi  ch:0  note on  key:64  vel:100
        0       midi  ch:0  note on  key:69  vel:100
        0       midi  ch:0  note on  key:72  vel:100
        24      midi  ch:0  note off  key:64  vel:0
        0       midi  ch:0  note off  key:69  vel:0
        0       midi  ch:0  note off  key:72  vel:0
        48      midi  ch:0  note on  key:69  vel:100
        0       midi  ch:0  note on  key:72  vel:100
        24      midi  ch:0  note on  key:64  vel:100
        0       midi  ch:0  note off  key:69  vel:0
        0       midi  ch:0  note off  key:72  vel:0
        24      midi  ch:0  note off  key:64  vel:0
        0       midi  ch:0  note on  key:64  vel:100
        0       midi  ch:0  note on  key:69  vel:100
        0       midi  ch:0  note on  key:72  vel:100
        24      midi  ch:0  note off  key:64  vel:0
        0       midi  ch:0  note off  key:69  vel:0
        0       midi  ch:0  note off  key:72  vel:0
        48      midi  ch:0  note on  key:64  vel:100
        0       midi  ch:0  note on  key:69  vel:100
        0       midi  ch:0  note on  key:72  vel:100
        24      midi  ch:0  note off  key:64  vel:0
        0       midi  ch:0  note off  key:69  vel:0
        0       midi  ch:0  note off  key:72  vel:0
        72      midi  ch:0  note on  key:63  vel:100
        0       midi  ch:0  note on  key:69  vel:100
        0       midi  ch:0  note on  key:71  vel:100
        24      midi  ch:0  note off  key:63  vel:0
        0       midi  ch:0  note off  key:69  vel:0
        0       midi  ch:0  note off  key:71  vel:0
        72      midi  ch:0  note on  key:63  vel:100
        0       midi  ch:0  note on  key:69  vel:100
        0       midi  ch:0  note on  key:71  vel:100
        24      midi  ch:0  note off  key:63  vel:0
        0       midi  ch:0  note off  key:69  vel:0
        0       midi  ch:0  note off  key:71  vel:0
        48      midi  ch:0  note on  key:69  vel:100
        0       midi  ch:0  note on  key:71  vel:100
        24      midi  ch:0  note on  key:63  vel:100
        0       midi  ch:0  note off  key:69  vel:0
        0       midi  ch:0  note off  key:71  vel:0
        24      midi  ch:0  note off  key:63  vel:0
        0       midi  ch:0  note on  key:63  vel:100
        0       midi  ch:0  note on  key:69  vel:100
        0       midi  ch:0  note on  key:71  vel:100
        24      midi  ch:0  note off  key:63  vel:0
        0       midi  ch:0  note off  key:69  vel:0
        0       midi  ch:0  note off  key:71  vel:0
        48      midi  ch:0  note on  key:63  vel:100
        0       midi  ch:0  note on  key:69  vel:100
        0       midi  ch:0  note on  key:71  vel:100
        24      midi  ch:0  note off  key:63  vel:0
        0       midi  ch:0  note off  key:69  vel:0
        0       midi  ch:0  note off  key:71  vel:0
        72      midi  ch:0  note on  key:65  vel:100
        0       midi  ch:0  note on  key:71  vel:100
        0       midi  ch:0  note on  key:74  vel:100
        24      midi  ch:0  note off  key:65  vel:0
        0       midi  ch:0  note off  key:71  vel:0
        0       midi  ch:0  note off  key:74  vel:0
        72      midi  ch:0  note on  key:65  vel:100
        0       midi  ch:0  note on  key:71  vel:100
        0       midi  ch:0  note on  key:74  vel:100
        24      midi  ch:0  note off  key:65  vel:0
        0       midi  ch:0  note off  key:71  vel:0
        0       midi  ch:0  note off  key:74  vel:0
        72      midi  ch:0  note on  key:65  vel:100
        0       midi  ch:0  note on  key:71  vel:100
        0       midi  ch:0  note on  key:74  vel:100
        24      midi  ch:0  note off  key:65  vel:0
        0       midi  ch:0  note off  key:71  vel:0
        0       midi  ch:0  note off  key:74  vel:0
        72      midi  ch:0  note on  key:65  vel:100
        0       midi  ch:0  note on  key:71  vel:100
        0       midi  ch:0  note on  key:74  vel:100
        24      midi  ch:0  note off  key:65  vel:0
        0       midi  ch:0  note off  key:71  vel:0
        0       midi  ch:0  note off  key:74  vel:0
        72      midi  ch:0  note on  key:64  vel:100
        0       midi  ch:0  note on  key:69  vel:100
        0       midi  ch:0  note on  key:72  vel:100
        24      midi  ch:0  note off  key:64  vel:0
        0       midi  ch:0  note off  key:69  vel:0
        0       midi  ch:0  note off  key:72  vel:0
        72      midi  ch:0  note on  key:64  vel:100
        0       midi  ch:0  note on  key:69  vel:100
        0       midi  ch:0  note on  key:72  vel:100
        24      midi  ch:0  note off  key:64  vel:0
        0       midi  ch:0  note off  key:69  vel:0
        0       midi  ch:0  note off  key:72  vel:0
        48      midi  ch:0  note on  key:69  vel:100
        0       midi  ch:0  note on  key:72  vel:100
        24      midi  ch:0  note on  key:64  vel:100
        0       midi  ch:0  note off  key:69  vel:0
        0       midi  ch:0  note off  key:72  vel:0
        24      midi  ch:0  note off  key:64  vel:0
        0       midi  ch:0  note on  key:64  vel:100
        0       midi  ch:0  note on  key:69  vel:100
        0       midi  ch:0  note on  key:72  vel:100
        24      midi  ch:0  note off  key:64  vel:0
        0       midi  ch:0  note off  key:69  vel:0
        0       midi  ch:0  note off  key:72  vel:0
        48      midi  ch:0  note on  key:64  vel:100
        0       midi  ch:0  note on  key:69  vel:100
        0       midi  ch:0  note on  key:72  vel:100
        24      midi  ch:0  note off  key:64  vel:0
        0       midi  ch:0  note off  key:69  vel:0
        0       midi  ch:0  note off  key:72  vel:0
        24      midi  ch:0  note on  key:64  vel:100
        24      midi  ch:0  note off  key:64  vel:0
        24      midi  ch:0  note on  key:64  vel:100
        0       midi  ch:0  note on  key:69  vel:100
        0       midi  ch:0  note on  key:72  vel:100
        24      midi  ch:0  note off  key:64  vel:0
        0       midi  ch:0  note off  key:69  vel:0
        0       midi  ch:0  note off  key:72  vel:0
        72      midi  ch:0  note on  key:64  vel:100
        0       midi  ch:0  note on  key:69  vel:100
        0       midi  ch:0  note on  key:72  vel:100
        24      midi  ch:0  note off  key:64  vel:0
        0       midi  ch:0  note off  key:69  vel:0
        0       midi  ch:0  note off  key:72  vel:0
        48      midi  ch:0  note on  key:69  vel:100
        0       midi  ch:0  note on  key:72  vel:100
        24      midi  ch:0  note on  key:64  vel:100
        0       midi  ch:0  note off  key:69  vel:0
        0       midi  ch:0  note off  key:72  vel:0
        24      midi  ch:0  note off  key:64  vel:0
        0       midi  ch:0  note on  key:64  vel:100
        0       midi  ch:0  note on  key:69  vel:100
        0       midi  ch:0  note on  key:72  vel:100
        24      midi  ch:0  note off  key:64  vel:0
        0       midi  ch:0  note off  key:69  vel:0
        0       midi  ch:0  note off  key:72  vel:0
        48      midi  ch:0  note on  key:64  vel:100
        0       midi  ch:0  note on  key:69  vel:100
        0       midi  ch:0  note on  key:72  vel:100
        24      midi  ch:0  note off  key:64  vel:0
        0       midi  ch:0  note off  key:69  vel:0
        0       midi  ch:0  note off  key:72  vel:0
        72      midi  ch:0  note on  key:63  vel:100
        0       midi  ch:0  note on  key:69  vel:100
        0       midi  ch:0  note on  key:71  vel:100
        24      midi  ch:0  note off  key:63  vel:0
        0       midi  ch:0  note off  key:69  vel:0
        0       midi  ch:0  note off  key:71  vel:0
        72      midi  ch:0  note on  key:63  vel:100
        0       midi  ch:0  note on  key:69  vel:100
        0       midi  ch:0  note on  key:71  vel:100
        24      midi  ch:0  note off  key:63  vel:0
        0       midi  ch:0  note off  key:69  vel:0
        0       midi  ch:0  note off  key:71  vel:0
        48      midi  ch:0  note on  key:69  vel:100
        0       midi  ch:0  note on  key:71  vel:100
        24      midi  ch:0  note on  key:63  vel:100
        0       midi  ch:0  note off  key:69  vel:0
        0       midi  ch:0  note off  key:71  vel:0
        24      midi  ch:0  note off  key:63  vel:0
        0       midi  ch:0  note on  key:63  vel:100
        0       midi  ch:0  note on  key:69  vel:100
        0       midi  ch:0  note on  key:71  vel:100
        24      midi  ch:0  note off  key:63  vel:0
        0       midi  ch:0  note off  key:69  vel:0
        0       midi  ch:0  note off  key:71  vel:0
        48      midi  ch:0  note on  key:63  vel:100
        0       midi  ch:0  note on  key:69  vel:100
        0       midi  ch:0  note on  key:71  vel:100
        24      midi  ch:0  note off  key:63  vel:0
        0       midi  ch:0  note off  key:69  vel:0
        0       midi  ch:0  note off  key:71  vel:0
        72      midi  ch:0  note on  key:65  vel:100
        0       midi  ch:0  note on  key:71  vel:100
        0       midi  ch:0  note on  key:74  vel:100
        24      midi  ch:0  note off  key:65  vel:0
        0       midi  ch:0  note off  key:71  vel:0
        0       midi  ch:0  note off  key:74  vel:0
        72      midi  ch:0  note on  key:65  vel:100
        0       midi  ch:0  note on  key:71  vel:100
        0       midi  ch:0  note on  key:74  vel:100
        24      midi  ch:0  note off  key:65  vel:0
        0       midi  ch:0  note off  key:71  vel:0
        0       midi  ch:0  note off  key:74  vel:0
        72      midi  ch:0  note on  key:65  vel:100
        0       midi  ch:0  note on  key:71  vel:100
        0       midi  ch:0  note on  key:74  vel:100
        24      midi  ch:0  note off  key:65  vel:0
        0       midi  ch:0  note off  key:71  vel:0
        0       midi  ch:0  note off  key:74  vel:0
        72      midi  ch:0  note on  key:65  vel:100
        0       midi  ch:0  note on  key:71  vel:100
        0       midi  ch:0  note on  key:74  vel:100
        24      midi  ch:0  note off  key:65  vel:0
        0       midi  ch:0  note off  key:71  vel:0
        0       midi  ch:0  note off  key:74  vel:0
        72      midi  ch:0  note on  key:64  vel:100
        0       midi  ch:0  note on  key:69  vel:100
        0       midi  ch:0  note on  key:72  vel:100
        24      midi  ch:0  note off  key:64  vel:0
        0       midi  ch:0  note off  key:69  vel:0
        0       midi  ch:0  note off  key:72  vel:0
        72      midi  ch:0  note on  key:64  vel:100
        0       midi  ch:0  note on  key:69  vel:100
        0       midi  ch:0  note on  key:72  vel:100
        24      midi  ch:0  note off  key:64  vel:0
        0       midi  ch:0  note off  key:69  vel:0
        0       midi  ch:0  note off  key:72  vel:0
        48      midi  ch:0  note on  key:69  vel:100
        0       midi  ch:0  note on  key:72  vel:100
        24      midi  ch:0  note on  key:64  vel:100
        0       midi  ch:0  note off  key:69  vel:0
        0       midi  ch:0  note off  key:72  vel:0
        24      midi  ch:0  note off  key:64  vel:0
        0       midi  ch:0  note on  key:64  vel:100
        0       midi  ch:0  note on  key:69  vel:100
        0       midi  ch:0  note on  key:72  vel:100
        24      midi  ch:0  note off  key:64  vel:0
        0       midi  ch:0  note off  key:69  vel:0
        0       midi  ch:0  note off  key:72  vel:0
        48      midi  ch:0  note on  key:64  vel:100
        0       midi  ch:0  note on  key:69  vel:100
        0       midi  ch:0  note on  key:72  vel:100
        24      midi  ch:0  note off  key:64  vel:0
        0       midi  ch:0  note off  key:69  vel:0
        0       midi  ch:0  note off  key:72  vel:0
        24      midi  ch:0  note on  key:64  vel:100
        24      midi  ch:0  note off  key:64  vel:0
        24      midi  ch:0  note on  key:64  vel:100
        0       midi  ch:0  note on  key:69  vel:100
        0       midi  ch:0  note on  key:72  vel:100
        24      midi  ch:0  note off  key:64  vel:0
        0       midi  ch:0  note off  key:69  vel:0
        0       midi  ch:0  note off  key:72  vel:0
        72      midi  ch:0  note on  key:64  vel:100
        0       midi  ch:0  note on  key:69  vel:100
        0       midi  ch:0  note on  key:72  vel:100
        24      midi  ch:0  note off  key:64  vel:0
        0       midi  ch:0  note off  key:69  vel:0
        0       midi  ch:0  note off  key:72  vel:0
        48      midi  ch:0  note on  key:69  vel:100
        0       midi  ch:0  note on  key:72  vel:100
        24      midi  ch:0  note on  key:64  vel:100
        0       midi  ch:0  note off  key:69  vel:0
        0       midi  ch:0  note off  key:72  vel:0
        24      midi  ch:0  note off  key:64  vel:0
        0       midi  ch:0  note on  key:64  vel:100
        0       midi  ch:0  note on  key:69  vel:100
        0       midi  ch:0  note on  key:72  vel:100
        24      midi  ch:0  note off  key:64  vel:0
        0       midi  ch:0  note off  key:69  vel:0
        0       midi  ch:0  note off  key:72  vel:0
        48      midi  ch:0  note on  key:64  vel:100
        0       midi  ch:0  note on  key:69  vel:100
        0       midi  ch:0  note on  key:72  vel:100
        24      midi  ch:0  note off  key:64  vel:0
        0       midi  ch:0  note off  key:69  vel:0
        0       midi  ch:0  note off  key:72  vel:0
        72      midi  ch:0  note on  key:63  vel:100
        0       midi  ch:0  note on  key:69  vel:100
        0       midi  ch:0  note on  key:71  vel:100
        24      midi  ch:0  note off  key:63  vel:0
        0       midi  ch:0  note off  key:69  vel:0
        0       midi  ch:0  note off  key:71  vel:0
        72      midi  ch:0  note on  key:63  vel:100
        0       midi  ch:0  note on  key:69  vel:100
        0       midi  ch:0  note on  key:71  vel:100
        24      midi  ch:0  note off  key:63  vel:0
        0       midi  ch:0  note off  key:69  vel:0
        0       midi  ch:0  note off  key:71  vel:0
        48      midi  ch:0  note on  key:69  vel:100
        0       midi  ch:0  note on  key:71  vel:100
        24      midi  ch:0  note on  key:63  vel:100
        0       midi  ch:0  note off  key:69  vel:0
        0       midi  ch:0  note off  key:71  vel:0
        24      midi  ch:0  note off  key:63  vel:0
        0       midi  ch:0  note on  key:63  vel:100
        0       midi  ch:0  note on  key:69  vel:100
        0       midi  ch:0  note on  key:71  vel:100
        24      midi  ch:0  note off  key:63  vel:0
        0       midi  ch:0  note off  key:69  vel:0
        0       midi  ch:0  note off  key:71  vel:0
        48      midi  ch:0  note on  key:63  vel:100
        0       midi  ch:0  note on  key:69  vel:100
        0       midi  ch:0  note on  key:71  vel:100
        24      midi  ch:0  note off  key:63  vel:0
        0       midi  ch:0  note off  key:69  vel:0
        0       midi  ch:0  note off  key:71  vel:0
        72      midi  ch:0  note on  key:65  vel:100
        0       midi  ch:0  note on  key:71  vel:100
        0       midi  ch:0  note on  key:74  vel:100
        24      midi  ch:0  note off  key:65  vel:0
        0       midi  ch:0  note off  key:71  vel:0
        0       midi  ch:0  note off  key:74  vel:0
        72      midi  ch:0  note on  key:65  vel:100
        0       midi  ch:0  note on  key:71  vel:100
        0       midi  ch:0  note on  key:74  vel:100
        24      midi  ch:0  note off  key:65  vel:0
        0       midi  ch:0  note off  key:71  vel:0
        0       midi  ch:0  note off  key:74  vel:0
        72      midi  ch:0  note on  key:65  vel:100
        0       midi  ch:0  note on  key:71  vel:100
        0       midi  ch:0  note on  key:74  vel:100
        24      midi  ch:0  note off  key:65  vel:0
        0       midi  ch:0  note off  key:71  vel:0
        0       midi  ch:0  note off  key:74  vel:0
        72      midi  ch:0  note on  key:65  vel:100
        0       midi  ch:0  note on  key:71  vel:100
        0       midi  ch:0  note on  key:74  vel:100
        24      midi  ch:0  note off  key:65  vel:0
        0       midi  ch:0  note off  key:71  vel:0
        0       midi  ch:0  note off  key:74  vel:0
        72      midi  ch:0  note on  key:64  vel:100
        0       midi  ch:0  note on  key:69  vel:100
        0       midi  ch:0  note on  key:72  vel:100
        24      midi  ch:0  note off  key:64  vel:0
        0       midi  ch:0  note off  key:69  vel:0
        0       midi  ch:0  note off  key:72  vel:0
        72      midi  ch:0  note on  key:64  vel:100
        0       midi  ch:0  note on  key:69  vel:100
        0       midi  ch:0  note on  key:72  vel:100
        24      midi  ch:0  note off  key:64  vel:0
        0       midi  ch:0  note off  key:69  vel:0
        0       midi  ch:0  note off  key:72  vel:0
        48      midi  ch:0  note on  key:69  vel:100
        0       midi  ch:0  note on  key:72  vel:100
        24      midi  ch:0  note on  key:64  vel:100
        0       midi  ch:0  note off  key:69  vel:0
        0       midi  ch:0  note off  key:72  vel:0
        24      midi  ch:0  note off  key:64  vel:0
        0       midi  ch:0  note on  key:64  vel:100
        0       midi  ch:0  note on  key:69  vel:100
        0       midi  ch:0  note on  key:72  vel:100
        24      midi  ch:0  note off  key:64  vel:0
        0       midi  ch:0  note off  key:69  vel:0
        0       midi  ch:0  note off  key:72  vel:0
        48      midi  ch:0  note on  key:64  vel:100
        0       midi  ch:0  note on  key:69  vel:100
        0       midi  ch:0  note on  key:72  vel:100
        24      midi  ch:0  note off  key:64  vel:0
        0       midi  ch:0  note off  key:69  vel:0
        0       midi  ch:0  note off  key:72  vel:0
        24      midi  ch:0  note on  key:64  vel:100
        24      midi  ch:0  note off  key:64  vel:0
        24      midi  ch:0  note on  key:64  vel:100
        0       midi  ch:0  note on  key:69  vel:100
        0       midi  ch:0  note on  key:72  vel:100
        24      midi  ch:0  note off  key:64  vel:0
        0       midi  ch:0  note off  key:69  vel:0
        0       midi  ch:0  note off  key:72  vel:0
        72      midi  ch:0  note on  key:64  vel:100
        0       midi  ch:0  note on  key:69  vel:100
        0       midi  ch:0  note on  key:72  vel:100
        24      midi  ch:0  note off  key:64  vel:0
        0       midi  ch:0  note off  key:69  vel:0
        0       midi  ch:0  note off  key:72  vel:0
        48      midi  ch:0  note on  key:69  vel:100
        0       midi  ch:0  note on  key:72  vel:100
        24      midi  ch:0  note on  key:64  vel:100
        0       midi  ch:0  note off  key:69  vel:0
        0       midi  ch:0  note off  key:72  vel:0
        24      midi  ch:0  note off  key:64  vel:0
        0       midi  ch:0  note on  key:64  vel:100
        0       midi  ch:0  note on  key:69  vel:100
        0       midi  ch:0  note on  key:72  vel:100
        24      midi  ch:0  note off  key:64  vel:0
        0       midi  ch:0  note off  key:69  vel:0
        0       midi  ch:0  note off  key:72  vel:0
        48      midi  ch:0  note on  key:64  vel:100
        0       midi  ch:0  note on  key:69  vel:100
        0       midi  ch:0  note on  key:72  vel:100
        24      midi  ch:0  note off  key:64  vel:0
        0       midi  ch:0  note off  key:69  vel:0
        0       midi  ch:0  note off  key:72  vel:0
        72      midi  ch:0  note on  key:63  vel:100
        0       midi  ch:0  note on  key:69  vel:100
        0       midi  ch:0  note on  key:71  vel:100
        24      midi  ch:0  note off  key:63  vel:0
        0       midi  ch:0  note off  key:69  vel:0
        0       midi  ch:0  note off  key:71  vel:0
        72      midi  ch:0  note on  key:63  vel:100
        0       midi  ch:0  note on  key:69  vel:100
        0       midi  ch:0  note on  key:71  vel:100
        24      midi  ch:0  note off  key:63  vel:0
        0       midi  ch:0  note off  key:69  vel:0
        0       midi  ch:0  note off  key:71  vel:0
        48      midi  ch:0  note on  key:69  vel:100
        0       midi  ch:0  note on  key:71  vel:100
        24      midi  ch:0  note on  key:63  vel:100
        0       midi  ch:0  note off  key:69  vel:0
        0       midi  ch:0  note off  key:71  vel:0
        24      midi  ch:0  note off  key:63  vel:0
        0       midi  ch:0  note on  key:63  vel:100
        0       midi  ch:0  note on  key:69  vel:100
        0       midi  ch:0  note on  key:71  vel:100
        24      midi  ch:0  note off  key:63  vel:0
        0       midi  ch:0  note off  key:69  vel:0
        0       midi  ch:0  note off  key:71  vel:0
        48      midi  ch:0  note on  key:63  vel:100
        0       midi  ch:0  note on  key:69  vel:100
        0       midi  ch:0  note on  key:71  vel:100
        24      midi  ch:0  note off  key:63  vel:0
        0       midi  ch:0  note off  key:69  vel:0
        0       midi  ch:0  note off  key:71  vel:0
        72      midi  ch:0  note on  key:65  vel:100
        0       midi  ch:0  note on  key:71  vel:100
        0       midi  ch:0  note on  key:74  vel:100
        24      midi  ch:0  note off  key:65  vel:0
        0       midi  ch:0  note off  key:71  vel:0
        0       midi  ch:0  note off  key:74  vel:0
        72      midi  ch:0  note on  key:65  vel:100
        0       midi  ch:0  note on  key:71  vel:100
        0       midi  ch:0  note on  key:74  vel:100
        24      midi  ch:0  note off  key:65  vel:0
        0       midi  ch:0  note off  key:71  vel:0
        0       midi  ch:0  note off  key:74  vel:0
        72      midi  ch:0  note on  key:65  vel:100
        0       midi  ch:0  note on  key:71  vel:100
        0       midi  ch:0  note on  key:74  vel:100
        24      midi  ch:0  note off  key:65  vel:0
        0       midi  ch:0  note off  key:71  vel:0
        0       midi  ch:0  note off  key:74  vel:0
        72      midi  ch:0  note on  key:65  vel:100
        0       midi  ch:0  note on  key:71  vel:100
        0       midi  ch:0  note on  key:74  vel:100
        24      midi  ch:0  note off  key:65  vel:0
        0       midi  ch:0  note off  key:71  vel:0
        0       midi  ch:0  note off  key:74  vel:0
        72      midi  ch:0  note on  key:64  vel:100
        0       midi  ch:0  note on  key:69  vel:100
        0       midi  ch:0  note on  key:72  vel:100
        24      midi  ch:0  note off  key:64  vel:0
        0       midi  ch:0  note off  key:69  vel:0
        0       midi  ch:0  note off  key:72  vel:0
        72      midi  ch:0  note on  key:64  vel:100
        0       midi  ch:0  note on  key:69  vel:100
        0       midi  ch:0  note on  key:72  vel:100
        24      midi  ch:0  note off  key:64  vel:0
        0       midi  ch:0  note off  key:69  vel:0
        0       midi  ch:0  note off  key:72  vel:0
        48      midi  ch:0  note on  key:69  vel:100
        0       midi  ch:0  note on  key:72  vel:100
        24      midi  ch:0  note on  key:64  vel:100
        0       midi  ch:0  note off  key:69  vel:0
        0       midi  ch:0  note off  key:72  vel:0
        24      midi  ch:0  note off  key:64  vel:0
        0       midi  ch:0  note on  key:64  vel:100
        0       midi  ch:0  note on  key:69  vel:100
        0       midi  ch:0  note on  key:72  vel:100
        24      midi  ch:0  note off  key:64  vel:0
        0       midi  ch:0  note off  key:69  vel:0
        0       midi  ch:0  note off  key:72  vel:0
        48      midi  ch:0  note on  key:64  vel:100
        0       midi  ch:0  note on  key:69  vel:100
        0       midi  ch:0  note on  key:72  vel:100
        24      midi  ch:0  note off  key:64  vel:0
        0       midi  ch:0  note off  key:69  vel:0
        0       midi  ch:0  note off  key:72  vel:0
        24      midi  ch:0  note on  key:64  vel:100
        24      midi  ch:0  note off  key:64  vel:0
        24      midi  ch:0  note on  key:60  vel:100
        0       midi  ch:0  note on  key:65  vel:100
        0       midi  ch:0  note on  key:69  vel:100
        24      midi  ch:0  note off  key:60  vel:0
        0       midi  ch:0  note off  key:65  vel:0
        0       midi  ch:0  note off  key:69  vel:0
        72      midi  ch:0  note on  key:60  vel:100
        0       midi  ch:0  note on  key:65  vel:100
        0       midi  ch:0  note on  key:69  vel:100
        24      midi  ch:0  note off  key:60  vel:0
        0       midi  ch:0  note off  key:65  vel:0
        0       midi  ch:0  note off  key:69  vel:0
        24      midi  ch:0  note on  key:62  vel:100
        0       midi  ch:0  note on  key:67  vel:100
        0       midi  ch:0  note on  key:71  vel:100
        24      midi  ch:0  note off  key:62  vel:0
        0       midi  ch:0  note off  key:67  vel:0
        0       midi  ch:0  note off  key:71  vel:0
        72      midi  ch:0  note on  key:62  vel:100
        0       midi  ch:0  note on  key:67  vel:100
        0       midi  ch:0  note on  key:71  vel:100
        24      midi  ch:0  note off  key:62  vel:0
        0       midi  ch:0  note off  key:67  vel:0
        0       midi  ch:0  note off  key:71  vel:0
        72      midi  ch:0  note on  key:64  vel:100
        0       midi  ch:0  note on  key:69  vel:100
        0       midi  ch:0  note on  key:72  vel:100
        24      midi  ch:0  note off  key:64  vel:0
        0       midi  ch:0  note off  key:69  vel:0
        0       midi  ch:0  note off  key:72  vel:0
        72      midi  ch:0  note on  key:64  vel:100
        0       midi  ch:0  note on  key:69  vel:100
        0       midi  ch:0  note on  key:72  vel:100
        24      midi  ch:0  note off  key:64  vel:0
        0       midi  ch:0  note off  key:69  vel:0
        0       midi  ch:0  note off  key:72  vel:0
        24      midi  ch:0  note on  key:64  vel:100
        0       midi  ch:0  note on  key:69  vel:100
        0       midi  ch:0  note on  key:72  vel:100
        24      midi  ch:0  note off  key:64  vel:0
        0       midi  ch:0  note off  key:69  vel:0
        0       midi  ch:0  note off  key:72  vel:0
        72      midi  ch:0  note on  key:64  vel:100
        0       midi  ch:0  note on  key:69  vel:100
        0       midi  ch:0  note on  key:72  vel:100
        24      midi  ch:0  note off  key:64  vel:0
        0       midi  ch:0  note off  key:69  vel:0
        0       midi  ch:0  note off  key:72  vel:0
        72      midi  ch:0  note on  key:62  vel:100
        0       midi  ch:0  note on  key:67  vel:100
        0       midi  ch:0  note on  key:71  vel:100
        24      midi  ch:0  note off  key:62  vel:0
        0       midi  ch:0  note off  key:67  vel:0
        0       midi  ch:0  note off  key:71  vel:0
        72      midi  ch:0  note on  key:60  vel:100
        0       midi  ch:0  note on  key:65  vel:100
        0       midi  ch:0  note on  key:69  vel:100
        24      midi  ch:0  note off  key:60  vel:0
        0       midi  ch:0  note off  key:65  vel:0
        0       midi  ch:0  note off  key:69  vel:0
        72      midi  ch:0  note on  key:60  vel:100
        0       midi  ch:0  note on  key:65  vel:100
        0       midi  ch:0  note on  key:69  vel:100
        24      midi  ch:0  note off  key:60  vel:0
        0       midi  ch:0  note off  key:65  vel:0
        0       midi  ch:0  note off  key:69  vel:0
        24      midi  ch:0  note on  key:62  vel:100
        0       midi  ch:0  note on  key:67  vel:100
        0       midi  ch:0  note on  key:71  vel:100
        24      midi  ch:0  note off  key:62  vel:0
        0       midi  ch:0  note off  key:67  vel:0
        0       midi  ch:0  note off  key:71  vel:0
        72      midi  ch:0  note on  key:62  vel:100
        0       midi  ch:0  note on  key:67  vel:100
        0       midi  ch:0  note on  key:71  vel:100
        24      midi  ch:0  note off  key:62  vel:0
        0       midi  ch:0  note off  key:67  vel:0
        0       midi  ch:0  note off  key:71  vel:0
        72      midi  ch:0  note on  key:59  vel:100
        0       midi  ch:0  note on  key:64  vel:100
        0       midi  ch:0  note on  key:67  vel:100
        24      midi  ch:0  note off  key:59  vel:0
        0       midi  ch:0  note off  key:64  vel:0
        0       midi  ch:0  note off  key:67  vel:0
        72      midi  ch:0  note on  key:55  vel:100
        0       midi  ch:0  note on  key:59  vel:100
        0       midi  ch:0  note on  key:64  vel:100
        24      midi  ch:0  note off  key:55  vel:0
        0       midi  ch:0  note off  key:59  vel:0
        0       midi  ch:0  note off  key:64  vel:0
        72      midi  ch:0  note on  key:60  vel:100
        0       midi  ch:0  note on  key:65  vel:100
        0       midi  ch:0  note on  key:69  vel:100
        24      midi  ch:0  note off  key:60  vel:0
        0       midi  ch:0  note off  key:65  vel:0
        0       midi  ch:0  note off  key:69  vel:0
        72      midi  ch:0  note on  key:60  vel:100
        0       midi  ch:0  note on  key:65  vel:100
        0       midi  ch:0  note on  key:69  vel:100
        24      midi  ch:0  note off  key:60  vel:0
        0       midi  ch:0  note off  key:65  vel:0
        0       midi  ch:0  note off  key:69  vel:0
        24      midi  ch:0  note on  key:60  vel:100
        0       midi  ch:0  note on  key:65  vel:100
        0       midi  ch:0  note on  key:69  vel:100
        24      midi  ch:0  note off  key:60  vel:0
        0       midi  ch:0  note off  key:65  vel:0
        0       midi  ch:0  note off  key:69  vel:0
        24      midi  ch:0  note on  key:60  vel:100
        0       midi  ch:0  note on  key:65  vel:100
        0       midi  ch:0  note on  key:69  vel:100
        24      midi  ch:0  note off  key:60  vel:0
        0       midi  ch:0  note off  key:65  vel:0
        0       midi  ch:0  note off  key:69  vel:0
        24      midi  ch:0  note on  key:60  vel:100
        0       midi  ch:0  note on  key:65  vel:100
        0       midi  ch:0  note on  key:69  vel:100
        24      midi  ch:0  note off  key:60  vel:0
        0       midi  ch:0  note off  key:65  vel:0
        0       midi  ch:0  note off  key:69  vel:0
        72      midi  ch:0  note on  key:60  vel:100
        0       midi  ch:0  note on  key:65  vel:100
        0       midi  ch:0  note on  key:69  vel:100
        24      midi  ch:0  note off  key:60  vel:0
        0       midi  ch:0  note off  key:65  vel:0
        0       midi  ch:0  note off  key:69  vel:0
        24      midi  ch:0  note on  key:62  vel:100
        0       midi  ch:0  note on  key:67  vel:100
        0       midi  ch:0  note on  key:71  vel:100
        24      midi  ch:0  note off  key:62  vel:0
        0       midi  ch:0  note off  key:67  vel:0
        0       midi  ch:0  note off  key:71  vel:0
        72      midi  ch:0  note on  key:62  vel:100
        0       midi  ch:0  note on  key:67  vel:100
        0       midi  ch:0  note on  key:71  vel:100
        24      midi  ch:0  note off  key:62  vel:0
        0       midi  ch:0  note off  key:67  vel:0
        0       midi  ch:0  note off  key:71  vel:0
        72      midi  ch:0  note on  key:64  vel:100
        0       midi  ch:0  note on  key:69  vel:100
        0       midi  ch:0  note on  key:72  vel:100
        24      midi  ch:0  note off  key:64  vel:0
        0       midi  ch:0  note off  key:69  vel:0
        0       midi  ch:0  note off  key:72  vel:0
        72      midi  ch:0  note on  key:64  vel:100
        0       midi  ch:0  note on  key:69  vel:100
        0       midi  ch:0  note on  key:72  vel:100
        24      midi  ch:0  note off  key:64  vel:0
        0       midi  ch:0  note off  key:69  vel:0
        0       midi  ch:0  note off  key:72  vel:0
        24      midi  ch:0  note on  key:64  vel:100
        0       midi  ch:0  note on  key:69  vel:100
        0       midi  ch:0  note on  key:72  vel:100
        24      midi  ch:0  note off  key:64  vel:0
        0       midi  ch:0  note off  key:69  vel:0
        0       midi  ch:0  note off  key:72  vel:0
        72      midi  ch:0  note on  key:64  vel:100
        0       midi  ch:0  note on  key:69  vel:100
        0       midi  ch:0  note on  key:72  vel:100
        24      midi  ch:0  note off  key:64  vel:0
        0       midi  ch:0  note off  key:69  vel:0
        0       midi  ch:0  note off  key:72  vel:0
        72      midi  ch:0  note on  key:62  vel:100
        0       midi  ch:0  note on  key:67  vel:100
        0       midi  ch:0  note on  key:71  vel:100
        24      midi  ch:0  note off  key:62  vel:0
        0       midi  ch:0  note off  key:67  vel:0
        0       midi  ch:0  note off  key:71  vel:0
        72      midi  ch:0  note on  key:60  vel:100
        0       midi  ch:0  note on  key:65  vel:100
        0       midi  ch:0  note on  key:69  vel:100
        24      midi  ch:0  note off  key:60  vel:0
        0       midi  ch:0  note off  key:65  vel:0
        0       midi  ch:0  note off  key:69  vel:0
        72      midi  ch:0  note on  key:60  vel:100
        0       midi  ch:0  note on  key:65  vel:100
        0       midi  ch:0  note on  key:69  vel:100
        24      midi  ch:0  note off  key:60  vel:0
        0       midi  ch:0  note off  key:65  vel:0
        0       midi  ch:0  note off  key:69  vel:0
        24      midi  ch:0  note on  key:62  vel:100
        0       midi  ch:0  note on  key:67  vel:100
        0       midi  ch:0  note on  key:71  vel:100
        24      midi  ch:0  note off  key:62  vel:0
        0       midi  ch:0  note off  key:67  vel:0
        0       midi  ch:0  note off  key:71  vel:0
        72      midi  ch:0  note on  key:62  vel:100
        0       midi  ch:0  note on  key:67  vel:100
        0       midi  ch:0  note on  key:71  vel:100
        24      midi  ch:0  note off  key:62  vel:0
        0       midi  ch:0  note off  key:67  vel:0
        0       midi  ch:0  note off  key:71  vel:0
        72      midi  ch:0  note on  key:64  vel:100
        0       midi  ch:0  note on  key:69  vel:100
        0       midi  ch:0  note on  key:72  vel:100
        24      midi  ch:0  note off  key:64  vel:0
        0       midi  ch:0  note off  key:69  vel:0
        0       midi  ch:0  note off  key:72  vel:0
        72      midi  ch:0  note on  key:64  vel:100
        0       midi  ch:0  note on  key:69  vel:100
        0       midi  ch:0  note on  key:72  vel:100
        24      midi  ch:0  note off  key:64  vel:0
        0       midi  ch:0  note off  key:69  vel:0
        0       midi  ch:0  note off  key:72  vel:0
        24      midi  ch:0  note on  key:64  vel:100
        0       midi  ch:0  note on  key:69  vel:100
        0       midi  ch:0  note on  key:72  vel:100
        24      midi  ch:0  note off  key:64  vel:0
        0       midi  ch:0  note off  key:69  vel:0
        0       midi  ch:0  note off  key:72  vel:0
        72      midi  ch:0  note on  key:64  vel:100
        0       midi  ch:0  note on  key:69  vel:100
        0       midi  ch:0  note on  key:72  vel:100
        24      midi  ch:0  note off  key:64  vel:0
        0       midi  ch:0  note off  key:69  vel:0
        0       midi  ch:0  note off  key:72  vel:0
        72      midi  ch:0  note on  key:64  vel:100
        0       midi  ch:0  note on  key:69  vel:100
        0       midi  ch:0  note on  key:72  vel:100
        24      midi  ch:0  note off  key:64  vel:0
        0       midi  ch:0  note off  key:69  vel:0
        0       midi  ch:0  note off  key:72  vel:0
        72      midi  ch:0  note on  key:60  vel:100
        0       midi  ch:0  note on  key:65  vel:100
        0       midi  ch:0  note on  key:69  vel:100
        24      midi  ch:0  note off  key:60  vel:0
        0       midi  ch:0  note off  key:65  vel:0
        0       midi  ch:0  note off  key:69  vel:0
        72      midi  ch:0  note on  key:60  vel:100
        0       midi  ch:0  note on  key:65  vel:100
        0       midi  ch:0  note on  key:69  vel:100
        24      midi  ch:0  note off  key:60  vel:0
        0       midi  ch:0  note off  key:65  vel:0
        0       midi  ch:0  note off  key:69  vel:0
        24      midi  ch:0  note on  key:62  vel:100
        0       midi  ch:0  note on  key:67  vel:100
        0       midi  ch:0  note on  key:71  vel:100
        24      midi  ch:0  note off  key:62  vel:0
        0       midi  ch:0  note off  key:67  vel:0
        0       midi  ch:0  note off  key:71  vel:0
        72      midi  ch:0  note on  key:62  vel:100
        0       midi  ch:0  note on  key:67  vel:100
        0       midi  ch:0  note on  key:71  vel:100
        24      midi  ch:0  note off  key:62  vel:0
        0       midi  ch:0  note off  key:67  vel:0
        0       midi  ch:0  note off  key:71  vel:0
        72      midi  ch:0  note on  key:64  vel:100
        0       midi  ch:0  note on  key:69  vel:100
        0       midi  ch:0  note on  key:72  vel:100
        24      midi  ch:0  note off  key:64  vel:0
        0       midi  ch:0  note off  key:69  vel:0
        0       midi  ch:0  note off  key:72  vel:0
        72      midi  ch:0  note on  key:64  vel:100
        0       midi  ch:0  note on  key:69  vel:100
        0       midi  ch:0  note on  key:72  vel:100
        24      midi  ch:0  note off  key:64  vel:0
        0       midi  ch:0  note off  key:69  vel:0
        0       midi  ch:0  note off  key:72  vel:0
        24      midi  ch:0  note on  key:64  vel:100
        0       midi  ch:0  note on  key:69  vel:100
        0       midi  ch:0  note on  key:72  vel:100
        24      midi  ch:0  note off  key:64  vel:0
        0       midi  ch:0  note off  key:69  vel:0
        0       midi  ch:0  note off  key:72  vel:0
        72      midi  ch:0  note on  key:64  vel:100
        0       midi  ch:0  note on  key:69  vel:100
        0       midi  ch:0  note on  key:72  vel:100
        24      midi  ch:0  note off  key:64  vel:0
        0       midi  ch:0  note off  key:69  vel:0
        0       midi  ch:0  note off  key:72  vel:0
        72      midi  ch:0  note on  key:62  vel:100
        0       midi  ch:0  note on  key:67  vel:100
        0       midi  ch:0  note on  key:71  vel:100
        24      midi  ch:0  note off  key:62  vel:0
        0       midi  ch:0  note off  key:67  vel:0
        0       midi  ch:0  note off  key:71  vel:0
        72      midi  ch:0  note on  key:60  vel:100
        0       midi  ch:0  note on  key:65  vel:100
        0       midi  ch:0  note on  key:69  vel:100
        24      midi  ch:0  note off  key:60  vel:0
        0       midi  ch:0  note off  key:65  vel:0
        0       midi  ch:0  note off  key:69  vel:0
        72      midi  ch:0  note on  key:60  vel:100
        0       midi  ch:0  note on  key:65  vel:100
        0       midi  ch:0  note on  key:69  vel:100
        24      midi  ch:0  note off  key:60  vel:0
        0       midi  ch:0  note off  key:65  vel:0
        0       midi  ch:0  note off  key:69  vel:0
        24      midi  ch:0  note on  key:62  vel:100
        0       midi  ch:0  note on  key:67  vel:100
        0       midi  ch:0  note on  key:71  vel:100
        24      midi  ch:0  note off  key:62  vel:0
        0       midi  ch:0  note off  key:67  vel:0
        0       midi  ch:0  note off  key:71  vel:0
        72      midi  ch:0  note on  key:62  vel:100
        0       midi  ch:0  note on  key:67  vel:100
        0       midi  ch:0  note on  key:71  vel:100
        24      midi  ch:0  note off  key:62  vel:0
        0       midi  ch:0  note off  key:67  vel:0
        0       midi  ch:0  note off  key:71  vel:0
        72      midi  ch:0  note on  key:59  vel:100
        0       midi  ch:0  note on  key:64  vel:100
        0       midi  ch:0  note on  key:67  vel:100
        24      midi  ch:0  note off  key:59  vel:0
        0       midi  ch:0  note off  key:64  vel:0
        0       midi  ch:0  note off  key:67  vel:0
        72      midi  ch:0  note on  key:55  vel:100
        0       midi  ch:0  note on  key:59  vel:100
        0       midi  ch:0  note on  key:64  vel:100
        24      midi  ch:0  note off  key:55  vel:0
        0       midi  ch:0  note off  key:59  vel:0
        0       midi  ch:0  note off  key:64  vel:0
        72      midi  ch:0  note on  key:60  vel:100
        0       midi  ch:0  note on  key:65  vel:100
        0       midi  ch:0  note on  key:69  vel:100
        24      midi  ch:0  note off  key:60  vel:0
        0       midi  ch:0  note off  key:65  vel:0
        0       midi  ch:0  note off  key:69  vel:0
        72      midi  ch:0  note on  key:60  vel:100
        0       midi  ch:0  note on  key:65  vel:100
        0       midi  ch:0  note on  key:69  vel:100
        24      midi  ch:0  note off  key:60  vel:0
        0       midi  ch:0  note off  key:65  vel:0
        0       midi  ch:0  note off  key:69  vel:0
        24      midi  ch:0  note on  key:60  vel:100
        0       midi  ch:0  note on  key:65  vel:100
        0       midi  ch:0  note on  key:69  vel:100
        24      midi  ch:0  note off  key:60  vel:0
        0       midi  ch:0  note off  key:65  vel:0
        0       midi  ch:0  note off  key:69  vel:0
        24      midi  ch:0  note on  key:60  vel:100
        0       midi  ch:0  note on  key:65  vel:100
        0       midi  ch:0  note on  key:69  vel:100
        24      midi  ch:0  note off  key:60  vel:0
        0       midi  ch:0  note off  key:65  vel:0
        0       midi  ch:0  note off  key:69  vel:0
        24      midi  ch:0  note on  key:60  vel:100
        0       midi  ch:0  note on  key:65  vel:100
        0       midi  ch:0  note on  key:69  vel:100
        24      midi  ch:0  note off  key:60  vel:0
        0       midi  ch:0  note off  key:65  vel:0
        0       midi  ch:0  note off  key:69  vel:0
        72      midi  ch:0  note on  key:60  vel:100
        0       midi  ch:0  note on  key:65  vel:100
        0       midi  ch:0  note on  key:69  vel:100
        24      midi  ch:0  note off  key:60  vel:0
        0       midi  ch:0  note off  key:65  vel:0
        0       midi  ch:0  note off  key:69  vel:0
        24      midi  ch:0  note on  key:62  vel:100
        0       midi  ch:0  note on  key:67  vel:100
        0       midi  ch:0  note on  key:71  vel:100
        24      midi  ch:0  note off  key:62  vel:0
        0       midi  ch:0  note off  key:67  vel:0
        0       midi  ch:0  note off  key:71  vel:0
        72      midi  ch:0  note on  key:62  vel:100
        0       midi  ch:0  note on  key:67  vel:100
        0       midi  ch:0  note on  key:71  vel:100
        24      midi  ch:0  note off  key:62  vel:0
        0       midi  ch:0  note off  key:67  vel:0
        0       midi  ch:0  note off  key:71  vel:0
        72      midi  ch:0  note on  key:64  vel:100
        0       midi  ch:0  note on  key:69  vel:100
        0       midi  ch:0  note on  key:72  vel:100
        24      midi  ch:0  note off  key:64  vel:0
        0       midi  ch:0  note off  key:69  vel:0
        0       midi  ch:0  note off  key:72  vel:0
        72      midi  ch:0  note on  key:64  vel:100
        0       midi  ch:0  note on  key:69  vel:100
        0       midi  ch:0  note on  key:72  vel:100
        24      midi  ch:0  note off  key:64  vel:0
        0       midi  ch:0  note off  key:69  vel:0
        0       midi  ch:0  note off  key:72  vel:0
        24      midi  ch:0  note on  key:64  vel:100
        0       midi  ch:0  note on  key:69  vel:100
        0       midi  ch:0  note on  key:72  vel:100
        24      midi  ch:0  note off  key:64  vel:0
        0       midi  ch:0  note off  key:69  vel:0
        0       midi  ch:0  note off  key:72  vel:0
        72      midi  ch:0  note on  key:64  vel:100
        0       midi  ch:0  note on  key:69  vel:100
        0       midi  ch:0  note on  key:72  vel:100
        24      midi  ch:0  note off  key:64  vel:0
        0       midi  ch:0  note off  key:69  vel:0
        0       midi  ch:0  note off  key:72  vel:0
        72      midi  ch:0  note on  key:62  vel:100
        0       midi  ch:0  note on  key:67  vel:100
        0       midi  ch:0  note on  key:71  vel:100
        24      midi  ch:0  note off  key:62  vel:0
        0       midi  ch:0  note off  key:67  vel:0
        0       midi  ch:0  note off  key:71  vel:0
        72      midi  ch:0  note on  key:60  vel:100
        0       midi  ch:0  note on  key:65  vel:100
        0       midi  ch:0  note on  key:69  vel:100
        24      midi  ch:0  note off  key:60  vel:0
        0       midi  ch:0  note off  key:65  vel:0
        0       midi  ch:0  note off  key:69  vel:0
        72      midi  ch:0  note on  key:60  vel:100
        0       midi  ch:0  note on  key:65  vel:100
        0       midi  ch:0  note on  key:69  vel:100
        24      midi  ch:0  note off  key:60  vel:0
        0       midi  ch:0  note off  key:65  vel:0
        0       midi  ch:0  note off  key:69  vel:0
        24      midi  ch:0  note on  key:62  vel:100
        0       midi  ch:0  note on  key:67  vel:100
        0       midi  ch:0  note on  key:71  vel:100
        24      midi  ch:0  note off  key:62  vel:0
        0       midi  ch:0  note off  key:67  vel:0
        0       midi  ch:0  note off  key:71  vel:0
        72      midi  ch:0  note on  key:62  vel:100
        0       midi  ch:0  note on  key:67  vel:100
        0       midi  ch:0  note on  key:71  vel:100
        24      midi  ch:0  note off  key:62  vel:0
        0       midi  ch:0  note off  key:67  vel:0
        0       midi  ch:0  note off  key:71  vel:0
        72      midi  ch:0  note on  key:64  vel:100
        0       midi  ch:0  note on  key:69  vel:100
        0       midi  ch:0  note on  key:72  vel:100
        24      midi  ch:0  note off  key:64  vel:0
        0       midi  ch:0  note off  key:69  vel:0
        0       midi  ch:0  note off  key:72  vel:0
        72      midi  ch:0  note on  key:64  vel:100
        0       midi  ch:0  note on  key:69  vel:100
        0       midi  ch:0  note on  key:72  vel:100
        24      midi  ch:0  note off  key:64  vel:0
        0       midi  ch:0  note off  key:69  vel:0
        0       midi  ch:0  note off  key:72  vel:0
        24      midi  ch:0  note on  key:64  vel:100
        0       midi  ch:0  note on  key:69  vel:100
        0       midi  ch:0  note on  key:72  vel:100
        24      midi  ch:0  note off  key:64  vel:0
        0       midi  ch:0  note off  key:69  vel:0
        0       midi  ch:0  note off  key:72  vel:0
        72      midi  ch:0  note on  key:64  vel:100
        0       midi  ch:0  note on  key:69  vel:100
        0       midi  ch:0  note on  key:72  vel:100
        24      midi  ch:0  note off  key:64  vel:0
        0       midi  ch:0  note off  key:69  vel:0
        0       midi  ch:0  note off  key:72  vel:0
        72      midi  ch:0  note on  key:64  vel:100
        0       midi  ch:0  note on  key:69  vel:100
        0       midi  ch:0  note on  key:72  vel:100
        24      midi  ch:0  note off  key:64  vel:0
        0       midi  ch:0  note off  key:69  vel:0
        0       midi  ch:0  note off  key:72  vel:0
        15432   midi  ch:0  note on  key:64  vel:100
        0       midi  ch:0  note on  key:69  vel:100
        0       midi  ch:0  note on  key:72  vel:100
        24      midi  ch:0  note off  key:64  vel:0
        0       midi  ch:0  note off  key:69  vel:0
        0       midi  ch:0  note off  key:72  vel:0
        72      midi  ch:0  note on  key:64  vel:100
        0       midi  ch:0  note on  key:69  vel:100
        0       midi  ch:0  note on  key:72  vel:100
        24      midi  ch:0  note off  key:64  vel:0
        0       midi  ch:0  note off  key:69  vel:0
        0       midi  ch:0  note off  key:72  vel:0
        48      midi  ch:0  note on  key:69  vel:100
        0       midi  ch:0  note on  key:72  vel:100
        24      midi  ch:0  note on  key:64  vel:100
        0       midi  ch:0  note off  key:69  vel:0
        0       midi  ch:0  note off  key:72  vel:0
        24      midi  ch:0  note off  key:64  vel:0
        0       midi  ch:0  note on  key:64  vel:100
        0       midi  ch:0  note on  key:69  vel:100
        0       midi  ch:0  note on  key:72  vel:100
        24      midi  ch:0  note off  key:64  vel:0
        0       midi  ch:0  note off  key:69  vel:0
        0       midi  ch:0  note off  key:72  vel:0
        48      midi  ch:0  note on  key:64  vel:100
        0       midi  ch:0  note on  key:69  vel:100
        0       midi  ch:0  note on  key:72  vel:100
        24      midi  ch:0  note off  key:64  vel:0
        0       midi  ch:0  note off  key:69  vel:0
        0       midi  ch:0  note off  key:72  vel:0
        72      midi  ch:0  note on  key:63  vel:100
        0       midi  ch:0  note on  key:69  vel:100
        0       midi  ch:0  note on  key:71  vel:100
        24      midi  ch:0  note off  key:63  vel:0
        0       midi  ch:0  note off  key:69  vel:0
        0       midi  ch:0  note off  key:71  vel:0
        72      midi  ch:0  note on  key:63  vel:100
        0       midi  ch:0  note on  key:69  vel:100
        0       midi  ch:0  note on  key:71  vel:100
        24      midi  ch:0  note off  key:63  vel:0
        0       midi  ch:0  note off  key:69  vel:0
        0       midi  ch:0  note off  key:71  vel:0
        48      midi  ch:0  note on  key:69  vel:100
        0       midi  ch:0  note on  key:71  vel:100
        24      midi  ch:0  note on  key:63  vel:100
        0       midi  ch:0  note off  key:69  vel:0
        0       midi  ch:0  note off  key:71  vel:0
        24      midi  ch:0  note off  key:63  vel:0
        0       midi  ch:0  note on  key:63  vel:100
        0       midi  ch:0  note on  key:69  vel:100
        0       midi  ch:0  note on  key:71  vel:100
        24      midi  ch:0  note off  key:63  vel:0
        0       midi  ch:0  note off  key:69  vel:0
        0       midi  ch:0  note off  key:71  vel:0
        48      midi  ch:0  note on  key:63  vel:100
        0       midi  ch:0  note on  key:69  vel:100
        0       midi  ch:0  note on  key:71  vel:100
        24      midi  ch:0  note off  key:63  vel:0
        0       midi  ch:0  note off  key:69  vel:0
        0       midi  ch:0  note off  key:71  vel:0
        72      midi  ch:0  note on  key:65  vel:100
        0       midi  ch:0  note on  key:71  vel:100
        0       midi  ch:0  note on  key:74  vel:100
        24      midi  ch:0  note off  key:65  vel:0
        0       midi  ch:0  note off  key:71  vel:0
        0       midi  ch:0  note off  key:74  vel:0
        72      midi  ch:0  note on  key:65  vel:100
        0       midi  ch:0  note on  key:71  vel:100
        0       midi  ch:0  note on  key:74  vel:100
        24      midi  ch:0  note off  key:65  vel:0
        0       midi  ch:0  note off  key:71  vel:0
        0       midi  ch:0  note off  key:74  vel:0
        72      midi  ch:0  note on  key:65  vel:100
        0       midi  ch:0  note on  key:71  vel:100
        0       midi  ch:0  note on  key:74  vel:100
        24      midi  ch:0  note off  key:65  vel:0
        0       midi  ch:0  note off  key:71  vel:0
        0       midi  ch:0  note off  key:74  vel:0
        72      midi  ch:0  note on  key:65  vel:100
        0       midi  ch:0  note on  key:71  vel:100
        0       midi  ch:0  note on  key:74  vel:100
        24      midi  ch:0  note off  key:65  vel:0
        0       midi  ch:0  note off  key:71  vel:0
        0       midi  ch:0  note off  key:74  vel:0
        72      midi  ch:0  note on  key:64  vel:100
        0       midi  ch:0  note on  key:69  vel:100
        0       midi  ch:0  note on  key:72  vel:100
        24      midi  ch:0  note off  key:64  vel:0
        0       midi  ch:0  note off  key:69  vel:0
        0       midi  ch:0  note off  key:72  vel:0
        72      midi  ch:0  note on  key:64  vel:100
        0       midi  ch:0  note on  key:69  vel:100
        0       midi  ch:0  note on  key:72  vel:100
        24      midi  ch:0  note off  key:64  vel:0
        0       midi  ch:0  note off  key:69  vel:0
        0       midi  ch:0  note off  key:72  vel:0
        48      midi  ch:0  note on  key:69  vel:100
        0       midi  ch:0  note on  key:72  vel:100
        24      midi  ch:0  note on  key:64  vel:100
        0       midi  ch:0  note off  key:69  vel:0
        0       midi  ch:0  note off  key:72  vel:0
        24      midi  ch:0  note off  key:64  vel:0
        0       midi  ch:0  note on  key:64  vel:100
        0       midi  ch:0  note on  key:69  vel:100
        0       midi  ch:0  note on  key:72  vel:100
        24      midi  ch:0  note off  key:64  vel:0
        0       midi  ch:0  note off  key:69  vel:0
        0       midi  ch:0  note off  key:72  vel:0
        48      midi  ch:0  note on  key:64  vel:100
        0       midi  ch:0  note on  key:69  vel:100
        0       midi  ch:0  note on  key:72  vel:100
        24      midi  ch:0  note off  key:64  vel:0
        0       midi  ch:0  note off  key:69  vel:0
        0       midi  ch:0  note off  key:72  vel:0
        24      midi  ch:0  note on  key:64  vel:100
        24      midi  ch:0  note off  key:64  vel:0
        24      midi  ch:0  note on  key:64  vel:100
        0       midi  ch:0  note on  key:69  vel:100
        0       midi  ch:0  note on  key:72  vel:100
        24      midi  ch:0  note off  key:64  vel:0
        0       midi  ch:0  note off  key:69  vel:0
        0       midi  ch:0  note off  key:72  vel:0
        72      midi  ch:0  note on  key:64  vel:100
        0       midi  ch:0  note on  key:69  vel:100
        0       midi  ch:0  note on  key:72  vel:100
        24      midi  ch:0  note off  key:64  vel:0
        0       midi  ch:0  note off  key:69  vel:0
        0       midi  ch:0  note off  key:72  vel:0
        48      midi  ch:0  note on  key:69  vel:100
        0       midi  ch:0  note on  key:72  vel:100
        24      midi  ch:0  note on  key:64  vel:100
        0       midi  ch:0  note off  key:69  vel:0
        0       midi  ch:0  note off  key:72  vel:0
        24      midi  ch:0  note off  key:64  vel:0
        0       midi  ch:0  note on  key:64  vel:100
        0       midi  ch:0  note on  key:69  vel:100
        0       midi  ch:0  note on  key:72  vel:100
        24      midi  ch:0  note off  key:64  vel:0
        0       midi  ch:0  note off  key:69  vel:0
        0       midi  ch:0  note off  key:72  vel:0
        48      midi  ch:0  note on  key:64  vel:100
        0       midi  ch:0  note on  key:69  vel:100
        0       midi  ch:0  note on  key:72  vel:100
        24      midi  ch:0  note off  key:64  vel:0
        0       midi  ch:0  note off  key:69  vel:0
        0       midi  ch:0  note off  key:72  vel:0
        72      midi  ch:0  note on  key:63  vel:100
        0       midi  ch:0  note on  key:69  vel:100
        0       midi  ch:0  note on  key:71  vel:100
        24      midi  ch:0  note off  key:63  vel:0
        0       midi  ch:0  note off  key:69  vel:0
        0       midi  ch:0  note off  key:71  vel:0
        72      midi  ch:0  note on  key:63  vel:100
        0       midi  ch:0  note on  key:69  vel:100
        0       midi  ch:0  note on  key:71  vel:100
        24      midi  ch:0  note off  key:63  vel:0
        0       midi  ch:0  note off  key:69  vel:0
        0       midi  ch:0  note off  key:71  vel:0
        48      midi  ch:0  note on  key:69  vel:100
        0       midi  ch:0  note on  key:71  vel:100
        24      midi  ch:0  note on  key:63  vel:100
        0       midi  ch:0  note off  key:69  vel:0
        0       midi  ch:0  note off  key:71  vel:0
        24      midi  ch:0  note off  key:63  vel:0
        0       midi  ch:0  note on  key:63  vel:100
        0       midi  ch:0  note on  key:69  vel:100
        0       midi  ch:0  note on  key:71  vel:100
        24      midi  ch:0  note off  key:63  vel:0
        0       midi  ch:0  note off  key:69  vel:0
        0       midi  ch:0  note off  key:71  vel:0
        48      midi  ch:0  note on  key:63  vel:100
        0       midi  ch:0  note on  key:69  vel:100
        0       midi  ch:0  note on  key:71  vel:100
        24      midi  ch:0  note off  key:63  vel:0
        0       midi  ch:0  note off  key:69  vel:0
        0       midi  ch:0  note off  key:71  vel:0
        72      midi  ch:0  note on  key:65  vel:100
        0       midi  ch:0  note on  key:71  vel:100
        0       midi  ch:0  note on  key:74  vel:100
        24      midi  ch:0  note off  key:65  vel:0
        0       midi  ch:0  note off  key:71  vel:0
        0       midi  ch:0  note off  key:74  vel:0
        72      midi  ch:0  note on  key:65  vel:100
        0       midi  ch:0  note on  key:71  vel:100
        0       midi  ch:0  note on  key:74  vel:100
        24      midi  ch:0  note off  key:65  vel:0
        0       midi  ch:0  note off  key:71  vel:0
        0       midi  ch:0  note off  key:74  vel:0
        72      midi  ch:0  note on  key:65  vel:100
        0       midi  ch:0  note on  key:71  vel:100
        0       midi  ch:0  note on  key:74  vel:100
        24      midi  ch:0  note off  key:65  vel:0
        0       midi  ch:0  note off  key:71  vel:0
        0       midi  ch:0  note off  key:74  vel:0
        72      midi  ch:0  note on  key:65  vel:100
        0       midi  ch:0  note on  key:71  vel:100
        0       midi  ch:0  note on  key:74  vel:100
        24      midi  ch:0  note off  key:65  vel:0
        0       midi  ch:0  note off  key:71  vel:0
        0       midi  ch:0  note off  key:74  vel:0
        72      midi  ch:0  note on  key:64  vel:100
        0       midi  ch:0  note on  key:69  vel:100
        0       midi  ch:0  note on  key:72  vel:100
        24      midi  ch:0  note off  key:64  vel:0
        0       midi  ch:0  note off  key:69  vel:0
        0       midi  ch:0  note off  key:72  vel:0
        72      midi  ch:0  note on  key:64  vel:100
        0       midi  ch:0  note on  key:69  vel:100
        0       midi  ch:0  note on  key:72  vel:100
        24      midi  ch:0  note off  key:64  vel:0
        0       midi  ch:0  note off  key:69  vel:0
        0       midi  ch:0  note off  key:72  vel:0
        48      midi  ch:0  note on  key:69  vel:100
        0       midi  ch:0  note on  key:72  vel:100
        24      midi  ch:0  note on  key:64  vel:100
        0       midi  ch:0  note off  key:69  vel:0
        0       midi  ch:0  note off  key:72  vel:0
        24      midi  ch:0  note off  key:64  vel:0
        0       midi  ch:0  note on  key:64  vel:100
        0       midi  ch:0  note on  key:69  vel:100
        0       midi  ch:0  note on  key:72  vel:100
        24      midi  ch:0  note off  key:64  vel:0
        0       midi  ch:0  note off  key:69  vel:0
        0       midi  ch:0  note off  key:72  vel:0
        48      midi  ch:0  note on  key:64  vel:100
        0       midi  ch:0  note on  key:69  vel:100
        0       midi  ch:0  note on  key:72  vel:100
        24      midi  ch:0  note off  key:64  vel:0
        0       midi  ch:0  note off  key:69  vel:0
        0       midi  ch:0  note off  key:72  vel:0
        24      midi  ch:0  note on  key:64  vel:100
        24      midi  ch:0  note off  key:64  vel:0
        24      midi  ch:0  note on  key:64  vel:100
        0       midi  ch:0  note on  key:69  vel:100
        0       midi  ch:0  note on  key:72  vel:100
        24      midi  ch:0  note off  key:64  vel:0
        0       midi  ch:0  note off  key:69  vel:0
        0       midi  ch:0  note off  key:72  vel:0
        72      midi  ch:0  note on  key:64  vel:100
        0       midi  ch:0  note on  key:69  vel:100
        0       midi  ch:0  note on  key:72  vel:100
        24      midi  ch:0  note off  key:64  vel:0
        0       midi  ch:0  note off  key:69  vel:0
        0       midi  ch:0  note off  key:72  vel:0
        48      midi  ch:0  note on  key:69  vel:100
        0       midi  ch:0  note on  key:72  vel:100
        24      midi  ch:0  note on  key:64  vel:100
        0       midi  ch:0  note off  key:69  vel:0
        0       midi  ch:0  note off  key:72  vel:0
        24      midi  ch:0  note off  key:64  vel:0
        0       midi  ch:0  note on  key:64  vel:100
        0       midi  ch:0  note on  key:69  vel:100
        0       midi  ch:0  note on  key:72  vel:100
        24      midi  ch:0  note off  key:64  vel:0
        0       midi  ch:0  note off  key:69  vel:0
        0       midi  ch:0  note off  key:72  vel:0
        48      midi  ch:0  note on  key:64  vel:100
        0       midi  ch:0  note on  key:69  vel:100
        0       midi  ch:0  note on  key:72  vel:100
        24      midi  ch:0  note off  key:64  vel:0
        0       midi  ch:0  note off  key:69  vel:0
        0       midi  ch:0  note off  key:72  vel:0
        72      midi  ch:0  note on  key:63  vel:100
        0       midi  ch:0  note on  key:69  vel:100
        0       midi  ch:0  note on  key:71  vel:100
        24      midi  ch:0  note off  key:63  vel:0
        0       midi  ch:0  note off  key:69  vel:0
        0       midi  ch:0  note off  key:71  vel:0
        72      midi  ch:0  note on  key:63  vel:100
        0       midi  ch:0  note on  key:69  vel:100
        0       midi  ch:0  note on  key:71  vel:100
        24      midi  ch:0  note off  key:63  vel:0
        0       midi  ch:0  note off  key:69  vel:0
        0       midi  ch:0  note off  key:71  vel:0
        48      midi  ch:0  note on  key:69  vel:100
        0       midi  ch:0  note on  key:71  vel:100
        24      midi  ch:0  note on  key:63  vel:100
        0       midi  ch:0  note off  key:69  vel:0
        0       midi  ch:0  note off  key:71  vel:0
        24      midi  ch:0  note off  key:63  vel:0
        0       midi  ch:0  note on  key:63  vel:100
        0       midi  ch:0  note on  key:69  vel:100
        0       midi  ch:0  note on  key:71  vel:100
        24      midi  ch:0  note off  key:63  vel:0
        0       midi  ch:0  note off  key:69  vel:0
        0       midi  ch:0  note off  key:71  vel:0
        48      midi  ch:0  note on  key:63  vel:100
        0       midi  ch:0  note on  key:69  vel:100
        0       midi  ch:0  note on  key:71  vel:100
        24      midi  ch:0  note off  key:63  vel:0
        0       midi  ch:0  note off  key:69  vel:0
        0       midi  ch:0  note off  key:71  vel:0
        72      midi  ch:0  note on  key:65  vel:100
        0       midi  ch:0  note on  key:71  vel:100
        0       midi  ch:0  note on  key:74  vel:100
        24      midi  ch:0  note off  key:65  vel:0
        0       midi  ch:0  note off  key:71  vel:0
        0       midi  ch:0  note off  key:74  vel:0
        72      midi  ch:0  note on  key:65  vel:100
        0       midi  ch:0  note on  key:71  vel:100
        0       midi  ch:0  note on  key:74  vel:100
        24      midi  ch:0  note off  key:65  vel:0
        0       midi  ch:0  note off  key:71  vel:0
        0       midi  ch:0  note off  key:74  vel:0
        72      midi  ch:0  note on  key:65  vel:100
        0       midi  ch:0  note on  key:71  vel:100
        0       midi  ch:0  note on  key:74  vel:100
        24      midi  ch:0  note off  key:65  vel:0
        0       midi  ch:0  note off  key:71  vel:0
        0       midi  ch:0  note off  key:74  vel:0
        72      midi  ch:0  note on  key:65  vel:100
        0       midi  ch:0  note on  key:71  vel:100
        0       midi  ch:0  note on  key:74  vel:100
        24      midi  ch:0  note off  key:65  vel:0
        0       midi  ch:0  note off  key:71  vel:0
        0       midi  ch:0  note off  key:74  vel:0
        72      midi  ch:0  note on  key:64  vel:100
        0       midi  ch:0  note on  key:69  vel:100
        0       midi  ch:0  note on  key:72  vel:100
        24      midi  ch:0  note off  key:64  vel:0
        0       midi  ch:0  note off  key:69  vel:0
        0       midi  ch:0  note off  key:72  vel:0
        72      midi  ch:0  note on  key:64  vel:100
        0       midi  ch:0  note on  key:69  vel:100
        0       midi  ch:0  note on  key:72  vel:100
        24      midi  ch:0  note off  key:64  vel:0
        0       midi  ch:0  note off  key:69  vel:0
        0       midi  ch:0  note off  key:72  vel:0
        48      midi  ch:0  note on  key:69  vel:100
        0       midi  ch:0  note on  key:72  vel:100
        24      midi  ch:0  note on  key:64  vel:100
        0       midi  ch:0  note off  key:69  vel:0
        0       midi  ch:0  note off  key:72  vel:0
        24      midi  ch:0  note off  key:64  vel:0
        0       midi  ch:0  note on  key:64  vel:100
        0       midi  ch:0  note on  key:69  vel:100
        0       midi  ch:0  note on  key:72  vel:100
        24      midi  ch:0  note off  key:64  vel:0
        0       midi  ch:0  note off  key:69  vel:0
        0       midi  ch:0  note off  key:72  vel:0
        48      midi  ch:0  note on  key:64  vel:100
        0       midi  ch:0  note on  key:69  vel:100
        0       midi  ch:0  note on  key:72  vel:100
        24      midi  ch:0  note off  key:64  vel:0
        0       midi  ch:0  note off  key:69  vel:0
        0       midi  ch:0  note off  key:72  vel:0
        24      midi  ch:0  note on  key:64  vel:100
        24      midi  ch:0  note off  key:64  vel:0
        24      midi  ch:0  note on  key:64  vel:100
        0       midi  ch:0  note on  key:69  vel:100
        0       midi  ch:0  note on  key:72  vel:100
        24      midi  ch:0  note off  key:64  vel:0
        0       midi  ch:0  note off  key:69  vel:0
        0       midi  ch:0  note off  key:72  vel:0
        72      midi  ch:0  note on  key:64  vel:100
        0       midi  ch:0  note on  key:69  vel:100
        0       midi  ch:0  note on  key:72  vel:100
        24      midi  ch:0  note off  key:64  vel:0
        0       midi  ch:0  note off  key:69  vel:0
        0       midi  ch:0  note off  key:72  vel:0
        48      midi  ch:0  note on  key:69  vel:100
        0       midi  ch:0  note on  key:72  vel:100
        24      midi  ch:0  note on  key:64  vel:100
        0       midi  ch:0  note off  key:69  vel:0
        0       midi  ch:0  note off  key:72  vel:0
        24      midi  ch:0  note off  key:64  vel:0
        0       midi  ch:0  note on  key:64  vel:100
        0       midi  ch:0  note on  key:69  vel:100
        0       midi  ch:0  note on  key:72  vel:100
        24      midi  ch:0  note off  key:64  vel:0
        0       midi  ch:0  note off  key:69  vel:0
        0       midi  ch:0  note off  key:72  vel:0
        48      midi  ch:0  note on  key:64  vel:100
        0       midi  ch:0  note on  key:69  vel:100
        0       midi  ch:0  note on  key:72  vel:100
        24      midi  ch:0  note off  key:64  vel:0
        0       midi  ch:0  note off  key:69  vel:0
        0       midi  ch:0  note off  key:72  vel:0
        72      midi  ch:0  note on  key:63  vel:100
        0       midi  ch:0  note on  key:69  vel:100
        0       midi  ch:0  note on  key:71  vel:100
        24      midi  ch:0  note off  key:63  vel:0
        0       midi  ch:0  note off  key:69  vel:0
        0       midi  ch:0  note off  key:71  vel:0
        72      midi  ch:0  note on  key:63  vel:100
        0       midi  ch:0  note on  key:69  vel:100
        0       midi  ch:0  note on  key:71  vel:100
        24      midi  ch:0  note off  key:63  vel:0
        0       midi  ch:0  note off  key:69  vel:0
        0       midi  ch:0  note off  key:71  vel:0
        48      midi  ch:0  note on  key:69  vel:100
        0       midi  ch:0  note on  key:71  vel:100
        24      midi  ch:0  note on  key:63  vel:100
        0       midi  ch:0  note off  key:69  vel:0
        0       midi  ch:0  note off  key:71  vel:0
        24      midi  ch:0  note off  key:63  vel:0
        0       midi  ch:0  note on  key:63  vel:100
        0       midi  ch:0  note on  key:69  vel:100
        0       midi  ch:0  note on  key:71  vel:100
        24      midi  ch:0  note off  key:63  vel:0
        0       midi  ch:0  note off  key:69  vel:0
        0       midi  ch:0  note off  key:71  vel:0
        48      midi  ch:0  note on  key:63  vel:100
        0       midi  ch:0  note on  key:69  vel:100
        0       midi  ch:0  note on  key:71  vel:100
        24      midi  ch:0  note off  key:63  vel:0
        0       midi  ch:0  note off  key:69  vel:0
        0       midi  ch:0  note off  key:71  vel:0
        72      midi  ch:0  note on  key:65  vel:100
        0       midi  ch:0  note on  key:71  vel:100
        0       midi  ch:0  note on  key:74  vel:100
        24      midi  ch:0  note off  key:65  vel:0
        0       midi  ch:0  note off  key:71  vel:0
        0       midi  ch:0  note off  key:74  vel:0
        72      midi  ch:0  note on  key:65  vel:100
        0       midi  ch:0  note on  key:71  vel:100
        0       midi  ch:0  note on  key:74  vel:100
        24      midi  ch:0  note off  key:65  vel:0
        0       midi  ch:0  note off  key:71  vel:0
        0       midi  ch:0  note off  key:74  vel:0
        72      midi  ch:0  note on  key:65  vel:100
        0       midi  ch:0  note on  key:71  vel:100
        0       midi  ch:0  note on  key:74  vel:100
        24      midi  ch:0  note off  key:65  vel:0
        0       midi  ch:0  note off  key:71  vel:0
        0       midi  ch:0  note off  key:74  vel:0
        72      midi  ch:0  note on  key:65  vel:100
        0       midi  ch:0  note on  key:71  vel:100
        0       midi  ch:0  note on  key:74  vel:100
        24      midi  ch:0  note off  key:65  vel:0
        0       midi  ch:0  note off  key:71  vel:0
        0       midi  ch:0  note off  key:74  vel:0
        72      midi  ch:0  note on  key:64  vel:100
        0       midi  ch:0  note on  key:69  vel:100
        0       midi  ch:0  note on  key:72  vel:100
        24      midi  ch:0  note off  key:64  vel:0
        0       midi  ch:0  note off  key:69  vel:0
        0       midi  ch:0  note off  key:72  vel:0
        72      midi  ch:0  note on  key:64  vel:100
        0       midi  ch:0  note on  key:69  vel:100
        0       midi  ch:0  note on  key:72  vel:100
        24      midi  ch:0  note off  key:64  vel:0
        0       midi  ch:0  note off  key:69  vel:0
        0       midi  ch:0  note off  key:72  vel:0
        48      midi  ch:0  note on  key:69  vel:100
        0       midi  ch:0  note on  key:72  vel:100
        24      midi  ch:0  note on  key:64  vel:100
        0       midi  ch:0  note off  key:69  vel:0
        0       midi  ch:0  note off  key:72  vel:0
        24      midi  ch:0  note off  key:64  vel:0
        0       midi  ch:0  note on  key:64  vel:100
        0       midi  ch:0  note on  key:69  vel:100
        0       midi  ch:0  note on  key:72  vel:100
        24      midi  ch:0  note off  key:64  vel:0
        0       midi  ch:0  note off  key:69  vel:0
        0       midi  ch:0  note off  key:72  vel:0
        48      midi  ch:0  note on  key:64  vel:100
        0       midi  ch:0  note on  key:69  vel:100
        0       midi  ch:0  note on  key:72  vel:100
        24      midi  ch:0  note off  key:64  vel:0
        0       midi  ch:0  note off  key:69  vel:0
        0       midi  ch:0  note off  key:72  vel:0
        24      midi  ch:0  note on  key:64  vel:100
        24      midi  ch:0  note off  key:64  vel:0
        24      midi  ch:0  note on  key:60  vel:100
        0       midi  ch:0  note on  key:65  vel:100
        0       midi  ch:0  note on  key:69  vel:100
        24      midi  ch:0  note off  key:60  vel:0
        0       midi  ch:0  note off  key:65  vel:0
        0       midi  ch:0  note off  key:69  vel:0
        72      midi  ch:0  note on  key:65  vel:100
        0       midi  ch:0  note on  key:69  vel:100
        0       midi  ch:0  note on  key:72  vel:100
        24      midi  ch:0  note off  key:65  vel:0
        0       midi  ch:0  note off  key:69  vel:0
        0       midi  ch:0  note off  key:72  vel:0
        24      midi  ch:0  note on  key:60  vel:100
        0       midi  ch:0  note on  key:65  vel:100
        0       midi  ch:0  note on  key:69  vel:100
        24      midi  ch:0  note off  key:60  vel:0
        0       midi  ch:0  note off  key:65  vel:0
        0       midi  ch:0  note off  key:69  vel:0
        72      midi  ch:0  note on  key:62  vel:100
        0       midi  ch:0  note on  key:67  vel:100
        0       midi  ch:0  note on  key:71  vel:100
        24      midi  ch:0  note off  key:62  vel:0
        0       midi  ch:0  note off  key:67  vel:0
        0       midi  ch:0  note off  key:71  vel:0
        72      midi  ch:0  note on  key:64  vel:100
        0       midi  ch:0  note on  key:69  vel:100
        0       midi  ch:0  note on  key:72  vel:100
        24      midi  ch:0  note off  key:64  vel:0
        0       midi  ch:0  note off  key:69  vel:0
        0       midi  ch:0  note off  key:72  vel:0
        72      midi  ch:0  note on  key:64  vel:100
        0       midi  ch:0  note on  key:69  vel:100
        0       midi  ch:0  note on  key:72  vel:100
        24      midi  ch:0  note off  key:64  vel:0
        0       midi  ch:0  note off  key:69  vel:0
        0       midi  ch:0  note off  key:72  vel:0
        24      midi  ch:0  note on  key:64  vel:100
        0       midi  ch:0  note on  key:69  vel:100
        0       midi  ch:0  note on  key:72  vel:100
        24      midi  ch:0  note off  key:64  vel:0
        0       midi  ch:0  note off  key:69  vel:0
        0       midi  ch:0  note off  key:72  vel:0
        72      midi  ch:0  note on  key:64  vel:100
        0       midi  ch:0  note on  key:69  vel:100
        0       midi  ch:0  note on  key:72  vel:100
        24      midi  ch:0  note off  key:64  vel:0
        0       midi  ch:0  note off  key:69  vel:0
        0       midi  ch:0  note off  key:72  vel:0
        72      midi  ch:0  note on  key:62  vel:100
        0       midi  ch:0  note on  key:67  vel:100
        0       midi  ch:0  note on  key:71  vel:100
        24      midi  ch:0  note off  key:62  vel:0
        0       midi  ch:0  note off  key:67  vel:0
        0       midi  ch:0  note off  key:71  vel:0
        72      midi  ch:0  note on  key:60  vel:100
        0       midi  ch:0  note on  key:65  vel:100
        0       midi  ch:0  note on  key:69  vel:100
        24      midi  ch:0  note off  key:60  vel:0
        0       midi  ch:0  note off  key:65  vel:0
        0       midi  ch:0  note off  key:69  vel:0
        72      midi  ch:0  note on  key:65  vel:100
        0       midi  ch:0  note on  key:69  vel:100
        0       midi  ch:0  note on  key:72  vel:100
        24      midi  ch:0  note off  key:65  vel:0
        0       midi  ch:0  note off  key:69  vel:0
        0       midi  ch:0  note off  key:72  vel:0
        24      midi  ch:0  note on  key:60  vel:100
        0       midi  ch:0  note on  key:65  vel:100
        0       midi  ch:0  note on  key:69  vel:100
        24      midi  ch:0  note off  key:60  vel:0
        0       midi  ch:0  note off  key:65  vel:0
        0       midi  ch:0  note off  key:69  vel:0
        72      midi  ch:0  note on  key:62  vel:100
        0       midi  ch:0  note on  key:67  vel:100
        0       midi  ch:0  note on  key:71  vel:100
        24      midi  ch:0  note off  key:62  vel:0
        0       midi  ch:0  note off  key:67  vel:0
        0       midi  ch:0  note off  key:71  vel:0
        72      midi  ch:0  note on  key:64  vel:100
        0       midi  ch:0  note on  key:69  vel:100
        0       midi  ch:0  note on  key:72  vel:100
        24      midi  ch:0  note off  key:64  vel:0
        0       midi  ch:0  note off  key:69  vel:0
        0       midi  ch:0  note off  key:72  vel:0
        72      midi  ch:0  note on  key:64  vel:100
        0       midi  ch:0  note on  key:69  vel:100
        0       midi  ch:0  note on  key:72  vel:100
        24      midi  ch:0  note off  key:64  vel:0
        0       midi  ch:0  note off  key:69  vel:0
        0       midi  ch:0  note off  key:72  vel:0
        24      midi  ch:0  note on  key:64  vel:100
        0       midi  ch:0  note on  key:69  vel:100
        0       midi  ch:0  note on  key:72  vel:100
        24      midi  ch:0  note off  key:64  vel:0
        0       midi  ch:0  note off  key:69  vel:0
        0       midi  ch:0  note off  key:72  vel:0
        72      midi  ch:0  note on  key:64  vel:100
        0       midi  ch:0  note on  key:69  vel:100
        0       midi  ch:0  note on  key:72  vel:100
        24      midi  ch:0  note off  key:64  vel:0
        0       midi  ch:0  note off  key:69  vel:0
        0       midi  ch:0  note off  key:72  vel:0
        72      midi  ch:0  note on  key:64  vel:100
        0       midi  ch:0  note on  key:69  vel:100
        0       midi  ch:0  note on  key:72  vel:100
        24      midi  ch:0  note off  key:64  vel:0
        0       midi  ch:0  note off  key:69  vel:0
        0       midi  ch:0  note off  key:72  vel:0
        72      midi  ch:0  note on  key:60  vel:100
        0       midi  ch:0  note on  key:65  vel:100
        0       midi  ch:0  note on  key:69  vel:100
        24      midi  ch:0  note off  key:60  vel:0
        0       midi  ch:0  note off  key:65  vel:0
        0       midi  ch:0  note off  key:69  vel:0
        72      midi  ch:0  note on  key:65  vel:100
        0       midi  ch:0  note on  key:69  vel:100
        0       midi  ch:0  note on  key:72  vel:100
        24      midi  ch:0  note off  key:65  vel:0
        0       midi  ch:0  note off  key:69  vel:0
        0       midi  ch:0  note off  key:72  vel:0
        24      midi  ch:0  note on  key:60  vel:100
        0       midi  ch:0  note on  key:65  vel:100
        0       midi  ch:0  note on  key:69  vel:100
        24      midi  ch:0  note off  key:60  vel:0
        0       midi  ch:0  note off  key:65  vel:0
        0       midi  ch:0  note off  key:69  vel:0
        72      midi  ch:0  note on  key:62  vel:100
        0       midi  ch:0  note on  key:67  vel:100
        0       midi  ch:0  note on  key:71  vel:100
        24      midi  ch:0  note off  key:62  vel:0
        0       midi  ch:0  note off  key:67  vel:0
        0       midi  ch:0  note off  key:71  vel:0
        72      midi  ch:0  note on  key:64  vel:100
        0       midi  ch:0  note on  key:69  vel:100
        0       midi  ch:0  note on  key:72  vel:100
        24      midi  ch:0  note off  key:64  vel:0
        0       midi  ch:0  note off  key:69  vel:0
        0       midi  ch:0  note off  key:72  vel:0
        72      midi  ch:0  note on  key:64  vel:100
        0       midi  ch:0  note on  key:69  vel:100
        0       midi  ch:0  note on  key:72  vel:100
        24      midi  ch:0  note off  key:64  vel:0
        0       midi  ch:0  note off  key:69  vel:0
        0       midi  ch:0  note off  key:72  vel:0
        24      midi  ch:0  note on  key:64  vel:100
        0       midi  ch:0  note on  key:69  vel:100
        0       midi  ch:0  note on  key:72  vel:100
        24      midi  ch:0  note off  key:64  vel:0
        0       midi  ch:0  note off  key:69  vel:0
        0       midi  ch:0  note off  key:72  vel:0
        72      midi  ch:0  note on  key:64  vel:100
        0       midi  ch:0  note on  key:69  vel:100
        0       midi  ch:0  note on  key:72  vel:100
        24      midi  ch:0  note off  key:64  vel:0
        0       midi  ch:0  note off  key:69  vel:0
        0       midi  ch:0  note off  key:72  vel:0
        72      midi  ch:0  note on  key:62  vel:100
        0       midi  ch:0  note on  key:67  vel:100
        0       midi  ch:0  note on  key:71  vel:100
        24      midi  ch:0  note off  key:62  vel:0
        0       midi  ch:0  note off  key:67  vel:0
        0       midi  ch:0  note off  key:71  vel:0
        72      midi  ch:0  note on  key:60  vel:100
        0       midi  ch:0  note on  key:65  vel:100
        0       midi  ch:0  note on  key:69  vel:100
        24      midi  ch:0  note off  key:60  vel:0
        0       midi  ch:0  note off  key:65  vel:0
        0       midi  ch:0  note off  key:69  vel:0
        72      midi  ch:0  note on  key:65  vel:100
        0       midi  ch:0  note on  key:69  vel:100
        0       midi  ch:0  note on  key:72  vel:100
        24      midi  ch:0  note off  key:65  vel:0
        0       midi  ch:0  note off  key:69  vel:0
        0       midi  ch:0  note off  key:72  vel:0
        24      midi  ch:0  note on  key:60  vel:100
        0       midi  ch:0  note on  key:65  vel:100
        0       midi  ch:0  note on  key:69  vel:100
        24      midi  ch:0  note off  key:60  vel:0
        0       midi  ch:0  note off  key:65  vel:0
        0       midi  ch:0  note off  key:69  vel:0
        72      midi  ch:0  note on  key:62  vel:100
        0       midi  ch:0  note on  key:67  vel:100
        0       midi  ch:0  note on  key:71  vel:100
        24      midi  ch:0  note off  key:62  vel:0
        0       midi  ch:0  note off  key:67  vel:0
        0       midi  ch:0  note off  key:71  vel:0
        72      midi  ch:0  note on  key:64  vel:100
        0       midi  ch:0  note on  key:69  vel:100
        0       midi  ch:0  note on  key:72  vel:100
        24      midi  ch:0  note off  key:64  vel:0
        0       midi  ch:0  note off  key:69  vel:0
        0       midi  ch:0  note off  key:72  vel:0
        72      midi  ch:0  note on  key:64  vel:100
        0       midi  ch:0  note on  key:69  vel:100
        0       midi  ch:0  note on  key:72  vel:100
        24      midi  ch:0  note off  key:64  vel:0
        0       midi  ch:0  note off  key:69  vel:0
        0       midi  ch:0  note off  key:72  vel:0
        24      midi  ch:0  note on  key:64  vel:100
        0       midi  ch:0  note on  key:69  vel:100
        0       midi  ch:0  note on  key:72  vel:100
        24      midi  ch:0  note off  key:64  vel:0
        0       midi  ch:0  note off  key:69  vel:0
        0       midi  ch:0  note off  key:72  vel:0
        72      midi  ch:0  note on  key:64  vel:100
        0       midi  ch:0  note on  key:69  vel:100
        0       midi  ch:0  note on  key:72  vel:100
        24      midi  ch:0  note off  key:64  vel:0
        0       midi  ch:0  note off  key:69  vel:0
        0       midi  ch:0  note off  key:72  vel:0
        72      midi  ch:0  note on  key:64  vel:100
        0       midi  ch:0  note on  key:69  vel:100
        0       midi  ch:0  note on  key:72  vel:100
        24      midi  ch:0  note off  key:64  vel:0
        0       midi  ch:0  note off  key:69  vel:0
        0       midi  ch:0  note off  key:72  vel:0
        72      midi  ch:0  note on  key:60  vel:100
        0       midi  ch:0  note on  key:65  vel:100
        0       midi  ch:0  note on  key:69  vel:100
        24      midi  ch:0  note off  key:60  vel:0
        0       midi  ch:0  note off  key:65  vel:0
        0       midi  ch:0  note off  key:69  vel:0
        72      midi  ch:0  note on  key:60  vel:100
        0       midi  ch:0  note on  key:65  vel:100
        0       midi  ch:0  note on  key:69  vel:100
        24      midi  ch:0  note off  key:60  vel:0
        0       midi  ch:0  note off  key:65  vel:0
        0       midi  ch:0  note off  key:69  vel:0
        24      midi  ch:0  note on  key:62  vel:100
        0       midi  ch:0  note on  key:67  vel:100
        0       midi  ch:0  note on  key:71  vel:100
        24      midi  ch:0  note off  key:62  vel:0
        0       midi  ch:0  note off  key:67  vel:0
        0       midi  ch:0  note off  key:71  vel:0
        72      midi  ch:0  note on  key:62  vel:100
        0       midi  ch:0  note on  key:67  vel:100
        0       midi  ch:0  note on  key:71  vel:100
        24      midi  ch:0  note off  key:62  vel:0
        0       midi  ch:0  note off  key:67  vel:0
        0       midi  ch:0  note off  key:71  vel:0
        72      midi  ch:0  note on  key:64  vel:100
        0       midi  ch:0  note on  key:69  vel:100
        0       midi  ch:0  note on  key:72  vel:100
        24      midi  ch:0  note off  key:64  vel:0
        0       midi  ch:0  note off  key:69  vel:0
        0       midi  ch:0  note off  key:72  vel:0
        72      midi  ch:0  note on  key:64  vel:100
        0       midi  ch:0  note on  key:69  vel:100
        0       midi  ch:0  note on  key:72  vel:100
        24      midi  ch:0  note off  key:64  vel:0
        0       midi  ch:0  note off  key:69  vel:0
        0       midi  ch:0  note off  key:72  vel:0
        24      midi  ch:0  note on  key:64  vel:100
        0       midi  ch:0  note on  key:69  vel:100
        0       midi  ch:0  note on  key:72  vel:100
        24      midi  ch:0  note off  key:64  vel:0
        0       midi  ch:0  note off  key:69  vel:0
        0       midi  ch:0  note off  key:72  vel:0
        72      midi  ch:0  note on  key:64  vel:100
        0       midi  ch:0  note on  key:69  vel:100
        0       midi  ch:0  note on  key:72  vel:100
        24      midi  ch:0  note off  key:64  vel:0
        0       midi  ch:0  note off  key:69  vel:0
        0       midi  ch:0  note off  key:72  vel:0
        72      midi  ch:0  note on  key:62  vel:100
        0       midi  ch:0  note on  key:67  vel:100
        0       midi  ch:0  note on  key:71  vel:100
        24      midi  ch:0  note off  key:62  vel:0
        0       midi  ch:0  note off  key:67  vel:0
        0       midi  ch:0  note off  key:71  vel:0
        72      midi  ch:0  note on  key:60  vel:100
        0       midi  ch:0  note on  key:65  vel:100
        0       midi  ch:0  note on  key:69  vel:100
        24      midi  ch:0  note off  key:60  vel:0
        0       midi  ch:0  note off  key:65  vel:0
        0       midi  ch:0  note off  key:69  vel:0
        72      midi  ch:0  note on  key:60  vel:100
        0       midi  ch:0  note on  key:65  vel:100
        0       midi  ch:0  note on  key:69  vel:100
        24      midi  ch:0  note off  key:60  vel:0
        0       midi  ch:0  note off  key:65  vel:0
        0       midi  ch:0  note off  key:69  vel:0
        24      midi  ch:0  note on  key:62  vel:100
        0       midi  ch:0  note on  key:67  vel:100
        0       midi  ch:0  note on  key:71  vel:100
        24      midi  ch:0  note off  key:62  vel:0
        0       midi  ch:0  note off  key:67  vel:0
        0       midi  ch:0  note off  key:71  vel:0
        72      midi  ch:0  note on  key:62  vel:100
        0       midi  ch:0  note on  key:67  vel:100
        0       midi  ch:0  note on  key:71  vel:100
        24      midi  ch:0  note off  key:62  vel:0
        0       midi  ch:0  note off  key:67  vel:0
        0       midi  ch:0  note off  key:71  vel:0
        72      midi  ch:0  note on  key:59  vel:100
        0       midi  ch:0  note on  key:64  vel:100
        0       midi  ch:0  note on  key:67  vel:100
        24      midi  ch:0  note off  key:59  vel:0
        0       midi  ch:0  note off  key:64  vel:0
        0       midi  ch:0  note off  key:67  vel:0
        72      midi  ch:0  note on  key:55  vel:100
        0       midi  ch:0  note on  key:59  vel:100
        0       midi  ch:0  note on  key:64  vel:100
        24      midi  ch:0  note off  key:55  vel:0
        0       midi  ch:0  note off  key:59  vel:0
        0       midi  ch:0  note off  key:64  vel:0
        72      midi  ch:0  note on  key:60  vel:100
        0       midi  ch:0  note on  key:65  vel:100
        0       midi  ch:0  note on  key:69  vel:100
        24      midi  ch:0  note off  key:60  vel:0
        0       midi  ch:0  note off  key:65  vel:0
        0       midi  ch:0  note off  key:69  vel:0
        72      midi  ch:0  note on  key:60  vel:100
        0       midi  ch:0  note on  key:65  vel:100
        0       midi  ch:0  note on  key:69  vel:100
        24      midi  ch:0  note off  key:60  vel:0
        0       midi  ch:0  note off  key:65  vel:0
        0       midi  ch:0  note off  key:69  vel:0
        24      midi  ch:0  note on  key:60  vel:100
        0       midi  ch:0  note on  key:65  vel:100
        0       midi  ch:0  note on  key:69  vel:100
        24      midi  ch:0  note off  key:60  vel:0
        0       midi  ch:0  note off  key:65  vel:0
        0       midi  ch:0  note off  key:69  vel:0
        24      midi  ch:0  note on  key:60  vel:100
        0       midi  ch:0  note on  key:65  vel:100
        0       midi  ch:0  note on  key:69  vel:100
        24      midi  ch:0  note off  key:60  vel:0
        0       midi  ch:0  note off  key:65  vel:0
        0       midi  ch:0  note off  key:69  vel:0
        24      midi  ch:0  note on  key:60  vel:100
        0       midi  ch:0  note on  key:65  vel:100
        0       midi  ch:0  note on  key:69  vel:100
        24      midi  ch:0  note off  key:60  vel:0
        0       midi  ch:0  note off  key:65  vel:0
        0       midi  ch:0  note off  key:69  vel:0
        72      midi  ch:0  note on  key:60  vel:100
        0       midi  ch:0  note on  key:65  vel:100
        0       midi  ch:0  note on  key:69  vel:100
        24      midi  ch:0  note off  key:60  vel:0
        0       midi  ch:0  note off  key:65  vel:0
        0       midi  ch:0  note off  key:69  vel:0
        24      midi  ch:0  note on  key:62  vel:100
        0       midi  ch:0  note on  key:67  vel:100
        0       midi  ch:0  note on  key:71  vel:100
        24      midi  ch:0  note off  key:62  vel:0
        0       midi  ch:0  note off  key:67  vel:0
        0       midi  ch:0  note off  key:71  vel:0
        72      midi  ch:0  note on  key:62  vel:100
        0       midi  ch:0  note on  key:67  vel:100
        0       midi  ch:0  note on  key:71  vel:100
        24      midi  ch:0  note off  key:62  vel:0
        0       midi  ch:0  note off  key:67  vel:0
        0       midi  ch:0  note off  key:71  vel:0
        72      midi  ch:0  note on  key:64  vel:100
        0       midi  ch:0  note on  key:69  vel:100
        0       midi  ch:0  note on  key:72  vel:100
        24      midi  ch:0  note off  key:64  vel:0
        0       midi  ch:0  note off  key:69  vel:0
        0       midi  ch:0  note off  key:72  vel:0
        72      midi  ch:0  note on  key:64  vel:100
        0       midi  ch:0  note on  key:69  vel:100
        0       midi  ch:0  note on  key:72  vel:100
        24      midi  ch:0  note off  key:64  vel:0
        0       midi  ch:0  note off  key:69  vel:0
        0       midi  ch:0  note off  key:72  vel:0
        24      midi  ch:0  note on  key:64  vel:100
        0       midi  ch:0  note on  key:69  vel:100
        0       midi  ch:0  note on  key:72  vel:100
        24      midi  ch:0  note off  key:64  vel:0
        0       midi  ch:0  note off  key:69  vel:0
        0       midi  ch:0  note off  key:72  vel:0
        72      midi  ch:0  note on  key:64  vel:100
        0       midi  ch:0  note on  key:69  vel:100
        0       midi  ch:0  note on  key:72  vel:100
        24      midi  ch:0  note off  key:64  vel:0
        0       midi  ch:0  note off  key:69  vel:0
        0       midi  ch:0  note off  key:72  vel:0
        72      midi  ch:0  note on  key:62  vel:100
        0       midi  ch:0  note on  key:67  vel:100
        0       midi  ch:0  note on  key:71  vel:100
        24      midi  ch:0  note off  key:62  vel:0
        0       midi  ch:0  note off  key:67  vel:0
        0       midi  ch:0  note off  key:71  vel:0
        72      midi  ch:0  note on  key:60  vel:100
        0       midi  ch:0  note on  key:65  vel:100
        0       midi  ch:0  note on  key:69  vel:100
        24      midi  ch:0  note off  key:60  vel:0
        0       midi  ch:0  note off  key:65  vel:0
        0       midi  ch:0  note off  key:69  vel:0
        72      midi  ch:0  note on  key:60  vel:100
        0       midi  ch:0  note on  key:65  vel:100
        0       midi  ch:0  note on  key:69  vel:100
        24      midi  ch:0  note off  key:60  vel:0
        0       midi  ch:0  note off  key:65  vel:0
        0       midi  ch:0  note off  key:69  vel:0
        24      midi  ch:0  note on  key:62  vel:100
        0       midi  ch:0  note on  key:67  vel:100
        0       midi  ch:0  note on  key:71  vel:100
        24      midi  ch:0  note off  key:62  vel:0
        0       midi  ch:0  note off  key:67  vel:0
        0       midi  ch:0  note off  key:71  vel:0
        72      midi  ch:0  note on  key:62  vel:100
        0       midi  ch:0  note on  key:67  vel:100
        0       midi  ch:0  note on  key:71  vel:100
        24      midi  ch:0  note off  key:62  vel:0
        0       midi  ch:0  note off  key:67  vel:0
        0       midi  ch:0  note off  key:71  vel:0
        72      midi  ch:0  note on  key:64  vel:100
        0       midi  ch:0  note on  key:69  vel:100
        0       midi  ch:0  note on  key:72  vel:100
        24      midi  ch:0  note off  key:64  vel:0
        0       midi  ch:0  note off  key:69  vel:0
        0       midi  ch:0  note off  key:72  vel:0
        72      midi  ch:0  note on  key:64  vel:100
        0       midi  ch:0  note on  key:69  vel:100
        0       midi  ch:0  note on  key:72  vel:100
        24      midi  ch:0  note off  key:64  vel:0
        0       midi  ch:0  note off  key:69  vel:0
        0       midi  ch:0  note off  key:72  vel:0
        24      midi  ch:0  note on  key:64  vel:100
        0       midi  ch:0  note on  key:69  vel:100
        0       midi  ch:0  note on  key:72  vel:100
        24      midi  ch:0  note off  key:64  vel:0
        0       midi  ch:0  note off  key:69  vel:0
        0       midi  ch:0  note off  key:72  vel:0
        72      midi  ch:0  note on  key:64  vel:100
        0       midi  ch:0  note on  key:69  vel:100
        0       midi  ch:0  note on  key:72  vel:100
        24      midi  ch:0  note off  key:64  vel:0
        0       midi  ch:0  note off  key:69  vel:0
        0       midi  ch:0  note off  key:72  vel:0
        72      midi  ch:0  note on  key:64  vel:100
        0       midi  ch:0  note on  key:69  vel:100
        0       midi  ch:0  note on  key:72  vel:100
        24      midi  ch:0  note off  key:64  vel:0
        0       midi  ch:0  note off  key:69  vel:0
        0       midi  ch:0  note off  key:72  vel:0
        72      midi  ch:0  note on  key:60  vel:100
        0       midi  ch:0  note on  key:65  vel:100
        0       midi  ch:0  note on  key:69  vel:100
        24      midi  ch:0  note off  key:60  vel:0
        0       midi  ch:0  note off  key:65  vel:0
        0       midi  ch:0  note off  key:69  vel:0
        72      midi  ch:0  note on  key:65  vel:100
        0       midi  ch:0  note on  key:69  vel:100
        0       midi  ch:0  note on  key:72  vel:100
        24      midi  ch:0  note off  key:65  vel:0
        0       midi  ch:0  note off  key:69  vel:0
        0       midi  ch:0  note off  key:72  vel:0
        24      midi  ch:0  note on  key:62  vel:100
        0       midi  ch:0  note on  key:67  vel:100
        0       midi  ch:0  note on  key:71  vel:100
        24      midi  ch:0  note off  key:62  vel:0
        0       midi  ch:0  note off  key:67  vel:0
        0       midi  ch:0  note off  key:71  vel:0
        72      midi  ch:0  note on  key:62  vel:100
        0       midi  ch:0  note on  key:67  vel:100
        0       midi  ch:0  note on  key:71  vel:100
        24      midi  ch:0  note off  key:62  vel:0
        0       midi  ch:0  note off  key:67  vel:0
        0       midi  ch:0  note off  key:71  vel:0
        72      midi  ch:0  note on  key:64  vel:100
        0       midi  ch:0  note on  key:69  vel:100
        0       midi  ch:0  note on  key:72  vel:100
        24      midi  ch:0  note off  key:64  vel:0
        0       midi  ch:0  note off  key:69  vel:0
        0       midi  ch:0  note off  key:72  vel:0
        72      midi  ch:0  note on  key:64  vel:100
        0       midi  ch:0  note on  key:69  vel:100
        0       midi  ch:0  note on  key:72  vel:100
        24      midi  ch:0  note off  key:64  vel:0
        0       midi  ch:0  note off  key:69  vel:0
        0       midi  ch:0  note off  key:72  vel:0
        24      midi  ch:0  note on  key:64  vel:100
        0       midi  ch:0  note on  key:69  vel:100
        0       midi  ch:0  note on  key:72  vel:100
        24      midi  ch:0  note off  key:64  vel:0
        0       midi  ch:0  note off  key:69  vel:0
        0       midi  ch:0  note off  key:72  vel:0
        72      midi  ch:0  note on  key:64  vel:100
        0       midi  ch:0  note on  key:69  vel:100
        0       midi  ch:0  note on  key:72  vel:100
        24      midi  ch:0  note off  key:64  vel:0
        0       midi  ch:0  note off  key:69  vel:0
        0       midi  ch:0  note off  key:72  vel:0
        72      midi  ch:0  note on  key:62  vel:100
        0       midi  ch:0  note on  key:67  vel:100
        0       midi  ch:0  note on  key:71  vel:100
        24      midi  ch:0  note off  key:62  vel:0
        0       midi  ch:0  note off  key:67  vel:0
        0       midi  ch:0  note off  key:71  vel:0
        72      midi  ch:0  note on  key:60  vel:100
        0       midi  ch:0  note on  key:65  vel:100
        0       midi  ch:0  note on  key:69  vel:100
        24      midi  ch:0  note off  key:60  vel:0
        0       midi  ch:0  note off  key:65  vel:0
        0       midi  ch:0  note off  key:69  vel:0
        72      midi  ch:0  note on  key:65  vel:100
        0       midi  ch:0  note on  key:69  vel:100
        0       midi  ch:0  note on  key:72  vel:100
        24      midi  ch:0  note off  key:65  vel:0
        0       midi  ch:0  note off  key:69  vel:0
        0       midi  ch:0  note off  key:72  vel:0
        24      midi  ch:0  note on  key:62  vel:100
        0       midi  ch:0  note on  key:67  vel:100
        0       midi  ch:0  note on  key:71  vel:100
        24      midi  ch:0  note off  key:62  vel:0
        0       midi  ch:0  note off  key:67  vel:0
        0       midi  ch:0  note off  key:71  vel:0
        72      midi  ch:0  note on  key:59  vel:100
        0       midi  ch:0  note on  key:62  vel:100
        0       midi  ch:0  note on  key:67  vel:100
        24      midi  ch:0  note off  key:59  vel:0
        0       midi  ch:0  note off  key:62  vel:0
        0       midi  ch:0  note off  key:67  vel:0
        72      midi  ch:0  note on  key:57  vel:100
        0       midi  ch:0  note on  key:60  vel:100
        0       midi  ch:0  note on  key:64  vel:100
        24      midi  ch:0  note off  key:57  vel:0
        0       midi  ch:0  note off  key:60  vel:0
        0       midi  ch:0  note off  key:64  vel:0
        72      midi  ch:0  note on  key:57  vel:100
        0       midi  ch:0  note on  key:60  vel:100
        0       midi  ch:0  note on  key:64  vel:100
        24      midi  ch:0  note off  key:57  vel:0
        0       midi  ch:0  note off  key:60  vel:0
        0       midi  ch:0  note off  key:64  vel:0
        24      midi  ch:0  note on  key:57  vel:100
        0       midi  ch:0  note on  key:60  vel:100
        0       midi  ch:0  note on  key:64  vel:100
        24      midi  ch:0  note off  key:57  vel:0
        0       midi  ch:0  note off  key:60  vel:0
        0       midi  ch:0  note off  key:64  vel:0
        72      midi  ch:0  note on  key:57  vel:100
        0       midi  ch:0  note on  key:60  vel:100
        0       midi  ch:0  note on  key:64  vel:100
        24      midi  ch:0  note off  key:57  vel:0
        0       midi  ch:0  note off  key:60  vel:0
        0       midi  ch:0  note off  key:64  vel:0
        72      midi  ch:0  note on  key:59  vel:100
        0       midi  ch:0  note on  key:62  vel:100
        0       midi  ch:0  note on  key:67  vel:100
        24      midi  ch:0  note off  key:59  vel:0
        0       midi  ch:0  note off  key:62  vel:0
        0       midi  ch:0  note off  key:67  vel:0
        6216    midi  ch:0  note on  key:60  vel:100
        0       midi  ch:0  note on  key:65  vel:100
        0       midi  ch:0  note on  key:69  vel:100
        144     midi  ch:0  note off  key:60  vel:0
        0       midi  ch:0  note on  key:62  vel:100
        0       midi  ch:0  note off  key:65  vel:0
        0       midi  ch:0  note on  key:67  vel:100
        0       midi  ch:0  note off  key:69  vel:0
        0       midi  ch:0  note on  key:71  vel:100
        192     midi  ch:0  note off  key:62  vel:0
        0       midi  ch:0  note on  key:64  vel:100
        0       midi  ch:0  note off  key:67  vel:0
        0       midi  ch:0  note on  key:69  vel:100
        0       midi  ch:0  note off  key:71  vel:0
        0       midi  ch:0  note on  key:72  vel:100
        240     midi  ch:0  note off  key:64  vel:0
        0       midi  ch:0  note on  key:64  vel:100
        0       midi  ch:0  note off  key:69  vel:0
        0       midi  ch:0  note on  key:69  vel:100
        0       midi  ch:0  note off  key:72  vel:0
        0       midi  ch:0  note on  key:72  vel:100
        96      midi  ch:0  note on  key:62  vel:100
        0       midi  ch:0  note off  key:64  vel:0
        0       midi  ch:0  note on  key:67  vel:100
        0       midi  ch:0  note off  key:69  vel:0
        0       midi  ch:0  note on  key:71  vel:100
        0       midi  ch:0  note off  key:72  vel:0
        96      midi  ch:0  note on  key:60  vel:100
        0       midi  ch:0  note off  key:62  vel:0
        0       midi  ch:0  note on  key:65  vel:100
        0       midi  ch:0  note off  key:67  vel:0
        0       midi  ch:0  note on  key:69  vel:100
        0       midi  ch:0  note off  key:71  vel:0
        144     midi  ch:0  note off  key:60  vel:0
        0       midi  ch:0  note on  key:62  vel:100
        0       midi  ch:0  note off  key:65  vel:0
        0       midi  ch:0  note on  key:67  vel:100
        0       midi  ch:0  note off  key:69  vel:0
        0       midi  ch:0  note on  key:71  vel:100
        192     midi  ch:0  note on  key:59  vel:100
        0       midi  ch:0  note off  key:62  vel:0
        0       midi  ch:0  note on  key:64  vel:100
        0       midi  ch:0  note off  key:67  vel:0
        0       midi  ch:0  note on  key:67  vel:100
        0       midi  ch:0  note off  key:71  vel:0
        96      midi  ch:0  note on  key:55  vel:100
        0       midi  ch:0  note off  key:64  vel:0
        0       midi  ch:0  note on  key:64  vel:100
        0       midi  ch:0  note off  key:67  vel:0
        96      midi  ch:0  note off  key:55  vel:0
        0       midi  ch:0  note off  key:59  vel:0
        0       midi  ch:0  note on  key:60  vel:100
        0       midi  ch:0  note off  key:64  vel:0
        0       midi  ch:0  note on  key:65  vel:100
        0       midi  ch:0  note on  key:69  vel:100
        240     midi  ch:0  note off  key:60  vel:0
        0       midi  ch:0  note on  key:60  vel:100
        0       midi  ch:0  note off  key:65  vel:0
        0       midi  ch:0  note on  key:65  vel:100
        0       midi  ch:0  note off  key:69  vel:0
        0       midi  ch:0  note on  key:69  vel:100
        144     midi  ch:0  note off  key:60  vel:0
        0       midi  ch:0  note on  key:62  vel:100
        0       midi  ch:0  note off  key:65  vel:0
        0       midi  ch:0  note on  key:67  vel:100
        0       midi  ch:0  note off  key:69  vel:0
        0       midi  ch:0  note on  key:71  vel:100
        192     midi  ch:0  note off  key:62  vel:0
        0       midi  ch:0  note on  key:64  vel:100
        0       midi  ch:0  note off  key:67  vel:0
        0       midi  ch:0  note on  key:69  vel:100
        0       midi  ch:0  note off  key:71  vel:0
        0       midi  ch:0  note on  key:72  vel:100
        240     midi  ch:0  note off  key:64  vel:0
        0       midi  ch:0  note on  key:64  vel:100
        0       midi  ch:0  note off  key:69  vel:0
        0       midi  ch:0  note on  key:69  vel:100
        0       midi  ch:0  note off  key:72  vel:0
        0       midi  ch:0  note on  key:72  vel:100
        96      midi  ch:0  note on  key:62  vel:100
        0       midi  ch:0  note off  key:64  vel:0
        0       midi  ch:0  note on  key:67  vel:100
        0       midi  ch:0  note off  key:69  vel:0
        0       midi  ch:0  note on  key:71  vel:100
        0       midi  ch:0  note off  key:72  vel:0
        96      midi  ch:0  note on  key:60  vel:100
        0       midi  ch:0  note off  key:62  vel:0
        0       midi  ch:0  note on  key:65  vel:100
        0       midi  ch:0  note off  key:67  vel:0
        0       midi  ch:0  note on  key:69  vel:100
        0       midi  ch:0  note off  key:71  vel:0
        144     midi  ch:0  note off  key:60  vel:0
        0       midi  ch:0  note on  key:62  vel:100
        0       midi  ch:0  note off  key:65  vel:0
        0       midi  ch:0  note on  key:67  vel:100
        0       midi  ch:0  note off  key:69  vel:0
        0       midi  ch:0  note on  key:71  vel:100
        192     midi  ch:0  note off  key:62  vel:0
        0       midi  ch:0  note on  key:64  vel:100
        0       midi  ch:0  note off  key:67  vel:0
        0       midi  ch:0  note on  key:69  vel:100
        0       midi  ch:0  note off  key:71  vel:0
        0       midi  ch:0  note on  key:72  vel:100
        432     midi  ch:0  note off  key:64  vel:0
        0       midi  ch:0  note on  key:65  vel:100
        0       midi  ch:0  note off  key:69  vel:0
        0       midi  ch:0  note off  key:72  vel:0
        144     midi  ch:0  note off  key:65  vel:0
        0       midi  ch:0  note on  key:67  vel:100
        192     midi  ch:0  note off  key:67  vel:0
        0       midi  ch:0  note on  key:69  vel:100
        240     midi  ch:0  note off  key:69  vel:0
        0       midi  ch:0  note on  key:69  vel:100
        96      midi  ch:0  note on  key:67  vel:100
        0       midi  ch:0  note off  key:69  vel:0
        96      midi  ch:0  note on  key:65  vel:100
        0       midi  ch:0  note off  key:67  vel:0
        144     midi  ch:0  note off  key:65  vel:0
        0       midi  ch:0  note on  key:67  vel:100
        192     midi  ch:0  note on  key:64  vel:100
        0       midi  ch:0  note off  key:67  vel:0
        96      midi  ch:0  note off  key:64  vel:0
        0       midi  ch:0  note on  key:64  vel:100
        96      midi  ch:0  note off  key:64  vel:0
        0       midi  ch:0  note on  key:69  vel:100
        240     midi  ch:0  note on  key:65  vel:100
        0       midi  ch:0  note off  key:69  vel:0
        144     midi  ch:0  note off  key:65  vel:0
        0       midi  ch:0  note on  key:67  vel:100
        192     midi  ch:0  note off  key:67  vel:0
        0       midi  ch:0  note on  key:69  vel:100
        240     midi  ch:0  note off  key:69  vel:0
        0       midi  ch:0  note on  key:69  vel:100
        96      midi  ch:0  note on  key:67  vel:100
        0       midi  ch:0  note off  key:69  vel:0
        96      midi  ch:0  note on  key:65  vel:100
        0       midi  ch:0  note off  key:67  vel:0
        144     midi  ch:0  note off  key:65  vel:0
        0       midi  ch:0  note on  key:67  vel:100
        192     midi  ch:0  note off  key:67  vel:0
        0       midi  ch:0  note on  key:69  vel:100
        432     midi  ch:0  note off  key:69  vel:0
        19      meta  type:2f  len:0  end
MTrk  len:2455
        0       meta  type:58  len:4  tsig:  4/4 metr:36 32nds:8
        0       meta  type:58  len:4  tsig:  4/4 metr:36 32nds:8
        0       meta  type:3  len:0  track:""
        21504   midi  ch:0  note on  key:60  vel:100
        0       midi  ch:0  note on  key:65  vel:100
        0       midi  ch:0  note on  key:69  vel:100
        144     midi  ch:0  note off  key:60  vel:0
        0       midi  ch:0  note on  key:62  vel:100
        0       midi  ch:0  note off  key:65  vel:0
        0       midi  ch:0  note on  key:67  vel:100
        0       midi  ch:0  note off  key:69  vel:0
        0       midi  ch:0  note on  key:71  vel:100
        192     midi  ch:0  note off  key:62  vel:0
        0       midi  ch:0  note on  key:64  vel:100
        0       midi  ch:0  note off  key:67  vel:0
        0       midi  ch:0  note on  key:69  vel:100
        0       midi  ch:0  note off  key:71  vel:0
        0       midi  ch:0  note on  key:72  vel:100
        240     midi  ch:0  note off  key:64  vel:0
        0       midi  ch:0  note on  key:64  vel:100
        0       midi  ch:0  note off  key:69  vel:0
        0       midi  ch:0  note on  key:69  vel:100
        0       midi  ch:0  note off  key:72  vel:0
        0       midi  ch:0  note on  key:72  vel:100
        96      midi  ch:0  note on  key:62  vel:100
        0       midi  ch:0  note off  key:64  vel:0
        0       midi  ch:0  note on  key:67  vel:100
        0       midi  ch:0  note off  key:69  vel:0
        0       midi  ch:0  note on  key:71  vel:100
        0       midi  ch:0  note off  key:72  vel:0
        96      midi  ch:0  note on  key:60  vel:100
        0       midi  ch:0  note off  key:62  vel:0
        0       midi  ch:0  note on  key:65  vel:100
        0       midi  ch:0  note off  key:67  vel:0
        0       midi  ch:0  note on  key:69  vel:100
        0       midi  ch:0  note off  key:71  vel:0
        144     midi  ch:0  note off  key:60  vel:0
        0       midi  ch:0  note on  key:62  vel:100
        0       midi  ch:0  note off  key:65  vel:0
        0       midi  ch:0  note on  key:67  vel:100
        0       midi  ch:0  note off  key:69  vel:0
        0       midi  ch:0  note on  key:71  vel:100
        192     midi  ch:0  note on  key:59  vel:100
        0       midi  ch:0  note off  key:62  vel:0
        0       midi  ch:0  note on  key:64  vel:100
        0       midi  ch:0  note off  key:67  vel:0
        0       midi  ch:0  note on  key:67  vel:100
        0       midi  ch:0  note off  key:71  vel:0
        96      midi  ch:0  note on  key:55  vel:100
        0       midi  ch:0  note off  key:64  vel:0
        0       midi  ch:0  note on  key:64  vel:100
        0       midi  ch:0  note off  key:67  vel:0
        96      midi  ch:0  note off  key:55  vel:0
        0       midi  ch:0  note off  key:59  vel:0
        0       midi  ch:0  note on  key:60  vel:100
        0       midi  ch:0  note off  key:64  vel:0
        0       midi  ch:0  note on  key:65  vel:100
        0       midi  ch:0  note on  key:69  vel:100
        240     midi  ch:0  note off  key:60  vel:0
        0       midi  ch:0  note on  key:60  vel:100
        0       midi  ch:0  note off  key:65  vel:0
        0       midi  ch:0  note on  key:65  vel:100
        0       midi  ch:0  note off  key:69  vel:0
        0       midi  ch:0  note on  key:69  vel:100
        144     midi  ch:0  note off  key:60  vel:0
        0       midi  ch:0  note on  key:62  vel:100
        0       midi  ch:0  note off  key:65  vel:0
        0       midi  ch:0  note on  key:67  vel:100
        0       midi  ch:0  note off  key:69  vel:0
        0       midi  ch:0  note on  key:71  vel:100
        192     midi  ch:0  note off  key:62  vel:0
        0       midi  ch:0  note on  key:64  vel:100
        0       midi  ch:0  note off  key:67  vel:0
        0       midi  ch:0  note on  key:69  vel:100
        0       midi  ch:0  note off  key:71  vel:0
        0       midi  ch:0  note on  key:72  vel:100
        240     midi  ch:0  note off  key:64  vel:0
        0       midi  ch:0  note on  key:64  vel:100
        0       midi  ch:0  note off  key:69  vel:0
        0       midi  ch:0  note on  key:69  vel:100
        0       midi  ch:0  note off  key:72  vel:0
        0       midi  ch:0  note on  key:72  vel:100
        96      midi  ch:0  note on  key:62  vel:100
        0       midi  ch:0  note off  key:64  vel:0
        0       midi  ch:0  note on  key:67  vel:100
        0       midi  ch:0  note off  key:69  vel:0
        0       midi  ch:0  note on  key:71  vel:100
        0       midi  ch:0  note off  key:72  vel:0
        96      midi  ch:0  note on  key:60  vel:100
        0       midi  ch:0  note off  key:62  vel:0
        0       midi  ch:0  note on  key:65  vel:100
        0       midi  ch:0  note off  key:67  vel:0
        0       midi  ch:0  note on  key:69  vel:100
        0       midi  ch:0  note off  key:71  vel:0
        144     midi  ch:0  note off  key:60  vel:0
        0       midi  ch:0  note on  key:62  vel:100
        0       midi  ch:0  note off  key:65  vel:0
        0       midi  ch:0  note on  key:67  vel:100
        0       midi  ch:0  note off  key:69  vel:0
        0       midi  ch:0  note on  key:71  vel:100
        192     midi  ch:0  note off  key:62  vel:0
        0       midi  ch:0  note on  key:64  vel:100
        0       midi  ch:0  note off  key:67  vel:0
        0       midi  ch:0  note on  key:69  vel:100
        0       midi  ch:0  note off  key:71  vel:0
        0       midi  ch:0  note on  key:72  vel:100
        432     midi  ch:0  note on  key:60  vel:100
        0       midi  ch:0  note off  key:64  vel:0
        0       midi  ch:0  note on  key:65  vel:100
        0       midi  ch:0  note off  key:69  vel:0
        0       midi  ch:0  note on  key:69  vel:100
        0       midi  ch:0  note off  key:72  vel:0
        144     midi  ch:0  note off  key:60  vel:0
        0       midi  ch:0  note on  key:62  vel:100
        0       midi  ch:0  note off  key:65  vel:0
        0       midi  ch:0  note on  key:67  vel:100
        0       midi  ch:0  note off  key:69  vel:0
        0       midi  ch:0  note on  key:71  vel:100
        192     midi  ch:0  note off  key:62  vel:0
        0       midi  ch:0  note on  key:64  vel:100
        0       midi  ch:0  note off  key:67  vel:0
        0       midi  ch:0  note on  key:69  vel:100
        0       midi  ch:0  note off  key:71  vel:0
        0       midi  ch:0  note on  key:72  vel:100
        240     midi  ch:0  note off  key:64  vel:0
        0       midi  ch:0  note on  key:64  vel:100
        0       midi  ch:0  note off  key:69  vel:0
        0       midi  ch:0  note on  key:69  vel:100
        0       midi  ch:0  note off  key:72  vel:0
        0       midi  ch:0  note on  key:72  vel:100
        96      midi  ch:0  note on  key:62  vel:100
        0       midi  ch:0  note off  key:64  vel:0
        0       midi  ch:0  note on  key:67  vel:100
        0       midi  ch:0  note off  key:69  vel:0
        0       midi  ch:0  note on  key:71  vel:100
        0       midi  ch:0  note off  key:72  vel:0
        96      midi  ch:0  note on  key:60  vel:100
        0       midi  ch:0  note off  key:62  vel:0
        0       midi  ch:0  note on  key:65  vel:100
        0       midi  ch:0  note off  key:67  vel:0
        0       midi  ch:0  note on  key:69  vel:100
        0       midi  ch:0  note off  key:71  vel:0
        144     midi  ch:0  note off  key:60  vel:0
        0       midi  ch:0  note on  key:62  vel:100
        0       midi  ch:0  note off  key:65  vel:0
        0       midi  ch:0  note on  key:67  vel:100
        0       midi  ch:0  note off  key:69  vel:0
        0       midi  ch:0  note on  key:71  vel:100
        192     midi  ch:0  note on  key:59  vel:100
        0       midi  ch:0  note off  key:62  vel:0
        0       midi  ch:0  note on  key:64  vel:100
        0       midi  ch:0  note off  key:67  vel:0
        0       midi  ch:0  note on  key:67  vel:100
        0       midi  ch:0  note off  key:71  vel:0
        96      midi  ch:0  note on  key:55  vel:100
        0       midi  ch:0  note off  key:64  vel:0
        0       midi  ch:0  note on  key:64  vel:100
        0       midi  ch:0  note off  key:67  vel:0
        96      midi  ch:0  note off  key:55  vel:0
        0       midi  ch:0  note off  key:59  vel:0
        0       midi  ch:0  note on  key:60  vel:100
        0       midi  ch:0  note off  key:64  vel:0
        0       midi  ch:0  note on  key:65  vel:100
        0       midi  ch:0  note on  key:69  vel:100
        240     midi  ch:0  note off  key:60  vel:0
        0       midi  ch:0  note on  key:60  vel:100
        0       midi  ch:0  note off  key:65  vel:0
        0       midi  ch:0  note on  key:65  vel:100
        0       midi  ch:0  note off  key:69  vel:0
        0       midi  ch:0  note on  key:69  vel:100
        144     midi  ch:0  note off  key:60  vel:0
        0       midi  ch:0  note on  key:62  vel:100
        0       midi  ch:0  note off  key:65  vel:0
        0       midi  ch:0  note on  key:67  vel:100
        0       midi  ch:0  note off  key:69  vel:0
        0       midi  ch:0  note on  key:71  vel:100
        192     midi  ch:0  note off  key:62  vel:0
        0       midi  ch:0  note on  key:64  vel:100
        0       midi  ch:0  note off  key:67  vel:0
        0       midi  ch:0  note on  key:69  vel:100
        0       midi  ch:0  note off  key:71  vel:0
        0       midi  ch:0  note on  key:72  vel:100
        240     midi  ch:0  note off  key:64  vel:0
        0       midi  ch:0  note on  key:64  vel:100
        0       midi  ch:0  note off  key:69  vel:0
        0       midi  ch:0  note on  key:69  vel:100
        0       midi  ch:0  note off  key:72  vel:0
        0       midi  ch:0  note on  key:72  vel:100
        96      midi  ch:0  note on  key:62  vel:100
        0       midi  ch:0  note off  key:64  vel:0
        0       midi  ch:0  note on  key:67  vel:100
        0       midi  ch:0  note off  key:69  vel:0
        0       midi  ch:0  note on  key:71  vel:100
        0       midi  ch:0  note off  key:72  vel:0
        96      midi  ch:0  note on  key:60  vel:100
        0       midi  ch:0  note off  key:62  vel:0
        0       midi  ch:0  note on  key:65  vel:100
        0       midi  ch:0  note off  key:67  vel:0
        0       midi  ch:0  note on  key:69  vel:100
        0       midi  ch:0  note off  key:71  vel:0
        144     midi  ch:0  note off  key:60  vel:0
        0       midi  ch:0  note on  key:62  vel:100
        0       midi  ch:0  note off  key:65  vel:0
        0       midi  ch:0  note on  key:67  vel:100
        0       midi  ch:0  note off  key:69  vel:0
        0       midi  ch:0  note on  key:71  vel:100
        192     midi  ch:0  note off  key:62  vel:0
        0       midi  ch:0  note on  key:64  vel:100
        0       midi  ch:0  note off  key:67  vel:0
        0       midi  ch:0  note on  key:69  vel:100
        0       midi  ch:0  note off  key:71  vel:0
        0       midi  ch:0  note on  key:72  vel:100
        432     midi  ch:0  note on  key:60  vel:100
        0       midi  ch:0  note off  key:64  vel:0
        0       midi  ch:0  note on  key:65  vel:100
        0       midi  ch:0  note off  key:69  vel:0
        0       midi  ch:0  note on  key:69  vel:100
        0       midi  ch:0  note off  key:72  vel:0
        144     midi  ch:0  note off  key:60  vel:0
        0       midi  ch:0  note on  key:62  vel:100
        0       midi  ch:0  note off  key:65  vel:0
        0       midi  ch:0  note on  key:67  vel:100
        0       midi  ch:0  note off  key:69  vel:0
        0       midi  ch:0  note on  key:71  vel:100
        192     midi  ch:0  note off  key:62  vel:0
        0       midi  ch:0  note on  key:64  vel:100
        0       midi  ch:0  note off  key:67  vel:0
        0       midi  ch:0  note on  key:69  vel:100
        0       midi  ch:0  note off  key:71  vel:0
        0       midi  ch:0  note on  key:72  vel:100
        240     midi  ch:0  note off  key:64  vel:0
        0       midi  ch:0  note on  key:64  vel:100
        0       midi  ch:0  note off  key:69  vel:0
        0       midi  ch:0  note on  key:69  vel:100
        0       midi  ch:0  note off  key:72  vel:0
        0       midi  ch:0  note on  key:72  vel:100
        96      midi  ch:0  note on  key:62  vel:100
        0       midi  ch:0  note off  key:64  vel:0
        0       midi  ch:0  note on  key:67  vel:100
        0       midi  ch:0  note off  key:69  vel:0
        0       midi  ch:0  note on  key:71  vel:100
        0       midi  ch:0  note off  key:72  vel:0
        96      midi  ch:0  note on  key:60  vel:100
        0       midi  ch:0  note off  key:62  vel:0
        0       midi  ch:0  note on  key:65  vel:100
        0       midi  ch:0  note off  key:67  vel:0
        0       midi  ch:0  note on  key:69  vel:100
        0       midi  ch:0  note off  key:71  vel:0
        144     midi  ch:0  note off  key:60  vel:0
        0       midi  ch:0  note on  key:62  vel:100
        0       midi  ch:0  note off  key:65  vel:0
        0       midi  ch:0  note on  key:67  vel:100
        0       midi  ch:0  note off  key:69  vel:0
        0       midi  ch:0  note on  key:71  vel:100
        192     midi  ch:0  note on  key:59  vel:100
        0       midi  ch:0  note off  key:62  vel:0
        0       midi  ch:0  note on  key:64  vel:100
        0       midi  ch:0  note off  key:67  vel:0
        0       midi  ch:0  note on  key:67  vel:100
        0       midi  ch:0  note off  key:71  vel:0
        96      midi  ch:0  note on  key:55  vel:100
        0       midi  ch:0  note off  key:64  vel:0
        0       midi  ch:0  note on  key:64  vel:100
        0       midi  ch:0  note off  key:67  vel:0
        96      midi  ch:0  note off  key:55  vel:0
        0       midi  ch:0  note off  key:59  vel:0
        0       midi  ch:0  note on  key:60  vel:100
        0       midi  ch:0  note off  key:64  vel:0
        0       midi  ch:0  note on  key:65  vel:100
        0       midi  ch:0  note on  key:69  vel:100
        240     midi  ch:0  note off  key:60  vel:0
        0       midi  ch:0  note on  key:60  vel:100
        0       midi  ch:0  note off  key:65  vel:0
        0       midi  ch:0  note on  key:65  vel:100
        0       midi  ch:0  note off  key:69  vel:0
        0       midi  ch:0  note on  key:69  vel:100
        144     midi  ch:0  note off  key:60  vel:0
        0       midi  ch:0  note on  key:62  vel:100
        0       midi  ch:0  note off  key:65  vel:0
        0       midi  ch:0  note on  key:67  vel:100
        0       midi  ch:0  note off  key:69  vel:0
        0       midi  ch:0  note on  key:71  vel:100
        192     midi  ch:0  note off  key:62  vel:0
        0       midi  ch:0  note on  key:64  vel:100
        0       midi  ch:0  note off  key:67  vel:0
        0       midi  ch:0  note on  key:69  vel:100
        0       midi  ch:0  note off  key:71  vel:0
        0       midi  ch:0  note on  key:72  vel:100
        240     midi  ch:0  note off  key:64  vel:0
        0       midi  ch:0  note on  key:64  vel:100
        0       midi  ch:0  note off  key:69  vel:0
        0       midi  ch:0  note on  key:69  vel:100
        0       midi  ch:0  note off  key:72  vel:0
        0       midi  ch:0  note on  key:72  vel:100
        96      midi  ch:0  note on  key:62  vel:100
        0       midi  ch:0  note off  key:64  vel:0
        0       midi  ch:0  note on  key:67  vel:100
        0       midi  ch:0  note off  key:69  vel:0
        0       midi  ch:0  note on  key:71  vel:100
        0       midi  ch:0  note off  key:72  vel:0
        96      midi  ch:0  note on  key:60  vel:100
        0       midi  ch:0  note off  key:62  vel:0
        0       midi  ch:0  note on  key:65  vel:100
        0       midi  ch:0  note off  key:67  vel:0
        0       midi  ch:0  note on  key:69  vel:100
        0       midi  ch:0  note off  key:71  vel:0
        144     midi  ch:0  note off  key:60  vel:0
        0       midi  ch:0  note on  key:62  vel:100
        0       midi  ch:0  note off  key:65  vel:0
        0       midi  ch:0  note on  key:67  vel:100
        0       midi  ch:0  note off  key:69  vel:0
        0       midi  ch:0  note on  key:71  vel:100
        192     midi  ch:0  note off  key:62  vel:0
        0       midi  ch:0  note on  key:64  vel:100
        0       midi  ch:0  note off  key:67  vel:0
        0       midi  ch:0  note on  key:69  vel:100
        0       midi  ch:0  note off  key:71  vel:0
        0       midi  ch:0  note on  key:72  vel:100
        432     midi  ch:0  note off  key:64  vel:0
        0       midi  ch:0  note off  key:69  vel:0
        0       midi  ch:0  note off  key:72  vel:0
        18432   midi  ch:0  note on  key:60  vel:100
        0       midi  ch:0  note on  key:65  vel:100
        0       midi  ch:0  note on  key:69  vel:100
        144     midi  ch:0  note off  key:60  vel:0
        0       midi  ch:0  note on  key:62  vel:100
        0       midi  ch:0  note off  key:65  vel:0
        0       midi  ch:0  note on  key:67  vel:100
        0       midi  ch:0  note off  key:69  vel:0
        0       midi  ch:0  note on  key:71  vel:100
        192     midi  ch:0  note off  key:62  vel:0
        0       midi  ch:0  note on  key:64  vel:100
        0       midi  ch:0  note off  key:67  vel:0
        0       midi  ch:0  note on  key:69  vel:100
        0       midi  ch:0  note off  key:71  vel:0
        0       midi  ch:0  note on  key:72  vel:100
        240     midi  ch:0  note off  key:64  vel:0
        0       midi  ch:0  note on  key:64  vel:100
        0       midi  ch:0  note off  key:69  vel:0
        0       midi  ch:0  note on  key:69  vel:100
        0       midi  ch:0  note off  key:72  vel:0
        0       midi  ch:0  note on  key:72  vel:100
        96      midi  ch:0  note on  key:62  vel:100
        0       midi  ch:0  note off  key:64  vel:0
        0       midi  ch:0  note on  key:67  vel:100
        0       midi  ch:0  note off  key:69  vel:0
        0       midi  ch:0  note on  key:71  vel:100
        0       midi  ch:0  note off  key:72  vel:0
        96      midi  ch:0  note on  key:60  vel:100
        0       midi  ch:0  note off  key:62  vel:0
        0       midi  ch:0  note on  key:65  vel:100
        0       midi  ch:0  note off  key:67  vel:0
        0       midi  ch:0  note on  key:69  vel:100
        0       midi  ch:0  note off  key:71  vel:0
        144     midi  ch:0  note off  key:60  vel:0
        0       midi  ch:0  note on  key:62  vel:100
        0       midi  ch:0  note off  key:65  vel:0
        0       midi  ch:0  note on  key:67  vel:100
        0       midi  ch:0  note off  key:69  vel:0
        0       midi  ch:0  note on  key:71  vel:100
        192     midi  ch:0  note on  key:57  vel:100
        0       midi  ch:0  note on  key:60  vel:100
        0       midi  ch:0  note off  key:62  vel:0
        0       midi  ch:0  note on  key:64  vel:100
        0       midi  ch:0  note off  key:67  vel:0
        0       midi  ch:0  note off  key:71  vel:0
        240     midi  ch:0  note off  key:57  vel:0
        0       midi  ch:0  note on  key:57  vel:100
        0       midi  ch:0  note off  key:60  vel:0
        0       midi  ch:0  note on  key:60  vel:100
        0       midi  ch:0  note off  key:64  vel:0
        0       midi  ch:0  note on  key:64  vel:100
        96      midi  ch:0  note off  key:57  vel:0
        0       midi  ch:0  note on  key:59  vel:100
        0       midi  ch:0  note off  key:60  vel:0
        0       midi  ch:0  note on  key:62  vel:100
        0       midi  ch:0  note off  key:64  vel:0
        0       midi  ch:0  note on  key:67  vel:100
        96      midi  ch:0  note off  key:59  vel:0
        0       midi  ch:0  note on  key:60  vel:100
        0       midi  ch:0  note off  key:62  vel:0
        0       midi  ch:0  note on  key:65  vel:100
        0       midi  ch:0  note off  key:67  vel:0
        0       midi  ch:0  note on  key:69  vel:100
        144     midi  ch:0  note off  key:60  vel:0
        0       midi  ch:0  note on  key:62  vel:100
        0       midi  ch:0  note off  key:65  vel:0
        0       midi  ch:0  note on  key:67  vel:100
        0       midi  ch:0  note off  key:69  vel:0
        0       midi  ch:0  note on  key:71  vel:100
        192     midi  ch:0  note off  key:62  vel:0
        0       midi  ch:0  note on  key:64  vel:100
        0       midi  ch:0  note off  key:67  vel:0
        0       midi  ch:0  note on  key:69  vel:100
        0       midi  ch:0  note off  key:71  vel:0
        0       midi  ch:0  note on  key:72  vel:100
        240     midi  ch:0  note off  key:64  vel:0
        0       midi  ch:0  note on  key:64  vel:100
        0       midi  ch:0  note off  key:69  vel:0
        0       midi  ch:0  note on  key:69  vel:100
        0       midi  ch:0  note off  key:72  vel:0
        0       midi  ch:0  note on  key:72  vel:100
        96      midi  ch:0  note on  key:62  vel:100
        0       midi  ch:0  note off  key:64  vel:0
        0       midi  ch:0  note on  key:67  vel:100
        0       midi  ch:0  note off  key:69  vel:0
        0       midi  ch:0  note on  key:71  vel:100
        0       midi  ch:0  note off  key:72  vel:0
        96      midi  ch:0  note on  key:60  vel:100
        0       midi  ch:0  note off  key:62  vel:0
        0       midi  ch:0  note on  key:65  vel:100
        0       midi  ch:0  note off  key:67  vel:0
        0       midi  ch:0  note on  key:69  vel:100
        0       midi  ch:0  note off  key:71  vel:0
        144     midi  ch:0  note off  key:60  vel:0
        0       midi  ch:0  note on  key:62  vel:100
        0       midi  ch:0  note off  key:65  vel:0
        0       midi  ch:0  note on  key:67  vel:100
        0       midi  ch:0  note off  key:69  vel:0
        0       midi  ch:0  note on  key:71  vel:100
        192     midi  ch:0  note on  key:59  vel:100
        0       midi  ch:0  note off  key:62  vel:0
        0       midi  ch:0  note on  key:64  vel:100
        0       midi  ch:0  note off  key:67  vel:0
        0       midi  ch:0  note on  key:67  vel:100
        0       midi  ch:0  note off  key:71  vel:0
        96      midi  ch:0  note on  key:55  vel:100
        0       midi  ch:0  note off  key:64  vel:0
        0       midi  ch:0  note on  key:64  vel:100
        0       midi  ch:0  note off  key:67  vel:0
        96      midi  ch:0  note off  key:55  vel:0
        0       midi  ch:0  note off  key:59  vel:0
        0       midi  ch:0  note on  key:60  vel:100
        0       midi  ch:0  note off  key:64  vel:0
        0       midi  ch:0  note on  key:65  vel:100
        0       midi  ch:0  note on  key:69  vel:100
        240     midi  ch:0  note off  key:60  vel:0
        0       midi  ch:0  note on  key:60  vel:100
        0       midi  ch:0  note off  key:65  vel:0
        0       midi  ch:0  note on  key:65  vel:100
        0       midi  ch:0  note off  key:69  vel:0
        0       midi  ch:0  note on  key:69  vel:100
        144     midi  ch:0  note off  key:60  vel:0
        0       midi  ch:0  note on  key:62  vel:100
        0       midi  ch:0  note off  key:65  vel:0
        0       midi  ch:0  note on  key:67  vel:100
        0       midi  ch:0  note off  key:69  vel:0
        0       midi  ch:0  note on  key:71  vel:100
        192     midi  ch:0  note off  key:62  vel:0
        0       midi  ch:0  note on  key:64  vel:100
        0       midi  ch:0  note off  key:67  vel:0
        0       midi  ch:0  note on  key:69  vel:100
        0       midi  ch:0  note off  key:71  vel:0
        0       midi  ch:0  note on  key:72  vel:100
        240     midi  ch:0  note off  key:64  vel:0
        0       midi  ch:0  note on  key:64  vel:100
        0       midi  ch:0  note off  key:69  vel:0
        0       midi  ch:0  note on  key:69  vel:100
        0       midi  ch:0  note off  key:72  vel:0
        0       midi  ch:0  note on  key:72  vel:100
        96      midi  ch:0  note on  key:62  vel:100
        0       midi  ch:0  note off  key:64  vel:0
        0       midi  ch:0  note on  key:67  vel:100
        0       midi  ch:0  note off  key:69  vel:0
        0       midi  ch:0  note on  key:71  vel:100
        0       midi  ch:0  note off  key:72  vel:0
        96      midi  ch:0  note on  key:60  vel:100
        0       midi  ch:0  note off  key:62  vel:0
        0       midi  ch:0  note on  key:65  vel:100
        0       midi  ch:0  note off  key:67  vel:0
        0       midi  ch:0  note on  key:69  vel:100
        0       midi  ch:0  note off  key:71  vel:0
        144     midi  ch:0  note off  key:60  vel:0
        0       midi  ch:0  note on  key:62  vel:100
        0       midi  ch:0  note off  key:65  vel:0
        0       midi  ch:0  note on  key:67  vel:100
        0       midi  ch:0  note off  key:69  vel:0
        0       midi  ch:0  note on  key:71  vel:100
        192     midi  ch:0  note off  key:62  vel:0
        0       midi  ch:0  note on  key:64  vel:100
        0       midi  ch:0  note off  key:67  vel:0
        0       midi  ch:0  note on  key:69  vel:100
        0       midi  ch:0  note off  key:71  vel:0
        0       midi  ch:0  note on  key:72  vel:100
        432     midi  ch:0  note on  key:60  vel:100
        0       midi  ch:0  note off  key:64  vel:0
        0       midi  ch:0  note on  key:65  vel:100
        0       midi  ch:0  note off  key:69  vel:0
        0       midi  ch:0  note on  key:69  vel:100
        0       midi  ch:0  note off  key:72  vel:0
        144     midi  ch:0  note off  key:60  vel:0
        0       midi  ch:0  note on  key:62  vel:100
        0       midi  ch:0  note off  key:65  vel:0
        0       midi  ch:0  note on  key:67  vel:100
        0       midi  ch:0  note off  key:69  vel:0
        0       midi  ch:0  note on  key:71  vel:100
        192     midi  ch:0  note off  key:62  vel:0
        0       midi  ch:0  note on  key:64  vel:100
        0       midi  ch:0  note off  key:67  vel:0
        0       midi  ch:0  note on  key:69  vel:100
        0       midi  ch:0  note off  key:71  vel:0
        0       midi  ch:0  note on  key:72  vel:100
        240     midi  ch:0  note off  key:64  vel:0
        0       midi  ch:0  note on  key:64  vel:100
        0       midi  ch:0  note off  key:69  vel:0
        0       midi  ch:0  note on  key:69  vel:100
        0       midi  ch:0  note off  key:72  vel:0
        0       midi  ch:0  note on  key:72  vel:100
        96      midi  ch:0  note on  key:62  vel:100
        0       midi  ch:0  note off  key:64  vel:0
        0       midi  ch:0  note on  key:67  vel:100
        0       midi  ch:0  note off  key:69  vel:0
        0       midi  ch:0  note on  key:71  vel:100
        0       midi  ch:0  note off  key:72  vel:0
        96      midi  ch:0  note on  key:60  vel:100
        0       midi  ch:0  note off  key:62  vel:0
        0       midi  ch:0  note on  key:65  vel:100
        0       midi  ch:0  note off  key:67  vel:0
        0       midi  ch:0  note on  key:69  vel:100
        0       midi  ch:0  note off  key:71  vel:0
        144     midi  ch:0  note off  key:60  vel:0
        0       midi  ch:0  note on  key:62  vel:100
        0       midi  ch:0  note off  key:65  vel:0
        0       midi  ch:0  note on  key:67  vel:100
        0       midi  ch:0  note off  key:69  vel:0
        0       midi  ch:0  note on  key:71  vel:100
        192     midi  ch:0  note on  key:59  vel:100
        0       midi  ch:0  note off  key:62  vel:0
        0       midi  ch:0  note on  key:64  vel:100
        0       midi  ch:0  note off  key:67  vel:0
        0       midi  ch:0  note on  key:67  vel:100
        0       midi  ch:0  note off  key:71  vel:0
        96      midi  ch:0  note on  key:55  vel:100
        0       midi  ch:0  note off  key:64  vel:0
        0       midi  ch:0  note on  key:64  vel:100
        0       midi  ch:0  note off  key:67  vel:0
        96      midi  ch:0  note off  key:55  vel:0
        0       midi  ch:0  note off  key:59  vel:0
        0       midi  ch:0  note on  key:60  vel:100
        0       midi  ch:0  note off  key:64  vel:0
        0       midi  ch:0  note on  key:65  vel:100
        0       midi  ch:0  note on  key:69  vel:100
        240     midi  ch:0  note off  key:60  vel:0
        0       midi  ch:0  note on  key:60  vel:100
        0       midi  ch:0  note off  key:65  vel:0
        0       midi  ch:0  note on  key:65  vel:100
        0       midi  ch:0  note off  key:69  vel:0
        0       midi  ch:0  note on  key:69  vel:100
        144     midi  ch:0  note off  key:60  vel:0
        0       midi  ch:0  note on  key:62  vel:100
        0       midi  ch:0  note off  key:65  vel:0
        0       midi  ch:0  note on  key:67  vel:100
        0       midi  ch:0  note off  key:69  vel:0
        0       midi  ch:0  note on  key:71  vel:100
        192     midi  ch:0  note off  key:62  vel:0
        0       midi  ch:0  note on  key:64  vel:100
        0       midi  ch:0  note off  key:67  vel:0
        0       midi  ch:0  note on  key:69  vel:100
        0       midi  ch:0  note off  key:71  vel:0
        0       midi  ch:0  note on  key:72  vel:100
        240     midi  ch:0  note off  key:64  vel:0
        0       midi  ch:0  note on  key:64  vel:100
        0       midi  ch:0  note off  key:69  vel:0
        0       midi  ch:0  note on  key:69  vel:100
        0       midi  ch:0  note off  key:72  vel:0
        0       midi  ch:0  note on  key:72  vel:100
        96      midi  ch:0  note on  key:62  vel:100
        0       midi  ch:0  note off  key:64  vel:0
        0       midi  ch:0  note on  key:67  vel:100
        0       midi  ch:0  note off  key:69  vel:0
        0       midi  ch:0  note on  key:71  vel:100
        0       midi  ch:0  note off  key:72  vel:0
        96      midi  ch:0  note on  key:60  vel:100
        0       midi  ch:0  note off  key:62  vel:0
        0       midi  ch:0  note on  key:65  vel:100
        0       midi  ch:0  note off  key:67  vel:0
        0       midi  ch:0  note on  key:69  vel:100
        0       midi  ch:0  note off  key:71  vel:0
        144     midi  ch:0  note off  key:60  vel:0
        0       midi  ch:0  note on  key:62  vel:100
        0       midi  ch:0  note off  key:65  vel:0
        0       midi  ch:0  note on  key:67  vel:100
        0       midi  ch:0  note off  key:69  vel:0
        0       midi  ch:0  note on  key:71  vel:100
        192     midi  ch:0  note off  key:62  vel:0
        0       midi  ch:0  note on  key:64  vel:100
        0       midi  ch:0  note off  key:67  vel:0
        0       midi  ch:0  note on  key:69  vel:100
        0       midi  ch:0  note off  key:71  vel:0
        0       midi  ch:0  note on  key:72  vel:100
        432     midi  ch:0  note off  key:64  vel:0
        0       midi  ch:0  note off  key:69  vel:0
        0       midi  ch:0  note off  key:72  vel:0
        6163    meta  type:2f  len:0  end
MTrk  len:1966
        0       meta  type:58  len:4  tsig:  4/4 metr:36 32nds:8
        0       meta  type:58  len:4  tsig:  4/4 metr:36 32nds:8
        0       meta  type:3  len:0  track:""
        18432   midi  ch:0  note on  key:69  vel:100
        96      midi  ch:0  note off  key:69  vel:0
        0       midi  ch:0  note on  key:76  vel:100
        48      midi  ch:0  note on  key:71  vel:100
        0       midi  ch:0  note off  key:76  vel:0
        96      midi  ch:0  note off  key:71  vel:0
        0       midi  ch:0  note on  key:76  vel:100
        96      midi  ch:0  note on  key:72  vel:100
        0       midi  ch:0  note off  key:76  vel:0
        144     midi  ch:0  note off  key:72  vel:0
        0       midi  ch:0  note on  key:74  vel:100
        48      midi  ch:0  note off  key:74  vel:0
        0       midi  ch:0  note on  key:76  vel:100
        48      midi  ch:0  note on  key:74  vel:100
        0       midi  ch:0  note off  key:76  vel:0
        96      midi  ch:0  note on  key:67  vel:100
        0       midi  ch:0  note off  key:74  vel:0
        96      midi  ch:0  note off  key:67  vel:0
        0       midi  ch:0  note on  key:69  vel:100
        96      midi  ch:0  note off  key:69  vel:0
        0       midi  ch:0  note on  key:76  vel:100
        48      midi  ch:0  note on  key:71  vel:100
        0       midi  ch:0  note off  key:76  vel:0
        96      midi  ch:0  note on  key:67  vel:100
        0       midi  ch:0  note off  key:71  vel:0
        96      midi  ch:0  note off  key:67  vel:0
        0       midi  ch:0  note on  key:67  vel:100
        96      midi  ch:0  note on  key:64  vel:100
        0       midi  ch:0  note off  key:67  vel:0
        96      midi  ch:0  note off  key:64  vel:0
        0       midi  ch:0  note on  key:81  vel:100
        48      midi  ch:0  note on  key:79  vel:100
        0       midi  ch:0  note off  key:81  vel:0
        48      midi  ch:0  note on  key:76  vel:100
        0       midi  ch:0  note off  key:79  vel:0
        48      midi  ch:0  note on  key:74  vel:100
        0       midi  ch:0  note off  key:76  vel:0
        48      midi  ch:0  note on  key:72  vel:100
        0       midi  ch:0  note off  key:74  vel:0
        48      midi  ch:0  note on  key:69  vel:100
        0       midi  ch:0  note off  key:72  vel:0
        96      midi  ch:0  note off  key:69  vel:0
        0       midi  ch:0  note on  key:76  vel:100
        48      midi  ch:0  note on  key:71  vel:100
        0       midi  ch:0  note off  key:76  vel:0
        96      midi  ch:0  note off  key:71  vel:0
        0       midi  ch:0  note on  key:76  vel:100
        96      midi  ch:0  note on  key:72  vel:100
        0       midi  ch:0  note off  key:76  vel:0
        144     midi  ch:0  note off  key:72  vel:0
        0       midi  ch:0  note on  key:74  vel:100
        48      midi  ch:0  note off  key:74  vel:0
        0       midi  ch:0  note on  key:76  vel:100
        48      midi  ch:0  note on  key:74  vel:100
        0       midi  ch:0  note off  key:76  vel:0
        96      midi  ch:0  note off  key:74  vel:0
        0       midi  ch:0  note on  key:79  vel:100
        96      midi  ch:0  note on  key:69  vel:100
        0       midi  ch:0  note off  key:79  vel:0
        96      midi  ch:0  note off  key:69  vel:0
        0       midi  ch:0  note on  key:76  vel:100
        48      midi  ch:0  note on  key:71  vel:100
        0       midi  ch:0  note off  key:76  vel:0
        96      midi  ch:0  note on  key:67  vel:100
        0       midi  ch:0  note off  key:71  vel:0
        96      midi  ch:0  note off  key:67  vel:0
        0       midi  ch:0  note on  key:69  vel:100
        144     midi  ch:0  note off  key:69  vel:0
        0       midi  ch:0  note on  key:81  vel:100
        96      midi  ch:0  note on  key:79  vel:100
        0       midi  ch:0  note off  key:81  vel:0
        48      midi  ch:0  note on  key:76  vel:100
        0       midi  ch:0  note off  key:79  vel:0
        48      midi  ch:0  note on  key:74  vel:100
        0       midi  ch:0  note off  key:76  vel:0
        48      midi  ch:0  note on  key:72  vel:100
        0       midi  ch:0  note off  key:74  vel:0
        48      midi  ch:0  note off  key:72  vel:0
        12336   midi  ch:0  note on  key:69  vel:100
        24      midi  ch:0  note off  key:69  vel:0
        72      midi  ch:0  note on  key:64  vel:100
        24      midi  ch:0  note off  key:64  vel:0
        72      midi  ch:0  note on  key:62  vel:100
        24      midi  ch:0  note off  key:62  vel:0
        72      midi  ch:0  note on  key:60  vel:100
        24      midi  ch:0  note off  key:60  vel:0
        72      midi  ch:0  note on  key:57  vel:100
        24      midi  ch:0  note off  key:57  vel:0
        72      midi  ch:0  note on  key:60  vel:100
        24      midi  ch:0  note off  key:60  vel:0
        72      midi  ch:0  note on  key:62  vel:100
        24      midi  ch:0  note off  key:62  vel:0
        72      midi  ch:0  note on  key:64  vel:100
        24      midi  ch:0  note off  key:64  vel:0
        72      midi  ch:0  note on  key:69  vel:100
        24      midi  ch:0  note off  key:69  vel:0
        72      midi  ch:0  note on  key:64  vel:100
        24      midi  ch:0  note off  key:64  vel:0
        72      midi  ch:0  note on  key:62  vel:100
        24      midi  ch:0  note off  key:62  vel:0
        72      midi  ch:0  note on  key:60  vel:100
        24      midi  ch:0  note off  key:60  vel:0
        72      midi  ch:0  note on  key:57  vel:100
        24      midi  ch:0  note off  key:57  vel:0
        72      midi  ch:0  note on  key:60  vel:100
        24      midi  ch:0  note off  key:60  vel:0
        72      midi  ch:0  note on  key:62  vel:100
        24      midi  ch:0  note off  key:62  vel:0
        72      midi  ch:0  note on  key:64  vel:100
        24      midi  ch:0  note off  key:64  vel:0
        72      midi  ch:0  note on  key:69  vel:100
        24      midi  ch:0  note off  key:69  vel:0
        72      midi  ch:0  note on  key:64  vel:100
        24      midi  ch:0  note off  key:64  vel:0
        72      midi  ch:0  note on  key:62  vel:100
        24      midi  ch:0  note off  key:62  vel:0
        72      midi  ch:0  note on  key:60  vel:100
        24      midi  ch:0  note off  key:60  vel:0
        72      midi  ch:0  note on  key:57  vel:100
        24      midi  ch:0  note off  key:57  vel:0
        72      midi  ch:0  note on  key:60  vel:100
        24      midi  ch:0  note off  key:60  vel:0
        72      midi  ch:0  note on  key:62  vel:100
        24      midi  ch:0  note off  key:62  vel:0
        72      midi  ch:0  note on  key:64  vel:100
        24      midi  ch:0  note off  key:64  vel:0
        72      midi  ch:0  note on  key:69  vel:100
        24      midi  ch:0  note off  key:69  vel:0
        72      midi  ch:0  note on  key:64  vel:100
        24      midi  ch:0  note off  key:64  vel:0
        72      midi  ch:0  note on  key:62  vel:100
        24      midi  ch:0  note off  key:62  vel:0
        72      midi  ch:0  note on  key:60  vel:100
        24      midi  ch:0  note off  key:60  vel:0
        72      midi  ch:0  note on  key:57  vel:100
        24      midi  ch:0  note off  key:57  vel:0
        72      midi  ch:0  note on  key:60  vel:100
        24      midi  ch:0  note off  key:60  vel:0
        72      midi  ch:0  note on  key:62  vel:100
        24      midi  ch:0  note off  key:62  vel:0
        72      midi  ch:0  note on  key:64  vel:100
        24      midi  ch:0  note off  key:64  vel:0
        72      midi  ch:0  note on  key:69  vel:100
        24      midi  ch:0  note off  key:69  vel:0
        72      midi  ch:0  note on  key:64  vel:100
        24      midi  ch:0  note off  key:64  vel:0
        72      midi  ch:0  note on  key:62  vel:100
        24      midi  ch:0  note off  key:62  vel:0
        72      midi  ch:0  note on  key:60  vel:100
        24      midi  ch:0  note off  key:60  vel:0
        72      midi  ch:0  note on  key:57  vel:100
        24      midi  ch:0  note off  key:57  vel:0
        72      midi  ch:0  note on  key:60  vel:100
        24      midi  ch:0  note off  key:60  vel:0
        72      midi  ch:0  note on  key:62  vel:100
        24      midi  ch:0  note off  key:62  vel:0
        72      midi  ch:0  note on  key:64  vel:100
        24      midi  ch:0  note off  key:64  vel:0
        72      midi  ch:0  note on  key:69  vel:100
        24      midi  ch:0  note off  key:69  vel:0
        72      midi  ch:0  note on  key:64  vel:100
        24      midi  ch:0  note off  key:64  vel:0
        72      midi  ch:0  note on  key:62  vel:100
        24      midi  ch:0  note off  key:62  vel:0
        72      midi  ch:0  note on  key:60  vel:100
        24      midi  ch:0  note off  key:60  vel:0
        72      midi  ch:0  note on  key:57  vel:100
        24      midi  ch:0  note off  key:57  vel:0
        72      midi  ch:0  note on  key:60  vel:100
        24      midi  ch:0  note off  key:60  vel:0
        72      midi  ch:0  note on  key:62  vel:100
        24      midi  ch:0  note off  key:62  vel:0
        72      midi  ch:0  note on  key:64  vel:100
        24      midi  ch:0  note off  key:64  vel:0
        72      midi  ch:0  note on  key:69  vel:100
        24      midi  ch:0  note off  key:69  vel:0
        72      midi  ch:0  note on  key:64  vel:100
        24      midi  ch:0  note off  key:64  vel:0
        72      midi  ch:0  note on  key:62  vel:100
        24      midi  ch:0  note off  key:62  vel:0
        72      midi  ch:0  note on  key:60  vel:100
        24      midi  ch:0  note off  key:60  vel:0
        72      midi  ch:0  note on  key:57  vel:100
        24      midi  ch:0  note off  key:57  vel:0
        72      midi  ch:0  note on  key:60  vel:100
        24      midi  ch:0  note off  key:60  vel:0
        72      midi  ch:0  note on  key:62  vel:100
        24      midi  ch:0  note off  key:62  vel:0
        72      midi  ch:0  note on  key:64  vel:100
        24      midi  ch:0  note off  key:64  vel:0
        72      midi  ch:0  note on  key:69  vel:100
        24      midi  ch:0  note off  key:69  vel:0
        72      midi  ch:0  note on  key:64  vel:100
        24      midi  ch:0  note off  key:64  vel:0
        72      midi  ch:0  note on  key:62  vel:100
        24      midi  ch:0  note off  key:62  vel:0
        72      midi  ch:0  note on  key:60  vel:100
        24      midi  ch:0  note off  key:60  vel:0
        72      midi  ch:0  note on  key:57  vel:100
        24      midi  ch:0  note off  key:57  vel:0
        72      midi  ch:0  note on  key:60  vel:100
        24      midi  ch:0  note off  key:60  vel:0
        72      midi  ch:0  note on  key:62  vel:100
        24      midi  ch:0  note off  key:62  vel:0
        72      midi  ch:0  note on  key:64  vel:100
        24      midi  ch:0  note off  key:64  vel:0
        72      midi  ch:0  note on  key:69  vel:100
        24      midi  ch:0  note off  key:69  vel:0
        72      midi  ch:0  note on  key:64  vel:100
        24      midi  ch:0  note off  key:64  vel:0
        72      midi  ch:0  note on  key:62  vel:100
        24      midi  ch:0  note off  key:62  vel:0
        72      midi  ch:0  note on  key:60  vel:100
        24      midi  ch:0  note off  key:60  vel:0
        72      midi  ch:0  note on  key:57  vel:100
        24      midi  ch:0  note off  key:57  vel:0
        72      midi  ch:0  note on  key:60  vel:100
        24      midi  ch:0  note off  key:60  vel:0
        72      midi  ch:0  note on  key:62  vel:100
        24      midi  ch:0  note off  key:62  vel:0
        72      midi  ch:0  note on  key:64  vel:100
        24      midi  ch:0  note off  key:64  vel:0
        72      midi  ch:0  note on  key:69  vel:100
        24      midi  ch:0  note off  key:69  vel:0
        72      midi  ch:0  note on  key:64  vel:100
        24      midi  ch:0  note off  key:64  vel:0
        72      midi  ch:0  note on  key:62  vel:100
        24      midi  ch:0  note off  key:62  vel:0
        72      midi  ch:0  note on  key:60  vel:100
        24      midi  ch:0  note off  key:60  vel:0
        72      midi  ch:0  note on  key:57  vel:100
        24      midi  ch:0  note off  key:57  vel:0
        72      midi  ch:0  note on  key:60  vel:100
        24      midi  ch:0  note off  key:60  vel:0
        72      midi  ch:0  note on  key:62  vel:100
        24      midi  ch:0  note off  key:62  vel:0
        72      midi  ch:0  note on  key:64  vel:100
        24      midi  ch:0  note off  key:64  vel:0
        72      midi  ch:0  note on  key:69  vel:100
        24      midi  ch:0  note off  key:69  vel:0
        72      midi  ch:0  note on  key:64  vel:100
        24      midi  ch:0  note off  key:64  vel:0
        72      midi  ch:0  note on  key:62  vel:100
        24      midi  ch:0  note off  key:62  vel:0
        72      midi  ch:0  note on  key:60  vel:100
        24      midi  ch:0  note off  key:60  vel:0
        72      midi  ch:0  note on  key:57  vel:100
        24      midi  ch:0  note off  key:57  vel:0
        72      midi  ch:0  note on  key:60  vel:100
        24      midi  ch:0  note off  key:60  vel:0
        72      midi  ch:0  note on  key:62  vel:100
        24      midi  ch:0  note off  key:62  vel:0
        72      midi  ch:0  note on  key:64  vel:100
        24      midi  ch:0  note off  key:64  vel:0
        72      midi  ch:0  note on  key:69  vel:100
        24      midi  ch:0  note off  key:69  vel:0
        72      midi  ch:0  note on  key:64  vel:100
        24      midi  ch:0  note off  key:64  vel:0
        72      midi  ch:0  note on  key:62  vel:100
        24      midi  ch:0  note off  key:62  vel:0
        72      midi  ch:0  note on  key:60  vel:100
        24      midi  ch:0  note off  key:60  vel:0
        72      midi  ch:0  note on  key:57  vel:100
        24      midi  ch:0  note off  key:57  vel:0
        72      midi  ch:0  note on  key:60  vel:100
        24      midi  ch:0  note off  key:60  vel:0
        72      midi  ch:0  note on  key:62  vel:100
        24      midi  ch:0  note off  key:62  vel:0
        72      midi  ch:0  note on  key:64  vel:100
        24      midi  ch:0  note off  key:64  vel:0
        24      midi  ch:0  note on  key:64  vel:100
        24      midi  ch:0  note off  key:64  vel:0
        72      midi  ch:0  note on  key:69  vel:100
        24      midi  ch:0  note off  key:69  vel:0
        24      midi  ch:0  note on  key:64  vel:100
        24      midi  ch:0  note off  key:64  vel:0
        72      midi  ch:0  note on  key:62  vel:100
        24      midi  ch:0  note off  key:62  vel:0
        72      midi  ch:0  note on  key:60  vel:100
        24      midi  ch:0  note off  key:60  vel:0
        72      midi  ch:0  note on  key:57  vel:100
        24      midi  ch:0  note off  key:57  vel:0
        72      midi  ch:0  note on  key:60  vel:100
        24      midi  ch:0  note off  key:60  vel:0
        72      midi  ch:0  note on  key:62  vel:100
        24      midi  ch:0  note off  key:62  vel:0
        120     midi  ch:0  note on  key:64  vel:100
        24      midi  ch:0  note off  key:64  vel:0
        72      midi  ch:0  note on  key:69  vel:100
        24      midi  ch:0  note off  key:69  vel:0
        24      midi  ch:0  note on  key:64  vel:100
        24      midi  ch:0  note off  key:64  vel:0
        72      midi  ch:0  note on  key:62  vel:100
        24      midi  ch:0  note off  key:62  vel:0
        72      midi  ch:0  note on  key:60  vel:100
        24      midi  ch:0  note off  key:60  vel:0
        72      midi  ch:0  note on  key:57  vel:100
        24      midi  ch:0  note off  key:57  vel:0
        72      midi  ch:0  note on  key:60  vel:100
        24      midi  ch:0  note off  key:60  vel:0
        72      midi  ch:0  note on  key:62  vel:100
        24      midi  ch:0  note off  key:62  vel:0
        120     midi  ch:0  note on  key:64  vel:100
        24      midi  ch:0  note off  key:64  vel:0
        72      midi  ch:0  note on  key:69  vel:100
        24      midi  ch:0  note off  key:69  vel:0
        24      midi  ch:0  note on  key:64  vel:100
        24      midi  ch:0  note off  key:64  vel:0
        72      midi  ch:0  note on  key:62  vel:100
        24      midi  ch:0  note off  key:62  vel:0
        72      midi  ch:0  note on  key:60  vel:100
        24      midi  ch:0  note off  key:60  vel:0
        72      midi  ch:0  note on  key:57  vel:100
        24      midi  ch:0  note off  key:57  vel:0
        72      midi  ch:0  note on  key:60  vel:100
        24      midi  ch:0  note off  key:60  vel:0
        72      midi  ch:0  note on  key:62  vel:100
        24      midi  ch:0  note off  key:62  vel:0
        120     midi  ch:0  note on  key:64  vel:100
        24      midi  ch:0  note off  key:64  vel:0
        72      midi  ch:0  note on  key:69  vel:100
        24      midi  ch:0  note off  key:69  vel:0
        24      midi  ch:0  note on  key:64  vel:100
        24      midi  ch:0  note off  key:64  vel:0
        72      midi  ch:0  note on  key:62  vel:100
        24      midi  ch:0  note off  key:62  vel:0
        72      midi  ch:0  note on  key:60  vel:100
        24      midi  ch:0  note off  key:60  vel:0
        72      midi  ch:0  note on  key:57  vel:100
        24      midi  ch:0  note off  key:57  vel:0
        72      midi  ch:0  note on  key:60  vel:100
        24      midi  ch:0  note off  key:60  vel:0
        72      midi  ch:0  note on  key:62  vel:100
        24      midi  ch:0  note off  key:62  vel:0
        120     midi  ch:0  note on  key:69  vel:100
        96      midi  ch:0  note off  key:69  vel:0
        0       midi  ch:0  note on  key:76  vel:100
        48      midi  ch:0  note on  key:71  vel:100
        0       midi  ch:0  note off  key:76  vel:0
        96      midi  ch:0  note off  key:71  vel:0
        0       midi  ch:0  note on  key:76  vel:100
        96      midi  ch:0  note on  key:72  vel:100
        0       midi  ch:0  note off  key:76  vel:0
        144     midi  ch:0  note off  key:72  vel:0
        0       midi  ch:0  note on  key:74  vel:100
        48      midi  ch:0  note off  key:74  vel:0
        0       midi  ch:0  note on  key:76  vel:100
        48      midi  ch:0  note on  key:74  vel:100
        0       midi  ch:0  note off  key:76  vel:0
        96      midi  ch:0  note on  key:67  vel:100
        0       midi  ch:0  note off  key:74  vel:0
        96      midi  ch:0  note off  key:67  vel:0
        0       midi  ch:0  note on  key:69  vel:100
        96      midi  ch:0  note off  key:69  vel:0
        0       midi  ch:0  note on  key:76  vel:100
        48      midi  ch:0  note on  key:71  vel:100
        0       midi  ch:0  note off  key:76  vel:0
        96      midi  ch:0  note on  key:67  vel:100
        0       midi  ch:0  note off  key:71  vel:0
        96      midi  ch:0  note off  key:67  vel:0
        0       midi  ch:0  note on  key:67  vel:100
        96      midi  ch:0  note on  key:64  vel:100
        0       midi  ch:0  note off  key:67  vel:0
        96      midi  ch:0  note off  key:64  vel:0
        0       midi  ch:0  note on  key:81  vel:100
        48      midi  ch:0  note on  key:79  vel:100
        0       midi  ch:0  note off  key:81  vel:0
        48      midi  ch:0  note on  key:76  vel:100
        0       midi  ch:0  note off  key:79  vel:0
        48      midi  ch:0  note on  key:74  vel:100
        0       midi  ch:0  note off  key:76  vel:0
        48      midi  ch:0  note on  key:72  vel:100
        0       midi  ch:0  note off  key:74  vel:0
        48      midi  ch:0  note on  key:69  vel:100
        0       midi  ch:0  note off  key:72  vel:0
        96      midi  ch:0  note off  key:69  vel:0
        0       midi  ch:0  note on  key:76  vel:100
        48      midi  ch:0  note on  key:71  vel:100
        0       midi  ch:0  note off  key:76  vel:0
        96      midi  ch:0  note off  key:71  vel:0
        0       midi  ch:0  note on  key:76  vel:100
        96      midi  ch:0  note on  key:72  vel:100
        0       midi  ch:0  note off  key:76  vel:0
        144     midi  ch:0  note off  key:72  vel:0
        0       midi  ch:0  note on  key:74  vel:100
        48      midi  ch:0  note off  key:74  vel:0
        0       midi  ch:0  note on  key:76  vel:100
        48      midi  ch:0  note on  key:74  vel:100
        0       midi  ch:0  note off  key:76  vel:0
        96      midi  ch:0  note off  key:74  vel:0
        0       midi  ch:0  note on  key:79  vel:100
        96      midi  ch:0  note on  key:69  vel:100
        0       midi  ch:0  note off  key:79  vel:0
        96      midi  ch:0  note off  key:69  vel:0
        0       midi  ch:0  note on  key:76  vel:100
        48      midi  ch:0  note on  key:71  vel:100
        0       midi  ch:0  note off  key:76  vel:0
        96      midi  ch:0  note on  key:67  vel:100
        0       midi  ch:0  note off  key:71  vel:0
        96      midi  ch:0  note off  key:67  vel:0
        0       midi  ch:0  note on  key:69  vel:100
        144     midi  ch:0  note off  key:69  vel:0
        0       midi  ch:0  note on  key:81  vel:100
        96      midi  ch:0  note on  key:79  vel:100
        0       midi  ch:0  note off  key:81  vel:0
        48      midi  ch:0  note on  key:76  vel:100
        0       midi  ch:0  note off  key:79  vel:0
        48      midi  ch:0  note on  key:74  vel:100
        0       midi  ch:0  note off  key:76  vel:0
        48      midi  ch:0  note on  key:72  vel:100
        0       midi  ch:0  note off  key:74  vel:0
        48      midi  ch:0  note off  key:72  vel:0
        10752   midi  ch:0  note on  key:69  vel:100
        96      midi  ch:0  note off  key:69  vel:0
        0       midi  ch:0  note on  key:76  vel:100
        48      midi  ch:0  note on  key:71  vel:100
        0       midi  ch:0  note off  key:76  vel:0
        96      midi  ch:0  note off  key:71  vel:0
        0       midi  ch:0  note on  key:76  vel:100
        96      midi  ch:0  note on  key:72  vel:100
        0       midi  ch:0  note off  key:76  vel:0
        144     midi  ch:0  note off  key:72  vel:0
        0       midi  ch:0  note on  key:74  vel:100
        48      midi  ch:0  note off  key:74  vel:0
        0       midi  ch:0  note on  key:76  vel:100
        48      midi  ch:0  note on  key:74  vel:100
        0       midi  ch:0  note off  key:76  vel:0
        96      midi  ch:0  note on  key:67  vel:100
        0       midi  ch:0  note off  key:74  vel:0
        96      midi  ch:0  note off  key:67  vel:0
        0       midi  ch:0  note on  key:69  vel:100
        96      midi  ch:0  note off  key:69  vel:0
        0       midi  ch:0  note on  key:76  vel:100
        48      midi  ch:0  note on  key:71  vel:100
        0       midi  ch:0  note off  key:76  vel:0
        96      midi  ch:0  note on  key:67  vel:100
        0       midi  ch:0  note off  key:71  vel:0
        96      midi  ch:0  note off  key:67  vel:0
        0       midi  ch:0  note on  key:67  vel:100
        96      midi  ch:0  note on  key:64  vel:100
        0       midi  ch:0  note off  key:67  vel:0
        96      midi  ch:0  note off  key:64  vel:0
        0       midi  ch:0  note on  key:81  vel:100
        48      midi  ch:0  note on  key:79  vel:100
        0       midi  ch:0  note off  key:81  vel:0
        48      midi  ch:0  note on  key:76  vel:100
        0       midi  ch:0  note off  key:79  vel:0
        48      midi  ch:0  note on  key:74  vel:100
        0       midi  ch:0  note off  key:76  vel:0
        48      midi  ch:0  note on  key:72  vel:100
        0       midi  ch:0  note off  key:74  vel:0
        48      midi  ch:0  note on  key:69  vel:100
        0       midi  ch:0  note off  key:72  vel:0
        96      midi  ch:0  note off  key:69  vel:0
        0       midi  ch:0  note on  key:76  vel:100
        48      midi  ch:0  note on  key:71  vel:100
        0       midi  ch:0  note off  key:76  vel:0
        96      midi  ch:0  note off  key:71  vel:0
        0       midi  ch:0  note on  key:76  vel:100
        96      midi  ch:0  note on  key:72  vel:100
        0       midi  ch:0  note off  key:76  vel:0
        144     midi  ch:0  note off  key:72  vel:0
        0       midi  ch:0  note on  key:74  vel:100
        48      midi  ch:0  note off  key:74  vel:0
        0       midi  ch:0  note on  key:76  vel:100
        48      midi  ch:0  note on  key:74  vel:100
        0       midi  ch:0  note off  key:76  vel:0
        96      midi  ch:0  note off  key:74  vel:0
        0       midi  ch:0  note on  key:79  vel:100
        96      midi  ch:0  note on  key:69  vel:100
        0       midi  ch:0  note off  key:79  vel:0
        96      midi  ch:0  note off  key:69  vel:0
        0       midi  ch:0  note on  key:76  vel:100
        48      midi  ch:0  note on  key:71  vel:100
        0       midi  ch:0  note off  key:76  vel:0
        96      midi  ch:0  note on  key:67  vel:100
        0       midi  ch:0  note off  key:71  vel:0
        96      midi  ch:0  note off  key:67  vel:0
        0       midi  ch:0  note on  key:69  vel:100
        144     midi  ch:0  note off  key:69  vel:0
        96      midi  ch:0  note on  key:81  vel:100
        192     midi  ch:0  note off  key:81  vel:0
        19      meta  type:2f  len:0  end
MTrk  len:1289
        0       meta  type:58  len:4  tsig:  4/4 metr:36 32nds:8
        0       meta  type:58  len:4  tsig:  4/4 metr:36 32nds:8
        0       meta  type:3  len:0  track:""
        24576   midi  ch:0  note on  key:69  vel:100
        96      midi  ch:0  note off  key:69  vel:0
        0       midi  ch:0  note on  key:76  vel:100
        48      midi  ch:0  note on  key:71  vel:100
        0       midi  ch:0  note off  key:76  vel:0
        96      midi  ch:0  note off  key:71  vel:0
        0       midi  ch:0  note on  key:76  vel:100
        96      midi  ch:0  note on  key:72  vel:100
        0       midi  ch:0  note off  key:76  vel:0
        144     midi  ch:0  note off  key:72  vel:0
        0       midi  ch:0  note on  key:74  vel:100
        48      midi  ch:0  note off  key:74  vel:0
        0       midi  ch:0  note on  key:76  vel:100
        48      midi  ch:0  note on  key:74  vel:100
        0       midi  ch:0  note off  key:76  vel:0
        96      midi  ch:0  note on  key:67  vel:100
        0       midi  ch:0  note off  key:74  vel:0
        96      midi  ch:0  note off  key:67  vel:0
        0       midi  ch:0  note on  key:69  vel:100
        96      midi  ch:0  note off  key:69  vel:0
        0       midi  ch:0  note on  key:76  vel:100
        48      midi  ch:0  note on  key:71  vel:100
        0       midi  ch:0  note off  key:76  vel:0
        96      midi  ch:0  note on  key:67  vel:100
        0       midi  ch:0  note off  key:71  vel:0
        96      midi  ch:0  note off  key:67  vel:0
        0       midi  ch:0  note on  key:67  vel:100
        96      midi  ch:0  note on  key:64  vel:100
        0       midi  ch:0  note off  key:67  vel:0
        96      midi  ch:0  note off  key:64  vel:0
        0       midi  ch:0  note on  key:81  vel:100
        48      midi  ch:0  note on  key:79  vel:100
        0       midi  ch:0  note off  key:81  vel:0
        48      midi  ch:0  note on  key:76  vel:100
        0       midi  ch:0  note off  key:79  vel:0
        48      midi  ch:0  note on  key:74  vel:100
        0       midi  ch:0  note off  key:76  vel:0
        48      midi  ch:0  note on  key:72  vel:100
        0       midi  ch:0  note off  key:74  vel:0
        48      midi  ch:0  note on  key:69  vel:100
        0       midi  ch:0  note off  key:72  vel:0
        96      midi  ch:0  note off  key:69  vel:0
        0       midi  ch:0  note on  key:76  vel:100
        48      midi  ch:0  note on  key:71  vel:100
        0       midi  ch:0  note off  key:76  vel:0
        96      midi  ch:0  note off  key:71  vel:0
        0       midi  ch:0  note on  key:76  vel:100
        96      midi  ch:0  note on  key:72  vel:100
        0       midi  ch:0  note off  key:76  vel:0
        144     midi  ch:0  note off  key:72  vel:0
        0       midi  ch:0  note on  key:74  vel:100
        48      midi  ch:0  note off  key:74  vel:0
        0       midi  ch:0  note on  key:76  vel:100
        48      midi  ch:0  note on  key:74  vel:100
        0       midi  ch:0  note off  key:76  vel:0
        96      midi  ch:0  note off  key:74  vel:0
        0       midi  ch:0  note on  key:79  vel:100
        96      midi  ch:0  note on  key:69  vel:100
        0       midi  ch:0  note off  key:79  vel:0
        96      midi  ch:0  note off  key:69  vel:0
        0       midi  ch:0  note on  key:76  vel:100
        48      midi  ch:0  note on  key:71  vel:100
        0       midi  ch:0  note off  key:76  vel:0
        96      midi  ch:0  note on  key:67  vel:100
        0       midi  ch:0  note off  key:71  vel:0
        96      midi  ch:0  note off  key:67  vel:0
        0       midi  ch:0  note on  key:69  vel:100
        144     midi  ch:0  note off  key:69  vel:0
        0       midi  ch:0  note on  key:81  vel:100
        96      midi  ch:0  note on  key:79  vel:100
        0       midi  ch:0  note off  key:81  vel:0
        48      midi  ch:0  note on  key:76  vel:100
        0       midi  ch:0  note off  key:79  vel:0
        48      midi  ch:0  note on  key:74  vel:100
        0       midi  ch:0  note off  key:76  vel:0
        48      midi  ch:0  note on  key:72  vel:100
        0       midi  ch:0  note off  key:74  vel:0
        48      midi  ch:0  note on  key:69  vel:100
        0       midi  ch:0  note off  key:72  vel:0
        96      midi  ch:0  note off  key:69  vel:0
        0       midi  ch:0  note on  key:76  vel:100
        48      midi  ch:0  note on  key:71  vel:100
        0       midi  ch:0  note off  key:76  vel:0
        96      midi  ch:0  note off  key:71  vel:0
        0       midi  ch:0  note on  key:76  vel:100
        96      midi  ch:0  note on  key:72  vel:100
        0       midi  ch:0  note off  key:76  vel:0
        144     midi  ch:0  note off  key:72  vel:0
        0       midi  ch:0  note on  key:74  vel:100
        48      midi  ch:0  note off  key:74  vel:0
        0       midi  ch:0  note on  key:76  vel:100
        48      midi  ch:0  note on  key:74  vel:100
        0       midi  ch:0  note off  key:76  vel:0
        96      midi  ch:0  note on  key:67  vel:100
        0       midi  ch:0  note off  key:74  vel:0
        96      midi  ch:0  note off  key:67  vel:0
        0       midi  ch:0  note on  key:69  vel:100
        96      midi  ch:0  note off  key:69  vel:0
        0       midi  ch:0  note on  key:76  vel:100
        48      midi  ch:0  note on  key:71  vel:100
        0       midi  ch:0  note off  key:76  vel:0
        96      midi  ch:0  note on  key:67  vel:100
        0       midi  ch:0  note off  key:71  vel:0
        96      midi  ch:0  note off  key:67  vel:0
        0       midi  ch:0  note on  key:67  vel:100
        96      midi  ch:0  note on  key:64  vel:100
        0       midi  ch:0  note off  key:67  vel:0
        96      midi  ch:0  note off  key:64  vel:0
        0       midi  ch:0  note on  key:81  vel:100
        48      midi  ch:0  note on  key:79  vel:100
        0       midi  ch:0  note off  key:81  vel:0
        48      midi  ch:0  note on  key:76  vel:100
        0       midi  ch:0  note off  key:79  vel:0
        48      midi  ch:0  note on  key:74  vel:100
        0       midi  ch:0  note off  key:76  vel:0
        48      midi  ch:0  note on  key:72  vel:100
        0       midi  ch:0  note off  key:74  vel:0
        48      midi  ch:0  note on  key:69  vel:100
        0       midi  ch:0  note off  key:72  vel:0
        96      midi  ch:0  note off  key:69  vel:0
        0       midi  ch:0  note on  key:76  vel:100
        48      midi  ch:0  note on  key:71  vel:100
        0       midi  ch:0  note off  key:76  vel:0
        96      midi  ch:0  note off  key:71  vel:0
        0       midi  ch:0  note on  key:76  vel:100
        96      midi  ch:0  note on  key:72  vel:100
        0       midi  ch:0  note off  key:76  vel:0
        144     midi  ch:0  note off  key:72  vel:0
        0       midi  ch:0  note on  key:74  vel:100
        48      midi  ch:0  note off  key:74  vel:0
        0       midi  ch:0  note on  key:76  vel:100
        48      midi  ch:0  note on  key:74  vel:100
        0       midi  ch:0  note off  key:76  vel:0
        96      midi  ch:0  note off  key:74  vel:0
        0       midi  ch:0  note on  key:79  vel:100
        96      midi  ch:0  note on  key:69  vel:100
        0       midi  ch:0  note off  key:79  vel:0
        96      midi  ch:0  note off  key:69  vel:0
        0       midi  ch:0  note on  key:76  vel:100
        48      midi  ch:0  note on  key:71  vel:100
        0       midi  ch:0  note off  key:76  vel:0
        96      midi  ch:0  note on  key:67  vel:100
        0       midi  ch:0  note off  key:71  vel:0
        96      midi  ch:0  note off  key:67  vel:0
        0       midi  ch:0  note on  key:69  vel:100
        144     midi  ch:0  note off  key:69  vel:0
        0       midi  ch:0  note on  key:81  vel:100
        96      midi  ch:0  note on  key:79  vel:100
        0       midi  ch:0  note off  key:81  vel:0
        48      midi  ch:0  note on  key:76  vel:100
        0       midi  ch:0  note off  key:79  vel:0
        48      midi  ch:0  note on  key:74  vel:100
        0       midi  ch:0  note off  key:76  vel:0
        48      midi  ch:0  note on  key:72  vel:100
        0       midi  ch:0  note off  key:74  vel:0
        48      midi  ch:0  note off  key:72  vel:0
        19968   midi  ch:0  note on  key:69  vel:100
        96      midi  ch:0  note off  key:69  vel:0
        0       midi  ch:0  note on  key:76  vel:100
        48      midi  ch:0  note on  key:71  vel:100
        0       midi  ch:0  note off  key:76  vel:0
        96      midi  ch:0  note off  key:71  vel:0
        0       midi  ch:0  note on  key:76  vel:100
        96      midi  ch:0  note on  key:72  vel:100
        0       midi  ch:0  note off  key:76  vel:0
        144     midi  ch:0  note off  key:72  vel:0
        0       midi  ch:0  note on  key:74  vel:100
        48      midi  ch:0  note off  key:74  vel:0
        0       midi  ch:0  note on  key:76  vel:100
        48      midi  ch:0  note on  key:74  vel:100
        0       midi  ch:0  note off  key:76  vel:0
        96      midi  ch:0  note on  key:67  vel:100
        0       midi  ch:0  note off  key:74  vel:0
        96      midi  ch:0  note off  key:67  vel:0
        0       midi  ch:0  note on  key:69  vel:100
        96      midi  ch:0  note off  key:69  vel:0
        0       midi  ch:0  note on  key:76  vel:100
        48      midi  ch:0  note on  key:71  vel:100
        0       midi  ch:0  note off  key:76  vel:0
        96      midi  ch:0  note on  key:67  vel:100
        0       midi  ch:0  note off  key:71  vel:0
        96      midi  ch:0  note off  key:67  vel:0
        0       midi  ch:0  note on  key:67  vel:100
        96      midi  ch:0  note on  key:64  vel:100
        0       midi  ch:0  note off  key:67  vel:0
        96      midi  ch:0  note off  key:64  vel:0
        0       midi  ch:0  note on  key:81  vel:100
        48      midi  ch:0  note on  key:79  vel:100
        0       midi  ch:0  note off  key:81  vel:0
        48      midi  ch:0  note on  key:76  vel:100
        0       midi  ch:0  note off  key:79  vel:0
        48      midi  ch:0  note on  key:74  vel:100
        0       midi  ch:0  note off  key:76  vel:0
        48      midi  ch:0  note on  key:72  vel:100
        0       midi  ch:0  note off  key:74  vel:0
        48      midi  ch:0  note on  key:69  vel:100
        0       midi  ch:0  note off  key:72  vel:0
        96      midi  ch:0  note off  key:69  vel:0
        0       midi  ch:0  note on  key:76  vel:100
        48      midi  ch:0  note on  key:71  vel:100
        0       midi  ch:0  note off  key:76  vel:0
        96      midi  ch:0  note off  key:71  vel:0
        0       midi  ch:0  note on  key:76  vel:100
        96      midi  ch:0  note on  key:72  vel:100
        0       midi  ch:0  note off  key:76  vel:0
        144     midi  ch:0  note off  key:72  vel:0
        0       midi  ch:0  note on  key:74  vel:100
        48      midi  ch:0  note off  key:74  vel:0
        0       midi  ch:0  note on  key:76  vel:100
        48      midi  ch:0  note on  key:74  vel:100
        0       midi  ch:0  note off  key:76  vel:0
        96      midi  ch:0  note off  key:74  vel:0
        0       midi  ch:0  note on  key:79  vel:100
        96      midi  ch:0  note on  key:69  vel:100
        0       midi  ch:0  note off  key:79  vel:0
        96      midi  ch:0  note off  key:69  vel:0
        0       midi  ch:0  note on  key:76  vel:100
        48      midi  ch:0  note on  key:71  vel:100
        0       midi  ch:0  note off  key:76  vel:0
        96      midi  ch:0  note on  key:67  vel:100
        0       midi  ch:0  note off  key:71  vel:0
        96      midi  ch:0  note off  key:67  vel:0
        0       midi  ch:0  note on  key:69  vel:100
        144     midi  ch:0  note off  key:69  vel:0
        0       midi  ch:0  note on  key:81  vel:100
        96      midi  ch:0  note on  key:79  vel:100
        0       midi  ch:0  note off  key:81  vel:0
        48      midi  ch:0  note on  key:76  vel:100
        0       midi  ch:0  note off  key:79  vel:0
        48      midi  ch:0  note on  key:74  vel:100
        0       midi  ch:0  note off  key:76  vel:0
        48      midi  ch:0  note on  key:72  vel:100
        0       midi  ch:0  note off  key:74  vel:0
        48      midi  ch:0  note on  key:69  vel:100
        0       midi  ch:0  note off  key:72  vel:0
        96      midi  ch:0  note off  key:69  vel:0
        0       midi  ch:0  note on  key:76  vel:100
        48      midi  ch:0  note on  key:71  vel:100
        0       midi  ch:0  note off  key:76  vel:0
        96      midi  ch:0  note off  key:71  vel:0
        0       midi  ch:0  note on  key:76  vel:100
        96      midi  ch:0  note on  key:72  vel:100
        0       midi  ch:0  note off  key:76  vel:0
        144     midi  ch:0  note off  key:72  vel:0
        0       midi  ch:0  note on  key:74  vel:100
        48      midi  ch:0  note off  key:74  vel:0
        0       midi  ch:0  note on  key:76  vel:100
        48      midi  ch:0  note on  key:74  vel:100
        0       midi  ch:0  note off  key:76  vel:0
        96      midi  ch:0  note on  key:67  vel:100
        0       midi  ch:0  note off  key:74  vel:0
        96      midi  ch:0  note off  key:67  vel:0
        0       midi  ch:0  note on  key:69  vel:100
        96      midi  ch:0  note off  key:69  vel:0
        0       midi  ch:0  note on  key:76  vel:100
        48      midi  ch:0  note on  key:71  vel:100
        0       midi  ch:0  note off  key:76  vel:0
        96      midi  ch:0  note on  key:67  vel:100
        0       midi  ch:0  note off  key:71  vel:0
        96      midi  ch:0  note off  key:67  vel:0
        0       midi  ch:0  note on  key:67  vel:100
        96      midi  ch:0  note on  key:64  vel:100
        0       midi  ch:0  note off  key:67  vel:0
        96      midi  ch:0  note off  key:64  vel:0
        0       midi  ch:0  note on  key:81  vel:100
        48      midi  ch:0  note on  key:79  vel:100
        0       midi  ch:0  note off  key:81  vel:0
        48      midi  ch:0  note on  key:76  vel:100
        0       midi  ch:0  note off  key:79  vel:0
        48      midi  ch:0  note on  key:74  vel:100
        0       midi  ch:0  note off  key:76  vel:0
        48      midi  ch:0  note on  key:72  vel:100
        0       midi  ch:0  note off  key:74  vel:0
        48      midi  ch:0  note on  key:69  vel:100
        0       midi  ch:0  note off  key:72  vel:0
        96      midi  ch:0  note off  key:69  vel:0
        0       midi  ch:0  note on  key:76  vel:100
        48      midi  ch:0  note on  key:71  vel:100
        0       midi  ch:0  note off  key:76  vel:0
        96      midi  ch:0  note off  key:71  vel:0
        0       midi  ch:0  note on  key:76  vel:100
        96      midi  ch:0  note on  key:72  vel:100
        0       midi  ch:0  note off  key:76  vel:0
        144     midi  ch:0  note off  key:72  vel:0
        0       midi  ch:0  note on  key:74  vel:100
        48      midi  ch:0  note off  key:74  vel:0
        0       midi  ch:0  note on  key:76  vel:100
        48      midi  ch:0  note on  key:74  vel:100
        0       midi  ch:0  note off  key:76  vel:0
        96      midi  ch:0  note off  key:74  vel:0
        0       midi  ch:0  note on  key:79  vel:100
        96      midi  ch:0  note on  key:69  vel:100
        0       midi  ch:0  note off  key:79  vel:0
        96      midi  ch:0  note off  key:69  vel:0
        0       midi  ch:0  note on  key:76  vel:100
        48      midi  ch:0  note on  key:71  vel:100
        0       midi  ch:0  note off  key:76  vel:0
        96      midi  ch:0  note on  key:67  vel:100
        0       midi  ch:0  note off  key:71  vel:0
        96      midi  ch:0  note off  key:67  vel:0
        0       midi  ch:0  note on  key:69  vel:100
        144     midi  ch:0  note off  key:69  vel:0
        0       midi  ch:0  note on  key:81  vel:100
        96      midi  ch:0  note on  key:79  vel:100
        0       midi  ch:0  note off  key:81  vel:0
        48      midi  ch:0  note on  key:76  vel:100
        0       midi  ch:0  note off  key:79  vel:0
        48      midi  ch:0  note on  key:74  vel:100
        0       midi  ch:0  note off  key:76  vel:0
        48      midi  ch:0  note on  key:72  vel:100
        0       midi  ch:0  note off  key:74  vel:0
        48      midi  ch:0  note off  key:72  vel:0
        6163    meta  type:2f  len:0  end
MTrk  len:1807
        0       meta  type:58  len:4  tsig:  4/4 metr:36 32nds:8
        0       meta  type:58  len:4  tsig:  4/4 metr:36 32nds:8
        0       meta  type:3  len:0  track:""
        21504   midi  ch:0  note on  key:53  vel:100
        144     midi  ch:0  note off  key:53  vel:0
        0       midi  ch:0  note on  key:55  vel:100
        192     midi  ch:0  note off  key:55  vel:0
        0       midi  ch:0  note on  key:57  vel:100
        336     midi  ch:0  note on  key:55  vel:100
        0       midi  ch:0  note off  key:57  vel:0
        96      midi  ch:0  note on  key:53  vel:100
        0       midi  ch:0  note off  key:55  vel:0
        144     midi  ch:0  note off  key:53  vel:0
        0       midi  ch:0  note on  key:55  vel:100
        192     midi  ch:0  note on  key:52  vel:100
        0       midi  ch:0  note off  key:55  vel:0
        192     midi  ch:0  note off  key:52  vel:0
        0       midi  ch:0  note on  key:57  vel:100
        240     midi  ch:0  note on  key:53  vel:100
        0       midi  ch:0  note off  key:57  vel:0
        144     midi  ch:0  note off  key:53  vel:0
        0       midi  ch:0  note on  key:55  vel:100
        192     midi  ch:0  note off  key:55  vel:0
        0       midi  ch:0  note on  key:57  vel:100
        336     midi  ch:0  note on  key:55  vel:100
        0       midi  ch:0  note off  key:57  vel:0
        96      midi  ch:0  note on  key:53  vel:100
        0       midi  ch:0  note off  key:55  vel:0
        144     midi  ch:0  note off  key:53  vel:0
        0       midi  ch:0  note on  key:55  vel:100
        192     midi  ch:0  note off  key:55  vel:0
        0       midi  ch:0  note on  key:57  vel:100
        432     midi  ch:0  note off  key:57  vel:0
        0       midi  ch:0  note on  key:57  vel:100
        96      midi  ch:0  note off  key:57  vel:0
        0       midi  ch:0  note on  key:64  vel:100
        48      midi  ch:0  note on  key:59  vel:100
        0       midi  ch:0  note off  key:64  vel:0
        96      midi  ch:0  note off  key:59  vel:0
        0       midi  ch:0  note on  key:64  vel:100
        96      midi  ch:0  note on  key:60  vel:100
        0       midi  ch:0  note off  key:64  vel:0
        144     midi  ch:0  note off  key:60  vel:0
        0       midi  ch:0  note on  key:62  vel:100
        48      midi  ch:0  note off  key:62  vel:0
        0       midi  ch:0  note on  key:64  vel:100
        48      midi  ch:0  note on  key:62  vel:100
        0       midi  ch:0  note off  key:64  vel:0
        96      midi  ch:0  note on  key:55  vel:100
        0       midi  ch:0  note off  key:62  vel:0
        96      midi  ch:0  note off  key:55  vel:0
        0       midi  ch:0  note on  key:57  vel:100
        96      midi  ch:0  note off  key:57  vel:0
        0       midi  ch:0  note on  key:64  vel:100
        48      midi  ch:0  note on  key:59  vel:100
        0       midi  ch:0  note off  key:64  vel:0
        96      midi  ch:0  note on  key:55  vel:100
        0       midi  ch:0  note off  key:59  vel:0
        96      midi  ch:0  note off  key:55  vel:0
        0       midi  ch:0  note on  key:55  vel:100
        96      midi  ch:0  note on  key:52  vel:100
        0       midi  ch:0  note off  key:55  vel:0
        96      midi  ch:0  note off  key:52  vel:0
        0       midi  ch:0  note on  key:69  vel:100
        48      midi  ch:0  note on  key:67  vel:100
        0       midi  ch:0  note off  key:69  vel:0
        48      midi  ch:0  note on  key:64  vel:100
        0       midi  ch:0  note off  key:67  vel:0
        48      midi  ch:0  note on  key:62  vel:100
        0       midi  ch:0  note off  key:64  vel:0
        48      midi  ch:0  note on  key:60  vel:100
        0       midi  ch:0  note off  key:62  vel:0
        48      midi  ch:0  note on  key:57  vel:100
        0       midi  ch:0  note off  key:60  vel:0
        96      midi  ch:0  note off  key:57  vel:0
        0       midi  ch:0  note on  key:64  vel:100
        48      midi  ch:0  note on  key:59  vel:100
        0       midi  ch:0  note off  key:64  vel:0
        96      midi  ch:0  note off  key:59  vel:0
        0       midi  ch:0  note on  key:64  vel:100
        96      midi  ch:0  note on  key:60  vel:100
        0       midi  ch:0  note off  key:64  vel:0
        144     midi  ch:0  note off  key:60  vel:0
        0       midi  ch:0  note on  key:62  vel:100
        48      midi  ch:0  note off  key:62  vel:0
        0       midi  ch:0  note on  key:64  vel:100
        48      midi  ch:0  note on  key:62  vel:100
        0       midi  ch:0  note off  key:64  vel:0
        96      midi  ch:0  note off  key:62  vel:0
        0       midi  ch:0  note on  key:67  vel:100
        96      midi  ch:0  note on  key:57  vel:100
        0       midi  ch:0  note off  key:67  vel:0
        96      midi  ch:0  note off  key:57  vel:0
        0       midi  ch:0  note on  key:64  vel:100
        48      midi  ch:0  note on  key:59  vel:100
        0       midi  ch:0  note off  key:64  vel:0
        96      midi  ch:0  note on  key:55  vel:100
        0       midi  ch:0  note off  key:59  vel:0
        96      midi  ch:0  note off  key:55  vel:0
        0       midi  ch:0  note on  key:57  vel:100
        144     midi  ch:0  note off  key:57  vel:0
        0       midi  ch:0  note on  key:69  vel:100
        96      midi  ch:0  note on  key:67  vel:100
        0       midi  ch:0  note off  key:69  vel:0
        48      midi  ch:0  note on  key:64  vel:100
        0       midi  ch:0  note off  key:67  vel:0
        48      midi  ch:0  note on  key:62  vel:100
        0       midi  ch:0  note off  key:64  vel:0
        48      midi  ch:0  note on  key:60  vel:100
        0       midi  ch:0  note off  key:62  vel:0
        48      midi  ch:0  note on  key:57  vel:100
        0       midi  ch:0  note off  key:60  vel:0
        96      midi  ch:0  note off  key:57  vel:0
        0       midi  ch:0  note on  key:64  vel:100
        48      midi  ch:0  note on  key:59  vel:100
        0       midi  ch:0  note off  key:64  vel:0
        96      midi  ch:0  note off  key:59  vel:0
        0       midi  ch:0  note on  key:64  vel:100
        96      midi  ch:0  note on  key:60  vel:100
        0       midi  ch:0  note off  key:64  vel:0
        144     midi  ch:0  note off  key:60  vel:0
        0       midi  ch:0  note on  key:62  vel:100
        48      midi  ch:0  note off  key:62  vel:0
        0       midi  ch:0  note on  key:64  vel:100
        48      midi  ch:0  note on  key:62  vel:100
        0       midi  ch:0  note off  key:64  vel:0
        96      midi  ch:0  note on  key:55  vel:100
        0       midi  ch:0  note off  key:62  vel:0
        96      midi  ch:0  note off  key:55  vel:0
        0       midi  ch:0  note on  key:57  vel:100
        96      midi  ch:0  note off  key:57  vel:0
        0       midi  ch:0  note on  key:64  vel:100
        48      midi  ch:0  note on  key:59  vel:100
        0       midi  ch:0  note off  key:64  vel:0
        96      midi  ch:0  note on  key:55  vel:100
        0       midi  ch:0  note off  key:59  vel:0
        96      midi  ch:0  note off  key:55  vel:0
        0       midi  ch:0  note on  key:55  vel:100
        96      midi  ch:0  note on  key:52  vel:100
        0       midi  ch:0  note off  key:55  vel:0
        96      midi  ch:0  note off  key:52  vel:0
        0       midi  ch:0  note on  key:69  vel:100
        48      midi  ch:0  note on  key:67  vel:100
        0       midi  ch:0  note off  key:69  vel:0
        48      midi  ch:0  note on  key:64  vel:100
        0       midi  ch:0  note off  key:67  vel:0
        48      midi  ch:0  note on  key:62  vel:100
        0       midi  ch:0  note off  key:64  vel:0
        48      midi  ch:0  note on  key:60  vel:100
        0       midi  ch:0  note off  key:62  vel:0
        48      midi  ch:0  note on  key:57  vel:100
        0       midi  ch:0  note off  key:60  vel:0
        96      midi  ch:0  note off  key:57  vel:0
        0       midi  ch:0  note on  key:64  vel:100
        48      midi  ch:0  note on  key:59  vel:100
        0       midi  ch:0  note off  key:64  vel:0
        96      midi  ch:0  note off  key:59  vel:0
        0       midi  ch:0  note on  key:64  vel:100
        96      midi  ch:0  note on  key:60  vel:100
        0       midi  ch:0  note off  key:64  vel:0
        144     midi  ch:0  note off  key:60  vel:0
        0       midi  ch:0  note on  key:62  vel:100
        48      midi  ch:0  note off  key:62  vel:0
        0       midi  ch:0  note on  key:64  vel:100
        48      midi  ch:0  note on  key:62  vel:100
        0       midi  ch:0  note off  key:64  vel:0
        96      midi  ch:0  note off  key:62  vel:0
        0       midi  ch:0  note on  key:67  vel:100
        96      midi  ch:0  note on  key:57  vel:100
        0       midi  ch:0  note off  key:67  vel:0
        96      midi  ch:0  note off  key:57  vel:0
        0       midi  ch:0  note on  key:64  vel:100
        48      midi  ch:0  note on  key:59  vel:100
        0       midi  ch:0  note off  key:64  vel:0
        96      midi  ch:0  note on  key:55  vel:100
        0       midi  ch:0  note off  key:59  vel:0
        96      midi  ch:0  note off  key:55  vel:0
        0       midi  ch:0  note on  key:57  vel:100
        144     midi  ch:0  note off  key:57  vel:0
        0       midi  ch:0  note on  key:69  vel:100
        96      midi  ch:0  note on  key:67  vel:100
        0       midi  ch:0  note off  key:69  vel:0
        48      midi  ch:0  note on  key:64  vel:100
        0       midi  ch:0  note off  key:67  vel:0
        48      midi  ch:0  note on  key:62  vel:100
        0       midi  ch:0  note off  key:64  vel:0
        48      midi  ch:0  note on  key:60  vel:100
        0       midi  ch:0  note off  key:62  vel:0
        48      midi  ch:0  note off  key:60  vel:0
        15360   midi  ch:0  note on  key:69  vel:100
        96      midi  ch:0  note off  key:69  vel:0
        0       midi  ch:0  note on  key:76  vel:100
        48      midi  ch:0  note on  key:71  vel:100
        0       midi  ch:0  note off  key:76  vel:0
        96      midi  ch:0  note off  key:71  vel:0
        0       midi  ch:0  note on  key:76  vel:100
        96      midi  ch:0  note on  key:72  vel:100
        0       midi  ch:0  note off  key:76  vel:0
        144     midi  ch:0  note off  key:72  vel:0
        0       midi  ch:0  note on  key:74  vel:100
        48      midi  ch:0  note off  key:74  vel:0
        0       midi  ch:0  note on  key:76  vel:100
        48      midi  ch:0  note on  key:74  vel:100
        0       midi  ch:0  note off  key:76  vel:0
        96      midi  ch:0  note on  key:67  vel:100
        0       midi  ch:0  note off  key:74  vel:0
        96      midi  ch:0  note off  key:67  vel:0
        0       midi  ch:0  note on  key:69  vel:100
        96      midi  ch:0  note off  key:69  vel:0
        0       midi  ch:0  note on  key:76  vel:100
        48      midi  ch:0  note on  key:71  vel:100
        0       midi  ch:0  note off  key:76  vel:0
        96      midi  ch:0  note on  key:67  vel:100
        0       midi  ch:0  note off  key:71  vel:0
        96      midi  ch:0  note off  key:67  vel:0
        0       midi  ch:0  note on  key:67  vel:100
        96      midi  ch:0  note on  key:64  vel:100
        0       midi  ch:0  note off  key:67  vel:0
        96      midi  ch:0  note off  key:64  vel:0
        0       midi  ch:0  note on  key:81  vel:100
        48      midi  ch:0  note on  key:79  vel:100
        0       midi  ch:0  note off  key:81  vel:0
        48      midi  ch:0  note on  key:76  vel:100
        0       midi  ch:0  note off  key:79  vel:0
        48      midi  ch:0  note on  key:74  vel:100
        0       midi  ch:0  note off  key:76  vel:0
        48      midi  ch:0  note on  key:72  vel:100
        0       midi  ch:0  note off  key:74  vel:0
        48      midi  ch:0  note on  key:69  vel:100
        0       midi  ch:0  note off  key:72  vel:0
        96      midi  ch:0  note off  key:69  vel:0
        0       midi  ch:0  note on  key:76  vel:100
        48      midi  ch:0  note on  key:71  vel:100
        0       midi  ch:0  note off  key:76  vel:0
        96      midi  ch:0  note off  key:71  vel:0
        0       midi  ch:0  note on  key:76  vel:100
        96      midi  ch:0  note on  key:72  vel:100
        0       midi  ch:0  note off  key:76  vel:0
        144     midi  ch:0  note off  key:72  vel:0
        0       midi  ch:0  note on  key:74  vel:100
        48      midi  ch:0  note off  key:74  vel:0
        0       midi  ch:0  note on  key:76  vel:100
        48      midi  ch:0  note on  key:74  vel:100
        0       midi  ch:0  note off  key:76  vel:0
        96      midi  ch:0  note off  key:74  vel:0
        0       midi  ch:0  note on  key:79  vel:100
        96      midi  ch:0  note on  key:69  vel:100
        0       midi  ch:0  note off  key:79  vel:0
        96      midi  ch:0  note off  key:69  vel:0
        0       midi  ch:0  note on  key:76  vel:100
        48      midi  ch:0  note on  key:71  vel:100
        0       midi  ch:0  note off  key:76  vel:0
        96      midi  ch:0  note on  key:67  vel:100
        0       midi  ch:0  note off  key:71  vel:0
        96      midi  ch:0  note off  key:67  vel:0
        0       midi  ch:0  note on  key:69  vel:100
        144     midi  ch:0  note off  key:69  vel:0
        0       midi  ch:0  note on  key:81  vel:100
        96      midi  ch:0  note on  key:79  vel:100
        0       midi  ch:0  note off  key:81  vel:0
        48      midi  ch:0  note on  key:76  vel:100
        0       midi  ch:0  note off  key:79  vel:0
        48      midi  ch:0  note on  key:74  vel:100
        0       midi  ch:0  note off  key:76  vel:0
        48      midi  ch:0  note on  key:72  vel:100
        0       midi  ch:0  note off  key:74  vel:0
        48      midi  ch:0  note on  key:53  vel:100
        0       midi  ch:0  note off  key:72  vel:0
        144     midi  ch:0  note off  key:53  vel:0
        0       midi  ch:0  note on  key:55  vel:100
        192     midi  ch:0  note off  key:55  vel:0
        0       midi  ch:0  note on  key:57  vel:100
        336     midi  ch:0  note on  key:55  vel:100
        0       midi  ch:0  note off  key:57  vel:0
        96      midi  ch:0  note on  key:53  vel:100
        0       midi  ch:0  note off  key:55  vel:0
        144     midi  ch:0  note off  key:53  vel:0
        0       midi  ch:0  note on  key:55  vel:100
        192     midi  ch:0  note on  key:52  vel:100
        0       midi  ch:0  note off  key:55  vel:0
        240     midi  ch:0  note off  key:52  vel:0
        0       midi  ch:0  note on  key:57  vel:100
        192     midi  ch:0  note off  key:57  vel:0
        0       midi  ch:0  note on  key:57  vel:100
        96      midi  ch:0  note off  key:57  vel:0
        0       midi  ch:0  note on  key:64  vel:100
        48      midi  ch:0  note on  key:59  vel:100
        0       midi  ch:0  note off  key:64  vel:0
        96      midi  ch:0  note off  key:59  vel:0
        0       midi  ch:0  note on  key:64  vel:100
        96      midi  ch:0  note on  key:60  vel:100
        0       midi  ch:0  note off  key:64  vel:0
        144     midi  ch:0  note off  key:60  vel:0
        0       midi  ch:0  note on  key:62  vel:100
        48      midi  ch:0  note off  key:62  vel:0
        0       midi  ch:0  note on  key:64  vel:100
        48      midi  ch:0  note on  key:62  vel:100
        0       midi  ch:0  note off  key:64  vel:0
        96      midi  ch:0  note on  key:55  vel:100
        0       midi  ch:0  note off  key:62  vel:0
        96      midi  ch:0  note off  key:55  vel:0
        0       midi  ch:0  note on  key:57  vel:100
        96      midi  ch:0  note off  key:57  vel:0
        0       midi  ch:0  note on  key:64  vel:100
        48      midi  ch:0  note on  key:59  vel:100
        0       midi  ch:0  note off  key:64  vel:0
        96      midi  ch:0  note on  key:55  vel:100
        0       midi  ch:0  note off  key:59  vel:0
        96      midi  ch:0  note off  key:55  vel:0
        0       midi  ch:0  note on  key:55  vel:100
        96      midi  ch:0  note on  key:52  vel:100
        0       midi  ch:0  note off  key:55  vel:0
        96      midi  ch:0  note off  key:52  vel:0
        0       midi  ch:0  note on  key:69  vel:100
        48      midi  ch:0  note on  key:67  vel:100
        0       midi  ch:0  note off  key:69  vel:0
        48      midi  ch:0  note on  key:64  vel:100
        0       midi  ch:0  note off  key:67  vel:0
        48      midi  ch:0  note on  key:62  vel:100
        0       midi  ch:0  note off  key:64  vel:0
        48      midi  ch:0  note on  key:60  vel:100
        0       midi  ch:0  note off  key:62  vel:0
        48      midi  ch:0  note on  key:57  vel:100
        0       midi  ch:0  note off  key:60  vel:0
        96      midi  ch:0  note off  key:57  vel:0
        0       midi  ch:0  note on  key:64  vel:100
        48      midi  ch:0  note on  key:59  vel:100
        0       midi  ch:0  note off  key:64  vel:0
        96      midi  ch:0  note off  key:59  vel:0
        0       midi  ch:0  note on  key:64  vel:100
        96      midi  ch:0  note on  key:60  vel:100
        0       midi  ch:0  note off  key:64  vel:0
        144     midi  ch:0  note off  key:60  vel:0
        0       midi  ch:0  note on  key:62  vel:100
        48      midi  ch:0  note off  key:62  vel:0
        0       midi  ch:0  note on  key:64  vel:100
        48      midi  ch:0  note on  key:62  vel:100
        0       midi  ch:0  note off  key:64  vel:0
        96      midi  ch:0  note off  key:62  vel:0
        0       midi  ch:0  note on  key:67  vel:100
        96      midi  ch:0  note on  key:57  vel:100
        0       midi  ch:0  note off  key:67  vel:0
        96      midi  ch:0  note off  key:57  vel:0
        0       midi  ch:0  note on  key:64  vel:100
        48      midi  ch:0  note on  key:59  vel:100
        0       midi  ch:0  note off  key:64  vel:0
        96      midi  ch:0  note on  key:55  vel:100
        0       midi  ch:0  note off  key:59  vel:0
        96      midi  ch:0  note off  key:55  vel:0
        0       midi  ch:0  note on  key:57  vel:100
        144     midi  ch:0  note off  key:57  vel:0
        0       midi  ch:0  note on  key:69  vel:100
        96      midi  ch:0  note on  key:67  vel:100
        0       midi  ch:0  note off  key:69  vel:0
        48      midi  ch:0  note on  key:64  vel:100
        0       midi  ch:0  note off  key:67  vel:0
        48      midi  ch:0  note on  key:62  vel:100
        0       midi  ch:0  note off  key:64  vel:0
        48      midi  ch:0  note on  key:60  vel:100
        0       midi  ch:0  note off  key:62  vel:0
        48      midi  ch:0  note on  key:57  vel:100
        0       midi  ch:0  note off  key:60  vel:0
        96      midi  ch:0  note off  key:57  vel:0
        0       midi  ch:0  note on  key:64  vel:100
        48      midi  ch:0  note on  key:59  vel:100
        0       midi  ch:0  note off  key:64  vel:0
        96      midi  ch:0  note off  key:59  vel:0
        0       midi  ch:0  note on  key:64  vel:100
        96      midi  ch:0  note on  key:60  vel:100
        0       midi  ch:0  note off  key:64  vel:0
        144     midi  ch:0  note off  key:60  vel:0
        0       midi  ch:0  note on  key:62  vel:100
        48      midi  ch:0  note off  key:62  vel:0
        0       midi  ch:0  note on  key:64  vel:100
        48      midi  ch:0  note on  key:62  vel:100
        0       midi  ch:0  note off  key:64  vel:0
        96      midi  ch:0  note on  key:55  vel:100
        0       midi  ch:0  note off  key:62  vel:0
        96      midi  ch:0  note off  key:55  vel:0
        0       midi  ch:0  note on  key:57  vel:100
        96      midi  ch:0  note off  key:57  vel:0
        0       midi  ch:0  note on  key:64  vel:100
        48      midi  ch:0  note on  key:59  vel:100
        0       midi  ch:0  note off  key:64  vel:0
        96      midi  ch:0  note on  key:55  vel:100
        0       midi  ch:0  note off  key:59  vel:0
        96      midi  ch:0  note off  key:55  vel:0
        0       midi  ch:0  note on  key:55  vel:100
        96      midi  ch:0  note on  key:52  vel:100
        0       midi  ch:0  note off  key:55  vel:0
        96      midi  ch:0  note off  key:52  vel:0
        0       midi  ch:0  note on  key:69  vel:100
        48      midi  ch:0  note on  key:67  vel:100
        0       midi  ch:0  note off  key:69  vel:0
        48      midi  ch:0  note on  key:64  vel:100
        0       midi  ch:0  note off  key:67  vel:0
        48      midi  ch:0  note on  key:62  vel:100
        0       midi  ch:0  note off  key:64  vel:0
        48      midi  ch:0  note on  key:60  vel:100
        0       midi  ch:0  note off  key:62  vel:0
        48      midi  ch:0  note on  key:57  vel:100
        0       midi  ch:0  note off  key:60  vel:0
        96      midi  ch:0  note off  key:57  vel:0
        0       midi  ch:0  note on  key:64  vel:100
        48      midi  ch:0  note on  key:59  vel:100
        0       midi  ch:0  note off  key:64  vel:0
        96      midi  ch:0  note off  key:59  vel:0
        0       midi  ch:0  note on  key:64  vel:100
        96      midi  ch:0  note on  key:60  vel:100
        0       midi  ch:0  note off  key:64  vel:0
        144     midi  ch:0  note off  key:60  vel:0
        0       midi  ch:0  note on  key:62  vel:100
        48      midi  ch:0  note off  key:62  vel:0
        0       midi  ch:0  note on  key:64  vel:100
        48      midi  ch:0  note on  key:62  vel:100
        0       midi  ch:0  note off  key:64  vel:0
        96      midi  ch:0  note off  key:62  vel:0
        0       midi  ch:0  note on  key:67  vel:100
        96      midi  ch:0  note on  key:57  vel:100
        0       midi  ch:0  note off  key:67  vel:0
        96      midi  ch:0  note off  key:57  vel:0
        0       midi  ch:0  note on  key:64  vel:100
        48      midi  ch:0  note on  key:59  vel:100
        0       midi  ch:0  note off  key:64  vel:0
        96      midi  ch:0  note on  key:55  vel:100
        0       midi  ch:0  note off  key:59  vel:0
        96      midi  ch:0  note off  key:55  vel:0
        0       midi  ch:0  note on  key:57  vel:100
        144     midi  ch:0  note off  key:57  vel:0
        0       midi  ch:0  note on  key:69  vel:100
        96      midi  ch:0  note on  key:67  vel:100
        0       midi  ch:0  note off  key:69  vel:0
        48      midi  ch:0  note on  key:64  vel:100
        0       midi  ch:0  note off  key:67  vel:0
        48      midi  ch:0  note on  key:62  vel:100
        0       midi  ch:0  note off  key:64  vel:0
        48      midi  ch:0  note on  key:60  vel:100
        0       midi  ch:0  note off  key:62  vel:0
        48      midi  ch:0  note off  key:60  vel:0
        6163    meta  type:2f  len:0  end
MTrk  len:2780
        0       meta  type:58  len:4  tsig:  4/4 metr:36 32nds:8
        0       meta  type:58  len:4  tsig:  4/4 metr:36 32nds:8
        0       meta  type:3  len:0  track:""
        33792   midi  ch:0  note on  key:69  vel:100
        48      midi  ch:0  note off  key:69  vel:0
        0       midi  ch:0  note on  key:72  vel:100
        0       midi  ch:0  note on  key:76  vel:100
        24      midi  ch:0  note off  key:72  vel:0
        0       midi  ch:0  note off  key:76  vel:0
        24      midi  ch:0  note on  key:69  vel:100
        48      midi  ch:0  note off  key:69  vel:0
        0       midi  ch:0  note on  key:72  vel:100
        0       midi  ch:0  note on  key:76  vel:100
        24      midi  ch:0  note off  key:72  vel:0
        0       midi  ch:0  note off  key:76  vel:0
        24      midi  ch:0  note on  key:69  vel:100
        48      midi  ch:0  note off  key:69  vel:0
        0       midi  ch:0  note on  key:72  vel:100
        0       midi  ch:0  note on  key:76  vel:100
        24      midi  ch:0  note off  key:72  vel:0
        0       midi  ch:0  note off  key:76  vel:0
        24      midi  ch:0  note on  key:69  vel:100
        48      midi  ch:0  note off  key:69  vel:0
        0       midi  ch:0  note on  key:72  vel:100
        0       midi  ch:0  note on  key:76  vel:100
        24      midi  ch:0  note off  key:72  vel:0
        0       midi  ch:0  note off  key:76  vel:0
        24      midi  ch:0  note on  key:69  vel:100
        48      midi  ch:0  note off  key:69  vel:0
        0       midi  ch:0  note on  key:72  vel:100
        0       midi  ch:0  note on  key:76  vel:100
        24      midi  ch:0  note off  key:72  vel:0
        0       midi  ch:0  note off  key:76  vel:0
        24      midi  ch:0  note on  key:69  vel:100
        48      midi  ch:0  note on  key:67  vel:100
        0       midi  ch:0  note off  key:69  vel:0
        0       midi  ch:0  note on  key:72  vel:100
        0       midi  ch:0  note on  key:76  vel:100
        24      midi  ch:0  note off  key:72  vel:0
        0       midi  ch:0  note off  key:76  vel:0
        24      midi  ch:0  note off  key:67  vel:0
        0       midi  ch:0  note on  key:69  vel:100
        0       midi  ch:0  note on  key:74  vel:100
        0       midi  ch:0  note on  key:77  vel:100
        24      midi  ch:0  note off  key:74  vel:0
        0       midi  ch:0  note off  key:77  vel:0
        24      midi  ch:0  note on  key:65  vel:100
        0       midi  ch:0  note off  key:69  vel:0
        0       midi  ch:0  note on  key:72  vel:100
        0       midi  ch:0  note on  key:76  vel:100
        24      midi  ch:0  note off  key:72  vel:0
        0       midi  ch:0  note off  key:76  vel:0
        24      midi  ch:0  note on  key:64  vel:100
        0       midi  ch:0  note off  key:65  vel:0
        0       midi  ch:0  note on  key:67  vel:100
        0       midi  ch:0  note on  key:72  vel:100
        24      midi  ch:0  note off  key:67  vel:0
        0       midi  ch:0  note off  key:72  vel:0
        24      midi  ch:0  note on  key:60  vel:100
        0       midi  ch:0  note off  key:64  vel:0
        0       midi  ch:0  note on  key:72  vel:100
        0       midi  ch:0  note on  key:76  vel:100
        24      midi  ch:0  note off  key:72  vel:0
        0       midi  ch:0  note off  key:76  vel:0
        24      midi  ch:0  note off  key:60  vel:0
        0       midi  ch:0  note on  key:69  vel:100
        48      midi  ch:0  note off  key:69  vel:0
        0       midi  ch:0  note on  key:72  vel:100
        0       midi  ch:0  note on  key:76  vel:100
        24      midi  ch:0  note off  key:72  vel:0
        0       midi  ch:0  note off  key:76  vel:0
        24      midi  ch:0  note on  key:69  vel:100
        48      midi  ch:0  note off  key:69  vel:0
        0       midi  ch:0  note on  key:72  vel:100
        0       midi  ch:0  note on  key:76  vel:100
        24      midi  ch:0  note off  key:72  vel:0
        0       midi  ch:0  note off  key:76  vel:0
        24      midi  ch:0  note on  key:69  vel:100
        48      midi  ch:0  note off  key:69  vel:0
        0       midi  ch:0  note on  key:72  vel:100
        0       midi  ch:0  note on  key:76  vel:100
        24      midi  ch:0  note off  key:72  vel:0
        0       midi  ch:0  note off  key:76  vel:0
        24      midi  ch:0  note on  key:69  vel:100
        48      midi  ch:0  note off  key:69  vel:0
        0       midi  ch:0  note on  key:72  vel:100
        0       midi  ch:0  note on  key:76  vel:100
        24      midi  ch:0  note off  key:72  vel:0
        0       midi  ch:0  note off  key:76  vel:0
        24      midi  ch:0  note on  key:69  vel:100
        48      midi  ch:0  note off  key:69  vel:0
        0       midi  ch:0  note on  key:72  vel:100
        0       midi  ch:0  note on  key:76  vel:100
        24      midi  ch:0  note off  key:72  vel:0
        0       midi  ch:0  note off  key:76  vel:0
        24      midi  ch:0  note on  key:69  vel:100
        48      midi  ch:0  note on  key:67  vel:100
        0       midi  ch:0  note off  key:69  vel:0
        0       midi  ch:0  note on  key:72  vel:100
        0       midi  ch:0  note on  key:76  vel:100
        24      midi  ch:0  note off  key:72  vel:0
        0       midi  ch:0  note off  key:76  vel:0
        24      midi  ch:0  note off  key:67  vel:0
        0       midi  ch:0  note on  key:69  vel:100
        0       midi  ch:0  note on  key:74  vel:100
        0       midi  ch:0  note on  key:77  vel:100
        24      midi  ch:0  note off  key:74  vel:0
        0       midi  ch:0  note off  key:77  vel:0
        24      midi  ch:0  note on  key:65  vel:100
        0       midi  ch:0  note off  key:69  vel:0
        0       midi  ch:0  note on  key:72  vel:100
        0       midi  ch:0  note on  key:76  vel:100
        24      midi  ch:0  note off  key:72  vel:0
        0       midi  ch:0  note off  key:76  vel:0
        24      midi  ch:0  note on  key:64  vel:100
        0       midi  ch:0  note off  key:65  vel:0
        0       midi  ch:0  note on  key:67  vel:100
        0       midi  ch:0  note on  key:72  vel:100
        24      midi  ch:0  note off  key:67  vel:0
        0       midi  ch:0  note off  key:72  vel:0
        24      midi  ch:0  note on  key:60  vel:100
        0       midi  ch:0  note off  key:64  vel:0
        0       midi  ch:0  note on  key:72  vel:100
        0       midi  ch:0  note on  key:76  vel:100
        24      midi  ch:0  note off  key:72  vel:0
        0       midi  ch:0  note off  key:76  vel:0
        24      midi  ch:0  note off  key:60  vel:0
        0       midi  ch:0  note on  key:69  vel:100
        48      midi  ch:0  note off  key:69  vel:0
        0       midi  ch:0  note on  key:72  vel:100
        0       midi  ch:0  note on  key:76  vel:100
        24      midi  ch:0  note off  key:72  vel:0
        0       midi  ch:0  note off  key:76  vel:0
        24      midi  ch:0  note on  key:69  vel:100
        48      midi  ch:0  note off  key:69  vel:0
        0       midi  ch:0  note on  key:72  vel:100
        0       midi  ch:0  note on  key:76  vel:100
        24      midi  ch:0  note off  key:72  vel:0
        0       midi  ch:0  note off  key:76  vel:0
        24      midi  ch:0  note on  key:69  vel:100
        48      midi  ch:0  note off  key:69  vel:0
        0       midi  ch:0  note on  key:72  vel:100
        0       midi  ch:0  note on  key:76  vel:100
        24      midi  ch:0  note off  key:72  vel:0
        0       midi  ch:0  note off  key:76  vel:0
        24      midi  ch:0  note on  key:69  vel:100
        48      midi  ch:0  note off  key:69  vel:0
        0       midi  ch:0  note on  key:72  vel:100
        0       midi  ch:0  note on  key:76  vel:100
        24      midi  ch:0  note off  key:72  vel:0
        0       midi  ch:0  note off  key:76  vel:0
        24      midi  ch:0  note on  key:69  vel:100
        48      midi  ch:0  note off  key:69  vel:0
        0       midi  ch:0  note on  key:74  vel:100
        0       midi  ch:0  note on  key:77  vel:100
        24      midi  ch:0  note off  key:74  vel:0
        0       midi  ch:0  note off  key:77  vel:0
        24      midi  ch:0  note on  key:69  vel:100
        48      midi  ch:0  note on  key:67  vel:100
        0       midi  ch:0  note off  key:69  vel:0
        0       midi  ch:0  note on  key:72  vel:100
        0       midi  ch:0  note on  key:76  vel:100
        24      midi  ch:0  note off  key:72  vel:0
        0       midi  ch:0  note off  key:76  vel:0
        24      midi  ch:0  note off  key:67  vel:0
        0       midi  ch:0  note on  key:69  vel:100
        0       midi  ch:0  note on  key:74  vel:100
        0       midi  ch:0  note on  key:77  vel:100
        24      midi  ch:0  note off  key:74  vel:0
        0       midi  ch:0  note off  key:77  vel:0
        24      midi  ch:0  note on  key:65  vel:100
        0       midi  ch:0  note off  key:69  vel:0
        0       midi  ch:0  note on  key:72  vel:100
        0       midi  ch:0  note on  key:76  vel:100
        24      midi  ch:0  note off  key:72  vel:0
        0       midi  ch:0  note off  key:76  vel:0
        24      midi  ch:0  note on  key:64  vel:100
        0       midi  ch:0  note off  key:65  vel:0
        0       midi  ch:0  note on  key:67  vel:100
        0       midi  ch:0  note on  key:72  vel:100
        24      midi  ch:0  note off  key:67  vel:0
        0       midi  ch:0  note off  key:72  vel:0
        24      midi  ch:0  note on  key:60  vel:100
        0       midi  ch:0  note off  key:64  vel:0
        0       midi  ch:0  note on  key:72  vel:100
        0       midi  ch:0  note on  key:76  vel:100
        24      midi  ch:0  note off  key:72  vel:0
        0       midi  ch:0  note off  key:76  vel:0
        24      midi  ch:0  note off  key:60  vel:0
        0       midi  ch:0  note on  key:69  vel:100
        48      midi  ch:0  note off  key:69  vel:0
        0       midi  ch:0  note on  key:72  vel:100
        0       midi  ch:0  note on  key:76  vel:100
        24      midi  ch:0  note off  key:72  vel:0
        0       midi  ch:0  note off  key:76  vel:0
        24      midi  ch:0  note on  key:69  vel:100
        48      midi  ch:0  note off  key:69  vel:0
        0       midi  ch:0  note on  key:72  vel:100
        0       midi  ch:0  note on  key:76  vel:100
        24      midi  ch:0  note off  key:72  vel:0
        0       midi  ch:0  note off  key:76  vel:0
        24      midi  ch:0  note on  key:69  vel:100
        48      midi  ch:0  note off  key:69  vel:0
        0       midi  ch:0  note on  key:72  vel:100
        0       midi  ch:0  note on  key:76  vel:100
        24      midi  ch:0  note off  key:72  vel:0
        0       midi  ch:0  note off  key:76  vel:0
        24      midi  ch:0  note on  key:69  vel:100
        48      midi  ch:0  note off  key:69  vel:0
        0       midi  ch:0  note on  key:72  vel:100
        0       midi  ch:0  note on  key:76  vel:100
        24      midi  ch:0  note off  key:72  vel:0
        0       midi  ch:0  note off  key:76  vel:0
        24      midi  ch:0  note on  key:69  vel:100
        48      midi  ch:0  note off  key:69  vel:0
        0       midi  ch:0  note on  key:72  vel:100
        0       midi  ch:0  note on  key:76  vel:100
        24      midi  ch:0  note off  key:72  vel:0
        0       midi  ch:0  note off  key:76  vel:0
        24      midi  ch:0  note on  key:69  vel:100
        48      midi  ch:0  note on  key:67  vel:100
        0       midi  ch:0  note off  key:69  vel:0
        0       midi  ch:0  note on  key:72  vel:100
        0       midi  ch:0  note on  key:76  vel:100
        48      midi  ch:0  note off  key:67  vel:0
        0       midi  ch:0  note on  key:69  vel:100
        0       midi  ch:0  note off  key:72  vel:0
        0       midi  ch:0  note on  key:74  vel:100
        0       midi  ch:0  note off  key:76  vel:0
        0       midi  ch:0  note on  key:77  vel:100
        48      midi  ch:0  note on  key:65  vel:100
        0       midi  ch:0  note off  key:69  vel:0
        0       midi  ch:0  note on  key:72  vel:100
        0       midi  ch:0  note off  key:74  vel:0
        0       midi  ch:0  note on  key:76  vel:100
        0       midi  ch:0  note off  key:77  vel:0
        48      midi  ch:0  note on  key:64  vel:100
        0       midi  ch:0  note off  key:65  vel:0
        0       midi  ch:0  note on  key:67  vel:100
        0       midi  ch:0  note off  key:72  vel:0
        0       midi  ch:0  note on  key:72  vel:100
        0       midi  ch:0  note off  key:76  vel:0
        48      midi  ch:0  note on  key:60  vel:100
        0       midi  ch:0  note off  key:64  vel:0
        0       midi  ch:0  note off  key:67  vel:0
        0       midi  ch:0  note off  key:72  vel:0
        0       midi  ch:0  note on  key:72  vel:100
        0       midi  ch:0  note on  key:76  vel:100
        48      midi  ch:0  note off  key:60  vel:0
        0       midi  ch:0  note on  key:69  vel:100
        0       midi  ch:0  note off  key:72  vel:0
        0       midi  ch:0  note off  key:76  vel:0
        48      midi  ch:0  note off  key:69  vel:0
        0       midi  ch:0  note on  key:72  vel:100
        0       midi  ch:0  note on  key:76  vel:100
        24      midi  ch:0  note off  key:72  vel:0
        0       midi  ch:0  note off  key:76  vel:0
        24      midi  ch:0  note on  key:69  vel:100
        48      midi  ch:0  note off  key:69  vel:0
        0       midi  ch:0  note on  key:72  vel:100
        0       midi  ch:0  note on  key:76  vel:100
        24      midi  ch:0  note off  key:72  vel:0
        0       midi  ch:0  note off  key:76  vel:0
        24      midi  ch:0  note on  key:69  vel:100
        48      midi  ch:0  note off  key:69  vel:0
        0       midi  ch:0  note on  key:72  vel:100
        0       midi  ch:0  note on  key:76  vel:100
        24      midi  ch:0  note off  key:72  vel:0
        0       midi  ch:0  note off  key:76  vel:0
        24      midi  ch:0  note on  key:69  vel:100
        48      midi  ch:0  note off  key:69  vel:0
        0       midi  ch:0  note on  key:72  vel:100
        0       midi  ch:0  note on  key:76  vel:100
        24      midi  ch:0  note off  key:72  vel:0
        0       midi  ch:0  note off  key:76  vel:0
        24      midi  ch:0  note on  key:69  vel:100
        48      midi  ch:0  note off  key:69  vel:0
        0       midi  ch:0  note on  key:71  vel:100
        0       midi  ch:0  note on  key:76  vel:100
        24      midi  ch:0  note off  key:71  vel:0
        0       midi  ch:0  note off  key:76  vel:0
        24      midi  ch:0  note on  key:69  vel:100
        48      midi  ch:0  note off  key:69  vel:0
        0       midi  ch:0  note on  key:71  vel:100
        0       midi  ch:0  note on  key:76  vel:100
        24      midi  ch:0  note off  key:71  vel:0
        0       midi  ch:0  note off  key:76  vel:0
        24      midi  ch:0  note on  key:69  vel:100
        48      midi  ch:0  note off  key:69  vel:0
        0       midi  ch:0  note on  key:71  vel:100
        0       midi  ch:0  note on  key:76  vel:100
        24      midi  ch:0  note off  key:71  vel:0
        0       midi  ch:0  note off  key:76  vel:0
        24      midi  ch:0  note on  key:69  vel:100
        48      midi  ch:0  note off  key:69  vel:0
        0       midi  ch:0  note on  key:71  vel:100
        0       midi  ch:0  note on  key:76  vel:100
        24      midi  ch:0  note off  key:71  vel:0
        0       midi  ch:0  note off  key:76  vel:0
        24      midi  ch:0  note on  key:71  vel:100
        48      midi  ch:0  note off  key:71  vel:0
        0       midi  ch:0  note on  key:74  vel:100
        0       midi  ch:0  note on  key:77  vel:100
        24      midi  ch:0  note off  key:74  vel:0
        0       midi  ch:0  note off  key:77  vel:0
        24      midi  ch:0  note on  key:71  vel:100
        48      midi  ch:0  note off  key:71  vel:0
        0       midi  ch:0  note on  key:74  vel:100
        0       midi  ch:0  note on  key:77  vel:100
        24      midi  ch:0  note off  key:74  vel:0
        0       midi  ch:0  note off  key:77  vel:0
        24      midi  ch:0  note on  key:71  vel:100
        48      midi  ch:0  note off  key:71  vel:0
        0       midi  ch:0  note on  key:74  vel:100
        0       midi  ch:0  note on  key:77  vel:100
        24      midi  ch:0  note off  key:74  vel:0
        0       midi  ch:0  note off  key:77  vel:0
        24      midi  ch:0  note on  key:71  vel:100
        48      midi  ch:0  note off  key:71  vel:0
        0       midi  ch:0  note on  key:74  vel:100
        0       midi  ch:0  note on  key:77  vel:100
        24      midi  ch:0  note off  key:74  vel:0
        0       midi  ch:0  note off  key:77  vel:0
        24      midi  ch:0  note on  key:69  vel:100
        48      midi  ch:0  note off  key:69  vel:0
        0       midi  ch:0  note on  key:72  vel:100
        0       midi  ch:0  note on  key:76  vel:100
        24      midi  ch:0  note off  key:72  vel:0
        0       midi  ch:0  note off  key:76  vel:0
        24      midi  ch:0  note on  key:69  vel:100
        48      midi  ch:0  note on  key:67  vel:100
        0       midi  ch:0  note off  key:69  vel:0
        0       midi  ch:0  note on  key:72  vel:100
        0       midi  ch:0  note on  key:76  vel:100
        24      midi  ch:0  note off  key:72  vel:0
        0       midi  ch:0  note off  key:76  vel:0
        24      midi  ch:0  note off  key:67  vel:0
        0       midi  ch:0  note on  key:69  vel:100
        0       midi  ch:0  note on  key:74  vel:100
        0       midi  ch:0  note on  key:77  vel:100
        24      midi  ch:0  note off  key:74  vel:0
        0       midi  ch:0  note off  key:77  vel:0
        24      midi  ch:0  note on  key:65  vel:100
        0       midi  ch:0  note off  key:69  vel:0
        0       midi  ch:0  note on  key:72  vel:100
        0       midi  ch:0  note on  key:76  vel:100
        24      midi  ch:0  note off  key:72  vel:0
        0       midi  ch:0  note off  key:76  vel:0
        24      midi  ch:0  note on  key:64  vel:100
        0       midi  ch:0  note off  key:65  vel:0
        0       midi  ch:0  note on  key:67  vel:100
        0       midi  ch:0  note on  key:72  vel:100
        24      midi  ch:0  note off  key:67  vel:0
        0       midi  ch:0  note off  key:72  vel:0
        24      midi  ch:0  note on  key:60  vel:100
        0       midi  ch:0  note off  key:64  vel:0
        0       midi  ch:0  note on  key:72  vel:100
        0       midi  ch:0  note on  key:76  vel:100
        24      midi  ch:0  note off  key:72  vel:0
        0       midi  ch:0  note off  key:76  vel:0
        24      midi  ch:0  note off  key:60  vel:0
        0       midi  ch:0  note on  key:69  vel:100
        48      midi  ch:0  note off  key:69  vel:0
        0       midi  ch:0  note on  key:72  vel:100
        0       midi  ch:0  note on  key:76  vel:100
        24      midi  ch:0  note off  key:72  vel:0
        0       midi  ch:0  note off  key:76  vel:0
        24      midi  ch:0  note on  key:69  vel:100
        48      midi  ch:0  note off  key:69  vel:0
        0       midi  ch:0  note on  key:72  vel:100
        0       midi  ch:0  note on  key:76  vel:100
        24      midi  ch:0  note off  key:72  vel:0
        0       midi  ch:0  note off  key:76  vel:0
        24      midi  ch:0  note on  key:69  vel:100
        48      midi  ch:0  note off  key:69  vel:0
        0       midi  ch:0  note on  key:72  vel:100
        0       midi  ch:0  note on  key:76  vel:100
        24      midi  ch:0  note off  key:72  vel:0
        0       midi  ch:0  note off  key:76  vel:0
        24      midi  ch:0  note on  key:69  vel:100
        48      midi  ch:0  note off  key:69  vel:0
        0       midi  ch:0  note on  key:72  vel:100
        0       midi  ch:0  note on  key:76  vel:100
        24      midi  ch:0  note off  key:72  vel:0
        0       midi  ch:0  note off  key:76  vel:0
        24      midi  ch:0  note on  key:69  vel:100
        48      midi  ch:0  note off  key:69  vel:0
        0       midi  ch:0  note on  key:71  vel:100
        0       midi  ch:0  note on  key:76  vel:100
        24      midi  ch:0  note off  key:71  vel:0
        0       midi  ch:0  note off  key:76  vel:0
        24      midi  ch:0  note on  key:69  vel:100
        48      midi  ch:0  note off  key:69  vel:0
        0       midi  ch:0  note on  key:71  vel:100
        0       midi  ch:0  note on  key:76  vel:100
        24      midi  ch:0  note off  key:71  vel:0
        0       midi  ch:0  note off  key:76  vel:0
        24      midi  ch:0  note on  key:69  vel:100
        48      midi  ch:0  note off  key:69  vel:0
        0       midi  ch:0  note on  key:71  vel:100
        0       midi  ch:0  note on  key:76  vel:100
        24      midi  ch:0  note off  key:71  vel:0
        0       midi  ch:0  note off  key:76  vel:0
        24      midi  ch:0  note on  key:69  vel:100
        48      midi  ch:0  note off  key:69  vel:0
        0       midi  ch:0  note on  key:71  vel:100
        0       midi  ch:0  note on  key:76  vel:100
        24      midi  ch:0  note off  key:71  vel:0
        0       midi  ch:0  note off  key:76  vel:0
        24      midi  ch:0  note on  key:71  vel:100
        48      midi  ch:0  note off  key:71  vel:0
        0       midi  ch:0  note on  key:74  vel:100
        0       midi  ch:0  note on  key:77  vel:100
        24      midi  ch:0  note off  key:74  vel:0
        0       midi  ch:0  note off  key:77  vel:0
        24      midi  ch:0  note on  key:71  vel:100
        48      midi  ch:0  note off  key:71  vel:0
        0       midi  ch:0  note on  key:74  vel:100
        0       midi  ch:0  note on  key:77  vel:100
        24      midi  ch:0  note off  key:74  vel:0
        0       midi  ch:0  note off  key:77  vel:0
        24      midi  ch:0  note on  key:71  vel:100
        48      midi  ch:0  note off  key:71  vel:0
        0       midi  ch:0  note on  key:74  vel:100
        0       midi  ch:0  note on  key:77  vel:100
        24      midi  ch:0  note off  key:74  vel:0
        0       midi  ch:0  note off  key:77  vel:0
        24      midi  ch:0  note on  key:71  vel:100
        48      midi  ch:0  note off  key:71  vel:0
        0       midi  ch:0  note on  key:74  vel:100
        0       midi  ch:0  note on  key:77  vel:100
        24      midi  ch:0  note off  key:74  vel:0
        0       midi  ch:0  note off  key:77  vel:0
        24      midi  ch:0  note on  key:69  vel:100
        48      midi  ch:0  note off  key:69  vel:0
        0       midi  ch:0  note on  key:72  vel:100
        0       midi  ch:0  note on  key:76  vel:100
        24      midi  ch:0  note off  key:72  vel:0
        0       midi  ch:0  note off  key:76  vel:0
        24      midi  ch:0  note on  key:69  vel:100
        48      midi  ch:0  note on  key:67  vel:100
        0       midi  ch:0  note off  key:69  vel:0
        0       midi  ch:0  note on  key:72  vel:100
        0       midi  ch:0  note on  key:76  vel:100
        24      midi  ch:0  note off  key:72  vel:0
        0       midi  ch:0  note off  key:76  vel:0
        24      midi  ch:0  note off  key:67  vel:0
        0       midi  ch:0  note on  key:69  vel:100
        0       midi  ch:0  note on  key:74  vel:100
        0       midi  ch:0  note on  key:77  vel:100
        24      midi  ch:0  note off  key:74  vel:0
        0       midi  ch:0  note off  key:77  vel:0
        24      midi  ch:0  note on  key:65  vel:100
        0       midi  ch:0  note off  key:69  vel:0
        0       midi  ch:0  note on  key:72  vel:100
        0       midi  ch:0  note on  key:76  vel:100
        24      midi  ch:0  note off  key:72  vel:0
        0       midi  ch:0  note off  key:76  vel:0
        24      midi  ch:0  note on  key:64  vel:100
        0       midi  ch:0  note off  key:65  vel:0
        0       midi  ch:0  note on  key:67  vel:100
        0       midi  ch:0  note on  key:72  vel:100
        24      midi  ch:0  note off  key:67  vel:0
        0       midi  ch:0  note off  key:72  vel:0
        24      midi  ch:0  note on  key:60  vel:100
        0       midi  ch:0  note off  key:64  vel:0
        0       midi  ch:0  note on  key:72  vel:100
        0       midi  ch:0  note on  key:76  vel:100
        24      midi  ch:0  note off  key:72  vel:0
        0       midi  ch:0  note off  key:76  vel:0
        24      midi  ch:0  note off  key:60  vel:0
        0       midi  ch:0  note on  key:69  vel:100
        48      midi  ch:0  note off  key:69  vel:0
        0       midi  ch:0  note on  key:72  vel:100
        0       midi  ch:0  note on  key:76  vel:100
        24      midi  ch:0  note off  key:72  vel:0
        0       midi  ch:0  note off  key:76  vel:0
        24      midi  ch:0  note on  key:69  vel:100
        48      midi  ch:0  note off  key:69  vel:0
        0       midi  ch:0  note on  key:72  vel:100
        0       midi  ch:0  note on  key:76  vel:100
        24      midi  ch:0  note off  key:72  vel:0
        0       midi  ch:0  note off  key:76  vel:0
        24      midi  ch:0  note on  key:69  vel:100
        48      midi  ch:0  note off  key:69  vel:0
        0       midi  ch:0  note on  key:72  vel:100
        0       midi  ch:0  note on  key:76  vel:100
        24      midi  ch:0  note off  key:72  vel:0
        0       midi  ch:0  note off  key:76  vel:0
        24      midi  ch:0  note on  key:69  vel:100
        48      midi  ch:0  note off  key:69  vel:0
        0       midi  ch:0  note on  key:72  vel:100
        0       midi  ch:0  note on  key:76  vel:100
        24      midi  ch:0  note off  key:72  vel:0
        0       midi  ch:0  note off  key:76  vel:0
        24      midi  ch:0  note on  key:69  vel:100
        48      midi  ch:0  note off  key:69  vel:0
        0       midi  ch:0  note on  key:71  vel:100
        0       midi  ch:0  note on  key:76  vel:100
        24      midi  ch:0  note off  key:71  vel:0
        0       midi  ch:0  note off  key:76  vel:0
        24      midi  ch:0  note on  key:69  vel:100
        48      midi  ch:0  note off  key:69  vel:0
        0       midi  ch:0  note on  key:71  vel:100
        0       midi  ch:0  note on  key:76  vel:100
        24      midi  ch:0  note off  key:71  vel:0
        0       midi  ch:0  note off  key:76  vel:0
        24      midi  ch:0  note on  key:69  vel:100
        48      midi  ch:0  note off  key:69  vel:0
        0       midi  ch:0  note on  key:71  vel:100
        0       midi  ch:0  note on  key:76  vel:100
        24      midi  ch:0  note off  key:71  vel:0
        0       midi  ch:0  note off  key:76  vel:0
        24      midi  ch:0  note on  key:69  vel:100
        48      midi  ch:0  note off  key:69  vel:0
        0       midi  ch:0  note on  key:71  vel:100
        0       midi  ch:0  note on  key:76  vel:100
        24      midi  ch:0  note off  key:71  vel:0
        0       midi  ch:0  note off  key:76  vel:0
        24      midi  ch:0  note on  key:71  vel:100
        48      midi  ch:0  note off  key:71  vel:0
        0       midi  ch:0  note on  key:74  vel:100
        0       midi  ch:0  note on  key:77  vel:100
        24      midi  ch:0  note off  key:74  vel:0
        0       midi  ch:0  note off  key:77  vel:0
        24      midi  ch:0  note on  key:71  vel:100
        48      midi  ch:0  note off  key:71  vel:0
        0       midi  ch:0  note on  key:74  vel:100
        0       midi  ch:0  note on  key:77  vel:100
        24      midi  ch:0  note off  key:74  vel:0
        0       midi  ch:0  note off  key:77  vel:0
        24      midi  ch:0  note on  key:71  vel:100
        48      midi  ch:0  note off  key:71  vel:0
        0       midi  ch:0  note on  key:74  vel:100
        0       midi  ch:0  note on  key:77  vel:100
        24      midi  ch:0  note off  key:74  vel:0
        0       midi  ch:0  note off  key:77  vel:0
        24      midi  ch:0  note on  key:71  vel:100
        48      midi  ch:0  note off  key:71  vel:0
        0       midi  ch:0  note on  key:74  vel:100
        0       midi  ch:0  note on  key:77  vel:100
        24      midi  ch:0  note off  key:74  vel:0
        0       midi  ch:0  note off  key:77  vel:0
        24      midi  ch:0  note on  key:69  vel:100
        48      midi  ch:0  note off  key:69  vel:0
        0       midi  ch:0  note on  key:72  vel:100
        0       midi  ch:0  note on  key:76  vel:100
        24      midi  ch:0  note off  key:72  vel:0
        0       midi  ch:0  note off  key:76  vel:0
        24      midi  ch:0  note on  key:69  vel:100
        48      midi  ch:0  note on  key:67  vel:100
        0       midi  ch:0  note off  key:69  vel:0
        0       midi  ch:0  note on  key:72  vel:100
        0       midi  ch:0  note on  key:76  vel:100
        24      midi  ch:0  note off  key:72  vel:0
        0       midi  ch:0  note off  key:76  vel:0
        24      midi  ch:0  note off  key:67  vel:0
        0       midi  ch:0  note on  key:69  vel:100
        0       midi  ch:0  note on  key:74  vel:100
        0       midi  ch:0  note on  key:77  vel:100
        24      midi  ch:0  note off  key:74  vel:0
        0       midi  ch:0  note off  key:77  vel:0
        24      midi  ch:0  note on  key:65  vel:100
        0       midi  ch:0  note off  key:69  vel:0
        0       midi  ch:0  note on  key:72  vel:100
        0       midi  ch:0  note on  key:76  vel:100
        24      midi  ch:0  note off  key:72  vel:0
        0       midi  ch:0  note off  key:76  vel:0
        24      midi  ch:0  note on  key:64  vel:100
        0       midi  ch:0  note off  key:65  vel:0
        0       midi  ch:0  note on  key:67  vel:100
        0       midi  ch:0  note on  key:72  vel:100
        24      midi  ch:0  note off  key:67  vel:0
        0       midi  ch:0  note off  key:72  vel:0
        24      midi  ch:0  note on  key:60  vel:100
        0       midi  ch:0  note off  key:64  vel:0
        0       midi  ch:0  note on  key:72  vel:100
        0       midi  ch:0  note on  key:76  vel:100
        24      midi  ch:0  note off  key:72  vel:0
        0       midi  ch:0  note off  key:76  vel:0
        24      midi  ch:0  note off  key:60  vel:0
        0       midi  ch:0  note on  key:69  vel:100
        48      midi  ch:0  note off  key:69  vel:0
        0       midi  ch:0  note on  key:72  vel:100
        0       midi  ch:0  note on  key:76  vel:100
        24      midi  ch:0  note off  key:72  vel:0
        0       midi  ch:0  note off  key:76  vel:0
        24      midi  ch:0  note on  key:69  vel:100
        48      midi  ch:0  note off  key:69  vel:0
        0       midi  ch:0  note on  key:72  vel:100
        0       midi  ch:0  note on  key:76  vel:100
        24      midi  ch:0  note off  key:72  vel:0
        0       midi  ch:0  note off  key:76  vel:0
        24      midi  ch:0  note on  key:69  vel:100
        48      midi  ch:0  note off  key:69  vel:0
        0       midi  ch:0  note on  key:72  vel:100
        0       midi  ch:0  note on  key:76  vel:100
        24      midi  ch:0  note off  key:72  vel:0
        0       midi  ch:0  note off  key:76  vel:0
        24      midi  ch:0  note on  key:69  vel:100
        48      midi  ch:0  note off  key:69  vel:0
        0       midi  ch:0  note on  key:72  vel:100
        0       midi  ch:0  note on  key:76  vel:100
        24      midi  ch:0  note off  key:72  vel:0
        0       midi  ch:0  note off  key:76  vel:0
        24      midi  ch:0  note on  key:69  vel:100
        48      midi  ch:0  note off  key:69  vel:0
        0       midi  ch:0  note on  key:71  vel:100
        0       midi  ch:0  note on  key:76  vel:100
        24      midi  ch:0  note off  key:71  vel:0
        0       midi  ch:0  note off  key:76  vel:0
        24      midi  ch:0  note on  key:69  vel:100
        48      midi  ch:0  note off  key:69  vel:0
        0       midi  ch:0  note on  key:71  vel:100
        0       midi  ch:0  note on  key:76  vel:100
        24      midi  ch:0  note off  key:71  vel:0
        0       midi  ch:0  note off  key:76  vel:0
        24      midi  ch:0  note on  key:69  vel:100
        48      midi  ch:0  note off  key:69  vel:0
        0       midi  ch:0  note on  key:71  vel:100
        0       midi  ch:0  note on  key:76  vel:100
        24      midi  ch:0  note off  key:71  vel:0
        0       midi  ch:0  note off  key:76  vel:0
        24      midi  ch:0  note on  key:69  vel:100
        48      midi  ch:0  note off  key:69  vel:0
        0       midi  ch:0  note on  key:71  vel:100
        0       midi  ch:0  note on  key:76  vel:100
        24      midi  ch:0  note off  key:71  vel:0
        0       midi  ch:0  note off  key:76  vel:0
        24      midi  ch:0  note on  key:71  vel:100
        48      midi  ch:0  note off  key:71  vel:0
        0       midi  ch:0  note on  key:74  vel:100
        0       midi  ch:0  note on  key:77  vel:100
        24      midi  ch:0  note off  key:74  vel:0
        0       midi  ch:0  note off  key:77  vel:0
        24      midi  ch:0  note on  key:71  vel:100
        48      midi  ch:0  note off  key:71  vel:0
        0       midi  ch:0  note on  key:74  vel:100
        0       midi  ch:0  note on  key:77  vel:100
        24      midi  ch:0  note off  key:74  vel:0
        0       midi  ch:0  note off  key:77  vel:0
        24      midi  ch:0  note on  key:71  vel:100
        48      midi  ch:0  note off  key:71  vel:0
        0       midi  ch:0  note on  key:74  vel:100
        0       midi  ch:0  note on  key:77  vel:100
        24      midi  ch:0  note off  key:74  vel:0
        0       midi  ch:0  note off  key:77  vel:0
        24      midi  ch:0  note on  key:71  vel:100
        48      midi  ch:0  note off  key:71  vel:0
        0       midi  ch:0  note on  key:74  vel:100
        0       midi  ch:0  note on  key:77  vel:100
        24      midi  ch:0  note off  key:74  vel:0
        0       midi  ch:0  note off  key:77  vel:0
        24      midi  ch:0  note on  key:69  vel:100
        48      midi  ch:0  note off  key:69  vel:0
        0       midi  ch:0  note on  key:72  vel:100
        0       midi  ch:0  note on  key:76  vel:100
        24      midi  ch:0  note off  key:72  vel:0
        0       midi  ch:0  note off  key:76  vel:0
        24      midi  ch:0  note on  key:69  vel:100
        48      midi  ch:0  note on  key:67  vel:100
        0       midi  ch:0  note off  key:69  vel:0
        0       midi  ch:0  note on  key:72  vel:100
        0       midi  ch:0  note on  key:76  vel:100
        24      midi  ch:0  note off  key:72  vel:0
        0       midi  ch:0  note off  key:76  vel:0
        24      midi  ch:0  note off  key:67  vel:0
        0       midi  ch:0  note on  key:69  vel:100
        0       midi  ch:0  note on  key:74  vel:100
        0       midi  ch:0  note on  key:77  vel:100
        24      midi  ch:0  note off  key:74  vel:0
        0       midi  ch:0  note off  key:77  vel:0
        24      midi  ch:0  note on  key:65  vel:100
        0       midi  ch:0  note off  key:69  vel:0
        0       midi  ch:0  note on  key:72  vel:100
        0       midi  ch:0  note on  key:76  vel:100
        24      midi  ch:0  note off  key:72  vel:0
        0       midi  ch:0  note off  key:76  vel:0
        24      midi  ch:0  note on  key:64  vel:100
        0       midi  ch:0  note off  key:65  vel:0
        0       midi  ch:0  note on  key:67  vel:100
        0       midi  ch:0  note on  key:72  vel:100
        24      midi  ch:0  note off  key:67  vel:0
        0       midi  ch:0  note off  key:72  vel:0
        24      midi  ch:0  note on  key:60  vel:100
        0       midi  ch:0  note off  key:64  vel:0
        0       midi  ch:0  note on  key:72  vel:100
        0       midi  ch:0  note on  key:76  vel:100
        24      midi  ch:0  note off  key:72  vel:0
        0       midi  ch:0  note off  key:76  vel:0
        24      midi  ch:0  note off  key:60  vel:0
        19987   meta  type:2f  len:0  end
MTrk  len:875
        0       meta  type:58  len:4  tsig:  4/4 metr:36 32nds:8
        0       meta  type:58  len:4  tsig:  4/4 metr:36 32nds:8
        0       meta  type:3  len:0  track:""
        43008   midi  ch:0  note on  key:69  vel:100
        48      midi  ch:0  note on  key:64  vel:100
        0       midi  ch:0  note off  key:69  vel:0
        24      midi  ch:0  note off  key:64  vel:0
        24      midi  ch:0  note on  key:69  vel:100
        48      midi  ch:0  note on  key:62  vel:100
        0       midi  ch:0  note off  key:69  vel:0
        24      midi  ch:0  note off  key:62  vel:0
        24      midi  ch:0  note on  key:69  vel:100
        48      midi  ch:0  note on  key:60  vel:100
        0       midi  ch:0  note off  key:69  vel:0
        24      midi  ch:0  note off  key:60  vel:0
        24      midi  ch:0  note on  key:69  vel:100
        48      midi  ch:0  note on  key:67  vel:100
        0       midi  ch:0  note off  key:69  vel:0
        48      midi  ch:0  note off  key:67  vel:0
        0       midi  ch:0  note on  key:69  vel:100
        48      midi  ch:0  note on  key:57  vel:100
        0       midi  ch:0  note off  key:69  vel:0
        24      midi  ch:0  note off  key:57  vel:0
        24      midi  ch:0  note on  key:69  vel:100
        48      midi  ch:0  note off  key:69  vel:0
        0       midi  ch:0  note on  key:72  vel:100
        24      midi  ch:0  note off  key:72  vel:0
        24      midi  ch:0  note on  key:71  vel:100
        48      midi  ch:0  note on  key:67  vel:100
        0       midi  ch:0  note off  key:71  vel:0
        24      midi  ch:0  note off  key:67  vel:0
        24      midi  ch:0  note on  key:62  vel:100
        48      midi  ch:0  note off  key:62  vel:0
        0       midi  ch:0  note on  key:67  vel:100
        48      midi  ch:0  note off  key:67  vel:0
        0       midi  ch:0  note on  key:69  vel:100
        48      midi  ch:0  note on  key:60  vel:100
        0       midi  ch:0  note off  key:69  vel:0
        24      midi  ch:0  note off  key:60  vel:0
        24      midi  ch:0  note on  key:69  vel:100
        48      midi  ch:0  note off  key:69  vel:0
        0       midi  ch:0  note on  key:72  vel:100
        24      midi  ch:0  note off  key:72  vel:0
        24      midi  ch:0  note on  key:74  vel:100
        48      midi  ch:0  note on  key:71  vel:100
        0       midi  ch:0  note off  key:74  vel:0
        24      midi  ch:0  note off  key:71  vel:0
        24      midi  ch:0  note on  key:67  vel:100
        48      midi  ch:0  note off  key:67  vel:0
        0       midi  ch:0  note on  key:72  vel:100
        24      midi  ch:0  note off  key:72  vel:0
        24      midi  ch:0  note on  key:71  vel:100
        48      midi  ch:0  note on  key:67  vel:100
        0       midi  ch:0  note off  key:71  vel:0
        24      midi  ch:0  note off  key:67  vel:0
        24      midi  ch:0  note on  key:62  vel:100
        48      midi  ch:0  note off  key:62  vel:0
        0       midi  ch:0  note on  key:69  vel:100
        24      midi  ch:0  note off  key:69  vel:0
        24      midi  ch:0  note on  key:64  vel:100
        48      midi  ch:0  note on  key:60  vel:100
        0       midi  ch:0  note off  key:64  vel:0
        24      midi  ch:0  note off  key:60  vel:0
        24      midi  ch:0  note on  key:67  vel:100
        48      midi  ch:0  note on  key:59  vel:100
        0       midi  ch:0  note off  key:67  vel:0
        24      midi  ch:0  note off  key:59  vel:0
        24      midi  ch:0  note on  key:69  vel:100
        48      midi  ch:0  note on  key:64  vel:100
        0       midi  ch:0  note off  key:69  vel:0
        24      midi  ch:0  note off  key:64  vel:0
        24      midi  ch:0  note on  key:69  vel:100
        48      midi  ch:0  note on  key:62  vel:100
        0       midi  ch:0  note off  key:69  vel:0
        24      midi  ch:0  note off  key:62  vel:0
        24      midi  ch:0  note on  key:69  vel:100
        48      midi  ch:0  note on  key:60  vel:100
        0       midi  ch:0  note off  key:69  vel:0
        24      midi  ch:0  note off  key:60  vel:0
        24      midi  ch:0  note on  key:69  vel:100
        48      midi  ch:0  note on  key:67  vel:100
        0       midi  ch:0  note off  key:69  vel:0
        48      midi  ch:0  note off  key:67  vel:0
        0       midi  ch:0  note on  key:69  vel:100
        48      midi  ch:0  note on  key:60  vel:100
        0       midi  ch:0  note off  key:69  vel:0
        24      midi  ch:0  note off  key:60  vel:0
        24      midi  ch:0  note on  key:69  vel:100
        48      midi  ch:0  note off  key:69  vel:0
        0       midi  ch:0  note on  key:72  vel:100
        24      midi  ch:0  note off  key:72  vel:0
        24      midi  ch:0  note on  key:71  vel:100
        48      midi  ch:0  note on  key:67  vel:100
        0       midi  ch:0  note off  key:71  vel:0
        24      midi  ch:0  note off  key:67  vel:0
        24      midi  ch:0  note on  key:62  vel:100
        48      midi  ch:0  note off  key:62  vel:0
        0       midi  ch:0  note on  key:67  vel:100
        48      midi  ch:0  note off  key:67  vel:0
        0       midi  ch:0  note on  key:69  vel:100
        48      midi  ch:0  note on  key:64  vel:100
        0       midi  ch:0  note off  key:69  vel:0
        24      midi  ch:0  note off  key:64  vel:0
        24      midi  ch:0  note on  key:69  vel:100
        48      midi  ch:0  note off  key:69  vel:0
        0       midi  ch:0  note on  key:72  vel:100
        24      midi  ch:0  note off  key:72  vel:0
        24      midi  ch:0  note on  key:74  vel:100
        48      midi  ch:0  note on  key:71  vel:100
        0       midi  ch:0  note off  key:74  vel:0
        24      midi  ch:0  note off  key:71  vel:0
        24      midi  ch:0  note on  key:67  vel:100
        48      midi  ch:0  note off  key:67  vel:0
        0       midi  ch:0  note on  key:72  vel:100
        48      midi  ch:0  note on  key:71  vel:100
        0       midi  ch:0  note off  key:72  vel:0
        48      midi  ch:0  note on  key:67  vel:100
        0       midi  ch:0  note off  key:71  vel:0
        24      midi  ch:0  note off  key:67  vel:0
        24      midi  ch:0  note on  key:62  vel:100
        48      midi  ch:0  note off  key:62  vel:0
        0       midi  ch:0  note on  key:72  vel:100
        24      midi  ch:0  note off  key:72  vel:0
        24      midi  ch:0  note on  key:69  vel:100
        48      midi  ch:0  note on  key:64  vel:100
        0       midi  ch:0  note off  key:69  vel:0
        24      midi  ch:0  note off  key:64  vel:0
        24      midi  ch:0  note on  key:74  vel:100
        48      midi  ch:0  note on  key:72  vel:100
        0       midi  ch:0  note off  key:74  vel:0
        24      midi  ch:0  note off  key:72  vel:0
        24      midi  ch:0  note on  key:69  vel:100
        48      midi  ch:0  note off  key:69  vel:0
        48      midi  ch:0  note on  key:69  vel:100
        48      midi  ch:0  note off  key:69  vel:0
        48      midi  ch:0  note on  key:69  vel:100
        48      midi  ch:0  note off  key:69  vel:0
        48      midi  ch:0  note on  key:69  vel:100
        48      midi  ch:0  note on  key:67  vel:100
        0       midi  ch:0  note off  key:69  vel:0
        48      midi  ch:0  note off  key:67  vel:0
        0       midi  ch:0  note on  key:69  vel:100
        48      midi  ch:0  note off  key:69  vel:0
        48      midi  ch:0  note on  key:69  vel:100
        48      midi  ch:0  note on  key:67  vel:100
        0       midi  ch:0  note off  key:69  vel:0
        48      midi  ch:0  note off  key:67  vel:0
        0       midi  ch:0  note on  key:69  vel:100
        48      midi  ch:0  note on  key:64  vel:100
        0       midi  ch:0  note off  key:69  vel:0
        48      midi  ch:0  note on  key:62  vel:100
        0       midi  ch:0  note off  key:64  vel:0
        48      midi  ch:0  note off  key:62  vel:0
        0       midi  ch:0  note on  key:72  vel:100
        48      midi  ch:0  note on  key:69  vel:100
        0       midi  ch:0  note off  key:72  vel:0
        48      midi  ch:0  note off  key:69  vel:0
        48      midi  ch:0  note on  key:69  vel:100
        48      midi  ch:0  note off  key:69  vel:0
        48      midi  ch:0  note on  key:69  vel:100
        48      midi  ch:0  note off  key:69  vel:0
        48      midi  ch:0  note on  key:69  vel:100
        48      midi  ch:0  note off  key:69  vel:0
        0       midi  ch:0  note on  key:72  vel:100
        48      midi  ch:0  note on  key:67  vel:100
        0       midi  ch:0  note off  key:72  vel:0
        48      midi  ch:0  note off  key:67  vel:0
        48      midi  ch:0  note on  key:64  vel:100
        48      midi  ch:0  note off  key:64  vel:0
        48      midi  ch:0  note on  key:67  vel:100
        48      midi  ch:0  note off  key:67  vel:0
        48      midi  ch:0  note on  key:69  vel:100
        48      midi  ch:0  note off  key:69  vel:0
        48      midi  ch:0  note on  key:69  vel:100
        48      midi  ch:0  note off  key:69  vel:0
        48      midi  ch:0  note on  key:69  vel:100
        48      midi  ch:0  note off  key:69  vel:0
        48      midi  ch:0  note on  key:69  vel:100
        48      midi  ch:0  note off  key:69  vel:0
        48      midi  ch:0  note on  key:69  vel:100
        48      midi  ch:0  note on  key:67  vel:100
        0       midi  ch:0  note off  key:69  vel:0
        48      midi  ch:0  note off  key:67  vel:0
        0       midi  ch:0  note on  key:69  vel:100
        48      midi  ch:0  note off  key:69  vel:0
        48      midi  ch:0  note on  key:69  vel:100
        48      midi  ch:0  note on  key:67  vel:100
        0       midi  ch:0  note off  key:69  vel:0
        48      midi  ch:0  note off  key:67  vel:0
        0       midi  ch:0  note on  key:69  vel:100
        48      midi  ch:0  note on  key:64  vel:100
        0       midi  ch:0  note off  key:69  vel:0
        48      midi  ch:0  note on  key:62  vel:100
        0       midi  ch:0  note off  key:64  vel:0
        48      midi  ch:0  note off  key:62  vel:0
        0       midi  ch:0  note on  key:72  vel:100
        48      midi  ch:0  note on  key:69  vel:100
        0       midi  ch:0  note off  key:72  vel:0
        48      midi  ch:0  note off  key:69  vel:0
        48      midi  ch:0  note on  key:69  vel:100
        48      midi  ch:0  note off  key:69  vel:0
        48      midi  ch:0  note on  key:69  vel:100
        48      midi  ch:0  note off  key:69  vel:0
        48      midi  ch:0  note on  key:69  vel:100
        48      midi  ch:0  note off  key:69  vel:0
        0       midi  ch:0  note on  key:72  vel:100
        48      midi  ch:0  note on  key:67  vel:100
        0       midi  ch:0  note off  key:72  vel:0
        48      midi  ch:0  note off  key:67  vel:0
        48      midi  ch:0  note on  key:64  vel:100
        48      midi  ch:0  note off  key:64  vel:0
        48      midi  ch:0  note on  key:67  vel:100
        48      midi  ch:0  note off  key:67  vel:0
        48      midi  ch:0  note on  key:69  vel:100
        48      midi  ch:0  note off  key:69  vel:0
        13891   meta  type:2f  len:0  end
MTrk  len:12105
        0       meta  type:58  len:4  tsig:  4/4 metr:36 32nds:8
        0       meta  type:58  len:4  tsig:  4/4 metr:36 32nds:8
        0       meta  type:3  len:0  track:""
        6144    midi  ch:0  note on  key:36  vel:1
        24      midi  ch:0  note off  key:36  vel:0
        624     midi  ch:0  note on  key:39  vel:1
        24      midi  ch:0  note off  key:39  vel:0
        48      midi  ch:0  note on  key:36  vel:1
        24      midi  ch:0  note off  key:36  vel:0
        24      midi  ch:0  note on  key:38  vel:1
        24      midi  ch:0  note off  key:38  vel:0
        744     midi  ch:0  note on  key:36  vel:1
        24      midi  ch:0  note off  key:36  vel:0
        744     midi  ch:0  note on  key:36  vel:1
        0       midi  ch:0  note on  key:38  vel:1
        24      midi  ch:0  note off  key:36  vel:0
        0       midi  ch:0  note off  key:38  vel:0
        360     midi  ch:0  note on  key:36  vel:1
        24      midi  ch:0  note off  key:36  vel:0
        360     midi  ch:0  note on  key:36  vel:1
        0       midi  ch:0  note on  key:49  vel:1
        24      midi  ch:0  note off  key:36  vel:0
        0       midi  ch:0  note off  key:49  vel:0
        72      midi  ch:0  note on  key:36  vel:1
        0       midi  ch:0  note on  key:38  vel:1
        24      midi  ch:0  note off  key:36  vel:0
        0       midi  ch:0  note off  key:38  vel:0
        72      midi  ch:0  note on  key:36  vel:1
        24      midi  ch:0  note off  key:36  vel:0
        72      midi  ch:0  note on  key:36  vel:1
        0       midi  ch:0  note on  key:38  vel:1
        24      midi  ch:0  note off  key:36  vel:0
        0       midi  ch:0  note off  key:38  vel:0
        72      midi  ch:0  note on  key:36  vel:1
        24      midi  ch:0  note off  key:36  vel:0
        72      midi  ch:0  note on  key:36  vel:1
        0       midi  ch:0  note on  key:38  vel:1
        24      midi  ch:0  note off  key:36  vel:0
        0       midi  ch:0  note off  key:38  vel:0
        72      midi  ch:0  note on  key:36  vel:1
        0       midi  ch:0  note on  key:44  vel:1
        24      midi  ch:0  note off  key:36  vel:0
        0       midi  ch:0  note off  key:44  vel:0
        24      midi  ch:0  note on  key:42  vel:1
        24      midi  ch:0  note off  key:42  vel:0
        24      midi  ch:0  note on  key:36  vel:1
        0       midi  ch:0  note on  key:38  vel:1
        0       midi  ch:0  note on  key:48  vel:1
        24      midi  ch:0  note off  key:36  vel:0
        0       midi  ch:0  note off  key:38  vel:0
        0       midi  ch:0  note off  key:48  vel:0
        72      midi  ch:0  note on  key:36  vel:1
        0       midi  ch:0  note on  key:44  vel:1
        24      midi  ch:0  note off  key:36  vel:0
        0       midi  ch:0  note off  key:44  vel:0
        72      midi  ch:0  note on  key:36  vel:1
        0       midi  ch:0  note on  key:38  vel:1
        0       midi  ch:0  note on  key:42  vel:1
        24      midi  ch:0  note off  key:36  vel:0
        0       midi  ch:0  note off  key:38  vel:0
        0       midi  ch:0  note off  key:42  vel:0
        72      midi  ch:0  note on  key:36  vel:1
        0       midi  ch:0  note on  key:44  vel:1
        24      midi  ch:0  note off  key:36  vel:0
        0       midi  ch:0  note off  key:44  vel:0
        72      midi  ch:0  note on  key:36  vel:1
        0       midi  ch:0  note on  key:38  vel:1
        0       midi  ch:0  note on  key:42  vel:1
        24      midi  ch:0  note off  key:36  vel:0
        0       midi  ch:0  note off  key:38  vel:0
        0       midi  ch:0  note off  key:42  vel:0
        72      midi  ch:0  note on  key:36  vel:1
        0       midi  ch:0  note on  key:44  vel:1
        24      midi  ch:0  note off  key:36  vel:0
        0       midi  ch:0  note off  key:44  vel:0
        72      midi  ch:0  note on  key:36  vel:1
        0       midi  ch:0  note on  key:38  vel:1
        0       midi  ch:0  note on  key:42  vel:1
        0       midi  ch:0  note on  key:50  vel:1
        24      midi  ch:0  note off  key:36  vel:0
        0       midi  ch:0  note off  key:38  vel:0
        0       midi  ch:0  note off  key:42  vel:0
        0       midi  ch:0  note off  key:50  vel:0
        72      midi  ch:0  note on  key:36  vel:1
        0       midi  ch:0  note on  key:44  vel:1
        24      midi  ch:0  note off  key:36  vel:0
        0       midi  ch:0  note off  key:44  vel:0
        24      midi  ch:0  note on  key:46  vel:1
        24      midi  ch:0  note off  key:46  vel:0
        24      midi  ch:0  note on  key:36  vel:1
        0       midi  ch:0  note on  key:38  vel:1
        0       midi  ch:0  note on  key:42  vel:1
        24      midi  ch:0  note off  key:36  vel:0
        0       midi  ch:0  note on  key:36  vel:1
        0       midi  ch:0  note off  key:38  vel:0
        0       midi  ch:0  note off  key:42  vel:0
        24      midi  ch:0  note off  key:36  vel:0
        0       midi  ch:0  note on  key:36  vel:1
        24      midi  ch:0  note off  key:36  vel:0
        0       midi  ch:0  note on  key:38  vel:1
        24      midi  ch:0  note on  key:36  vel:1
        0       midi  ch:0  note off  key:38  vel:0
        0       midi  ch:0  note on  key:46  vel:1
        24      midi  ch:0  note off  key:36  vel:0
        0       midi  ch:0  note off  key:46  vel:0
        72      midi  ch:0  note on  key:36  vel:1
        0       midi  ch:0  note on  key:38  vel:1
        0       midi  ch:0  note on  key:42  vel:1
        24      midi  ch:0  note off  key:36  vel:0
        0       midi  ch:0  note off  key:38  vel:0
        0       midi  ch:0  note off  key:42  vel:0
        72      midi  ch:0  note on  key:36  vel:1
        0       midi  ch:0  note on  key:44  vel:1
        24      midi  ch:0  note off  key:36  vel:0
        0       midi  ch:0  note off  key:44  vel:0
        72      midi  ch:0  note on  key:36  vel:1
        0       midi  ch:0  note on  key:38  vel:1
        0       midi  ch:0  note on  key:42  vel:1
        24      midi  ch:0  note off  key:36  vel:0
        0       midi  ch:0  note off  key:38  vel:0
        0       midi  ch:0  note off  key:42  vel:0
        72      midi  ch:0  note on  key:36  vel:1
        0       midi  ch:0  note on  key:46  vel:1
        24      midi  ch:0  note off  key:36  vel:0
        0       midi  ch:0  note off  key:46  vel:0
        24      midi  ch:0  note on  key:42  vel:1
        24      midi  ch:0  note off  key:42  vel:0
        24      midi  ch:0  note on  key:36  vel:1
        0       midi  ch:0  note on  key:38  vel:1
        0       midi  ch:0  note on  key:42  vel:1
        24      midi  ch:0  note off  key:36  vel:0
        0       midi  ch:0  note off  key:38  vel:0
        0       midi  ch:0  note off  key:42  vel:0
        24      midi  ch:0  note on  key:46  vel:1
        24      midi  ch:0  note off  key:46  vel:0
        24      midi  ch:0  note on  key:36  vel:1
        0       midi  ch:0  note on  key:44  vel:1
        24      midi  ch:0  note off  key:36  vel:0
        0       midi  ch:0  note off  key:44  vel:0
        72      midi  ch:0  note on  key:36  vel:1
        0       midi  ch:0  note on  key:38  vel:1
        0       midi  ch:0  note on  key:42  vel:1
        24      midi  ch:0  note off  key:36  vel:0
        0       midi  ch:0  note off  key:38  vel:0
        0       midi  ch:0  note off  key:42  vel:0
        72      midi  ch:0  note on  key:36  vel:1
        0       midi  ch:0  note on  key:44  vel:1
        24      midi  ch:0  note off  key:36  vel:0
        0       midi  ch:0  note off  key:44  vel:0
        72      midi  ch:0  note on  key:36  vel:1
        0       midi  ch:0  note on  key:38  vel:1
        0       midi  ch:0  note on  key:42  vel:1
        24      midi  ch:0  note off  key:36  vel:0
        0       midi  ch:0  note off  key:38  vel:0
        0       midi  ch:0  note off  key:42  vel:0
        72      midi  ch:0  note on  key:36  vel:1
        0       midi  ch:0  note on  key:44  vel:1
        24      midi  ch:0  note off  key:36  vel:0
        0       midi  ch:0  note off  key:44  vel:0
        72      midi  ch:0  note on  key:36  vel:1
        0       midi  ch:0  note on  key:38  vel:1
        0       midi  ch:0  note on  key:42  vel:1
        0       midi  ch:0  note on  key:50  vel:1
        24      midi  ch:0  note off  key:36  vel:0
        0       midi  ch:0  note off  key:38  vel:0
        0       midi  ch:0  note off  key:42  vel:0
        0       midi  ch:0  note off  key:50  vel:0
        72      midi  ch:0  note on  key:36  vel:1
        0       midi  ch:0  note on  key:44  vel:1
        24      midi  ch:0  note off  key:36  vel:0
        0       midi  ch:0  note off  key:44  vel:0
        72      midi  ch:0  note on  key:36  vel:1
        0       midi  ch:0  note on  key:38  vel:1
        0       midi  ch:0  note on  key:42  vel:1
        24      midi  ch:0  note off  key:36  vel:0
        0       midi  ch:0  note off  key:38  vel:0
        0       midi  ch:0  note off  key:42  vel:0
        72      midi  ch:0  note on  key:36  vel:1
        0       midi  ch:0  note on  key:38  vel:1
        0       midi  ch:0  note on  key:44  vel:1
        24      midi  ch:0  note off  key:36  vel:0
        0       midi  ch:0  note on  key:36  vel:1
        0       midi  ch:0  note off  key:38  vel:0
        0       midi  ch:0  note off  key:44  vel:0
        24      midi  ch:0  note off  key:36  vel:0
        0       midi  ch:0  note on  key:36  vel:1
        24      midi  ch:0  note off  key:36  vel:0
        0       midi  ch:0  note on  key:38  vel:1
        24      midi  ch:0  note on  key:36  vel:1
        0       midi  ch:0  note off  key:38  vel:0
        0       midi  ch:0  note on  key:46  vel:1
        24      midi  ch:0  note off  key:36  vel:0
        0       midi  ch:0  note on  key:36  vel:1
        0       midi  ch:0  note off  key:46  vel:0
        24      midi  ch:0  note off  key:36  vel:0
        0       midi  ch:0  note on  key:38  vel:1
        24      midi  ch:0  note off  key:38  vel:0
        24      midi  ch:0  note on  key:36  vel:1
        0       midi  ch:0  note on  key:44  vel:1
        0       midi  ch:0  note on  key:49  vel:1
        24      midi  ch:0  note off  key:36  vel:0
        0       midi  ch:0  note off  key:44  vel:0
        0       midi  ch:0  note off  key:49  vel:0
        72      midi  ch:0  note on  key:36  vel:1
        0       midi  ch:0  note on  key:38  vel:1
        0       midi  ch:0  note on  key:42  vel:1
        24      midi  ch:0  note off  key:36  vel:0
        0       midi  ch:0  note off  key:38  vel:0
        0       midi  ch:0  note off  key:42  vel:0
        72      midi  ch:0  note on  key:36  vel:1
        0       midi  ch:0  note on  key:44  vel:1
        24      midi  ch:0  note off  key:36  vel:0
        0       midi  ch:0  note off  key:44  vel:0
        72      midi  ch:0  note on  key:36  vel:1
        0       midi  ch:0  note on  key:38  vel:1
        0       midi  ch:0  note on  key:42  vel:1
        24      midi  ch:0  note off  key:36  vel:0
        0       midi  ch:0  note off  key:38  vel:0
        0       midi  ch:0  note off  key:42  vel:0
        72      midi  ch:0  note on  key:36  vel:1
        0       midi  ch:0  note on  key:44  vel:1
        24      midi  ch:0  note off  key:36  vel:0
        0       midi  ch:0  note off  key:44  vel:0
        72      midi  ch:0  note on  key:36  vel:1
        0       midi  ch:0  note on  key:38  vel:1
        0       midi  ch:0  note on  key:42  vel:1
        24      midi  ch:0  note off  key:36  vel:0
        0       midi  ch:0  note off  key:38  vel:0
        0       midi  ch:0  note off  key:42  vel:0
        72      midi  ch:0  note on  key:36  vel:1
        0       midi  ch:0  note on  key:44  vel:1
        24      midi  ch:0  note off  key:36  vel:0
        0       midi  ch:0  note off  key:44  vel:0
        24      midi  ch:0  note on  key:42  vel:1
        24      midi  ch:0  note off  key:42  vel:0
        24      midi  ch:0  note on  key:36  vel:1
        0       midi  ch:0  note on  key:38  vel:1
        0       midi  ch:0  note on  key:48  vel:1
        24      midi  ch:0  note off  key:36  vel:0
        0       midi  ch:0  note off  key:38  vel:0
        0       midi  ch:0  note off  key:48  vel:0
        72      midi  ch:0  note on  key:36  vel:1
        0       midi  ch:0  note on  key:44  vel:1
        24      midi  ch:0  note off  key:36  vel:0
        0       midi  ch:0  note off  key:44  vel:0
        72      midi  ch:0  note on  key:36  vel:1
        0       midi  ch:0  note on  key:38  vel:1
        0       midi  ch:0  note on  key:42  vel:1
        24      midi  ch:0  note off  key:36  vel:0
        0       midi  ch:0  note off  key:38  vel:0
        0       midi  ch:0  note off  key:42  vel:0
        72      midi  ch:0  note on  key:36  vel:1
        0       midi  ch:0  note on  key:44  vel:1
        24      midi  ch:0  note off  key:36  vel:0
        0       midi  ch:0  note off  key:44  vel:0
        72      midi  ch:0  note on  key:36  vel:1
        0       midi  ch:0  note on  key:38  vel:1
        0       midi  ch:0  note on  key:42  vel:1
        24      midi  ch:0  note off  key:36  vel:0
        0       midi  ch:0  note off  key:38  vel:0
        0       midi  ch:0  note off  key:42  vel:0
        72      midi  ch:0  note on  key:36  vel:1
        0       midi  ch:0  note on  key:44  vel:1
        24      midi  ch:0  note off  key:36  vel:0
        0       midi  ch:0  note off  key:44  vel:0
        72      midi  ch:0  note on  key:36  vel:1
        0       midi  ch:0  note on  key:38  vel:1
        0       midi  ch:0  note on  key:42  vel:1
        0       midi  ch:0  note on  key:50  vel:1
        24      midi  ch:0  note off  key:36  vel:0
        0       midi  ch:0  note off  key:38  vel:0
        0       midi  ch:0  note off  key:42  vel:0
        0       midi  ch:0  note off  key:50  vel:0
        72      midi  ch:0  note on  key:36  vel:1
        0       midi  ch:0  note on  key:44  vel:1
        24      midi  ch:0  note off  key:36  vel:0
        0       midi  ch:0  note off  key:44  vel:0
        24      midi  ch:0  note on  key:46  vel:1
        24      midi  ch:0  note off  key:46  vel:0
        24      midi  ch:0  note on  key:36  vel:1
        0       midi  ch:0  note on  key:38  vel:1
        0       midi  ch:0  note on  key:42  vel:1
        24      midi  ch:0  note off  key:36  vel:0
        0       midi  ch:0  note on  key:36  vel:1
        0       midi  ch:0  note off  key:38  vel:0
        0       midi  ch:0  note off  key:42  vel:0
        24      midi  ch:0  note off  key:36  vel:0
        0       midi  ch:0  note on  key:36  vel:1
        24      midi  ch:0  note off  key:36  vel:0
        0       midi  ch:0  note on  key:38  vel:1
        24      midi  ch:0  note on  key:36  vel:1
        0       midi  ch:0  note off  key:38  vel:0
        0       midi  ch:0  note on  key:46  vel:1
        24      midi  ch:0  note off  key:36  vel:0
        0       midi  ch:0  note off  key:46  vel:0
        72      midi  ch:0  note on  key:36  vel:1
        0       midi  ch:0  note on  key:38  vel:1
        0       midi  ch:0  note on  key:42  vel:1
        24      midi  ch:0  note off  key:36  vel:0
        0       midi  ch:0  note off  key:38  vel:0
        0       midi  ch:0  note off  key:42  vel:0
        72      midi  ch:0  note on  key:36  vel:1
        0       midi  ch:0  note on  key:44  vel:1
        24      midi  ch:0  note off  key:36  vel:0
        0       midi  ch:0  note off  key:44  vel:0
        72      midi  ch:0  note on  key:36  vel:1
        0       midi  ch:0  note on  key:38  vel:1
        0       midi  ch:0  note on  key:42  vel:1
        24      midi  ch:0  note off  key:36  vel:0
        0       midi  ch:0  note off  key:38  vel:0
        0       midi  ch:0  note off  key:42  vel:0
        72      midi  ch:0  note on  key:36  vel:1
        0       midi  ch:0  note on  key:46  vel:1
        24      midi  ch:0  note off  key:36  vel:0
        0       midi  ch:0  note off  key:46  vel:0
        24      midi  ch:0  note on  key:42  vel:1
        24      midi  ch:0  note off  key:42  vel:0
        24      midi  ch:0  note on  key:36  vel:1
        0       midi  ch:0  note on  key:38  vel:1
        0       midi  ch:0  note on  key:42  vel:1
        24      midi  ch:0  note off  key:36  vel:0
        0       midi  ch:0  note off  key:38  vel:0
        0       midi  ch:0  note off  key:42  vel:0
        24      midi  ch:0  note on  key:46  vel:1
        24      midi  ch:0  note off  key:46  vel:0
        24      midi  ch:0  note on  key:36  vel:1
        0       midi  ch:0  note on  key:44  vel:1
        24      midi  ch:0  note off  key:36  vel:0
        0       midi  ch:0  note off  key:44  vel:0
        72      midi  ch:0  note on  key:36  vel:1
        0       midi  ch:0  note on  key:38  vel:1
        0       midi  ch:0  note on  key:42  vel:1
        24      midi  ch:0  note off  key:36  vel:0
        0       midi  ch:0  note off  key:38  vel:0
        0       midi  ch:0  note off  key:42  vel:0
        72      midi  ch:0  note on  key:36  vel:1
        0       midi  ch:0  note on  key:44  vel:1
        24      midi  ch:0  note off  key:36  vel:0
        0       midi  ch:0  note off  key:44  vel:0
        72      midi  ch:0  note on  key:36  vel:1
        0       midi  ch:0  note on  key:38  vel:1
        0       midi  ch:0  note on  key:42  vel:1
        24      midi  ch:0  note off  key:36  vel:0
        0       midi  ch:0  note off  key:38  vel:0
        0       midi  ch:0  note off  key:42  vel:0
        72      midi  ch:0  note on  key:36  vel:1
        0       midi  ch:0  note on  key:44  vel:1
        24      midi  ch:0  note off  key:36  vel:0
        0       midi  ch:0  note off  key:44  vel:0
        72      midi  ch:0  note on  key:36  vel:1
        0       midi  ch:0  note on  key:38  vel:1
        0       midi  ch:0  note on  key:42  vel:1
        0       midi  ch:0  note on  key:50  vel:1
        24      midi  ch:0  note off  key:36  vel:0
        0       midi  ch:0  note off  key:38  vel:0
        0       midi  ch:0  note off  key:42  vel:0
        0       midi  ch:0  note off  key:50  vel:0
        72      midi  ch:0  note on  key:36  vel:1
        0       midi  ch:0  note on  key:44  vel:1
        24      midi  ch:0  note off  key:36  vel:0
        0       midi  ch:0  note off  key:44  vel:0
        72      midi  ch:0  note on  key:36  vel:1
        0       midi  ch:0  note on  key:38  vel:1
        0       midi  ch:0  note on  key:42  vel:1
        24      midi  ch:0  note off  key:36  vel:0
        0       midi  ch:0  note off  key:38  vel:0
        0       midi  ch:0  note off  key:42  vel:0
        72      midi  ch:0  note on  key:36  vel:1
        0       midi  ch:0  note on  key:38  vel:1
        0       midi  ch:0  note on  key:44  vel:1
        24      midi  ch:0  note off  key:36  vel:0
        0       midi  ch:0  note on  key:36  vel:1
        0       midi  ch:0  note off  key:38  vel:0
        0       midi  ch:0  note off  key:44  vel:0
        24      midi  ch:0  note off  key:36  vel:0
        0       midi  ch:0  note on  key:36  vel:1
        24      midi  ch:0  note off  key:36  vel:0
        0       midi  ch:0  note on  key:38  vel:1
        24      midi  ch:0  note on  key:36  vel:1
        0       midi  ch:0  note off  key:38  vel:0
        0       midi  ch:0  note on  key:46  vel:1
        24      midi  ch:0  note off  key:36  vel:0
        0       midi  ch:0  note on  key:36  vel:1
        0       midi  ch:0  note off  key:46  vel:0
        24      midi  ch:0  note off  key:36  vel:0
        0       midi  ch:0  note on  key:38  vel:1
        24      midi  ch:0  note off  key:38  vel:0
        24      midi  ch:0  note on  key:36  vel:1
        0       midi  ch:0  note on  key:44  vel:1
        0       midi  ch:0  note on  key:49  vel:1
        24      midi  ch:0  note off  key:36  vel:0
        0       midi  ch:0  note off  key:44  vel:0
        0       midi  ch:0  note off  key:49  vel:0
        72      midi  ch:0  note on  key:36  vel:1
        0       midi  ch:0  note on  key:38  vel:1
        0       midi  ch:0  note on  key:42  vel:1
        24      midi  ch:0  note off  key:36  vel:0
        0       midi  ch:0  note off  key:38  vel:0
        0       midi  ch:0  note off  key:42  vel:0
        72      midi  ch:0  note on  key:36  vel:1
        0       midi  ch:0  note on  key:44  vel:1
        24      midi  ch:0  note off  key:36  vel:0
        0       midi  ch:0  note off  key:44  vel:0
        72      midi  ch:0  note on  key:36  vel:1
        0       midi  ch:0  note on  key:38  vel:1
        0       midi  ch:0  note on  key:42  vel:1
        24      midi  ch:0  note off  key:36  vel:0
        0       midi  ch:0  note off  key:38  vel:0
        0       midi  ch:0  note off  key:42  vel:0
        72      midi  ch:0  note on  key:36  vel:1
        0       midi  ch:0  note on  key:44  vel:1
        24      midi  ch:0  note off  key:36  vel:0
        0       midi  ch:0  note off  key:44  vel:0
        72      midi  ch:0  note on  key:36  vel:1
        0       midi  ch:0  note on  key:38  vel:1
        0       midi  ch:0  note on  key:42  vel:1
        24      midi  ch:0  note off  key:36  vel:0
        0       midi  ch:0  note off  key:38  vel:0
        0       midi  ch:0  note off  key:42  vel:0
        72      midi  ch:0  note on  key:36  vel:1
        0       midi  ch:0  note on  key:44  vel:1
        24      midi  ch:0  note off  key:36  vel:0
        0       midi  ch:0  note off  key:44  vel:0
        24      midi  ch:0  note on  key:42  vel:1
        24      midi  ch:0  note off  key:42  vel:0
        24      midi  ch:0  note on  key:36  vel:1
        0       midi  ch:0  note on  key:38  vel:1
        0       midi  ch:0  note on  key:48  vel:1
        24      midi  ch:0  note off  key:36  vel:0
        0       midi  ch:0  note off  key:38  vel:0
        0       midi  ch:0  note off  key:48  vel:0
        72      midi  ch:0  note on  key:36  vel:1
        0       midi  ch:0  note on  key:44  vel:1
        24      midi  ch:0  note off  key:36  vel:0
        0       midi  ch:0  note off  key:44  vel:0
        72      midi  ch:0  note on  key:36  vel:1
        0       midi  ch:0  note on  key:38  vel:1
        0       midi  ch:0  note on  key:42  vel:1
        24      midi  ch:0  note off  key:36  vel:0
        0       midi  ch:0  note off  key:38  vel:0
        0       midi  ch:0  note off  key:42  vel:0
        72      midi  ch:0  note on  key:36  vel:1
        0       midi  ch:0  note on  key:44  vel:1
        24      midi  ch:0  note off  key:36  vel:0
        0       midi  ch:0  note off  key:44  vel:0
        72      midi  ch:0  note on  key:36  vel:1
        0       midi  ch:0  note on  key:38  vel:1
        0       midi  ch:0  note on  key:42  vel:1
        24      midi  ch:0  note off  key:36  vel:0
        0       midi  ch:0  note off  key:38  vel:0
        0       midi  ch:0  note off  key:42  vel:0
        72      midi  ch:0  note on  key:36  vel:1
        0       midi  ch:0  note on  key:44  vel:1
        24      midi  ch:0  note off  key:36  vel:0
        0       midi  ch:0  note off  key:44  vel:0
        72      midi  ch:0  note on  key:36  vel:1
        0       midi  ch:0  note on  key:38  vel:1
        0       midi  ch:0  note on  key:42  vel:1
        0       midi  ch:0  note on  key:50  vel:1
        24      midi  ch:0  note off  key:36  vel:0
        0       midi  ch:0  note off  key:38  vel:0
        0       midi  ch:0  note off  key:42  vel:0
        0       midi  ch:0  note off  key:50  vel:0
        72      midi  ch:0  note on  key:36  vel:1
        0       midi  ch:0  note on  key:44  vel:1
        24      midi  ch:0  note off  key:36  vel:0
        0       midi  ch:0  note off  key:44  vel:0
        24      midi  ch:0  note on  key:46  vel:1
        24      midi  ch:0  note off  key:46  vel:0
        24      midi  ch:0  note on  key:36  vel:1
        0       midi  ch:0  note on  key:38  vel:1
        0       midi  ch:0  note on  key:42  vel:1
        24      midi  ch:0  note off  key:36  vel:0
        0       midi  ch:0  note on  key:36  vel:1
        0       midi  ch:0  note off  key:38  vel:0
        0       midi  ch:0  note off  key:42  vel:0
        24      midi  ch:0  note off  key:36  vel:0
        0       midi  ch:0  note on  key:36  vel:1
        24      midi  ch:0  note off  key:36  vel:0
        0       midi  ch:0  note on  key:38  vel:1
        24      midi  ch:0  note on  key:36  vel:1
        0       midi  ch:0  note off  key:38  vel:0
        0       midi  ch:0  note on  key:46  vel:1
        24      midi  ch:0  note off  key:36  vel:0
        0       midi  ch:0  note off  key:46  vel:0
        72      midi  ch:0  note on  key:36  vel:1
        0       midi  ch:0  note on  key:38  vel:1
        0       midi  ch:0  note on  key:42  vel:1
        24      midi  ch:0  note off  key:36  vel:0
        0       midi  ch:0  note off  key:38  vel:0
        0       midi  ch:0  note off  key:42  vel:0
        72      midi  ch:0  note on  key:36  vel:1
        0       midi  ch:0  note on  key:44  vel:1
        24      midi  ch:0  note off  key:36  vel:0
        0       midi  ch:0  note off  key:44  vel:0
        72      midi  ch:0  note on  key:36  vel:1
        0       midi  ch:0  note on  key:38  vel:1
        0       midi  ch:0  note on  key:42  vel:1
        24      midi  ch:0  note off  key:36  vel:0
        0       midi  ch:0  note off  key:38  vel:0
        0       midi  ch:0  note off  key:42  vel:0
        72      midi  ch:0  note on  key:36  vel:1
        0       midi  ch:0  note on  key:46  vel:1
        24      midi  ch:0  note off  key:36  vel:0
        0       midi  ch:0  note off  key:46  vel:0
        24      midi  ch:0  note on  key:42  vel:1
        24      midi  ch:0  note off  key:42  vel:0
        24      midi  ch:0  note on  key:36  vel:1
        0       midi  ch:0  note on  key:38  vel:1
        0       midi  ch:0  note on  key:42  vel:1
        24      midi  ch:0  note off  key:36  vel:0
        0       midi  ch:0  note off  key:38  vel:0
        0       midi  ch:0  note off  key:42  vel:0
        24      midi  ch:0  note on  key:46  vel:1
        24      midi  ch:0  note off  key:46  vel:0
        24      midi  ch:0  note on  key:36  vel:1
        0       midi  ch:0  note on  key:44  vel:1
        24      midi  ch:0  note off  key:36  vel:0
        0       midi  ch:0  note off  key:44  vel:0
        72      midi  ch:0  note on  key:36  vel:1
        0       midi  ch:0  note on  key:38  vel:1
        0       midi  ch:0  note on  key:42  vel:1
        24      midi  ch:0  note off  key:36  vel:0
        0       midi  ch:0  note off  key:38  vel:0
        0       midi  ch:0  note off  key:42  vel:0
        72      midi  ch:0  note on  key:36  vel:1
        0       midi  ch:0  note on  key:44  vel:1
        24      midi  ch:0  note off  key:36  vel:0
        0       midi  ch:0  note off  key:44  vel:0
        72      midi  ch:0  note on  key:36  vel:1
        0       midi  ch:0  note on  key:38  vel:1
        0       midi  ch:0  note on  key:42  vel:1
        24      midi  ch:0  note off  key:36  vel:0
        0       midi  ch:0  note off  key:38  vel:0
        0       midi  ch:0  note off  key:42  vel:0
        72      midi  ch:0  note on  key:36  vel:1
        0       midi  ch:0  note on  key:44  vel:1
        24      midi  ch:0  note off  key:36  vel:0
        0       midi  ch:0  note off  key:44  vel:0
        72      midi  ch:0  note on  key:36  vel:1
        0       midi  ch:0  note on  key:38  vel:1
        0       midi  ch:0  note on  key:42  vel:1
        0       midi  ch:0  note on  key:50  vel:1
        24      midi  ch:0  note off  key:36  vel:0
        0       midi  ch:0  note off  key:38  vel:0
        0       midi  ch:0  note off  key:42  vel:0
        0       midi  ch:0  note off  key:50  vel:0
        72      midi  ch:0  note on  key:36  vel:1
        0       midi  ch:0  note on  key:44  vel:1
        24      midi  ch:0  note off  key:36  vel:0
        0       midi  ch:0  note off  key:44  vel:0
        72      midi  ch:0  note on  key:36  vel:1
        0       midi  ch:0  note on  key:38  vel:1
        0       midi  ch:0  note on  key:42  vel:1
        24      midi  ch:0  note off  key:36  vel:0
        0       midi  ch:0  note off  key:38  vel:0
        0       midi  ch:0  note off  key:42  vel:0
        72      midi  ch:0  note on  key:36  vel:1
        0       midi  ch:0  note on  key:38  vel:1
        0       midi  ch:0  note on  key:44  vel:1
        24      midi  ch:0  note off  key:36  vel:0
        0       midi  ch:0  note on  key:36  vel:1
        0       midi  ch:0  note off  key:38  vel:0
        0       midi  ch:0  note off  key:44  vel:0
        24      midi  ch:0  note off  key:36  vel:0
        0       midi  ch:0  note on  key:36  vel:1
        24      midi  ch:0  note off  key:36  vel:0
        0       midi  ch:0  note on  key:38  vel:1
        24      midi  ch:0  note on  key:36  vel:1
        0       midi  ch:0  note off  key:38  vel:0
        0       midi  ch:0  note on  key:46  vel:1
        24      midi  ch:0  note off  key:36  vel:0
        0       midi  ch:0  note on  key:36  vel:1
        0       midi  ch:0  note off  key:46  vel:0
        24      midi  ch:0  note off  key:36  vel:0
        0       midi  ch:0  note on  key:38  vel:1
        24      midi  ch:0  note off  key:38  vel:0
        24      midi  ch:0  note on  key:36  vel:1
        0       midi  ch:0  note on  key:44  vel:1
        0       midi  ch:0  note on  key:49  vel:1
        24      midi  ch:0  note off  key:36  vel:0
        0       midi  ch:0  note off  key:44  vel:0
        0       midi  ch:0  note off  key:49  vel:0
        72      midi  ch:0  note on  key:36  vel:1
        0       midi  ch:0  note on  key:38  vel:1
        0       midi  ch:0  note on  key:42  vel:1
        24      midi  ch:0  note off  key:36  vel:0
        0       midi  ch:0  note off  key:38  vel:0
        0       midi  ch:0  note off  key:42  vel:0
        72      midi  ch:0  note on  key:36  vel:1
        0       midi  ch:0  note on  key:44  vel:1
        24      midi  ch:0  note off  key:36  vel:0
        0       midi  ch:0  note off  key:44  vel:0
        72      midi  ch:0  note on  key:36  vel:1
        0       midi  ch:0  note on  key:38  vel:1
        0       midi  ch:0  note on  key:42  vel:1
        24      midi  ch:0  note off  key:36  vel:0
        0       midi  ch:0  note off  key:38  vel:0
        0       midi  ch:0  note off  key:42  vel:0
        72      midi  ch:0  note on  key:36  vel:1
        0       midi  ch:0  note on  key:44  vel:1
        24      midi  ch:0  note off  key:36  vel:0
        0       midi  ch:0  note off  key:44  vel:0
        72      midi  ch:0  note on  key:36  vel:1
        0       midi  ch:0  note on  key:38  vel:1
        0       midi  ch:0  note on  key:42  vel:1
        24      midi  ch:0  note off  key:36  vel:0
        0       midi  ch:0  note off  key:38  vel:0
        0       midi  ch:0  note off  key:42  vel:0
        72      midi  ch:0  note on  key:36  vel:1
        0       midi  ch:0  note on  key:44  vel:1
        24      midi  ch:0  note off  key:36  vel:0
        0       midi  ch:0  note off  key:44  vel:0
        24      midi  ch:0  note on  key:42  vel:1
        24      midi  ch:0  note off  key:42  vel:0
        24      midi  ch:0  note on  key:36  vel:1
        0       midi  ch:0  note on  key:38  vel:1
        0       midi  ch:0  note on  key:48  vel:1
        24      midi  ch:0  note off  key:36  vel:0
        0       midi  ch:0  note off  key:38  vel:0
        0       midi  ch:0  note off  key:48  vel:0
        72      midi  ch:0  note on  key:36  vel:1
        0       midi  ch:0  note on  key:44  vel:1
        24      midi  ch:0  note off  key:36  vel:0
        0       midi  ch:0  note off  key:44  vel:0
        72      midi  ch:0  note on  key:36  vel:1
        0       midi  ch:0  note on  key:38  vel:1
        0       midi  ch:0  note on  key:42  vel:1
        24      midi  ch:0  note off  key:36  vel:0
        0       midi  ch:0  note off  key:38  vel:0
        0       midi  ch:0  note off  key:42  vel:0
        72      midi  ch:0  note on  key:36  vel:1
        0       midi  ch:0  note on  key:44  vel:1
        24      midi  ch:0  note off  key:36  vel:0
        0       midi  ch:0  note off  key:44  vel:0
        72      midi  ch:0  note on  key:36  vel:1
        0       midi  ch:0  note on  key:38  vel:1
        0       midi  ch:0  note on  key:42  vel:1
        24      midi  ch:0  note off  key:36  vel:0
        0       midi  ch:0  note off  key:38  vel:0
        0       midi  ch:0  note off  key:42  vel:0
        72      midi  ch:0  note on  key:36  vel:1
        0       midi  ch:0  note on  key:44  vel:1
        24      midi  ch:0  note off  key:36  vel:0
        0       midi  ch:0  note off  key:44  vel:0
        72      midi  ch:0  note on  key:36  vel:1
        0       midi  ch:0  note on  key:38  vel:1
        0       midi  ch:0  note on  key:42  vel:1
        0       midi  ch:0  note on  key:50  vel:1
        24      midi  ch:0  note off  key:36  vel:0
        0       midi  ch:0  note off  key:38  vel:0
        0       midi  ch:0  note off  key:42  vel:0
        0       midi  ch:0  note off  key:50  vel:0
        72      midi  ch:0  note on  key:36  vel:1
        0       midi  ch:0  note on  key:44  vel:1
        24      midi  ch:0  note off  key:36  vel:0
        0       midi  ch:0  note off  key:44  vel:0
        24      midi  ch:0  note on  key:46  vel:1
        24      midi  ch:0  note off  key:46  vel:0
        24      midi  ch:0  note on  key:36  vel:1
        0       midi  ch:0  note on  key:38  vel:1
        0       midi  ch:0  note on  key:42  vel:1
        24      midi  ch:0  note off  key:36  vel:0
        0       midi  ch:0  note on  key:36  vel:1
        0       midi  ch:0  note off  key:38  vel:0
        0       midi  ch:0  note off  key:42  vel:0
        24      midi  ch:0  note off  key:36  vel:0
        0       midi  ch:0  note on  key:36  vel:1
        24      midi  ch:0  note off  key:36  vel:0
        0       midi  ch:0  note on  key:38  vel:1
        24      midi  ch:0  note on  key:36  vel:1
        0       midi  ch:0  note off  key:38  vel:0
        0       midi  ch:0  note on  key:46  vel:1
        24      midi  ch:0  note off  key:36  vel:0
        0       midi  ch:0  note off  key:46  vel:0
        72      midi  ch:0  note on  key:36  vel:1
        0       midi  ch:0  note on  key:38  vel:1
        0       midi  ch:0  note on  key:42  vel:1
        24      midi  ch:0  note off  key:36  vel:0
        0       midi  ch:0  note off  key:38  vel:0
        0       midi  ch:0  note off  key:42  vel:0
        72      midi  ch:0  note on  key:36  vel:1
        0       midi  ch:0  note on  key:44  vel:1
        24      midi  ch:0  note off  key:36  vel:0
        0       midi  ch:0  note off  key:44  vel:0
        72      midi  ch:0  note on  key:36  vel:1
        0       midi  ch:0  note on  key:38  vel:1
        0       midi  ch:0  note on  key:42  vel:1
        24      midi  ch:0  note off  key:36  vel:0
        0       midi  ch:0  note off  key:38  vel:0
        0       midi  ch:0  note off  key:42  vel:0
        72      midi  ch:0  note on  key:36  vel:1
        0       midi  ch:0  note on  key:46  vel:1
        24      midi  ch:0  note off  key:36  vel:0
        0       midi  ch:0  note off  key:46  vel:0
        24      midi  ch:0  note on  key:42  vel:1
        24      midi  ch:0  note off  key:42  vel:0
        24      midi  ch:0  note on  key:36  vel:1
        0       midi  ch:0  note on  key:38  vel:1
        0       midi  ch:0  note on  key:42  vel:1
        24      midi  ch:0  note off  key:36  vel:0
        0       midi  ch:0  note off  key:38  vel:0
        0       midi  ch:0  note off  key:42  vel:0
        24      midi  ch:0  note on  key:46  vel:1
        24      midi  ch:0  note off  key:46  vel:0
        24      midi  ch:0  note on  key:36  vel:1
        0       midi  ch:0  note on  key:44  vel:1
        24      midi  ch:0  note off  key:36  vel:0
        0       midi  ch:0  note off  key:44  vel:0
        72      midi  ch:0  note on  key:36  vel:1
        0       midi  ch:0  note on  key:38  vel:1
        0       midi  ch:0  note on  key:42  vel:1
        24      midi  ch:0  note off  key:36  vel:0
        0       midi  ch:0  note off  key:38  vel:0
        0       midi  ch:0  note off  key:42  vel:0
        72      midi  ch:0  note on  key:36  vel:1
        0       midi  ch:0  note on  key:44  vel:1
        24      midi  ch:0  note off  key:36  vel:0
        0       midi  ch:0  note off  key:44  vel:0
        72      midi  ch:0  note on  key:36  vel:1
        0       midi  ch:0  note on  key:38  vel:1
        0       midi  ch:0  note on  key:42  vel:1
        24      midi  ch:0  note off  key:36  vel:0
        0       midi  ch:0  note off  key:38  vel:0
        0       midi  ch:0  note off  key:42  vel:0
        72      midi  ch:0  note on  key:36  vel:1
        0       midi  ch:0  note on  key:44  vel:1
        24      midi  ch:0  note off  key:36  vel:0
        0       midi  ch:0  note off  key:44  vel:0
        72      midi  ch:0  note on  key:36  vel:1
        0       midi  ch:0  note on  key:38  vel:1
        0       midi  ch:0  note on  key:42  vel:1
        0       midi  ch:0  note on  key:50  vel:1
        24      midi  ch:0  note off  key:36  vel:0
        0       midi  ch:0  note off  key:38  vel:0
        0       midi  ch:0  note off  key:42  vel:0
        0       midi  ch:0  note off  key:50  vel:0
        72      midi  ch:0  note on  key:36  vel:1
        0       midi  ch:0  note on  key:44  vel:1
        24      midi  ch:0  note off  key:36  vel:0
        0       midi  ch:0  note off  key:44  vel:0
        72      midi  ch:0  note on  key:36  vel:1
        0       midi  ch:0  note on  key:38  vel:1
        0       midi  ch:0  note on  key:42  vel:1
        24      midi  ch:0  note off  key:36  vel:0
        0       midi  ch:0  note off  key:38  vel:0
        0       midi  ch:0  note off  key:42  vel:0
        72      midi  ch:0  note on  key:36  vel:1
        0       midi  ch:0  note on  key:38  vel:1
        0       midi  ch:0  note on  key:44  vel:1
        24      midi  ch:0  note off  key:36  vel:0
        0       midi  ch:0  note on  key:36  vel:1
        0       midi  ch:0  note off  key:38  vel:0
        0       midi  ch:0  note off  key:44  vel:0
        24      midi  ch:0  note off  key:36  vel:0
        0       midi  ch:0  note on  key:36  vel:1
        24      midi  ch:0  note off  key:36  vel:0
        0       midi  ch:0  note on  key:38  vel:1
        24      midi  ch:0  note on  key:36  vel:1
        0       midi  ch:0  note off  key:38  vel:0
        0       midi  ch:0  note on  key:46  vel:1
        24      midi  ch:0  note off  key:36  vel:0
        0       midi  ch:0  note on  key:36  vel:1
        0       midi  ch:0  note off  key:46  vel:0
        24      midi  ch:0  note off  key:36  vel:0
        0       midi  ch:0  note on  key:38  vel:1
        24      midi  ch:0  note off  key:38  vel:0
        1560    midi  ch:0  note on  key:36  vel:1
        24      midi  ch:0  note off  key:36  vel:0
        72      midi  ch:0  note on  key:36  vel:1
        24      midi  ch:0  note off  key:36  vel:0
        72      midi  ch:0  note on  key:36  vel:1
        24      midi  ch:0  note off  key:36  vel:0
        72      midi  ch:0  note on  key:36  vel:1
        24      midi  ch:0  note off  key:36  vel:0
        72      midi  ch:0  note on  key:36  vel:1
        24      midi  ch:0  note off  key:36  vel:0
        72      midi  ch:0  note on  key:36  vel:1
        24      midi  ch:0  note off  key:36  vel:0
        72      midi  ch:0  note on  key:36  vel:1
        24      midi  ch:0  note off  key:36  vel:0
        72      midi  ch:0  note on  key:36  vel:1
        24      midi  ch:0  note off  key:36  vel:0
        72      midi  ch:0  note on  key:36  vel:1
        24      midi  ch:0  note off  key:36  vel:0
        72      midi  ch:0  note on  key:36  vel:1
        24      midi  ch:0  note off  key:36  vel:0
        72      midi  ch:0  note on  key:36  vel:1
        24      midi  ch:0  note off  key:36  vel:0
        72      midi  ch:0  note on  key:36  vel:1
        24      midi  ch:0  note off  key:36  vel:0
        72      midi  ch:0  note on  key:36  vel:1
        24      midi  ch:0  note off  key:36  vel:0
        72      midi  ch:0  note on  key:36  vel:1
        0       midi  ch:0  note on  key:38  vel:1
        24      midi  ch:0  note off  key:36  vel:0
        0       midi  ch:0  note off  key:38  vel:0
        72      midi  ch:0  note on  key:36  vel:1
        0       midi  ch:0  note on  key:38  vel:1
        24      midi  ch:0  note off  key:36  vel:0
        0       midi  ch:0  note off  key:38  vel:0
        24      midi  ch:0  note on  key:38  vel:1
        24      midi  ch:0  note off  key:38  vel:0
        24      midi  ch:0  note on  key:36  vel:1
        0       midi  ch:0  note on  key:38  vel:1
        24      midi  ch:0  note off  key:36  vel:0
        0       midi  ch:0  note on  key:36  vel:1
        0       midi  ch:0  note off  key:38  vel:0
        24      midi  ch:0  note off  key:36  vel:0
        0       midi  ch:0  note on  key:36  vel:1
        0       midi  ch:0  note on  key:38  vel:1
        24      midi  ch:0  note off  key:36  vel:0
        0       midi  ch:0  note off  key:38  vel:0
        0       midi  ch:0  note on  key:38  vel:1
        24      midi  ch:0  note on  key:36  vel:1
        0       midi  ch:0  note off  key:38  vel:0
        0       midi  ch:0  note on  key:44  vel:1
        0       midi  ch:0  note on  key:49  vel:1
        24      midi  ch:0  note off  key:36  vel:0
        0       midi  ch:0  note off  key:44  vel:0
        0       midi  ch:0  note off  key:49  vel:0
        72      midi  ch:0  note on  key:36  vel:1
        0       midi  ch:0  note on  key:38  vel:1
        0       midi  ch:0  note on  key:42  vel:1
        24      midi  ch:0  note off  key:36  vel:0
        0       midi  ch:0  note off  key:38  vel:0
        0       midi  ch:0  note off  key:42  vel:0
        72      midi  ch:0  note on  key:36  vel:1
        0       midi  ch:0  note on  key:44  vel:1
        24      midi  ch:0  note off  key:36  vel:0
        0       midi  ch:0  note off  key:44  vel:0
        72      midi  ch:0  note on  key:36  vel:1
        0       midi  ch:0  note on  key:38  vel:1
        0       midi  ch:0  note on  key:42  vel:1
        24      midi  ch:0  note off  key:36  vel:0
        0       midi  ch:0  note off  key:38  vel:0
        0       midi  ch:0  note off  key:42  vel:0
        72      midi  ch:0  note on  key:36  vel:1
        0       midi  ch:0  note on  key:44  vel:1
        24      midi  ch:0  note off  key:36  vel:0
        0       midi  ch:0  note off  key:44  vel:0
        72      midi  ch:0  note on  key:36  vel:1
        0       midi  ch:0  note on  key:38  vel:1
        0       midi  ch:0  note on  key:42  vel:1
        24      midi  ch:0  note off  key:36  vel:0
        0       midi  ch:0  note off  key:38  vel:0
        0       midi  ch:0  note off  key:42  vel:0
        72      midi  ch:0  note on  key:36  vel:1
        0       midi  ch:0  note on  key:44  vel:1
        24      midi  ch:0  note off  key:36  vel:0
        0       midi  ch:0  note off  key:44  vel:0
        24      midi  ch:0  note on  key:42  vel:1
        24      midi  ch:0  note off  key:42  vel:0
        24      midi  ch:0  note on  key:36  vel:1
        0       midi  ch:0  note on  key:38  vel:1
        0       midi  ch:0  note on  key:48  vel:1
        24      midi  ch:0  note off  key:36  vel:0
        0       midi  ch:0  note off  key:38  vel:0
        0       midi  ch:0  note off  key:48  vel:0
        72      midi  ch:0  note on  key:36  vel:1
        0       midi  ch:0  note on  key:44  vel:1
        24      midi  ch:0  note off  key:36  vel:0
        0       midi  ch:0  note off  key:44  vel:0
        72      midi  ch:0  note on  key:36  vel:1
        0       midi  ch:0  note on  key:38  vel:1
        0       midi  ch:0  note on  key:42  vel:1
        24      midi  ch:0  note off  key:36  vel:0
        0       midi  ch:0  note off  key:38  vel:0
        0       midi  ch:0  note off  key:42  vel:0
        72      midi  ch:0  note on  key:36  vel:1
        0       midi  ch:0  note on  key:44  vel:1
        24      midi  ch:0  note off  key:36  vel:0
        0       midi  ch:0  note off  key:44  vel:0
        72      midi  ch:0  note on  key:36  vel:1
        0       midi  ch:0  note on  key:38  vel:1
        0       midi  ch:0  note on  key:42  vel:1
        24      midi  ch:0  note off  key:36  vel:0
        0       midi  ch:0  note off  key:38  vel:0
        0       midi  ch:0  note off  key:42  vel:0
        72      midi  ch:0  note on  key:36  vel:1
        0       midi  ch:0  note on  key:44  vel:1
        24      midi  ch:0  note off  key:36  vel:0
        0       midi  ch:0  note off  key:44  vel:0
        72      midi  ch:0  note on  key:36  vel:1
        0       midi  ch:0  note on  key:38  vel:1
        0       midi  ch:0  note on  key:42  vel:1
        0       midi  ch:0  note on  key:50  vel:1
        24      midi  ch:0  note off  key:36  vel:0
        0       midi  ch:0  note off  key:38  vel:0
        0       midi  ch:0  note off  key:42  vel:0
        0       midi  ch:0  note off  key:50  vel:0
        72      midi  ch:0  note on  key:36  vel:1
        0       midi  ch:0  note on  key:44  vel:1
        24      midi  ch:0  note off  key:36  vel:0
        0       midi  ch:0  note off  key:44  vel:0
        24      midi  ch:0  note on  key:46  vel:1
        24      midi  ch:0  note off  key:46  vel:0
        24      midi  ch:0  note on  key:36  vel:1
        0       midi  ch:0  note on  key:38  vel:1
        0       midi  ch:0  note on  key:42  vel:1
        24      midi  ch:0  note off  key:36  vel:0
        0       midi  ch:0  note on  key:36  vel:1
        0       midi  ch:0  note off  key:38  vel:0
        0       midi  ch:0  note off  key:42  vel:0
        24      midi  ch:0  note off  key:36  vel:0
        0       midi  ch:0  note on  key:36  vel:1
        24      midi  ch:0  note off  key:36  vel:0
        0       midi  ch:0  note on  key:38  vel:1
        24      midi  ch:0  note on  key:36  vel:1
        0       midi  ch:0  note off  key:38  vel:0
        0       midi  ch:0  note on  key:46  vel:1
        24      midi  ch:0  note off  key:36  vel:0
        0       midi  ch:0  note off  key:46  vel:0
        72      midi  ch:0  note on  key:36  vel:1
        0       midi  ch:0  note on  key:38  vel:1
        0       midi  ch:0  note on  key:42  vel:1
        24      midi  ch:0  note off  key:36  vel:0
        0       midi  ch:0  note off  key:38  vel:0
        0       midi  ch:0  note off  key:42  vel:0
        72      midi  ch:0  note on  key:36  vel:1
        0       midi  ch:0  note on  key:44  vel:1
        24      midi  ch:0  note off  key:36  vel:0
        0       midi  ch:0  note off  key:44  vel:0
        72      midi  ch:0  note on  key:36  vel:1
        0       midi  ch:0  note on  key:38  vel:1
        0       midi  ch:0  note on  key:42  vel:1
        24      midi  ch:0  note off  key:36  vel:0
        0       midi  ch:0  note off  key:38  vel:0
        0       midi  ch:0  note off  key:42  vel:0
        72      midi  ch:0  note on  key:36  vel:1
        0       midi  ch:0  note on  key:46  vel:1
        24      midi  ch:0  note off  key:36  vel:0
        0       midi  ch:0  note off  key:46  vel:0
        24      midi  ch:0  note on  key:42  vel:1
        24      midi  ch:0  note off  key:42  vel:0
        24      midi  ch:0  note on  key:36  vel:1
        0       midi  ch:0  note on  key:38  vel:1
        0       midi  ch:0  note on  key:42  vel:1
        24      midi  ch:0  note off  key:36  vel:0
        0       midi  ch:0  note off  key:38  vel:0
        0       midi  ch:0  note off  key:42  vel:0
        24      midi  ch:0  note on  key:46  vel:1
        24      midi  ch:0  note off  key:46  vel:0
        24      midi  ch:0  note on  key:36  vel:1
        0       midi  ch:0  note on  key:44  vel:1
        24      midi  ch:0  note off  key:36  vel:0
        0       midi  ch:0  note off  key:44  vel:0
        72      midi  ch:0  note on  key:36  vel:1
        0       midi  ch:0  note on  key:38  vel:1
        0       midi  ch:0  note on  key:42  vel:1
        24      midi  ch:0  note off  key:36  vel:0
        0       midi  ch:0  note off  key:38  vel:0
        0       midi  ch:0  note off  key:42  vel:0
        72      midi  ch:0  note on  key:36  vel:1
        0       midi  ch:0  note on  key:44  vel:1
        24      midi  ch:0  note off  key:36  vel:0
        0       midi  ch:0  note off  key:44  vel:0
        72      midi  ch:0  note on  key:36  vel:1
        0       midi  ch:0  note on  key:38  vel:1
        0       midi  ch:0  note on  key:42  vel:1
        24      midi  ch:0  note off  key:36  vel:0
        0       midi  ch:0  note off  key:38  vel:0
        0       midi  ch:0  note off  key:42  vel:0
        72      midi  ch:0  note on  key:36  vel:1
        0       midi  ch:0  note on  key:44  vel:1
        24      midi  ch:0  note off  key:36  vel:0
        0       midi  ch:0  note off  key:44  vel:0
        72      midi  ch:0  note on  key:36  vel:1
        0       midi  ch:0  note on  key:38  vel:1
        0       midi  ch:0  note on  key:42  vel:1
        0       midi  ch:0  note on  key:50  vel:1
        24      midi  ch:0  note off  key:36  vel:0
        0       midi  ch:0  note off  key:38  vel:0
        0       midi  ch:0  note off  key:42  vel:0
        0       midi  ch:0  note off  key:50  vel:0
        72      midi  ch:0  note on  key:36  vel:1
        0       midi  ch:0  note on  key:44  vel:1
        24      midi  ch:0  note off  key:36  vel:0
        0       midi  ch:0  note off  key:44  vel:0
        72      midi  ch:0  note on  key:36  vel:1
        0       midi  ch:0  note on  key:38  vel:1
        0       midi  ch:0  note on  key:42  vel:1
        24      midi  ch:0  note off  key:36  vel:0
        0       midi  ch:0  note off  key:38  vel:0
        0       midi  ch:0  note off  key:42  vel:0
        72      midi  ch:0  note on  key:36  vel:1
        0       midi  ch:0  note on  key:38  vel:1
        0       midi  ch:0  note on  key:44  vel:1
        24      midi  ch:0  note off  key:36  vel:0
        0       midi  ch:0  note on  key:36  vel:1
        0       midi  ch:0  note off  key:38  vel:0
        0       midi  ch:0  note off  key:44  vel:0
        24      midi  ch:0  note off  key:36  vel:0
        0       midi  ch:0  note on  key:36  vel:1
        24      midi  ch:0  note off  key:36  vel:0
        0       midi  ch:0  note on  key:38  vel:1
        24      midi  ch:0  note on  key:36  vel:1
        0       midi  ch:0  note off  key:38  vel:0
        0       midi  ch:0  note on  key:46  vel:1
        24      midi  ch:0  note off  key:36  vel:0
        0       midi  ch:0  note on  key:36  vel:1
        0       midi  ch:0  note off  key:46  vel:0
        24      midi  ch:0  note off  key:36  vel:0
        0       midi  ch:0  note on  key:38  vel:1
        24      midi  ch:0  note off  key:38  vel:0
        24      midi  ch:0  note on  key:36  vel:1
        0       midi  ch:0  note on  key:44  vel:1
        0       midi  ch:0  note on  key:49  vel:1
        24      midi  ch:0  note off  key:36  vel:0
        0       midi  ch:0  note off  key:44  vel:0
        0       midi  ch:0  note off  key:49  vel:0
        72      midi  ch:0  note on  key:36  vel:1
        0       midi  ch:0  note on  key:38  vel:1
        0       midi  ch:0  note on  key:42  vel:1
        24      midi  ch:0  note off  key:36  vel:0
        0       midi  ch:0  note off  key:38  vel:0
        0       midi  ch:0  note off  key:42  vel:0
        72      midi  ch:0  note on  key:36  vel:1
        0       midi  ch:0  note on  key:44  vel:1
        24      midi  ch:0  note off  key:36  vel:0
        0       midi  ch:0  note off  key:44  vel:0
        72      midi  ch:0  note on  key:36  vel:1
        0       midi  ch:0  note on  key:38  vel:1
        0       midi  ch:0  note on  key:42  vel:1
        24      midi  ch:0  note off  key:36  vel:0
        0       midi  ch:0  note off  key:38  vel:0
        0       midi  ch:0  note off  key:42  vel:0
        72      midi  ch:0  note on  key:36  vel:1
        0       midi  ch:0  note on  key:44  vel:1
        24      midi  ch:0  note off  key:36  vel:0
        0       midi  ch:0  note off  key:44  vel:0
        72      midi  ch:0  note on  key:36  vel:1
        0       midi  ch:0  note on  key:38  vel:1
        0       midi  ch:0  note on  key:42  vel:1
        24      midi  ch:0  note off  key:36  vel:0
        0       midi  ch:0  note off  key:38  vel:0
        0       midi  ch:0  note off  key:42  vel:0
        72      midi  ch:0  note on  key:36  vel:1
        0       midi  ch:0  note on  key:44  vel:1
        24      midi  ch:0  note off  key:36  vel:0
        0       midi  ch:0  note off  key:44  vel:0
        24      midi  ch:0  note on  key:42  vel:1
        24      midi  ch:0  note off  key:42  vel:0
        24      midi  ch:0  note on  key:36  vel:1
        0       midi  ch:0  note on  key:38  vel:1
        0       midi  ch:0  note on  key:48  vel:1
        24      midi  ch:0  note off  key:36  vel:0
        0       midi  ch:0  note off  key:38  vel:0
        0       midi  ch:0  note off  key:48  vel:0
        72      midi  ch:0  note on  key:36  vel:1
        0       midi  ch:0  note on  key:44  vel:1
        24      midi  ch:0  note off  key:36  vel:0
        0       midi  ch:0  note off  key:44  vel:0
        72      midi  ch:0  note on  key:36  vel:1
        0       midi  ch:0  note on  key:38  vel:1
        0       midi  ch:0  note on  key:42  vel:1
        24      midi  ch:0  note off  key:36  vel:0
        0       midi  ch:0  note off  key:38  vel:0
        0       midi  ch:0  note off  key:42  vel:0
        72      midi  ch:0  note on  key:36  vel:1
        0       midi  ch:0  note on  key:44  vel:1
        24      midi  ch:0  note off  key:36  vel:0
        0       midi  ch:0  note off  key:44  vel:0
        72      midi  ch:0  note on  key:36  vel:1
        0       midi  ch:0  note on  key:38  vel:1
        0       midi  ch:0  note on  key:42  vel:1
        24      midi  ch:0  note off  key:36  vel:0
        0       midi  ch:0  note off  key:38  vel:0
        0       midi  ch:0  note off  key:42  vel:0
        72      midi  ch:0  note on  key:36  vel:1
        0       midi  ch:0  note on  key:44  vel:1
        24      midi  ch:0  note off  key:36  vel:0
        0       midi  ch:0  note off  key:44  vel:0
        72      midi  ch:0  note on  key:36  vel:1
        0       midi  ch:0  note on  key:38  vel:1
        0       midi  ch:0  note on  key:42  vel:1
        0       midi  ch:0  note on  key:50  vel:1
        24      midi  ch:0  note off  key:36  vel:0
        0       midi  ch:0  note off  key:38  vel:0
        0       midi  ch:0  note off  key:42  vel:0
        0       midi  ch:0  note off  key:50  vel:0
        72      midi  ch:0  note on  key:36  vel:1
        0       midi  ch:0  note on  key:44  vel:1
        24      midi  ch:0  note off  key:36  vel:0
        0       midi  ch:0  note off  key:44  vel:0
        24      midi  ch:0  note on  key:46  vel:1
        24      midi  ch:0  note off  key:46  vel:0
        24      midi  ch:0  note on  key:36  vel:1
        0       midi  ch:0  note on  key:38  vel:1
        0       midi  ch:0  note on  key:42  vel:1
        24      midi  ch:0  note off  key:36  vel:0
        0       midi  ch:0  note on  key:36  vel:1
        0       midi  ch:0  note off  key:38  vel:0
        0       midi  ch:0  note off  key:42  vel:0
        24      midi  ch:0  note off  key:36  vel:0
        0       midi  ch:0  note on  key:36  vel:1
        24      midi  ch:0  note off  key:36  vel:0
        0       midi  ch:0  note on  key:38  vel:1
        24      midi  ch:0  note on  key:36  vel:1
        0       midi  ch:0  note off  key:38  vel:0
        0       midi  ch:0  note on  key:46  vel:1
        24      midi  ch:0  note off  key:36  vel:0
        0       midi  ch:0  note off  key:46  vel:0
        72      midi  ch:0  note on  key:36  vel:1
        0       midi  ch:0  note on  key:38  vel:1
        0       midi  ch:0  note on  key:42  vel:1
        24      midi  ch:0  note off  key:36  vel:0
        0       midi  ch:0  note off  key:38  vel:0
        0       midi  ch:0  note off  key:42  vel:0
        72      midi  ch:0  note on  key:36  vel:1
        0       midi  ch:0  note on  key:44  vel:1
        24      midi  ch:0  note off  key:36  vel:0
        0       midi  ch:0  note off  key:44  vel:0
        72      midi  ch:0  note on  key:36  vel:1
        0       midi  ch:0  note on  key:38  vel:1
        0       midi  ch:0  note on  key:42  vel:1
        24      midi  ch:0  note off  key:36  vel:0
        0       midi  ch:0  note off  key:38  vel:0
        0       midi  ch:0  note off  key:42  vel:0
        72      midi  ch:0  note on  key:36  vel:1
        0       midi  ch:0  note on  key:46  vel:1
        24      midi  ch:0  note off  key:36  vel:0
        0       midi  ch:0  note off  key:46  vel:0
        24      midi  ch:0  note on  key:42  vel:1
        24      midi  ch:0  note off  key:42  vel:0
        24      midi  ch:0  note on  key:36  vel:1
        0       midi  ch:0  note on  key:38  vel:1
        0       midi  ch:0  note on  key:42  vel:1
        24      midi  ch:0  note off  key:36  vel:0
        0       midi  ch:0  note off  key:38  vel:0
        0       midi  ch:0  note off  key:42  vel:0
        24      midi  ch:0  note on  key:46  vel:1
        24      midi  ch:0  note off  key:46  vel:0
        24      midi  ch:0  note on  key:36  vel:1
        0       midi  ch:0  note on  key:44  vel:1
        24      midi  ch:0  note off  key:36  vel:0
        0       midi  ch:0  note off  key:44  vel:0
        72      midi  ch:0  note on  key:36  vel:1
        0       midi  ch:0  note on  key:38  vel:1
        0       midi  ch:0  note on  key:42  vel:1
        24      midi  ch:0  note off  key:36  vel:0
        0       midi  ch:0  note off  key:38  vel:0
        0       midi  ch:0  note off  key:42  vel:0
        72      midi  ch:0  note on  key:36  vel:1
        0       midi  ch:0  note on  key:44  vel:1
        24      midi  ch:0  note off  key:36  vel:0
        0       midi  ch:0  note off  key:44  vel:0
        72      midi  ch:0  note on  key:36  vel:1
        0       midi  ch:0  note on  key:38  vel:1
        0       midi  ch:0  note on  key:42  vel:1
        24      midi  ch:0  note off  key:36  vel:0
        0       midi  ch:0  note off  key:38  vel:0
        0       midi  ch:0  note off  key:42  vel:0
        72      midi  ch:0  note on  key:36  vel:1
        0       midi  ch:0  note on  key:44  vel:1
        24      midi  ch:0  note off  key:36  vel:0
        0       midi  ch:0  note off  key:44  vel:0
        72      midi  ch:0  note on  key:36  vel:1
        0       midi  ch:0  note on  key:38  vel:1
        0       midi  ch:0  note on  key:42  vel:1
        0       midi  ch:0  note on  key:50  vel:1
        24      midi  ch:0  note off  key:36  vel:0
        0       midi  ch:0  note off  key:38  vel:0
        0       midi  ch:0  note off  key:42  vel:0
        0       midi  ch:0  note off  key:50  vel:0
        72      midi  ch:0  note on  key:36  vel:1
        0       midi  ch:0  note on  key:44  vel:1
        24      midi  ch:0  note off  key:36  vel:0
        0       midi  ch:0  note off  key:44  vel:0
        72      midi  ch:0  note on  key:36  vel:1
        0       midi  ch:0  note on  key:38  vel:1
        0       midi  ch:0  note on  key:42  vel:1
        24      midi  ch:0  note off  key:36  vel:0
        0       midi  ch:0  note off  key:38  vel:0
        0       midi  ch:0  note off  key:42  vel:0
        72      midi  ch:0  note on  key:36  vel:1
        0       midi  ch:0  note on  key:38  vel:1
        0       midi  ch:0  note on  key:44  vel:1
        24      midi  ch:0  note off  key:36  vel:0
        0       midi  ch:0  note on  key:36  vel:1
        0       midi  ch:0  note off  key:38  vel:0
        0       midi  ch:0  note off  key:44  vel:0
        24      midi  ch:0  note off  key:36  vel:0
        0       midi  ch:0  note on  key:36  vel:1
        24      midi  ch:0  note off  key:36  vel:0
        0       midi  ch:0  note on  key:38  vel:1
        24      midi  ch:0  note on  key:36  vel:1
        0       midi  ch:0  note off  key:38  vel:0
        0       midi  ch:0  note on  key:46  vel:1
        24      midi  ch:0  note off  key:36  vel:0
        0       midi  ch:0  note on  key:36  vel:1
        0       midi  ch:0  note off  key:46  vel:0
        24      midi  ch:0  note off  key:36  vel:0
        0       midi  ch:0  note on  key:38  vel:1
        24      midi  ch:0  note off  key:38  vel:0
        24      midi  ch:0  note on  key:36  vel:1
        24      midi  ch:0  note off  key:36  vel:0
        72      midi  ch:0  note on  key:36  vel:1
        24      midi  ch:0  note off  key:36  vel:0
        72      midi  ch:0  note on  key:36  vel:1
        24      midi  ch:0  note off  key:36  vel:0
        72      midi  ch:0  note on  key:36  vel:1
        24      midi  ch:0  note off  key:36  vel:0
        72      midi  ch:0  note on  key:36  vel:1
        24      midi  ch:0  note off  key:36  vel:0
        72      midi  ch:0  note on  key:36  vel:1
        24      midi  ch:0  note off  key:36  vel:0
        72      midi  ch:0  note on  key:36  vel:1
        24      midi  ch:0  note off  key:36  vel:0
        48      midi  ch:0  note on  key:39  vel:1
        24      midi  ch:0  note on  key:36  vel:1
        0       midi  ch:0  note off  key:39  vel:0
        24      midi  ch:0  note off  key:36  vel:0
        24      midi  ch:0  note on  key:36  vel:1
        24      midi  ch:0  note off  key:36  vel:0
        24      midi  ch:0  note on  key:36  vel:1
        0       midi  ch:0  note on  key:38  vel:1
        24      midi  ch:0  note off  key:36  vel:0
        0       midi  ch:0  note off  key:38  vel:0
        72      midi  ch:0  note on  key:36  vel:1
        24      midi  ch:0  note off  key:36  vel:0
        72      midi  ch:0  note on  key:36  vel:1
        24      midi  ch:0  note off  key:36  vel:0
        72      midi  ch:0  note on  key:36  vel:1
        24      midi  ch:0  note off  key:36  vel:0
        72      midi  ch:0  note on  key:36  vel:1
        24      midi  ch:0  note off  key:36  vel:0
        72      midi  ch:0  note on  key:36  vel:1
        24      midi  ch:0  note off  key:36  vel:0
        72      midi  ch:0  note on  key:36  vel:1
        24      midi  ch:0  note off  key:36  vel:0
        72      midi  ch:0  note on  key:36  vel:1
        24      midi  ch:0  note off  key:36  vel:0
        72      midi  ch:0  note on  key:36  vel:1
        24      midi  ch:0  note off  key:36  vel:0
        72      midi  ch:0  note on  key:36  vel:1
        24      midi  ch:0  note off  key:36  vel:0
        72      midi  ch:0  note on  key:36  vel:1
        24      midi  ch:0  note off  key:36  vel:0
        72      midi  ch:0  note on  key:36  vel:1
        24      midi  ch:0  note off  key:36  vel:0
        72      midi  ch:0  note on  key:36  vel:1
        24      midi  ch:0  note off  key:36  vel:0
        72      midi  ch:0  note on  key:36  vel:1
        24      midi  ch:0  note off  key:36  vel:0
        72      midi  ch:0  note on  key:36  vel:1
        24      midi  ch:0  note off  key:36  vel:0
        48      midi  ch:0  note on  key:39  vel:1
        24      midi  ch:0  note on  key:36  vel:1
        0       midi  ch:0  note off  key:39  vel:0
        24      midi  ch:0  note off  key:36  vel:0
        24      midi  ch:0  note on  key:36  vel:1
        24      midi  ch:0  note off  key:36  vel:0
        24      midi  ch:0  note on  key:36  vel:1
        0       midi  ch:0  note on  key:38  vel:1
        24      midi  ch:0  note off  key:36  vel:0
        0       midi  ch:0  note off  key:38  vel:0
        72      midi  ch:0  note on  key:36  vel:1
        24      midi  ch:0  note off  key:36  vel:0
        72      midi  ch:0  note on  key:36  vel:1
        24      midi  ch:0  note off  key:36  vel:0
        72      midi  ch:0  note on  key:36  vel:1
        24      midi  ch:0  note off  key:36  vel:0
        72      midi  ch:0  note on  key:36  vel:1
        24      midi  ch:0  note off  key:36  vel:0
        72      midi  ch:0  note on  key:36  vel:1
        24      midi  ch:0  note off  key:36  vel:0
        72      midi  ch:0  note on  key:36  vel:1
        24      midi  ch:0  note off  key:36  vel:0
        72      midi  ch:0  note on  key:36  vel:1
        24      midi  ch:0  note off  key:36  vel:0
        72      midi  ch:0  note on  key:36  vel:1
        24      midi  ch:0  note off  key:36  vel:0
        72      midi  ch:0  note on  key:36  vel:1
        0       midi  ch:0  note on  key:38  vel:1
        24      midi  ch:0  note off  key:36  vel:0
        0       midi  ch:0  note off  key:38  vel:0
        72      midi  ch:0  note on  key:36  vel:1
        24      midi  ch:0  note off  key:36  vel:0
        72      midi  ch:0  note on  key:36  vel:1
        0       midi  ch:0  note on  key:38  vel:1
        24      midi  ch:0  note off  key:36  vel:0
        0       midi  ch:0  note off  key:38  vel:0
        72      midi  ch:0  note on  key:36  vel:1
        24      midi  ch:0  note off  key:36  vel:0
        72      midi  ch:0  note on  key:36  vel:1
        0       midi  ch:0  note on  key:38  vel:1
        24      midi  ch:0  note off  key:36  vel:0
        0       midi  ch:0  note off  key:38  vel:0
        72      midi  ch:0  note on  key:36  vel:1
        24      midi  ch:0  note off  key:36  vel:0
        72      midi  ch:0  note on  key:36  vel:1
        0       midi  ch:0  note on  key:38  vel:1
        24      midi  ch:0  note off  key:36  vel:0
        0       midi  ch:0  note off  key:38  vel:0
        24      midi  ch:0  note on  key:36  vel:1
        24      midi  ch:0  note off  key:36  vel:0
        24      midi  ch:0  note on  key:36  vel:1
        24      midi  ch:0  note off  key:36  vel:0
        72      midi  ch:0  note on  key:36  vel:1
        0       midi  ch:0  note on  key:38  vel:1
        24      midi  ch:0  note off  key:36  vel:0
        0       midi  ch:0  note off  key:38  vel:0
        72      midi  ch:0  note on  key:36  vel:1
        24      midi  ch:0  note off  key:36  vel:0
        72      midi  ch:0  note on  key:36  vel:1
        0       midi  ch:0  note on  key:38  vel:1
        24      midi  ch:0  note off  key:36  vel:0
        0       midi  ch:0  note off  key:38  vel:0
        72      midi  ch:0  note on  key:36  vel:1
        24      midi  ch:0  note off  key:36  vel:0
        72      midi  ch:0  note on  key:36  vel:1
        0       midi  ch:0  note on  key:38  vel:1
        24      midi  ch:0  note off  key:36  vel:0
        0       midi  ch:0  note off  key:38  vel:0
        72      midi  ch:0  note on  key:36  vel:1
        24      midi  ch:0  note off  key:36  vel:0
        72      midi  ch:0  note on  key:36  vel:1
        0       midi  ch:0  note on  key:38  vel:1
        24      midi  ch:0  note off  key:36  vel:0
        0       midi  ch:0  note off  key:38  vel:0
        72      midi  ch:0  note on  key:36  vel:1
        24      midi  ch:0  note off  key:36  vel:0
        72      midi  ch:0  note on  key:36  vel:1
        0       midi  ch:0  note on  key:38  vel:1
        24      midi  ch:0  note off  key:36  vel:0
        0       midi  ch:0  note off  key:38  vel:0
        72      midi  ch:0  note on  key:36  vel:1
        24      midi  ch:0  note off  key:36  vel:0
        72      midi  ch:0  note on  key:36  vel:1
        0       midi  ch:0  note on  key:38  vel:1
        24      midi  ch:0  note off  key:36  vel:0
        0       midi  ch:0  note off  key:38  vel:0
        72      midi  ch:0  note on  key:36  vel:1
        24      midi  ch:0  note off  key:36  vel:0
        72      midi  ch:0  note on  key:36  vel:1
        0       midi  ch:0  note on  key:38  vel:1
        24      midi  ch:0  note off  key:36  vel:0
        0       midi  ch:0  note off  key:38  vel:0
        72      midi  ch:0  note on  key:36  vel:1
        24      midi  ch:0  note off  key:36  vel:0
        72      midi  ch:0  note on  key:36  vel:1
        0       midi  ch:0  note on  key:38  vel:1
        24      midi  ch:0  note off  key:36  vel:0
        0       midi  ch:0  note off  key:38  vel:0
        24      midi  ch:0  note on  key:36  vel:1
        24      midi  ch:0  note off  key:36  vel:0
        24      midi  ch:0  note on  key:36  vel:1
        24      midi  ch:0  note off  key:36  vel:0
        72      midi  ch:0  note on  key:36  vel:1
        0       midi  ch:0  note on  key:38  vel:1
        24      midi  ch:0  note off  key:36  vel:0
        0       midi  ch:0  note off  key:38  vel:0
        72      midi  ch:0  note on  key:36  vel:1
        24      midi  ch:0  note off  key:36  vel:0
        72      midi  ch:0  note on  key:36  vel:1
        0       midi  ch:0  note on  key:38  vel:1
        24      midi  ch:0  note off  key:36  vel:0
        0       midi  ch:0  note off  key:38  vel:0
        72      midi  ch:0  note on  key:36  vel:1
        24      midi  ch:0  note off  key:36  vel:0
        72      midi  ch:0  note on  key:36  vel:1
        0       midi  ch:0  note on  key:38  vel:1
        24      midi  ch:0  note off  key:36  vel:0
        0       midi  ch:0  note off  key:38  vel:0
        72      midi  ch:0  note on  key:36  vel:1
        24      midi  ch:0  note off  key:36  vel:0
        72      midi  ch:0  note on  key:36  vel:1
        0       midi  ch:0  note on  key:38  vel:1
        24      midi  ch:0  note off  key:36  vel:0
        0       midi  ch:0  note off  key:38  vel:0
        72      midi  ch:0  note on  key:36  vel:1
        0       midi  ch:0  note on  key:44  vel:1
        0       midi  ch:0  note on  key:49  vel:1
        24      midi  ch:0  note off  key:36  vel:0
        0       midi  ch:0  note off  key:44  vel:0
        0       midi  ch:0  note off  key:49  vel:0
        24      midi  ch:0  note on  key:42  vel:1
        24      midi  ch:0  note off  key:42  vel:0
        24      midi  ch:0  note on  key:36  vel:1
        0       midi  ch:0  note on  key:38  vel:1
        0       midi  ch:0  note on  key:42  vel:1
        24      midi  ch:0  note off  key:36  vel:0
        0       midi  ch:0  note off  key:38  vel:0
        0       midi  ch:0  note off  key:42  vel:0
        24      midi  ch:0  note on  key:42  vel:1
        24      midi  ch:0  note off  key:42  vel:0
        24      midi  ch:0  note on  key:36  vel:1
        0       midi  ch:0  note on  key:44  vel:1
        24      midi  ch:0  note off  key:36  vel:0
        0       midi  ch:0  note off  key:44  vel:0
        24      midi  ch:0  note on  key:42  vel:1
        24      midi  ch:0  note off  key:42  vel:0
        24      midi  ch:0  note on  key:36  vel:1
        0       midi  ch:0  note on  key:38  vel:1
        0       midi  ch:0  note on  key:42  vel:1
        24      midi  ch:0  note off  key:36  vel:0
        0       midi  ch:0  note off  key:38  vel:0
        0       midi  ch:0  note off  key:42  vel:0
        24      midi  ch:0  note on  key:42  vel:1
        24      midi  ch:0  note off  key:42  vel:0
        24      midi  ch:0  note on  key:36  vel:1
        0       midi  ch:0  note on  key:44  vel:1
        24      midi  ch:0  note off  key:36  vel:0
        0       midi  ch:0  note off  key:44  vel:0
        24      midi  ch:0  note on  key:42  vel:1
        24      midi  ch:0  note off  key:42  vel:0
        24      midi  ch:0  note on  key:36  vel:1
        0       midi  ch:0  note on  key:38  vel:1
        0       midi  ch:0  note on  key:42  vel:1
        24      midi  ch:0  note off  key:36  vel:0
        0       midi  ch:0  note off  key:38  vel:0
        0       midi  ch:0  note off  key:42  vel:0
        24      midi  ch:0  note on  key:42  vel:1
        24      midi  ch:0  note off  key:42  vel:0
        24      midi  ch:0  note on  key:36  vel:1
        0       midi  ch:0  note on  key:44  vel:1
        24      midi  ch:0  note off  key:36  vel:0
        0       midi  ch:0  note off  key:44  vel:0
        24      midi  ch:0  note on  key:42  vel:1
        24      midi  ch:0  note off  key:42  vel:0
        24      midi  ch:0  note on  key:36  vel:1
        0       midi  ch:0  note on  key:38  vel:1
        0       midi  ch:0  note on  key:48  vel:1
        24      midi  ch:0  note off  key:36  vel:0
        0       midi  ch:0  note off  key:38  vel:0
        0       midi  ch:0  note off  key:48  vel:0
        24      midi  ch:0  note on  key:36  vel:1
        0       midi  ch:0  note on  key:42  vel:1
        24      midi  ch:0  note off  key:36  vel:0
        0       midi  ch:0  note off  key:42  vel:0
        24      midi  ch:0  note on  key:36  vel:1
        0       midi  ch:0  note on  key:44  vel:1
        24      midi  ch:0  note off  key:36  vel:0
        0       midi  ch:0  note off  key:44  vel:0
        24      midi  ch:0  note on  key:42  vel:1
        24      midi  ch:0  note off  key:42  vel:0
        24      midi  ch:0  note on  key:36  vel:1
        0       midi  ch:0  note on  key:38  vel:1
        0       midi  ch:0  note on  key:42  vel:1
        24      midi  ch:0  note off  key:36  vel:0
        0       midi  ch:0  note off  key:38  vel:0
        0       midi  ch:0  note off  key:42  vel:0
        24      midi  ch:0  note on  key:42  vel:1
        24      midi  ch:0  note off  key:42  vel:0
        24      midi  ch:0  note on  key:36  vel:1
        0       midi  ch:0  note on  key:44  vel:1
        24      midi  ch:0  note off  key:36  vel:0
        0       midi  ch:0  note off  key:44  vel:0
        24      midi  ch:0  note on  key:42  vel:1
        24      midi  ch:0  note off  key:42  vel:0
        24      midi  ch:0  note on  key:36  vel:1
        0       midi  ch:0  note on  key:38  vel:1
        0       midi  ch:0  note on  key:42  vel:1
        24      midi  ch:0  note off  key:36  vel:0
        0       midi  ch:0  note off  key:38  vel:0
        0       midi  ch:0  note off  key:42  vel:0
        24      midi  ch:0  note on  key:42  vel:1
        24      midi  ch:0  note off  key:42  vel:0
        24      midi  ch:0  note on  key:36  vel:1
        0       midi  ch:0  note on  key:44  vel:1
        24      midi  ch:0  note off  key:36  vel:0
        0       midi  ch:0  note off  key:44  vel:0
        24      midi  ch:0  note on  key:42  vel:1
        24      midi  ch:0  note off  key:42  vel:0
        24      midi  ch:0  note on  key:36  vel:1
        0       midi  ch:0  note on  key:38  vel:1
        0       midi  ch:0  note on  key:42  vel:1
        24      midi  ch:0  note off  key:36  vel:0
        0       midi  ch:0  note off  key:38  vel:0
        0       midi  ch:0  note off  key:42  vel:0
        24      midi  ch:0  note on  key:42  vel:1
        24      midi  ch:0  note off  key:42  vel:0
        24      midi  ch:0  note on  key:36  vel:1
        0       midi  ch:0  note on  key:44  vel:1
        24      midi  ch:0  note off  key:36  vel:0
        0       midi  ch:0  note off  key:44  vel:0
        24      midi  ch:0  note on  key:46  vel:1
        24      midi  ch:0  note off  key:46  vel:0
        24      midi  ch:0  note on  key:36  vel:1
        0       midi  ch:0  note on  key:38  vel:1
        0       midi  ch:0  note on  key:42  vel:1
        24      midi  ch:0  note off  key:36  vel:0
        0       midi  ch:0  note off  key:38  vel:0
        0       midi  ch:0  note off  key:42  vel:0
        24      midi  ch:0  note on  key:42  vel:1
        24      midi  ch:0  note off  key:42  vel:0
        24      midi  ch:0  note on  key:36  vel:1
        0       midi  ch:0  note on  key:46  vel:1
        24      midi  ch:0  note off  key:36  vel:0
        0       midi  ch:0  note off  key:46  vel:0
        24      midi  ch:0  note on  key:42  vel:1
        24      midi  ch:0  note off  key:42  vel:0
        24      midi  ch:0  note on  key:36  vel:1
        0       midi  ch:0  note on  key:38  vel:1
        0       midi  ch:0  note on  key:42  vel:1
        24      midi  ch:0  note off  key:36  vel:0
        0       midi  ch:0  note off  key:38  vel:0
        0       midi  ch:0  note off  key:42  vel:0
        24      midi  ch:0  note on  key:42  vel:1
        24      midi  ch:0  note off  key:42  vel:0
        24      midi  ch:0  note on  key:36  vel:1
        0       midi  ch:0  note on  key:44  vel:1
        24      midi  ch:0  note off  key:36  vel:0
        0       midi  ch:0  note off  key:44  vel:0
        24      midi  ch:0  note on  key:42  vel:1
        24      midi  ch:0  note off  key:42  vel:0
        24      midi  ch:0  note on  key:36  vel:1
        0       midi  ch:0  note on  key:38  vel:1
        0       midi  ch:0  note on  key:42  vel:1
        24      midi  ch:0  note off  key:36  vel:0
        0       midi  ch:0  note off  key:38  vel:0
        0       midi  ch:0  note off  key:42  vel:0
        24      midi  ch:0  note on  key:42  vel:1
        24      midi  ch:0  note off  key:42  vel:0
        24      midi  ch:0  note on  key:36  vel:1
        0       midi  ch:0  note on  key:46  vel:1
        24      midi  ch:0  note off  key:36  vel:0
        0       midi  ch:0  note off  key:46  vel:0
        24      midi  ch:0  note on  key:42  vel:1
        24      midi  ch:0  note off  key:42  vel:0
        24      midi  ch:0  note on  key:36  vel:1
        0       midi  ch:0  note on  key:38  vel:1
        0       midi  ch:0  note on  key:42  vel:1
        24      midi  ch:0  note off  key:36  vel:0
        0       midi  ch:0  note off  key:38  vel:0
        0       midi  ch:0  note off  key:42  vel:0
        24      midi  ch:0  note on  key:46  vel:1
        24      midi  ch:0  note off  key:46  vel:0
        24      midi  ch:0  note on  key:36  vel:1
        0       midi  ch:0  note on  key:44  vel:1
        24      midi  ch:0  note off  key:36  vel:0
        0       midi  ch:0  note off  key:44  vel:0
        24      midi  ch:0  note on  key:42  vel:1
        24      midi  ch:0  note off  key:42  vel:0
        24      midi  ch:0  note on  key:36  vel:1
        0       midi  ch:0  note on  key:38  vel:1
        0       midi  ch:0  note on  key:42  vel:1
        24      midi  ch:0  note off  key:36  vel:0
        0       midi  ch:0  note off  key:38  vel:0
        0       midi  ch:0  note off  key:42  vel:0
        24      midi  ch:0  note on  key:36  vel:1
        0       midi  ch:0  note on  key:42  vel:1
        24      midi  ch:0  note off  key:36  vel:0
        0       midi  ch:0  note off  key:42  vel:0
        24      midi  ch:0  note on  key:36  vel:1
        0       midi  ch:0  note on  key:44  vel:1
        24      midi  ch:0  note off  key:36  vel:0
        0       midi  ch:0  note off  key:44  vel:0
        24      midi  ch:0  note on  key:42  vel:1
        24      midi  ch:0  note off  key:42  vel:0
        24      midi  ch:0  note on  key:36  vel:1
        0       midi  ch:0  note on  key:38  vel:1
        0       midi  ch:0  note on  key:42  vel:1
        24      midi  ch:0  note off  key:36  vel:0
        0       midi  ch:0  note off  key:38  vel:0
        0       midi  ch:0  note off  key:42  vel:0
        24      midi  ch:0  note on  key:42  vel:1
        24      midi  ch:0  note off  key:42  vel:0
        24      midi  ch:0  note on  key:36  vel:1
        0       midi  ch:0  note on  key:44  vel:1
        24      midi  ch:0  note off  key:36  vel:0
        0       midi  ch:0  note off  key:44  vel:0
        24      midi  ch:0  note on  key:42  vel:1
        24      midi  ch:0  note off  key:42  vel:0
        24      midi  ch:0  note on  key:36  vel:1
        0       midi  ch:0  note on  key:38  vel:1
        0       midi  ch:0  note on  key:42  vel:1
        24      midi  ch:0  note off  key:36  vel:0
        0       midi  ch:0  note off  key:38  vel:0
        0       midi  ch:0  note off  key:42  vel:0
        24      midi  ch:0  note on  key:42  vel:1
        24      midi  ch:0  note off  key:42  vel:0
        24      midi  ch:0  note on  key:36  vel:1
        0       midi  ch:0  note on  key:44  vel:1
        24      midi  ch:0  note off  key:36  vel:0
        0       midi  ch:0  note off  key:44  vel:0
        24      midi  ch:0  note on  key:42  vel:1
        24      midi  ch:0  note off  key:42  vel:0
        24      midi  ch:0  note on  key:36  vel:1
        0       midi  ch:0  note on  key:38  vel:1
        0       midi  ch:0  note on  key:42  vel:1
        24      midi  ch:0  note off  key:36  vel:0
        0       midi  ch:0  note off  key:38  vel:0
        0       midi  ch:0  note off  key:42  vel:0
        24      midi  ch:0  note on  key:42  vel:1
        24      midi  ch:0  note off  key:42  vel:0
        24      midi  ch:0  note on  key:36  vel:1
        0       midi  ch:0  note on  key:44  vel:1
        24      midi  ch:0  note off  key:36  vel:0
        0       midi  ch:0  note off  key:44  vel:0
        24      midi  ch:0  note on  key:36  vel:1
        0       midi  ch:0  note on  key:44  vel:1
        24      midi  ch:0  note off  key:36  vel:0
        0       midi  ch:0  note off  key:44  vel:0
        24      midi  ch:0  note on  key:36  vel:1
        0       midi  ch:0  note on  key:38  vel:1
        0       midi  ch:0  note on  key:46  vel:1
        24      midi  ch:0  note off  key:36  vel:0
        0       midi  ch:0  note off  key:38  vel:0
        0       midi  ch:0  note off  key:46  vel:0
        24      midi  ch:0  note on  key:38  vel:1
        0       midi  ch:0  note on  key:44  vel:1
        24      midi  ch:0  note off  key:38  vel:0
        0       midi  ch:0  note off  key:44  vel:0
        24      midi  ch:0  note on  key:36  vel:1
        0       midi  ch:0  note on  key:44  vel:1
        0       midi  ch:0  note on  key:49  vel:1
        24      midi  ch:0  note off  key:36  vel:0
        0       midi  ch:0  note off  key:44  vel:0
        0       midi  ch:0  note off  key:49  vel:0
        24      midi  ch:0  note on  key:42  vel:1
        24      midi  ch:0  note off  key:42  vel:0
        24      midi  ch:0  note on  key:36  vel:1
        0       midi  ch:0  note on  key:38  vel:1
        0       midi  ch:0  note on  key:42  vel:1
        24      midi  ch:0  note off  key:36  vel:0
        0       midi  ch:0  note off  key:38  vel:0
        0       midi  ch:0  note off  key:42  vel:0
        24      midi  ch:0  note on  key:42  vel:1
        24      midi  ch:0  note off  key:42  vel:0
        24      midi  ch:0  note on  key:36  vel:1
        0       midi  ch:0  note on  key:44  vel:1
        24      midi  ch:0  note off  key:36  vel:0
        0       midi  ch:0  note off  key:44  vel:0
        24      midi  ch:0  note on  key:42  vel:1
        24      midi  ch:0  note off  key:42  vel:0
        24      midi  ch:0  note on  key:36  vel:1
        0       midi  ch:0  note on  key:38  vel:1
        0       midi  ch:0  note on  key:42  vel:1
        24      midi  ch:0  note off  key:36  vel:0
        0       midi  ch:0  note off  key:38  vel:0
        0       midi  ch:0  note off  key:42  vel:0
        24      midi  ch:0  note on  key:42  vel:1
        24      midi  ch:0  note off  key:42  vel:0
        24      midi  ch:0  note on  key:36  vel:1
        0       midi  ch:0  note on  key:44  vel:1
        24      midi  ch:0  note off  key:36  vel:0
        0       midi  ch:0  note off  key:44  vel:0
        24      midi  ch:0  note on  key:42  vel:1
        24      midi  ch:0  note off  key:42  vel:0
        24      midi  ch:0  note on  key:36  vel:1
        0       midi  ch:0  note on  key:38  vel:1
        0       midi  ch:0  note on  key:42  vel:1
        24      midi  ch:0  note off  key:36  vel:0
        0       midi  ch:0  note off  key:38  vel:0
        0       midi  ch:0  note off  key:42  vel:0
        24      midi  ch:0  note on  key:42  vel:1
        24      midi  ch:0  note off  key:42  vel:0
        24      midi  ch:0  note on  key:36  vel:1
        0       midi  ch:0  note on  key:44  vel:1
        24      midi  ch:0  note off  key:36  vel:0
        0       midi  ch:0  note off  key:44  vel:0
        24      midi  ch:0  note on  key:42  vel:1
        24      midi  ch:0  note off  key:42  vel:0
        24      midi  ch:0  note on  key:36  vel:1
        0       midi  ch:0  note on  key:38  vel:1
        0       midi  ch:0  note on  key:48  vel:1
        24      midi  ch:0  note off  key:36  vel:0
        0       midi  ch:0  note off  key:38  vel:0
        0       midi  ch:0  note off  key:48  vel:0
        24      midi  ch:0  note on  key:42  vel:1
        24      midi  ch:0  note off  key:42  vel:0
        24      midi  ch:0  note on  key:36  vel:1
        0       midi  ch:0  note on  key:44  vel:1
        24      midi  ch:0  note off  key:36  vel:0
        0       midi  ch:0  note off  key:44  vel:0
        24      midi  ch:0  note on  key:42  vel:1
        24      midi  ch:0  note off  key:42  vel:0
        24      midi  ch:0  note on  key:36  vel:1
        0       midi  ch:0  note on  key:38  vel:1
        0       midi  ch:0  note on  key:42  vel:1
        24      midi  ch:0  note off  key:36  vel:0
        0       midi  ch:0  note off  key:38  vel:0
        0       midi  ch:0  note off  key:42  vel:0
        24      midi  ch:0  note on  key:42  vel:1
        24      midi  ch:0  note off  key:42  vel:0
        24      midi  ch:0  note on  key:36  vel:1
        0       midi  ch:0  note on  key:44  vel:1
        24      midi  ch:0  note off  key:36  vel:0
        0       midi  ch:0  note off  key:44  vel:0
        24      midi  ch:0  note on  key:42  vel:1
        24      midi  ch:0  note off  key:42  vel:0
        24      midi  ch:0  note on  key:36  vel:1
        0       midi  ch:0  note on  key:38  vel:1
        0       midi  ch:0  note on  key:42  vel:1
        24      midi  ch:0  note off  key:36  vel:0
        0       midi  ch:0  note off  key:38  vel:0
        0       midi  ch:0  note off  key:42  vel:0
        24      midi  ch:0  note on  key:42  vel:1
        24      midi  ch:0  note off  key:42  vel:0
        24      midi  ch:0  note on  key:36  vel:1
        0       midi  ch:0  note on  key:44  vel:1
        24      midi  ch:0  note off  key:36  vel:0
        0       midi  ch:0  note off  key:44  vel:0
        24      midi  ch:0  note on  key:42  vel:1
        24      midi  ch:0  note off  key:42  vel:0
        24      midi  ch:0  note on  key:36  vel:1
        0       midi  ch:0  note on  key:38  vel:1
        0       midi  ch:0  note on  key:42  vel:1
        0       midi  ch:0  note on  key:50  vel:1
        24      midi  ch:0  note off  key:36  vel:0
        0       midi  ch:0  note off  key:38  vel:0
        0       midi  ch:0  note off  key:42  vel:0
        0       midi  ch:0  note off  key:50  vel:0
        24      midi  ch:0  note on  key:42  vel:1
        24      midi  ch:0  note off  key:42  vel:0
        24      midi  ch:0  note on  key:36  vel:1
        0       midi  ch:0  note on  key:44  vel:1
        24      midi  ch:0  note off  key:36  vel:0
        0       midi  ch:0  note off  key:44  vel:0
        24      midi  ch:0  note on  key:46  vel:1
        24      midi  ch:0  note off  key:46  vel:0
        24      midi  ch:0  note on  key:36  vel:1
        0       midi  ch:0  note on  key:38  vel:1
        0       midi  ch:0  note on  key:42  vel:1
        24      midi  ch:0  note off  key:36  vel:0
        0       midi  ch:0  note on  key:36  vel:1
        0       midi  ch:0  note off  key:38  vel:0
        0       midi  ch:0  note off  key:42  vel:0
        24      midi  ch:0  note off  key:36  vel:0
        0       midi  ch:0  note on  key:36  vel:1
        0       midi  ch:0  note on  key:42  vel:1
        24      midi  ch:0  note off  key:36  vel:0
        0       midi  ch:0  note on  key:38  vel:1
        0       midi  ch:0  note off  key:42  vel:0
        24      midi  ch:0  note on  key:36  vel:1
        0       midi  ch:0  note off  key:38  vel:0
        0       midi  ch:0  note on  key:46  vel:1
        24      midi  ch:0  note off  key:36  vel:0
        0       midi  ch:0  note off  key:46  vel:0
        24      midi  ch:0  note on  key:42  vel:1
        24      midi  ch:0  note off  key:42  vel:0
        24      midi  ch:0  note on  key:36  vel:1
        0       midi  ch:0  note on  key:38  vel:1
        0       midi  ch:0  note on  key:42  vel:1
        24      midi  ch:0  note off  key:36  vel:0
        0       midi  ch:0  note off  key:38  vel:0
        0       midi  ch:0  note off  key:42  vel:0
        24      midi  ch:0  note on  key:42  vel:1
        24      midi  ch:0  note off  key:42  vel:0
        24      midi  ch:0  note on  key:36  vel:1
        0       midi  ch:0  note on  key:44  vel:1
        24      midi  ch:0  note off  key:36  vel:0
        0       midi  ch:0  note off  key:44  vel:0
        24      midi  ch:0  note on  key:42  vel:1
        24      midi  ch:0  note off  key:42  vel:0
        24      midi  ch:0  note on  key:36  vel:1
        0       midi  ch:0  note on  key:38  vel:1
        0       midi  ch:0  note on  key:42  vel:1
        24      midi  ch:0  note off  key:36  vel:0
        0       midi  ch:0  note off  key:38  vel:0
        0       midi  ch:0  note off  key:42  vel:0
        24      midi  ch:0  note on  key:42  vel:1
        24      midi  ch:0  note off  key:42  vel:0
        24      midi  ch:0  note on  key:36  vel:1
        0       midi  ch:0  note on  key:46  vel:1
        24      midi  ch:0  note off  key:36  vel:0
        0       midi  ch:0  note off  key:46  vel:0
        24      midi  ch:0  note on  key:42  vel:1
        24      midi  ch:0  note off  key:42  vel:0
        24      midi  ch:0  note on  key:36  vel:1
        0       midi  ch:0  note on  key:38  vel:1
        0       midi  ch:0  note on  key:42  vel:1
        24      midi  ch:0  note off  key:36  vel:0
        0       midi  ch:0  note off  key:38  vel:0
        0       midi  ch:0  note off  key:42  vel:0
        24      midi  ch:0  note on  key:46  vel:1
        24      midi  ch:0  note off  key:46  vel:0
        24      midi  ch:0  note on  key:36  vel:1
        0       midi  ch:0  note on  key:44  vel:1
        24      midi  ch:0  note off  key:36  vel:0
        0       midi  ch:0  note off  key:44  vel:0
        24      midi  ch:0  note on  key:42  vel:1
        24      midi  ch:0  note off  key:42  vel:0
        24      midi  ch:0  note on  key:36  vel:1
        0       midi  ch:0  note on  key:38  vel:1
        0       midi  ch:0  note on  key:42  vel:1
        24      midi  ch:0  note off  key:36  vel:0
        0       midi  ch:0  note off  key:38  vel:0
        0       midi  ch:0  note off  key:42  vel:0
        24      midi  ch:0  note on  key:42  vel:1
        24      midi  ch:0  note off  key:42  vel:0
        24      midi  ch:0  note on  key:36  vel:1
        0       midi  ch:0  note on  key:44  vel:1
        24      midi  ch:0  note off  key:36  vel:0
        0       midi  ch:0  note off  key:44  vel:0
        24      midi  ch:0  note on  key:42  vel:1
        24      midi  ch:0  note off  key:42  vel:0
        24      midi  ch:0  note on  key:36  vel:1
        0       midi  ch:0  note on  key:38  vel:1
        0       midi  ch:0  note on  key:42  vel:1
        24      midi  ch:0  note off  key:36  vel:0
        0       midi  ch:0  note off  key:38  vel:0
        0       midi  ch:0  note off  key:42  vel:0
        24      midi  ch:0  note on  key:42  vel:1
        24      midi  ch:0  note off  key:42  vel:0
        24      midi  ch:0  note on  key:36  vel:1
        0       midi  ch:0  note on  key:44  vel:1
        24      midi  ch:0  note off  key:36  vel:0
        0       midi  ch:0  note off  key:44  vel:0
        24      midi  ch:0  note on  key:42  vel:1
        24      midi  ch:0  note off  key:42  vel:0
        24      midi  ch:0  note on  key:36  vel:1
        0       midi  ch:0  note on  key:38  vel:1
        0       midi  ch:0  note on  key:42  vel:1
        0       midi  ch:0  note on  key:50  vel:1
        24      midi  ch:0  note off  key:36  vel:0
        0       midi  ch:0  note off  key:38  vel:0
        0       midi  ch:0  note off  key:42  vel:0
        0       midi  ch:0  note off  key:50  vel:0
        24      midi  ch:0  note on  key:42  vel:1
        24      midi  ch:0  note off  key:42  vel:0
        24      midi  ch:0  note on  key:36  vel:1
        0       midi  ch:0  note on  key:44  vel:1
        24      midi  ch:0  note off  key:36  vel:0
        0       midi  ch:0  note off  key:44  vel:0
        24      midi  ch:0  note on  key:42  vel:1
        24      midi  ch:0  note off  key:42  vel:0
        24      midi  ch:0  note on  key:36  vel:1
        0       midi  ch:0  note on  key:38  vel:1
        0       midi  ch:0  note on  key:42  vel:1
        24      midi  ch:0  note off  key:36  vel:0
        0       midi  ch:0  note off  key:38  vel:0
        0       midi  ch:0  note off  key:42  vel:0
        24      midi  ch:0  note on  key:42  vel:1
        24      midi  ch:0  note off  key:42  vel:0
        24      midi  ch:0  note on  key:36  vel:1
        0       midi  ch:0  note on  key:38  vel:1
        0       midi  ch:0  note on  key:44  vel:1
        24      midi  ch:0  note off  key:36  vel:0
        0       midi  ch:0  note on  key:36  vel:1
        0       midi  ch:0  note off  key:38  vel:0
        0       midi  ch:0  note off  key:44  vel:0
        24      midi  ch:0  note off  key:36  vel:0
        0       midi  ch:0  note on  key:36  vel:1
        24      midi  ch:0  note off  key:36  vel:0
        0       midi  ch:0  note on  key:38  vel:1
        24      midi  ch:0  note on  key:36  vel:1
        0       midi  ch:0  note off  key:38  vel:0
        0       midi  ch:0  note on  key:46  vel:1
        24      midi  ch:0  note off  key:36  vel:0
        0       midi  ch:0  note on  key:36  vel:1
        0       midi  ch:0  note off  key:46  vel:0
        24      midi  ch:0  note off  key:36  vel:0
        0       midi  ch:0  note on  key:38  vel:1
        24      midi  ch:0  note off  key:38  vel:0
        24      midi  ch:0  note on  key:36  vel:1
        0       midi  ch:0  note on  key:44  vel:1
        0       midi  ch:0  note on  key:49  vel:1
        24      midi  ch:0  note off  key:36  vel:0
        0       midi  ch:0  note off  key:44  vel:0
        0       midi  ch:0  note off  key:49  vel:0
        72      midi  ch:0  note on  key:36  vel:1
        0       midi  ch:0  note on  key:38  vel:1
        0       midi  ch:0  note on  key:42  vel:1
        24      midi  ch:0  note off  key:36  vel:0
        0       midi  ch:0  note off  key:38  vel:0
        0       midi  ch:0  note off  key:42  vel:0
        72      midi  ch:0  note on  key:36  vel:1
        0       midi  ch:0  note on  key:44  vel:1
        24      midi  ch:0  note off  key:36  vel:0
        0       midi  ch:0  note off  key:44  vel:0
        72      midi  ch:0  note on  key:36  vel:1
        0       midi  ch:0  note on  key:38  vel:1
        0       midi  ch:0  note on  key:42  vel:1
        24      midi  ch:0  note off  key:36  vel:0
        0       midi  ch:0  note off  key:38  vel:0
        0       midi  ch:0  note off  key:42  vel:0
        72      midi  ch:0  note on  key:36  vel:1
        0       midi  ch:0  note on  key:44  vel:1
        24      midi  ch:0  note off  key:36  vel:0
        0       midi  ch:0  note off  key:44  vel:0
        72      midi  ch:0  note on  key:36  vel:1
        0       midi  ch:0  note on  key:38  vel:1
        0       midi  ch:0  note on  key:42  vel:1
        24      midi  ch:0  note off  key:36  vel:0
        0       midi  ch:0  note off  key:38  vel:0
        0       midi  ch:0  note off  key:42  vel:0
        72      midi  ch:0  note on  key:36  vel:1
        0       midi  ch:0  note on  key:44  vel:1
        24      midi  ch:0  note off  key:36  vel:0
        0       midi  ch:0  note off  key:44  vel:0
        24      midi  ch:0  note on  key:42  vel:1
        24      midi  ch:0  note off  key:42  vel:0
        24      midi  ch:0  note on  key:36  vel:1
        0       midi  ch:0  note on  key:38  vel:1
        0       midi  ch:0  note on  key:48  vel:1
        24      midi  ch:0  note off  key:36  vel:0
        0       midi  ch:0  note off  key:38  vel:0
        0       midi  ch:0  note off  key:48  vel:0
        72      midi  ch:0  note on  key:36  vel:1
        0       midi  ch:0  note on  key:44  vel:1
        24      midi  ch:0  note off  key:36  vel:0
        0       midi  ch:0  note off  key:44  vel:0
        72      midi  ch:0  note on  key:36  vel:1
        0       midi  ch:0  note on  key:38  vel:1
        0       midi  ch:0  note on  key:42  vel:1
        24      midi  ch:0  note off  key:36  vel:0
        0       midi  ch:0  note off  key:38  vel:0
        0       midi  ch:0  note off  key:42  vel:0
        72      midi  ch:0  note on  key:36  vel:1
        0       midi  ch:0  note on  key:44  vel:1
        24      midi  ch:0  note off  key:36  vel:0
        0       midi  ch:0  note off  key:44  vel:0
        72      midi  ch:0  note on  key:36  vel:1
        0       midi  ch:0  note on  key:38  vel:1
        0       midi  ch:0  note on  key:42  vel:1
        24      midi  ch:0  note off  key:36  vel:0
        0       midi  ch:0  note off  key:38  vel:0
        0       midi  ch:0  note off  key:42  vel:0
        72      midi  ch:0  note on  key:36  vel:1
        0       midi  ch:0  note on  key:44  vel:1
        24      midi  ch:0  note off  key:36  vel:0
        0       midi  ch:0  note off  key:44  vel:0
        72      midi  ch:0  note on  key:36  vel:1
        0       midi  ch:0  note on  key:38  vel:1
        0       midi  ch:0  note on  key:42  vel:1
        0       midi  ch:0  note on  key:50  vel:1
        24      midi  ch:0  note off  key:36  vel:0
        0       midi  ch:0  note off  key:38  vel:0
        0       midi  ch:0  note off  key:42  vel:0
        0       midi  ch:0  note off  key:50  vel:0
        72      midi  ch:0  note on  key:36  vel:1
        0       midi  ch:0  note on  key:44  vel:1
        24      midi  ch:0  note off  key:36  vel:0
        0       midi  ch:0  note off  key:44  vel:0
        24      midi  ch:0  note on  key:46  vel:1
        24      midi  ch:0  note off  key:46  vel:0
        24      midi  ch:0  note on  key:36  vel:1
        0       midi  ch:0  note on  key:38  vel:1
        0       midi  ch:0  note on  key:42  vel:1
        24      midi  ch:0  note off  key:36  vel:0
        0       midi  ch:0  note on  key:36  vel:1
        0       midi  ch:0  note off  key:38  vel:0
        0       midi  ch:0  note off  key:42  vel:0
        24      midi  ch:0  note off  key:36  vel:0
        0       midi  ch:0  note on  key:36  vel:1
        24      midi  ch:0  note off  key:36  vel:0
        0       midi  ch:0  note on  key:38  vel:1
        24      midi  ch:0  note on  key:36  vel:1
        0       midi  ch:0  note off  key:38  vel:0
        0       midi  ch:0  note on  key:46  vel:1
        24      midi  ch:0  note off  key:36  vel:0
        0       midi  ch:0  note off  key:46  vel:0
        72      midi  ch:0  note on  key:36  vel:1
        0       midi  ch:0  note on  key:38  vel:1
        0       midi  ch:0  note on  key:42  vel:1
        24      midi  ch:0  note off  key:36  vel:0
        0       midi  ch:0  note off  key:38  vel:0
        0       midi  ch:0  note off  key:42  vel:0
        72      midi  ch:0  note on  key:36  vel:1
        0       midi  ch:0  note on  key:44  vel:1
        24      midi  ch:0  note off  key:36  vel:0
        0       midi  ch:0  note off  key:44  vel:0
        72      midi  ch:0  note on  key:36  vel:1
        0       midi  ch:0  note on  key:38  vel:1
        0       midi  ch:0  note on  key:42  vel:1
        24      midi  ch:0  note off  key:36  vel:0
        0       midi  ch:0  note off  key:38  vel:0
        0       midi  ch:0  note off  key:42  vel:0
        72      midi  ch:0  note on  key:36  vel:1
        0       midi  ch:0  note on  key:46  vel:1
        24      midi  ch:0  note off  key:36  vel:0
        0       midi  ch:0  note off  key:46  vel:0
        24      midi  ch:0  note on  key:42  vel:1
        24      midi  ch:0  note off  key:42  vel:0
        24      midi  ch:0  note on  key:36  vel:1
        0       midi  ch:0  note on  key:38  vel:1
        0       midi  ch:0  note on  key:42  vel:1
        24      midi  ch:0  note off  key:36  vel:0
        0       midi  ch:0  note off  key:38  vel:0
        0       midi  ch:0  note off  key:42  vel:0
        24      midi  ch:0  note on  key:46  vel:1
        24      midi  ch:0  note off  key:46  vel:0
        24      midi  ch:0  note on  key:36  vel:1
        0       midi  ch:0  note on  key:44  vel:1
        24      midi  ch:0  note off  key:36  vel:0
        0       midi  ch:0  note off  key:44  vel:0
        72      midi  ch:0  note on  key:36  vel:1
        0       midi  ch:0  note on  key:38  vel:1
        0       midi  ch:0  note on  key:42  vel:1
        24      midi  ch:0  note off  key:36  vel:0
        0       midi  ch:0  note off  key:38  vel:0
        0       midi  ch:0  note off  key:42  vel:0
        72      midi  ch:0  note on  key:36  vel:1
        0       midi  ch:0  note on  key:44  vel:1
        24      midi  ch:0  note off  key:36  vel:0
        0       midi  ch:0  note off  key:44  vel:0
        72      midi  ch:0  note on  key:36  vel:1
        0       midi  ch:0  note on  key:38  vel:1
        0       midi  ch:0  note on  key:42  vel:1
        24      midi  ch:0  note off  key:36  vel:0
        0       midi  ch:0  note off  key:38  vel:0
        0       midi  ch:0  note off  key:42  vel:0
        72      midi  ch:0  note on  key:36  vel:1
        0       midi  ch:0  note on  key:44  vel:1
        24      midi  ch:0  note off  key:36  vel:0
        0       midi  ch:0  note off  key:44  vel:0
        72      midi  ch:0  note on  key:36  vel:1
        0       midi  ch:0  note on  key:38  vel:1
        0       midi  ch:0  note on  key:42  vel:1
        0       midi  ch:0  note on  key:50  vel:1
        24      midi  ch:0  note off  key:36  vel:0
        0       midi  ch:0  note off  key:38  vel:0
        0       midi  ch:0  note off  key:42  vel:0
        0       midi  ch:0  note off  key:50  vel:0
        72      midi  ch:0  note on  key:36  vel:1
        0       midi  ch:0  note on  key:44  vel:1
        24      midi  ch:0  note off  key:36  vel:0
        0       midi  ch:0  note off  key:44  vel:0
        72      midi  ch:0  note on  key:36  vel:1
        0       midi  ch:0  note on  key:38  vel:1
        0       midi  ch:0  note on  key:42  vel:1
        24      midi  ch:0  note off  key:36  vel:0
        0       midi  ch:0  note off  key:38  vel:0
        0       midi  ch:0  note off  key:42  vel:0
        72      midi  ch:0  note on  key:36  vel:1
        0       midi  ch:0  note on  key:38  vel:1
        0       midi  ch:0  note on  key:44  vel:1
        24      midi  ch:0  note off  key:36  vel:0
        0       midi  ch:0  note on  key:36  vel:1
        0       midi  ch:0  note off  key:38  vel:0
        0       midi  ch:0  note off  key:44  vel:0
        24      midi  ch:0  note off  key:36  vel:0
        0       midi  ch:0  note on  key:36  vel:1
        24      midi  ch:0  note off  key:36  vel:0
        0       midi  ch:0  note on  key:38  vel:1
        24      midi  ch:0  note on  key:36  vel:1
        0       midi  ch:0  note off  key:38  vel:0
        0       midi  ch:0  note on  key:46  vel:1
        24      midi  ch:0  note off  key:36  vel:0
        0       midi  ch:0  note on  key:36  vel:1
        0       midi  ch:0  note off  key:46  vel:0
        24      midi  ch:0  note off  key:36  vel:0
        0       midi  ch:0  note on  key:38  vel:1
        24      midi  ch:0  note off  key:38  vel:0
        24      midi  ch:0  note on  key:36  vel:1
        0       midi  ch:0  note on  key:44  vel:1
        0       midi  ch:0  note on  key:49  vel:1
        24      midi  ch:0  note off  key:36  vel:0
        0       midi  ch:0  note off  key:44  vel:0
        0       midi  ch:0  note off  key:49  vel:0
        72      midi  ch:0  note on  key:36  vel:1
        0       midi  ch:0  note on  key:38  vel:1
        0       midi  ch:0  note on  key:42  vel:1
        24      midi  ch:0  note off  key:36  vel:0
        0       midi  ch:0  note off  key:38  vel:0
        0       midi  ch:0  note off  key:42  vel:0
        72      midi  ch:0  note on  key:36  vel:1
        0       midi  ch:0  note on  key:44  vel:1
        24      midi  ch:0  note off  key:36  vel:0
        0       midi  ch:0  note off  key:44  vel:0
        72      midi  ch:0  note on  key:36  vel:1
        0       midi  ch:0  note on  key:38  vel:1
        0       midi  ch:0  note on  key:42  vel:1
        24      midi  ch:0  note off  key:36  vel:0
        0       midi  ch:0  note off  key:38  vel:0
        0       midi  ch:0  note off  key:42  vel:0
        72      midi  ch:0  note on  key:36  vel:1
        0       midi  ch:0  note on  key:44  vel:1
        24      midi  ch:0  note off  key:36  vel:0
        0       midi  ch:0  note off  key:44  vel:0
        72      midi  ch:0  note on  key:36  vel:1
        0       midi  ch:0  note on  key:38  vel:1
        0       midi  ch:0  note on  key:42  vel:1
        24      midi  ch:0  note off  key:36  vel:0
        0       midi  ch:0  note off  key:38  vel:0
        0       midi  ch:0  note off  key:42  vel:0
        72      midi  ch:0  note on  key:36  vel:1
        0       midi  ch:0  note on  key:44  vel:1
        24      midi  ch:0  note off  key:36  vel:0
        0       midi  ch:0  note off  key:44  vel:0
        24      midi  ch:0  note on  key:42  vel:1
        24      midi  ch:0  note off  key:42  vel:0
        24      midi  ch:0  note on  key:36  vel:1
        0       midi  ch:0  note on  key:38  vel:1
        0       midi  ch:0  note on  key:48  vel:1
        24      midi  ch:0  note off  key:36  vel:0
        0       midi  ch:0  note off  key:38  vel:0
        0       midi  ch:0  note off  key:48  vel:0
        72      midi  ch:0  note on  key:36  vel:1
        0       midi  ch:0  note on  key:44  vel:1
        24      midi  ch:0  note off  key:36  vel:0
        0       midi  ch:0  note off  key:44  vel:0
        72      midi  ch:0  note on  key:36  vel:1
        0       midi  ch:0  note on  key:38  vel:1
        0       midi  ch:0  note on  key:42  vel:1
        24      midi  ch:0  note off  key:36  vel:0
        0       midi  ch:0  note off  key:38  vel:0
        0       midi  ch:0  note off  key:42  vel:0
        72      midi  ch:0  note on  key:36  vel:1
        0       midi  ch:0  note on  key:44  vel:1
        24      midi  ch:0  note off  key:36  vel:0
        0       midi  ch:0  note off  key:44  vel:0
        72      midi  ch:0  note on  key:36  vel:1
        0       midi  ch:0  note on  key:38  vel:1
        0       midi  ch:0  note on  key:42  vel:1
        24      midi  ch:0  note off  key:36  vel:0
        0       midi  ch:0  note off  key:38  vel:0
        0       midi  ch:0  note off  key:42  vel:0
        72      midi  ch:0  note on  key:36  vel:1
        0       midi  ch:0  note on  key:44  vel:1
        24      midi  ch:0  note off  key:36  vel:0
        0       midi  ch:0  note off  key:44  vel:0
        72      midi  ch:0  note on  key:36  vel:1
        0       midi  ch:0  note on  key:38  vel:1
        0       midi  ch:0  note on  key:42  vel:1
        0       midi  ch:0  note on  key:50  vel:1
        24      midi  ch:0  note off  key:36  vel:0
        0       midi  ch:0  note off  key:38  vel:0
        0       midi  ch:0  note off  key:42  vel:0
        0       midi  ch:0  note off  key:50  vel:0
        72      midi  ch:0  note on  key:36  vel:1
        0       midi  ch:0  note on  key:44  vel:1
        24      midi  ch:0  note off  key:36  vel:0
        0       midi  ch:0  note off  key:44  vel:0
        24      midi  ch:0  note on  key:46  vel:1
        24      midi  ch:0  note off  key:46  vel:0
        24      midi  ch:0  note on  key:36  vel:1
        0       midi  ch:0  note on  key:38  vel:1
        0       midi  ch:0  note on  key:42  vel:1
        24      midi  ch:0  note off  key:36  vel:0
        0       midi  ch:0  note on  key:36  vel:1
        0       midi  ch:0  note off  key:38  vel:0
        0       midi  ch:0  note off  key:42  vel:0
        24      midi  ch:0  note off  key:36  vel:0
        0       midi  ch:0  note on  key:36  vel:1
        24      midi  ch:0  note off  key:36  vel:0
        0       midi  ch:0  note on  key:38  vel:1
        24      midi  ch:0  note on  key:36  vel:1
        0       midi  ch:0  note off  key:38  vel:0
        0       midi  ch:0  note on  key:46  vel:1
        24      midi  ch:0  note off  key:36  vel:0
        0       midi  ch:0  note off  key:46  vel:0
        72      midi  ch:0  note on  key:36  vel:1
        0       midi  ch:0  note on  key:38  vel:1
        0       midi  ch:0  note on  key:42  vel:1
        24      midi  ch:0  note off  key:36  vel:0
        0       midi  ch:0  note off  key:38  vel:0
        0       midi  ch:0  note off  key:42  vel:0
        72      midi  ch:0  note on  key:36  vel:1
        0       midi  ch:0  note on  key:44  vel:1
        24      midi  ch:0  note off  key:36  vel:0
        0       midi  ch:0  note off  key:44  vel:0
        72      midi  ch:0  note on  key:36  vel:1
        0       midi  ch:0  note on  key:38  vel:1
        0       midi  ch:0  note on  key:42  vel:1
        24      midi  ch:0  note off  key:36  vel:0
        0       midi  ch:0  note off  key:38  vel:0
        0       midi  ch:0  note off  key:42  vel:0
        72      midi  ch:0  note on  key:36  vel:1
        0       midi  ch:0  note on  key:46  vel:1
        24      midi  ch:0  note off  key:36  vel:0
        0       midi  ch:0  note off  key:46  vel:0
        24      midi  ch:0  note on  key:42  vel:1
        24      midi  ch:0  note off  key:42  vel:0
        24      midi  ch:0  note on  key:36  vel:1
        0       midi  ch:0  note on  key:38  vel:1
        0       midi  ch:0  note on  key:42  vel:1
        24      midi  ch:0  note off  key:36  vel:0
        0       midi  ch:0  note off  key:38  vel:0
        0       midi  ch:0  note off  key:42  vel:0
        24      midi  ch:0  note on  key:46  vel:1
        24      midi  ch:0  note off  key:46  vel:0
        24      midi  ch:0  note on  key:36  vel:1
        0       midi  ch:0  note on  key:44  vel:1
        24      midi  ch:0  note off  key:36  vel:0
        0       midi  ch:0  note off  key:44  vel:0
        72      midi  ch:0  note on  key:36  vel:1
        0       midi  ch:0  note on  key:38  vel:1
        0       midi  ch:0  note on  key:42  vel:1
        24      midi  ch:0  note off  key:36  vel:0
        0       midi  ch:0  note off  key:38  vel:0
        0       midi  ch:0  note off  key:42  vel:0
        72      midi  ch:0  note on  key:36  vel:1
        0       midi  ch:0  note on  key:44  vel:1
        24      midi  ch:0  note off  key:36  vel:0
        0       midi  ch:0  note off  key:44  vel:0
        72      midi  ch:0  note on  key:36  vel:1
        0       midi  ch:0  note on  key:38  vel:1
        0       midi  ch:0  note on  key:42  vel:1
        24      midi  ch:0  note off  key:36  vel:0
        0       midi  ch:0  note off  key:38  vel:0
        0       midi  ch:0  note off  key:42  vel:0
        72      midi  ch:0  note on  key:36  vel:1
        0       midi  ch:0  note on  key:44  vel:1
        24      midi  ch:0  note off  key:36  vel:0
        0       midi  ch:0  note off  key:44  vel:0
        72      midi  ch:0  note on  key:36  vel:1
        0       midi  ch:0  note on  key:38  vel:1
        0       midi  ch:0  note on  key:42  vel:1
        0       midi  ch:0  note on  key:50  vel:1
        24      midi  ch:0  note off  key:36  vel:0
        0       midi  ch:0  note off  key:38  vel:0
        0       midi  ch:0  note off  key:42  vel:0
        0       midi  ch:0  note off  key:50  vel:0
        72      midi  ch:0  note on  key:36  vel:1
        0       midi  ch:0  note on  key:44  vel:1
        24      midi  ch:0  note off  key:36  vel:0
        0       midi  ch:0  note off  key:44  vel:0
        72      midi  ch:0  note on  key:36  vel:1
        0       midi  ch:0  note on  key:38  vel:1
        0       midi  ch:0  note on  key:42  vel:1
        24      midi  ch:0  note off  key:36  vel:0
        0       midi  ch:0  note off  key:38  vel:0
        0       midi  ch:0  note off  key:42  vel:0
        72      midi  ch:0  note on  key:36  vel:1
        0       midi  ch:0  note on  key:38  vel:1
        0       midi  ch:0  note on  key:44  vel:1
        24      midi  ch:0  note off  key:36  vel:0
        0       midi  ch:0  note on  key:36  vel:1
        0       midi  ch:0  note off  key:38  vel:0
        0       midi  ch:0  note off  key:44  vel:0
        24      midi  ch:0  note off  key:36  vel:0
        0       midi  ch:0  note on  key:36  vel:1
        24      midi  ch:0  note off  key:36  vel:0
        0       midi  ch:0  note on  key:38  vel:1
        24      midi  ch:0  note on  key:36  vel:1
        0       midi  ch:0  note off  key:38  vel:0
        0       midi  ch:0  note on  key:46  vel:1
        24      midi  ch:0  note off  key:36  vel:0
        0       midi  ch:0  note on  key:36  vel:1
        0       midi  ch:0  note off  key:46  vel:0
        24      midi  ch:0  note off  key:36  vel:0
        0       midi  ch:0  note on  key:38  vel:1
        24      midi  ch:0  note off  key:38  vel:0
        24      midi  ch:0  note on  key:52  vel:1
        24      midi  ch:0  note off  key:52  vel:0
        552     midi  ch:0  note on  key:52  vel:1
        24      midi  ch:0  note off  key:52  vel:0
        72      midi  ch:0  note on  key:52  vel:1
        24      midi  ch:0  note off  key:52  vel:0
        72      midi  ch:0  note on  key:52  vel:1
        24      midi  ch:0  note off  key:52  vel:0
        552     midi  ch:0  note on  key:38  vel:1
        0       midi  ch:0  note on  key:52  vel:1
        24      midi  ch:0  note off  key:38  vel:0
        0       midi  ch:0  note off  key:52  vel:0
        72      midi  ch:0  note on  key:38  vel:1
        0       midi  ch:0  note on  key:52  vel:1
        24      midi  ch:0  note off  key:38  vel:0
        0       midi  ch:0  note off  key:52  vel:0
        24      midi  ch:0  note on  key:38  vel:1
        24      midi  ch:0  note off  key:38  vel:0
        0       midi  ch:0  note on  key:38  vel:1
        24      midi  ch:0  note on  key:36  vel:1
        0       midi  ch:0  note off  key:38  vel:0
        0       midi  ch:0  note on  key:44  vel:1
        0       midi  ch:0  note on  key:49  vel:1
        0       midi  ch:0  note on  key:52  vel:1
        24      midi  ch:0  note off  key:36  vel:0
        0       midi  ch:0  note off  key:44  vel:0
        0       midi  ch:0  note off  key:49  vel:0
        0       midi  ch:0  note off  key:52  vel:0
        72      midi  ch:0  note on  key:36  vel:1
        0       midi  ch:0  note on  key:38  vel:1
        0       midi  ch:0  note on  key:42  vel:1
        24      midi  ch:0  note off  key:36  vel:0
        0       midi  ch:0  note off  key:38  vel:0
        0       midi  ch:0  note off  key:42  vel:0
        72      midi  ch:0  note on  key:36  vel:1
        0       midi  ch:0  note on  key:44  vel:1
        24      midi  ch:0  note off  key:36  vel:0
        0       midi  ch:0  note off  key:44  vel:0
        72      midi  ch:0  note on  key:36  vel:1
        0       midi  ch:0  note on  key:38  vel:1
        0       midi  ch:0  note on  key:42  vel:1
        24      midi  ch:0  note off  key:36  vel:0
        0       midi  ch:0  note off  key:38  vel:0
        0       midi  ch:0  note off  key:42  vel:0
        72      midi  ch:0  note on  key:36  vel:1
        0       midi  ch:0  note on  key:44  vel:1
        24      midi  ch:0  note off  key:36  vel:0
        0       midi  ch:0  note off  key:44  vel:0
        72      midi  ch:0  note on  key:36  vel:1
        0       midi  ch:0  note on  key:38  vel:1
        0       midi  ch:0  note on  key:42  vel:1
        24      midi  ch:0  note off  key:36  vel:0
        0       midi  ch:0  note off  key:38  vel:0
        0       midi  ch:0  note off  key:42  vel:0
        72      midi  ch:0  note on  key:36  vel:1
        0       midi  ch:0  note on  key:44  vel:1
        0       midi  ch:0  note on  key:52  vel:1
        24      midi  ch:0  note off  key:36  vel:0
        0       midi  ch:0  note off  key:44  vel:0
        0       midi  ch:0  note off  key:52  vel:0
        24      midi  ch:0  note on  key:42  vel:1
        24      midi  ch:0  note off  key:42  vel:0
        24      midi  ch:0  note on  key:36  vel:1
        0       midi  ch:0  note on  key:38  vel:1
        0       midi  ch:0  note on  key:48  vel:1
        24      midi  ch:0  note off  key:36  vel:0
        0       midi  ch:0  note off  key:38  vel:0
        0       midi  ch:0  note off  key:48  vel:0
        72      midi  ch:0  note on  key:36  vel:1
        0       midi  ch:0  note on  key:44  vel:1
        24      midi  ch:0  note off  key:36  vel:0
        0       midi  ch:0  note off  key:44  vel:0
        72      midi  ch:0  note on  key:36  vel:1
        0       midi  ch:0  note on  key:38  vel:1
        0       midi  ch:0  note on  key:42  vel:1
        24      midi  ch:0  note off  key:36  vel:0
        0       midi  ch:0  note off  key:38  vel:0
        0       midi  ch:0  note off  key:42  vel:0
        72      midi  ch:0  note on  key:36  vel:1
        0       midi  ch:0  note on  key:44  vel:1
        24      midi  ch:0  note off  key:36  vel:0
        0       midi  ch:0  note off  key:44  vel:0
        72      midi  ch:0  note on  key:36  vel:1
        0       midi  ch:0  note on  key:38  vel:1
        0       midi  ch:0  note on  key:42  vel:1
        24      midi  ch:0  note off  key:36  vel:0
        0       midi  ch:0  note off  key:38  vel:0
        0       midi  ch:0  note off  key:42  vel:0
        72      midi  ch:0  note on  key:36  vel:1
        0       midi  ch:0  note on  key:44  vel:1
        24      midi  ch:0  note off  key:36  vel:0
        0       midi  ch:0  note off  key:44  vel:0
        72      midi  ch:0  note on  key:36  vel:1
        0       midi  ch:0  note on  key:38  vel:1
        0       midi  ch:0  note on  key:42  vel:1
        0       midi  ch:0  note on  key:50  vel:1
        24      midi  ch:0  note off  key:36  vel:0
        0       midi  ch:0  note off  key:38  vel:0
        0       midi  ch:0  note off  key:42  vel:0
        0       midi  ch:0  note off  key:50  vel:0
        72      midi  ch:0  note on  key:36  vel:1
        0       midi  ch:0  note on  key:44  vel:1
        0       midi  ch:0  note on  key:52  vel:1
        24      midi  ch:0  note off  key:36  vel:0
        0       midi  ch:0  note off  key:44  vel:0
        0       midi  ch:0  note off  key:52  vel:0
        24      midi  ch:0  note on  key:46  vel:1
        24      midi  ch:0  note off  key:46  vel:0
        24      midi  ch:0  note on  key:36  vel:1
        0       midi  ch:0  note on  key:38  vel:1
        0       midi  ch:0  note on  key:42  vel:1
        24      midi  ch:0  note off  key:36  vel:0
        0       midi  ch:0  note on  key:36  vel:1
        0       midi  ch:0  note off  key:38  vel:0
        0       midi  ch:0  note off  key:42  vel:0
        24      midi  ch:0  note off  key:36  vel:0
        0       midi  ch:0  note on  key:36  vel:1
        24      midi  ch:0  note off  key:36  vel:0
        0       midi  ch:0  note on  key:38  vel:1
        24      midi  ch:0  note on  key:36  vel:1
        0       midi  ch:0  note off  key:38  vel:0
        0       midi  ch:0  note on  key:46  vel:1
        24      midi  ch:0  note off  key:36  vel:0
        0       midi  ch:0  note off  key:46  vel:0
        72      midi  ch:0  note on  key:36  vel:1
        0       midi  ch:0  note on  key:38  vel:1
        0       midi  ch:0  note on  key:42  vel:1
        24      midi  ch:0  note off  key:36  vel:0
        0       midi  ch:0  note off  key:38  vel:0
        0       midi  ch:0  note off  key:42  vel:0
        72      midi  ch:0  note on  key:36  vel:1
        0       midi  ch:0  note on  key:44  vel:1
        24      midi  ch:0  note off  key:36  vel:0
        0       midi  ch:0  note off  key:44  vel:0
        72      midi  ch:0  note on  key:36  vel:1
        0       midi  ch:0  note on  key:38  vel:1
        0       midi  ch:0  note on  key:42  vel:1
        24      midi  ch:0  note off  key:36  vel:0
        0       midi  ch:0  note off  key:38  vel:0
        0       midi  ch:0  note off  key:42  vel:0
        72      midi  ch:0  note on  key:36  vel:1
        0       midi  ch:0  note on  key:46  vel:1
        24      midi  ch:0  note off  key:36  vel:0
        0       midi  ch:0  note off  key:46  vel:0
        24      midi  ch:0  note on  key:42  vel:1
        24      midi  ch:0  note off  key:42  vel:0
        24      midi  ch:0  note on  key:36  vel:1
        0       midi  ch:0  note on  key:38  vel:1
        0       midi  ch:0  note on  key:42  vel:1
        24      midi  ch:0  note off  key:36  vel:0
        0       midi  ch:0  note off  key:38  vel:0
        0       midi  ch:0  note off  key:42  vel:0
        24      midi  ch:0  note on  key:46  vel:1
        24      midi  ch:0  note off  key:46  vel:0
        24      midi  ch:0  note on  key:36  vel:1
        0       midi  ch:0  note on  key:44  vel:1
        0       midi  ch:0  note on  key:52  vel:1
        24      midi  ch:0  note off  key:36  vel:0
        0       midi  ch:0  note off  key:44  vel:0
        0       midi  ch:0  note off  key:52  vel:0
        72      midi  ch:0  note on  key:36  vel:1
        0       midi  ch:0  note on  key:38  vel:1
        0       midi  ch:0  note on  key:42  vel:1
        0       midi  ch:0  note on  key:52  vel:1
        24      midi  ch:0  note off  key:36  vel:0
        0       midi  ch:0  note off  key:38  vel:0
        0       midi  ch:0  note off  key:42  vel:0
        0       midi  ch:0  note off  key:52  vel:0
        72      midi  ch:0  note on  key:36  vel:1
        0       midi  ch:0  note on  key:44  vel:1
        0       midi  ch:0  note on  key:52  vel:1
        24      midi  ch:0  note off  key:36  vel:0
        0       midi  ch:0  note off  key:44  vel:0
        0       midi  ch:0  note off  key:52  vel:0
        72      midi  ch:0  note on  key:36  vel:1
        0       midi  ch:0  note on  key:38  vel:1
        0       midi  ch:0  note on  key:42  vel:1
        24      midi  ch:0  note off  key:36  vel:0
        0       midi  ch:0  note off  key:38  vel:0
        0       midi  ch:0  note off  key:42  vel:0
        72      midi  ch:0  note on  key:36  vel:1
        0       midi  ch:0  note on  key:44  vel:1
        24      midi  ch:0  note off  key:36  vel:0
        0       midi  ch:0  note off  key:44  vel:0
        72      midi  ch:0  note on  key:36  vel:1
        0       midi  ch:0  note on  key:38  vel:1
        0       midi  ch:0  note on  key:42  vel:1
        0       midi  ch:0  note on  key:50  vel:1
        24      midi  ch:0  note off  key:36  vel:0
        0       midi  ch:0  note off  key:38  vel:0
        0       midi  ch:0  note off  key:42  vel:0
        0       midi  ch:0  note off  key:50  vel:0
        72      midi  ch:0  note on  key:36  vel:1
        0       midi  ch:0  note on  key:44  vel:1
        24      midi  ch:0  note off  key:36  vel:0
        0       midi  ch:0  note off  key:44  vel:0
        72      midi  ch:0  note on  key:36  vel:1
        0       midi  ch:0  note on  key:38  vel:1
        0       midi  ch:0  note on  key:42  vel:1
        24      midi  ch:0  note off  key:36  vel:0
        0       midi  ch:0  note off  key:38  vel:0
        0       midi  ch:0  note off  key:42  vel:0
        72      midi  ch:0  note on  key:36  vel:1
        0       midi  ch:0  note on  key:38  vel:1
        0       midi  ch:0  note on  key:44  vel:1
        24      midi  ch:0  note off  key:36  vel:0
        0       midi  ch:0  note on  key:36  vel:1
        0       midi  ch:0  note off  key:38  vel:0
        0       midi  ch:0  note off  key:44  vel:0
        24      midi  ch:0  note off  key:36  vel:0
        0       midi  ch:0  note on  key:36  vel:1
        24      midi  ch:0  note off  key:36  vel:0
        0       midi  ch:0  note on  key:38  vel:1
        24      midi  ch:0  note on  key:36  vel:1
        0       midi  ch:0  note off  key:38  vel:0
        0       midi  ch:0  note on  key:46  vel:1
        24      midi  ch:0  note off  key:36  vel:0
        0       midi  ch:0  note on  key:36  vel:1
        0       midi  ch:0  note off  key:46  vel:0
        24      midi  ch:0  note off  key:36  vel:0
        0       midi  ch:0  note on  key:38  vel:1
        24      midi  ch:0  note off  key:38  vel:0
        24      midi  ch:0  note on  key:36  vel:1
        0       midi  ch:0  note on  key:44  vel:1
        0       midi  ch:0  note on  key:49  vel:1
        0       midi  ch:0  note on  key:52  vel:1
        24      midi  ch:0  note off  key:36  vel:0
        0       midi  ch:0  note off  key:44  vel:0
        0       midi  ch:0  note off  key:49  vel:0
        0       midi  ch:0  note off  key:52  vel:0
        72      midi  ch:0  note on  key:36  vel:1
        0       midi  ch:0  note on  key:38  vel:1
        0       midi  ch:0  note on  key:42  vel:1
        24      midi  ch:0  note off  key:36  vel:0
        0       midi  ch:0  note off  key:38  vel:0
        0       midi  ch:0  note off  key:42  vel:0
        72      midi  ch:0  note on  key:36  vel:1
        0       midi  ch:0  note on  key:44  vel:1
        24      midi  ch:0  note off  key:36  vel:0
        0       midi  ch:0  note off  key:44  vel:0
        72      midi  ch:0  note on  key:36  vel:1
        0       midi  ch:0  note on  key:38  vel:1
        0       midi  ch:0  note on  key:42  vel:1
        24      midi  ch:0  note off  key:36  vel:0
        0       midi  ch:0  note off  key:38  vel:0
        0       midi  ch:0  note off  key:42  vel:0
        72      midi  ch:0  note on  key:36  vel:1
        0       midi  ch:0  note on  key:44  vel:1
        24      midi  ch:0  note off  key:36  vel:0
        0       midi  ch:0  note off  key:44  vel:0
        72      midi  ch:0  note on  key:36  vel:1
        0       midi  ch:0  note on  key:38  vel:1
        0       midi  ch:0  note on  key:42  vel:1
        24      midi  ch:0  note off  key:36  vel:0
        0       midi  ch:0  note off  key:38  vel:0
        0       midi  ch:0  note off  key:42  vel:0
        72      midi  ch:0  note on  key:36  vel:1
        0       midi  ch:0  note on  key:44  vel:1
        0       midi  ch:0  note on  key:52  vel:1
        24      midi  ch:0  note off  key:36  vel:0
        0       midi  ch:0  note off  key:44  vel:0
        0       midi  ch:0  note off  key:52  vel:0
        24      midi  ch:0  note on  key:42  vel:1
        24      midi  ch:0  note off  key:42  vel:0
        24      midi  ch:0  note on  key:36  vel:1
        0       midi  ch:0  note on  key:38  vel:1
        0       midi  ch:0  note on  key:48  vel:1
        24      midi  ch:0  note off  key:36  vel:0
        0       midi  ch:0  note off  key:38  vel:0
        0       midi  ch:0  note off  key:48  vel:0
        72      midi  ch:0  note on  key:36  vel:1
        0       midi  ch:0  note on  key:44  vel:1
        24      midi  ch:0  note off  key:36  vel:0
        0       midi  ch:0  note off  key:44  vel:0
        72      midi  ch:0  note on  key:36  vel:1
        0       midi  ch:0  note on  key:38  vel:1
        0       midi  ch:0  note on  key:42  vel:1
        24      midi  ch:0  note off  key:36  vel:0
        0       midi  ch:0  note off  key:38  vel:0
        0       midi  ch:0  note off  key:42  vel:0
        72      midi  ch:0  note on  key:36  vel:1
        0       midi  ch:0  note on  key:44  vel:1
        24      midi  ch:0  note off  key:36  vel:0
        0       midi  ch:0  note off  key:44  vel:0
        72      midi  ch:0  note on  key:36  vel:1
        0       midi  ch:0  note on  key:38  vel:1
        0       midi  ch:0  note on  key:42  vel:1
        24      midi  ch:0  note off  key:36  vel:0
        0       midi  ch:0  note off  key:38  vel:0
        0       midi  ch:0  note off  key:42  vel:0
        72      midi  ch:0  note on  key:36  vel:1
        0       midi  ch:0  note on  key:44  vel:1
        24      midi  ch:0  note off  key:36  vel:0
        0       midi  ch:0  note off  key:44  vel:0
        72      midi  ch:0  note on  key:36  vel:1
        0       midi  ch:0  note on  key:38  vel:1
        0       midi  ch:0  note on  key:42  vel:1
        0       midi  ch:0  note on  key:50  vel:1
        24      midi  ch:0  note off  key:36  vel:0
        0       midi  ch:0  note off  key:38  vel:0
        0       midi  ch:0  note off  key:42  vel:0
        0       midi  ch:0  note off  key:50  vel:0
        72      midi  ch:0  note on  key:36  vel:1
        0       midi  ch:0  note on  key:44  vel:1
        0       midi  ch:0  note on  key:52  vel:1
        24      midi  ch:0  note off  key:36  vel:0
        0       midi  ch:0  note off  key:44  vel:0
        0       midi  ch:0  note off  key:52  vel:0
        24      midi  ch:0  note on  key:46  vel:1
        24      midi  ch:0  note off  key:46  vel:0
        24      midi  ch:0  note on  key:36  vel:1
        0       midi  ch:0  note on  key:38  vel:1
        0       midi  ch:0  note on  key:42  vel:1
        24      midi  ch:0  note off  key:36  vel:0
        0       midi  ch:0  note on  key:36  vel:1
        0       midi  ch:0  note off  key:38  vel:0
        0       midi  ch:0  note off  key:42  vel:0
        24      midi  ch:0  note off  key:36  vel:0
        0       midi  ch:0  note on  key:36  vel:1
        24      midi  ch:0  note off  key:36  vel:0
        0       midi  ch:0  note on  key:38  vel:1
        24      midi  ch:0  note on  key:36  vel:1
        0       midi  ch:0  note off  key:38  vel:0
        0       midi  ch:0  note on  key:46  vel:1
        24      midi  ch:0  note off  key:36  vel:0
        0       midi  ch:0  note off  key:46  vel:0
        72      midi  ch:0  note on  key:36  vel:1
        0       midi  ch:0  note on  key:38  vel:1
        0       midi  ch:0  note on  key:42  vel:1
        24      midi  ch:0  note off  key:36  vel:0
        0       midi  ch:0  note off  key:38  vel:0
        0       midi  ch:0  note off  key:42  vel:0
        72      midi  ch:0  note on  key:36  vel:1
        0       midi  ch:0  note on  key:44  vel:1
        24      midi  ch:0  note off  key:36  vel:0
        0       midi  ch:0  note off  key:44  vel:0
        72      midi  ch:0  note on  key:36  vel:1
        0       midi  ch:0  note on  key:38  vel:1
        0       midi  ch:0  note on  key:42  vel:1
        24      midi  ch:0  note off  key:36  vel:0
        0       midi  ch:0  note off  key:38  vel:0
        0       midi  ch:0  note off  key:42  vel:0
        72      midi  ch:0  note on  key:36  vel:1
        0       midi  ch:0  note on  key:46  vel:1
        24      midi  ch:0  note off  key:36  vel:0
        0       midi  ch:0  note off  key:46  vel:0
        24      midi  ch:0  note on  key:42  vel:1
        24      midi  ch:0  note off  key:42  vel:0
        24      midi  ch:0  note on  key:36  vel:1
        0       midi  ch:0  note on  key:38  vel:1
        0       midi  ch:0  note on  key:42  vel:1
        24      midi  ch:0  note off  key:36  vel:0
        0       midi  ch:0  note off  key:38  vel:0
        0       midi  ch:0  note off  key:42  vel:0
        24      midi  ch:0  note on  key:46  vel:1
        24      midi  ch:0  note off  key:46  vel:0
        24      midi  ch:0  note on  key:36  vel:1
        0       midi  ch:0  note on  key:44  vel:1
        0       midi  ch:0  note on  key:52  vel:1
        24      midi  ch:0  note off  key:36  vel:0
        0       midi  ch:0  note off  key:44  vel:0
        0       midi  ch:0  note off  key:52  vel:0
        72      midi  ch:0  note on  key:36  vel:1
        0       midi  ch:0  note on  key:38  vel:1
        0       midi  ch:0  note on  key:42  vel:1
        0       midi  ch:0  note on  key:52  vel:1
        24      midi  ch:0  note off  key:36  vel:0
        0       midi  ch:0  note off  key:38  vel:0
        0       midi  ch:0  note off  key:42  vel:0
        0       midi  ch:0  note off  key:52  vel:0
        72      midi  ch:0  note on  key:36  vel:1
        0       midi  ch:0  note on  key:44  vel:1
        0       midi  ch:0  note on  key:52  vel:1
        24      midi  ch:0  note off  key:36  vel:0
        0       midi  ch:0  note off  key:44  vel:0
        0       midi  ch:0  note off  key:52  vel:0
        72      midi  ch:0  note on  key:36  vel:1
        0       midi  ch:0  note on  key:38  vel:1
        0       midi  ch:0  note on  key:42  vel:1
        24      midi  ch:0  note off  key:36  vel:0
        0       midi  ch:0  note off  key:38  vel:0
        0       midi  ch:0  note off  key:42  vel:0
        72      midi  ch:0  note on  key:36  vel:1
        0       midi  ch:0  note on  key:44  vel:1
        24      midi  ch:0  note off  key:36  vel:0
        0       midi  ch:0  note off  key:44  vel:0
        72      midi  ch:0  note on  key:36  vel:1
        0       midi  ch:0  note on  key:38  vel:1
        0       midi  ch:0  note on  key:42  vel:1
        0       midi  ch:0  note on  key:50  vel:1
        24      midi  ch:0  note off  key:36  vel:0
        0       midi  ch:0  note off  key:38  vel:0
        0       midi  ch:0  note off  key:42  vel:0
        0       midi  ch:0  note off  key:50  vel:0
        72      midi  ch:0  note on  key:36  vel:1
        0       midi  ch:0  note on  key:44  vel:1
        24      midi  ch:0  note off  key:36  vel:0
        0       midi  ch:0  note off  key:44  vel:0
        72      midi  ch:0  note on  key:36  vel:1
        0       midi  ch:0  note on  key:38  vel:1
        0       midi  ch:0  note on  key:42  vel:1
        24      midi  ch:0  note off  key:36  vel:0
        0       midi  ch:0  note off  key:38  vel:0
        0       midi  ch:0  note off  key:42  vel:0
        72      midi  ch:0  note on  key:36  vel:1
        0       midi  ch:0  note on  key:38  vel:1
        0       midi  ch:0  note on  key:44  vel:1
        24      midi  ch:0  note off  key:36  vel:0
        0       midi  ch:0  note on  key:36  vel:1
        0       midi  ch:0  note off  key:38  vel:0
        0       midi  ch:0  note off  key:44  vel:0
        24      midi  ch:0  note off  key:36  vel:0
        0       midi  ch:0  note on  key:36  vel:1
        24      midi  ch:0  note off  key:36  vel:0
        0       midi  ch:0  note on  key:38  vel:1
        24      midi  ch:0  note on  key:36  vel:1
        0       midi  ch:0  note off  key:38  vel:0
        0       midi  ch:0  note on  key:46  vel:1
        24      midi  ch:0  note off  key:36  vel:0
        0       midi  ch:0  note on  key:36  vel:1
        0       midi  ch:0  note off  key:46  vel:0
        24      midi  ch:0  note off  key:36  vel:0
        0       midi  ch:0  note on  key:38  vel:1
        24      midi  ch:0  note off  key:38  vel:0
        24      midi  ch:0  note on  key:36  vel:1
        0       midi  ch:0  note on  key:44  vel:1
        0       midi  ch:0  note on  key:49  vel:1
        24      midi  ch:0  note off  key:36  vel:0
        0       midi  ch:0  note off  key:44  vel:0
        0       midi  ch:0  note off  key:49  vel:0
        72      midi  ch:0  note on  key:36  vel:1
        0       midi  ch:0  note on  key:38  vel:1
        0       midi  ch:0  note on  key:42  vel:1
        24      midi  ch:0  note off  key:36  vel:0
        0       midi  ch:0  note off  key:38  vel:0
        0       midi  ch:0  note off  key:42  vel:0
        72      midi  ch:0  note on  key:36  vel:1
        0       midi  ch:0  note on  key:44  vel:1
        24      midi  ch:0  note off  key:36  vel:0
        0       midi  ch:0  note off  key:44  vel:0
        72      midi  ch:0  note on  key:36  vel:1
        0       midi  ch:0  note on  key:38  vel:1
        0       midi  ch:0  note on  key:42  vel:1
        24      midi  ch:0  note off  key:36  vel:0
        0       midi  ch:0  note off  key:38  vel:0
        0       midi  ch:0  note off  key:42  vel:0
        72      midi  ch:0  note on  key:36  vel:1
        0       midi  ch:0  note on  key:44  vel:1
        24      midi  ch:0  note off  key:36  vel:0
        0       midi  ch:0  note off  key:44  vel:0
        72      midi  ch:0  note on  key:36  vel:1
        0       midi  ch:0  note on  key:38  vel:1
        0       midi  ch:0  note on  key:42  vel:1
        24      midi  ch:0  note off  key:36  vel:0
        0       midi  ch:0  note off  key:38  vel:0
        0       midi  ch:0  note off  key:42  vel:0
        72      midi  ch:0  note on  key:36  vel:1
        0       midi  ch:0  note on  key:44  vel:1
        24      midi  ch:0  note off  key:36  vel:0
        0       midi  ch:0  note off  key:44  vel:0
        24      midi  ch:0  note on  key:42  vel:1
        24      midi  ch:0  note off  key:42  vel:0
        24      midi  ch:0  note on  key:36  vel:1
        0       midi  ch:0  note on  key:38  vel:1
        0       midi  ch:0  note on  key:48  vel:1
        24      midi  ch:0  note off  key:36  vel:0
        0       midi  ch:0  note off  key:38  vel:0
        0       midi  ch:0  note off  key:48  vel:0
        72      midi  ch:0  note on  key:36  vel:1
        0       midi  ch:0  note on  key:44  vel:1
        24      midi  ch:0  note off  key:36  vel:0
        0       midi  ch:0  note off  key:44  vel:0
        72      midi  ch:0  note on  key:36  vel:1
        0       midi  ch:0  note on  key:38  vel:1
        0       midi  ch:0  note on  key:42  vel:1
        24      midi  ch:0  note off  key:36  vel:0
        0       midi  ch:0  note off  key:38  vel:0
        0       midi  ch:0  note off  key:42  vel:0
        72      midi  ch:0  note on  key:36  vel:1
        0       midi  ch:0  note on  key:44  vel:1
        24      midi  ch:0  note off  key:36  vel:0
        0       midi  ch:0  note off  key:44  vel:0
        72      midi  ch:0  note on  key:36  vel:1
        0       midi  ch:0  note on  key:38  vel:1
        0       midi  ch:0  note on  key:42  vel:1
        24      midi  ch:0  note off  key:36  vel:0
        0       midi  ch:0  note off  key:38  vel:0
        0       midi  ch:0  note off  key:42  vel:0
        72      midi  ch:0  note on  key:36  vel:1
        0       midi  ch:0  note on  key:44  vel:1
        24      midi  ch:0  note off  key:36  vel:0
        0       midi  ch:0  note off  key:44  vel:0
        72      midi  ch:0  note on  key:36  vel:1
        0       midi  ch:0  note on  key:38  vel:1
        0       midi  ch:0  note on  key:42  vel:1
        0       midi  ch:0  note on  key:50  vel:1
        24      midi  ch:0  note off  key:36  vel:0
        0       midi  ch:0  note off  key:38  vel:0
        0       midi  ch:0  note off  key:42  vel:0
        0       midi  ch:0  note off  key:50  vel:0
        72      midi  ch:0  note on  key:36  vel:1
        0       midi  ch:0  note on  key:44  vel:1
        24      midi  ch:0  note off  key:36  vel:0
        0       midi  ch:0  note off  key:44  vel:0
        24      midi  ch:0  note on  key:46  vel:1
        24      midi  ch:0  note off  key:46  vel:0
        24      midi  ch:0  note on  key:36  vel:1
        0       midi  ch:0  note on  key:38  vel:1
        0       midi  ch:0  note on  key:42  vel:1
        24      midi  ch:0  note off  key:36  vel:0
        0       midi  ch:0  note on  key:36  vel:1
        0       midi  ch:0  note off  key:38  vel:0
        0       midi  ch:0  note off  key:42  vel:0
        24      midi  ch:0  note off  key:36  vel:0
        0       midi  ch:0  note on  key:36  vel:1
        24      midi  ch:0  note off  key:36  vel:0
        0       midi  ch:0  note on  key:38  vel:1
        24      midi  ch:0  note on  key:36  vel:1
        0       midi  ch:0  note off  key:38  vel:0
        0       midi  ch:0  note on  key:46  vel:1
        24      midi  ch:0  note off  key:36  vel:0
        0       midi  ch:0  note off  key:46  vel:0
        72      midi  ch:0  note on  key:36  vel:1
        0       midi  ch:0  note on  key:38  vel:1
        0       midi  ch:0  note on  key:42  vel:1
        24      midi  ch:0  note off  key:36  vel:0
        0       midi  ch:0  note off  key:38  vel:0
        0       midi  ch:0  note off  key:42  vel:0
        72      midi  ch:0  note on  key:36  vel:1
        0       midi  ch:0  note on  key:44  vel:1
        24      midi  ch:0  note off  key:36  vel:0
        0       midi  ch:0  note off  key:44  vel:0
        72      midi  ch:0  note on  key:36  vel:1
        0       midi  ch:0  note on  key:38  vel:1
        0       midi  ch:0  note on  key:42  vel:1
        24      midi  ch:0  note off  key:36  vel:0
        0       midi  ch:0  note off  key:38  vel:0
        0       midi  ch:0  note off  key:42  vel:0
        72      midi  ch:0  note on  key:36  vel:1
        0       midi  ch:0  note on  key:46  vel:1
        24      midi  ch:0  note off  key:36  vel:0
        0       midi  ch:0  note off  key:46  vel:0
        24      midi  ch:0  note on  key:42  vel:1
        24      midi  ch:0  note off  key:42  vel:0
        24      midi  ch:0  note on  key:36  vel:1
        0       midi  ch:0  note on  key:38  vel:1
        0       midi  ch:0  note on  key:42  vel:1
        24      midi  ch:0  note off  key:36  vel:0
        0       midi  ch:0  note off  key:38  vel:0
        0       midi  ch:0  note off  key:42  vel:0
        24      midi  ch:0  note on  key:46  vel:1
        24      midi  ch:0  note off  key:46  vel:0
        24      midi  ch:0  note on  key:36  vel:1
        0       midi  ch:0  note on  key:44  vel:1
        24      midi  ch:0  note off  key:36  vel:0
        0       midi  ch:0  note off  key:44  vel:0
        72      midi  ch:0  note on  key:36  vel:1
        0       midi  ch:0  note on  key:38  vel:1
        0       midi  ch:0  note on  key:42  vel:1
        24      midi  ch:0  note off  key:36  vel:0
        0       midi  ch:0  note off  key:38  vel:0
        0       midi  ch:0  note off  key:42  vel:0
        72      midi  ch:0  note on  key:36  vel:1
        0       midi  ch:0  note on  key:44  vel:1
        24      midi  ch:0  note off  key:36  vel:0
        0       midi  ch:0  note off  key:44  vel:0
        72      midi  ch:0  note on  key:36  vel:1
        0       midi  ch:0  note on  key:38  vel:1
        0       midi  ch:0  note on  key:42  vel:1
        24      midi  ch:0  note off  key:36  vel:0
        0       midi  ch:0  note off  key:38  vel:0
        0       midi  ch:0  note off  key:42  vel:0
        72      midi  ch:0  note on  key:36  vel:1
        0       midi  ch:0  note on  key:44  vel:1
        24      midi  ch:0  note off  key:36  vel:0
        0       midi  ch:0  note off  key:44  vel:0
        72      midi  ch:0  note on  key:36  vel:1
        0       midi  ch:0  note on  key:38  vel:1
        0       midi  ch:0  note on  key:42  vel:1
        0       midi  ch:0  note on  key:50  vel:1
        24      midi  ch:0  note off  key:36  vel:0
        0       midi  ch:0  note off  key:38  vel:0
        0       midi  ch:0  note off  key:42  vel:0
        0       midi  ch:0  note off  key:50  vel:0
        72      midi  ch:0  note on  key:36  vel:1
        0       midi  ch:0  note on  key:44  vel:1
        24      midi  ch:0  note off  key:36  vel:0
        0       midi  ch:0  note off  key:44  vel:0
        72      midi  ch:0  note on  key:36  vel:1
        0       midi  ch:0  note on  key:38  vel:1
        0       midi  ch:0  note on  key:42  vel:1
        24      midi  ch:0  note off  key:36  vel:0
        0       midi  ch:0  note off  key:38  vel:0
        0       midi  ch:0  note off  key:42  vel:0
        72      midi  ch:0  note on  key:36  vel:1
        0       midi  ch:0  note on  key:38  vel:1
        0       midi  ch:0  note on  key:44  vel:1
        24      midi  ch:0  note off  key:36  vel:0
        0       midi  ch:0  note on  key:36  vel:1
        0       midi  ch:0  note off  key:38  vel:0
        0       midi  ch:0  note off  key:44  vel:0
        24      midi  ch:0  note off  key:36  vel:0
        0       midi  ch:0  note on  key:36  vel:1
        24      midi  ch:0  note off  key:36  vel:0
        0       midi  ch:0  note on  key:38  vel:1
        24      midi  ch:0  note on  key:36  vel:1
        0       midi  ch:0  note off  key:38  vel:0
        0       midi  ch:0  note on  key:46  vel:1
        24      midi  ch:0  note off  key:36  vel:0
        0       midi  ch:0  note on  key:36  vel:1
        0       midi  ch:0  note off  key:46  vel:0
        24      midi  ch:0  note off  key:36  vel:0
        0       midi  ch:0  note on  key:38  vel:1
        24      midi  ch:0  note off  key:38  vel:0
        24      midi  ch:0  note on  key:36  vel:1
        0       midi  ch:0  note on  key:44  vel:1
        0       midi  ch:0  note on  key:49  vel:1
        24      midi  ch:0  note off  key:36  vel:0
        0       midi  ch:0  note off  key:44  vel:0
        0       midi  ch:0  note off  key:49  vel:0
        72      midi  ch:0  note on  key:36  vel:1
        0       midi  ch:0  note on  key:38  vel:1
        0       midi  ch:0  note on  key:42  vel:1
        24      midi  ch:0  note off  key:36  vel:0
        0       midi  ch:0  note off  key:38  vel:0
        0       midi  ch:0  note off  key:42  vel:0
        72      midi  ch:0  note on  key:36  vel:1
        0       midi  ch:0  note on  key:44  vel:1
        24      midi  ch:0  note off  key:36  vel:0
        0       midi  ch:0  note off  key:44  vel:0
        72      midi  ch:0  note on  key:36  vel:1
        0       midi  ch:0  note on  key:38  vel:1
        0       midi  ch:0  note on  key:42  vel:1
        24      midi  ch:0  note off  key:36  vel:0
        0       midi  ch:0  note off  key:38  vel:0
        0       midi  ch:0  note off  key:42  vel:0
        72      midi  ch:0  note on  key:36  vel:1
        0       midi  ch:0  note on  key:44  vel:1
        24      midi  ch:0  note off  key:36  vel:0
        0       midi  ch:0  note off  key:44  vel:0
        72      midi  ch:0  note on  key:36  vel:1
        0       midi  ch:0  note on  key:38  vel:1
        0       midi  ch:0  note on  key:42  vel:1
        24      midi  ch:0  note off  key:36  vel:0
        0       midi  ch:0  note off  key:38  vel:0
        0       midi  ch:0  note off  key:42  vel:0
        72      midi  ch:0  note on  key:36  vel:1
        0       midi  ch:0  note on  key:44  vel:1
        24      midi  ch:0  note off  key:36  vel:0
        0       midi  ch:0  note off  key:44  vel:0
        24      midi  ch:0  note on  key:42  vel:1
        24      midi  ch:0  note off  key:42  vel:0
        24      midi  ch:0  note on  key:36  vel:1
        0       midi  ch:0  note on  key:38  vel:1
        0       midi  ch:0  note on  key:48  vel:1
        24      midi  ch:0  note off  key:36  vel:0
        0       midi  ch:0  note off  key:38  vel:0
        0       midi  ch:0  note off  key:48  vel:0
        72      midi  ch:0  note on  key:36  vel:1
        0       midi  ch:0  note on  key:44  vel:1
        24      midi  ch:0  note off  key:36  vel:0
        0       midi  ch:0  note off  key:44  vel:0
        72      midi  ch:0  note on  key:36  vel:1
        0       midi  ch:0  note on  key:38  vel:1
        0       midi  ch:0  note on  key:42  vel:1
        24      midi  ch:0  note off  key:36  vel:0
        0       midi  ch:0  note off  key:38  vel:0
        0       midi  ch:0  note off  key:42  vel:0
        72      midi  ch:0  note on  key:36  vel:1
        0       midi  ch:0  note on  key:44  vel:1
        24      midi  ch:0  note off  key:36  vel:0
        0       midi  ch:0  note off  key:44  vel:0
        72      midi  ch:0  note on  key:36  vel:1
        0       midi  ch:0  note on  key:38  vel:1
        0       midi  ch:0  note on  key:42  vel:1
        24      midi  ch:0  note off  key:36  vel:0
        0       midi  ch:0  note off  key:38  vel:0
        0       midi  ch:0  note off  key:42  vel:0
        72      midi  ch:0  note on  key:36  vel:1
        0       midi  ch:0  note on  key:44  vel:1
        24      midi  ch:0  note off  key:36  vel:0
        0       midi  ch:0  note off  key:44  vel:0
        72      midi  ch:0  note on  key:36  vel:1
        0       midi  ch:0  note on  key:38  vel:1
        0       midi  ch:0  note on  key:42  vel:1
        0       midi  ch:0  note on  key:50  vel:1
        24      midi  ch:0  note off  key:36  vel:0
        0       midi  ch:0  note off  key:38  vel:0
        0       midi  ch:0  note off  key:42  vel:0
        0       midi  ch:0  note off  key:50  vel:0
        72      midi  ch:0  note on  key:36  vel:1
        0       midi  ch:0  note on  key:44  vel:1
        24      midi  ch:0  note off  key:36  vel:0
        0       midi  ch:0  note off  key:44  vel:0
        24      midi  ch:0  note on  key:46  vel:1
        24      midi  ch:0  note off  key:46  vel:0
        24      midi  ch:0  note on  key:36  vel:1
        0       midi  ch:0  note on  key:38  vel:1
        0       midi  ch:0  note on  key:42  vel:1
        24      midi  ch:0  note off  key:36  vel:0
        0       midi  ch:0  note off  key:38  vel:0
        0       midi  ch:0  note off  key:42  vel:0
        24      midi  ch:0  note on  key:36  vel:1
        24      midi  ch:0  note off  key:36  vel:0
        0       midi  ch:0  note on  key:38  vel:1
        24      midi  ch:0  note on  key:36  vel:1
        0       midi  ch:0  note off  key:38  vel:0
        0       midi  ch:0  note on  key:46  vel:1
        24      midi  ch:0  note off  key:36  vel:0
        0       midi  ch:0  note off  key:46  vel:0
        72      midi  ch:0  note on  key:36  vel:1
        0       midi  ch:0  note on  key:38  vel:1
        0       midi  ch:0  note on  key:42  vel:1
        24      midi  ch:0  note off  key:36  vel:0
        0       midi  ch:0  note off  key:38  vel:0
        0       midi  ch:0  note off  key:42  vel:0
        72      midi  ch:0  note on  key:36  vel:1
        0       midi  ch:0  note on  key:44  vel:1
        24      midi  ch:0  note off  key:36  vel:0
        0       midi  ch:0  note off  key:44  vel:0
        72      midi  ch:0  note on  key:36  vel:1
        0       midi  ch:0  note on  key:38  vel:1
        0       midi  ch:0  note on  key:42  vel:1
        24      midi  ch:0  note off  key:36  vel:0
        0       midi  ch:0  note off  key:38  vel:0
        0       midi  ch:0  note off  key:42  vel:0
        72      midi  ch:0  note on  key:36  vel:1
        0       midi  ch:0  note on  key:46  vel:1
        24      midi  ch:0  note off  key:36  vel:0
        0       midi  ch:0  note off  key:46  vel:0
        24      midi  ch:0  note on  key:42  vel:1
        24      midi  ch:0  note off  key:42  vel:0
        24      midi  ch:0  note on  key:36  vel:1
        0       midi  ch:0  note on  key:38  vel:1
        0       midi  ch:0  note on  key:42  vel:1
        24      midi  ch:0  note off  key:36  vel:0
        0       midi  ch:0  note off  key:38  vel:0
        0       midi  ch:0  note off  key:42  vel:0
        24      midi  ch:0  note on  key:46  vel:1
        24      midi  ch:0  note off  key:46  vel:0
        24      midi  ch:0  note on  key:36  vel:1
        0       midi  ch:0  note on  key:44  vel:1
        24      midi  ch:0  note off  key:36  vel:0
        0       midi  ch:0  note off  key:44  vel:0
        72      midi  ch:0  note on  key:36  vel:1
        0       midi  ch:0  note on  key:38  vel:1
        0       midi  ch:0  note on  key:42  vel:1
        24      midi  ch:0  note off  key:36  vel:0
        0       midi  ch:0  note off  key:38  vel:0
        0       midi  ch:0  note off  key:42  vel:0
        72      midi  ch:0  note on  key:36  vel:1
        0       midi  ch:0  note on  key:44  vel:1
        24      midi  ch:0  note off  key:36  vel:0
        0       midi  ch:0  note off  key:44  vel:0
        72      midi  ch:0  note on  key:36  vel:1
        0       midi  ch:0  note on  key:38  vel:1
        0       midi  ch:0  note on  key:42  vel:1
        24      midi  ch:0  note off  key:36  vel:0
        0       midi  ch:0  note off  key:38  vel:0
        0       midi  ch:0  note off  key:42  vel:0
        72      midi  ch:0  note on  key:36  vel:1
        0       midi  ch:0  note on  key:44  vel:1
        24      midi  ch:0  note off  key:36  vel:0
        0       midi  ch:0  note off  key:44  vel:0
        72      midi  ch:0  note on  key:36  vel:1
        0       midi  ch:0  note on  key:38  vel:1
        0       midi  ch:0  note on  key:42  vel:1
        0       midi  ch:0  note on  key:50  vel:1
        24      midi  ch:0  note off  key:36  vel:0
        0       midi  ch:0  note off  key:38  vel:0
        0       midi  ch:0  note off  key:42  vel:0
        0       midi  ch:0  note off  key:50  vel:0
        72      midi  ch:0  note on  key:36  vel:1
        0       midi  ch:0  note on  key:44  vel:1
        24      midi  ch:0  note off  key:36  vel:0
        0       midi  ch:0  note off  key:44  vel:0
        72      midi  ch:0  note on  key:36  vel:1
        0       midi  ch:0  note on  key:38  vel:1
        0       midi  ch:0  note on  key:42  vel:1
        24      midi  ch:0  note off  key:36  vel:0
        0       midi  ch:0  note off  key:38  vel:0
        0       midi  ch:0  note off  key:42  vel:0
        72      midi  ch:0  note on  key:36  vel:1
        0       midi  ch:0  note on  key:38  vel:1
        0       midi  ch:0  note on  key:44  vel:1
        24      midi  ch:0  note off  key:36  vel:0
        0       midi  ch:0  note off  key:38  vel:0
        0       midi  ch:0  note off  key:44  vel:0
        48      midi  ch:0  note on  key:38  vel:1
        24      midi  ch:0  note off  key:38  vel:0
        0       midi  ch:0  note on  key:46  vel:1
        24      midi  ch:0  note off  key:46  vel:0
        24      midi  ch:0  note on  key:38  vel:1
        24      midi  ch:0  note off  key:38  vel:0
        43      meta  type:2f  len:0  end
-----------------------------------------------------------
